<?xml version="1.0" encoding="utf-8"?>
<!-- Generator: Adobe Illustrator 19.1.0, SVG Export Plug-In . SVG Version: 6.00 Build 0)  -->
<svg version="1.1" id="Calque_1" xmlns="http://www.w3.org/2000/svg" xmlns:xlink="http://www.w3.org/1999/xlink" x="0px" y="0px"
	 viewBox="194 -293 595.3 841.9" style="enable-background:new 194 -293 595.3 841.9;" xml:space="preserve">
<style type="text/css">
	.st0{fill:url(#SVGID_1_);}
	.st1{fill:none;stroke:#333333;stroke-width:5;stroke-miterlimit:10;}
	.st2{fill:none;stroke:#282828;stroke-miterlimit:10;}
	.st3{fill:#282828;}
	.st4{fill:#212121;}
	.st5{font-family:'Arial'; font-weight:bold;}
	.st6{font-size:26px;}
	.st7{fill:#353535;}
	.st8{display:none;}
	.st9{display:inline;}
	.st10{fill:#1E1E1E;}
	.st11{fill:none;stroke:#FFFFFF;stroke-width:2;stroke-miterlimit:10;}
	.st12{fill:#FFFFFF;}
</style>
<g id="Calque_14">
	
		<radialGradient id="SVGID_1_" cx="491.15" cy="131.9" r="169.6" gradientTransform="matrix(1 0 0 1 0 -3.9)" gradientUnits="userSpaceOnUse">
		<stop  offset="0" style="stop-color:#DCFFAB"/>
		<stop  offset="1" style="stop-color:#B7D685"/>
	</radialGradient>
	<circle class="st0" cx="491.1" cy="128" r="169.6"/>
</g>
<g id="grille">
	<line class="st1" x1="629.5" y1="128" x2="352.8" y2="128"/>
	<line class="st1" x1="491.1" y1="-9.4" x2="491.1" y2="265.4"/>
</g>
<g id="cercles">
	<circle class="st2" cx="491.1" cy="128" r="138.3"/>
	<circle class="st3" cx="491.1" cy="128" r="15.3"/>
	<circle class="st2" cx="491.1" cy="128" r="75.6"/>
</g>
<g id="indicateurs">
	<text transform="matrix(1 0 0 1 481.1918 -14.6335)" class="st4 st5 st6">N</text>
	<text transform="matrix(1 0 0 1 483.1917 290.1225)" class="st4 st5 st6">S</text>
	<text transform="matrix(1 0 0 1 631.432 135.4524)" class="st4 st5 st6">W</text>
	<text transform="matrix(1 0 0 1 330.4377 135.4529)" class="st4 st5 st6">E</text>
</g>
<g id="contourCadran">
	<path class="st7" d="M645.5-57H337.8c-17.1,0-31.2,14-31.2,31.2v307.6c0,17.1,14,31.2,31.2,31.2h307.6c17.1,0,31.2-14,31.2-31.2
		V-25.8C676.6-43,662.6-57,645.5-57z M491.6,294.8c-92.1,0-166.8-74.7-166.8-166.8S399.5-38.8,491.6-38.8S658.5,35.9,658.5,128
		S583.8,294.8,491.6,294.8z"/>
</g>
<g id="logo_1_" class="st8">
	<g class="st9">
		<circle id="Fond" class="st10" cx="801.7" cy="-729.4" r="21.9"/>
		<g>
			<path class="st11" d="M790.2-716.4c0-2.2,2.5-12.8,11.5-12.8s11.6-9.7,11.6-12.3"/>
			<rect x="793.7" y="-741.4" class="st12" width="7" height="25.1"/>
			<rect x="802.7" y="-741.4" class="st12" width="7" height="25.1"/>
		</g>
	</g>
</g>
<g id="logo_-_copie" class="st8">
	<g class="st9">
		<circle id="Fond_1_" class="st10" cx="1110.3" cy="-729.4" r="21.9"/>
		<g>
			<path class="st11" d="M1098.7-716.4c0-2.2,2.5-12.8,11.5-12.8s11.6-9.7,11.6-12.3"/>
			<rect x="1102.3" y="-741.4" class="st12" width="7" height="25.1"/>
			<rect x="1111.3" y="-741.4" class="st12" width="7" height="25.1"/>
		</g>
	</g>
</g>
<g id="logo_-_copie_2">
	<g>
		<circle id="Fond_2_" class="st10" cx="646" cy="282" r="21.9"/>
		<g>
			<path class="st11" d="M634.3,295.1c0-2.2,2.5-12.8,11.5-12.8s11.6-9.7,11.6-12.3"/>
			<rect x="638" y="270" class="st12" width="7" height="25.1"/>
			<rect x="647" y="270" class="st12" width="7" height="25.1"/>
		</g>
	</g>
</g>
<g id="logo_-_copie_3">
	<g>
		<circle id="Fond_3_" class="st10" cx="337.2" cy="282" r="21.9"/>
		<g>
			<path class="st11" d="M325.6,295.1c0-2.2,2.5-12.8,11.5-12.8s11.6-9.7,11.6-12.3"/>
			<rect x="329.2" y="270" class="st12" width="7" height="25.1"/>
			<rect x="338.2" y="270" class="st12" width="7" height="25.1"/>
		</g>
	</g>
</g>
<g id="reperes" class="st8">
</g>
</svg>
