<?xml version="1.0" encoding="UTF-8"?>
<!DOCTYPE svg PUBLIC "-//W3C//DTD SVG 1.1//EN" "http://www.w3.org/Graphics/SVG/1.1/DTD/svg11.dtd">
<!-- Creator: CorelDRAW -->
<?xml-stylesheet href="mire.css" type="text/css"?>
<svg xmlns="http://www.w3.org/2000/svg" xml:space="preserve" width="100%" height="100%" style="shape-rendering:geometricPrecision; text-rendering:geometricPrecision; image-rendering:optimizeQuality; fill-rule:evenodd; clip-rule:evenodd"
viewBox="0 0 5.18116 5.18116"
 xmlns:xlink="http://www.w3.org/1999/xlink">
 <g id="Plan_x0020_1">
  <metadata id="CorelCorpID_0Corel-Layer"/>
  <path class="fil0" d="M0.32058 2.59058c0,1.25368 1.01632,2.27 2.27001,2.27 1.25368,1e-005 2.27,-1.0163 2.27,-2.27 1e-005,-1.25367 -1.0163,-2.27 -2.27,-2.27 -1.25367,-1e-005 -2.27,1.0163 -2.27001,2.27zm0.67559 1.55908c-0.39777,-0.40679 -0.62501,-0.95023 -0.63522,-1.51908l0.19964 0 0 0.12 0.06 0 0 -0.12 0.20046 0c0.0101,0.44684 0.18887,0.87331 0.50041,1.19378l-0.32529 0.3253zm0.35358 -0.3536c-0.30405,-0.31296 -0.4786,-0.72926 -0.48869,-1.16549l0.19953 0 0 0.12 0.06 0 0 -0.12 0.20064 0c0.0099,0.3142 0.13597,0.61356 0.35384,0.84018l-0.32532 0.32531zm-0.31823 0.38895l0.3253 -0.32529c0.32047,0.31154 0.74694,0.49031 1.19378,0.50041l0 0.4601c-0.56885,-0.01021 -1.11229,-0.23745 -1.51908,-0.63522zm1.51908 0.13511c-0.43623,-0.01009 -0.85253,-0.18464 -1.16549,-0.48869l0.32531 -0.32532c0.22662,0.21787 0.52598,0.34394 0.84018,0.35384l0 0.46017zm0 -0.50019c-0.30359,-0.00987 -0.59279,-0.13173 -0.81189,-0.34211l0.32538 -0.32537c0.13264,0.12429 0.30497,0.19765 0.48651,0.2071l0 0.46038zm-0.84724 -0.37746c-0.21038,-0.2191 -0.33224,-0.5083 -0.34211,-0.81189l0.19934 0 0 0.12 0.06 0 0 -0.12 0.20104 0c0.00945,0.18154 0.08281,0.35387 0.2071,0.48651l-0.32537 0.32538zm0.65107 -0.65107l-0.30023 0.30022c-0.11757,-0.12586 -0.18713,-0.28906 -0.19651,-0.46104l0.2029 0 0 0.12 0.06 0 0 -0.12 0.1626 0c0.00772,0.05936 0.03246,0.11521 0.07124,0.16082zm0.19617 0.53209c-0.17198,-0.00938 -0.33518,-0.07894 -0.46104,-0.19651l0.30022 -0.30023c0.04561,0.03878 0.10146,0.06352 0.16082,0.07124l0 0.4255zm0.07998 0.49644l0 -0.46038c0.18154,-0.00945 0.35387,-0.08281 0.48651,-0.2071l0.32538 0.32537c-0.2191,0.21038 -0.5083,0.33224 -0.81189,0.34211zm0.84724 -0.37746l-0.32537 -0.32538c0.12429,-0.13264 0.19765,-0.30497 0.2071,-0.48651l0.20103 0 0 0.12 0.06 0 0 -0.12 0.19935 0c-0.00987,0.30359 -0.13173,0.59279 -0.34211,0.81189zm-0.84724 0.41748c0.3142,-0.0099 0.61356,-0.13597 0.84018,-0.35384l0.32531 0.32532c-0.31296,0.30405 -0.72926,0.4786 -1.16549,0.48869l0 -0.46017zm1.20085 -0.06388l-0.32532 -0.32531c0.21787,-0.22662 0.34394,-0.52598 0.35384,-0.84018l0.20063 0 0 0.12 0.06 0 0 -0.12 0.19954 0c-0.01009,0.43623 -0.18464,0.85253 -0.48869,1.16549zm0.02829 0.02829c0.31154,-0.32047 0.49031,-0.74694 0.50041,-1.19378l0.20045 0 0 0.12 0.06 0 0 -0.12 0.19965 0c-0.01021,0.56885 -0.23745,1.11229 -0.63522,1.51908l-0.32529 -0.3253zm-1.22914 0.99587l0 -0.4601c0.44684,-0.0101 0.87331,-0.18887 1.19378,-0.50041l0.3253 0.32529c-0.40679,0.39777 -0.95023,0.62501 -1.51908,0.63522zm0 -1.49674l0 -0.4255c0.05936,-0.00772 0.11521,-0.03246 0.16082,-0.07124l0.30022 0.30023c-0.12586,0.11757 -0.28906,0.18713 -0.46104,0.19651zm0.19617 -0.5321c0.03878,-0.04561 0.06352,-0.10146 0.07124,-0.16082l0.16259 0 0 0.12 0.06 0 0 -0.12 0.20291 0c-0.00938,0.17198 -0.07894,0.33518 -0.19651,0.46104l-0.30023 -0.30022zm-0.26615 -0.4993c-0.06374,0.0064 -0.12376,0.03305 -0.17127,0.07602l-0.31411 -0.31411c0.1311,-0.12592 0.30375,-0.19948 0.48538,-0.20681l0 0.05144 0.05998 0 0 -0.05144c0.18163,0.00733 0.35428,0.08089 0.48538,0.20681l-0.31411 0.31411c-0.04751,-0.04297 -0.10753,-0.06962 -0.17127,-0.07602l0 -0.05346 -0.05998 0 0 0.05346zm1.75952 0.25849l-0.46017 1e-005c-0.0099,-0.3142 -0.13597,-0.61356 -0.35384,-0.84018l0.32532 -0.32531c0.30405,0.31296 0.4786,0.72926 0.48869,1.16548zm0.04001 1e-005c-0.0101,-0.44684 -0.18887,-0.87331 -0.50041,-1.19378l0.32529 -0.3253c0.39777,0.40679 0.62501,0.95023 0.63522,1.51907l-0.4601 1e-005zm-1.02615 0.01l-0.4449 0c-0.0064,-0.06374 -0.03305,-0.12376 -0.07602,-0.17127l0.31411 -0.31411c0.12592,0.1311 0.19948,0.30375 0.20681,0.48538zm0.02557 -0.01c-0.00945,-0.18154 -0.08281,-0.35387 -0.2071,-0.48651l0.32537 -0.32538c0.21038,0.2191 0.33224,0.5083 0.34211,0.81188l-0.46038 1e-005zm-0.24246 -0.52187c-0.13264,-0.12429 -0.30497,-0.19765 -0.48651,-0.2071l0 -0.46038c0.30359,0.00987 0.59279,0.13173 0.81189,0.34211l-0.32538 0.32537zm-0.8339 0.52186l-0.4255 1e-005c0.00938,-0.17198 0.07894,-0.33518 0.19651,-0.46104l0.30023 0.30022c-0.03878,0.04561 -0.06352,0.10146 -0.07124,0.16081zm1.18757 -0.87552c-0.22662,-0.21787 -0.52598,-0.34394 -0.84018,-0.35384l0 -0.46017c0.43623,0.01009 0.85253,0.18464 1.16549,0.48869l-0.32531 0.32532zm0.3536 -0.35361c-0.32047,-0.31154 -0.74694,-0.49031 -1.19378,-0.50041l0 -0.4601c0.56885,0.01021 1.11229,0.23745 1.51908,0.63522l-0.3253 0.32529zm-3.00331 1.22913l-0.4601 1e-005c0.01021,-0.56885 0.23745,-1.11229 0.63522,-1.51908l0.32529 0.3253c-0.31154,0.32047 -0.49031,0.74694 -0.50041,1.19377zm0.50018 0l-0.46017 1e-005c0.01009,-0.43623 0.18464,-0.85253 0.48869,-1.16549l0.32532 0.32531c-0.21787,0.22662 -0.34394,0.52598 -0.35384,0.84017zm0.5004 0l-0.46038 1e-005c0.00987,-0.30359 0.13173,-0.59279 0.34211,-0.81189l0.32537 0.32538c-0.12429,0.13264 -0.19765,0.30497 -0.2071,0.4865zm0.24246 -0.52186l-0.32538 -0.32537c0.2191,-0.21038 0.5083,-0.33224 0.81189,-0.34211l0 0.46038c-0.18154,0.00945 -0.35387,0.08281 -0.48651,0.2071zm0.48651 -0.7075c-0.3142,0.0099 -0.61356,0.13597 -0.84018,0.35384l-0.32531 -0.32532c0.31296,-0.30405 0.72926,-0.4786 1.16549,-0.48869l0 0.46017zm0 -0.50018c-0.44684,0.0101 -0.87331,0.18887 -1.19378,0.50041l-0.3253 -0.32529c0.40679,-0.39777 0.95023,-0.62501 1.51908,-0.63522l0 0.4601z"/>
  <path class="fil0" d="M0.94659 0.92539c0.39624,-0.39119 0.91899,-0.62827 1.47434,-0.66864l-0.14823 -0.25673c-0.57298,0.07031 -1.1065,0.3286 -1.51704,0.73445l0.19093 0.19092zm1.42469 -0.69464c-0.53505,0.04972 -1.03732,0.27979 -1.42443,0.65247l-0.14851 -0.14851c0.39818,-0.38453 0.90947,-0.63079 1.45835,-0.70243l0.11459 0.19847z"/>
  <path class="fil0" d="M0.7347 0.79834l0.14851 0.14851c-0.37268,0.38711 -0.60275,0.88938 -0.65247,1.42443l-0.19847 -0.11459c0.07164,-0.54888 0.3179,-1.06017 0.70243,-1.45835zm-0.47797 1.6226c0.04037,-0.55535 0.27745,-1.0781 0.66864,-1.47434l-0.19092 -0.19093c-0.40585,0.41054 -0.66414,0.94406 -0.73445,1.51704l0.25673 0.14823z"/>
  <polygon class="fil0" points="0.22529,2.67918 0.04936,2.64367 0.22497,2.60659 0.22483,2.57624 0.0489,2.54093 0.22451,2.50407 0.22441,2.47986 0.00463,2.52881 0.00474,2.55322 0.1919,2.59155 0.00508,2.63154 0.00519,2.65575 0.22539,2.70294 "/>
  <path class="fil0" d="M0.59731 2.3518l-0.00409 -0.00567 -0.00451 -0.00509 -0.00493 -0.0041 -0.00593 -0.00371 -0.00635 -0.0027 -0.00697 -0.00193 -0.00777 -0.00155 -0.0082 -0.00015 -0.01502 0.00093 -0.00985 0.00262 -0.00847 0.00365 -0.0073 0.00546 -0.00592 0.0069 -0.00476 0.00851 -0.00338 0.00954 -0.00221 0.01156 -0.00083 0.01259 0.00069 0.01701 0.0024 0.01085 0.00343 0.00945 0.00505 0.00811 0.00608 0.00671 0.00731 0.00514 0.00893 0.00376 0.01016 0.00219 0.01138 0.00099 0.01022 -0.0006 0.00701 -0.00067 0.00644 -0.00208 0.00625 -0.00249 0.00566 -0.0035 0.00527 -0.0039 0.00469 -0.00451 0.00449 -0.00532 0.00372 -0.00614 0.00249 0.00565 0.00253 0.00405 0.00315 0.00306 0.00355 0.00266 0.00456 0.00189 0.00477 0.00168 0.00579 0.0009 0.00619 0.00031 0.00681 -0.00026 0.01322 -0.00077 0.00864 -0.00223 0.00746 -0.00328 0.00649 -0.00487 0.00531 -0.0061 0.00413 -0.00713 0.00296 -0.00835 0.00198 -0.00997 0.0008 -0.01098 -0.00076 -0.01321 -0.00184 -0.00864 -0.00306 -0.00746 -0.00449 -0.00629 -0.0055 -0.00529 -0.00653 -0.00392 -0.00775 -0.00294 -0.00897 -0.00197 -0.01018 -0.00079 -0.00821 0.00045 -0.00562 0.0007 -0.00522 0.00131 -0.00464 0.00191 -0.00424 0.00231 -0.00385 0.00274 -0.00326 0.00334 -0.00288 0.00414 -0.00268 0.00436 -0.00384 -0.00887zm-0.04915 -0.0031l0.00979 0.00097 0.00616 0.00172 0.00555 0.00291 0.00453 0.00387 0.00372 0.00448 0.0027 0.00545 0.00228 0.00683 0.00087 0.00722 0.00044 0.00822 -0.001 0.01097 -0.00173 0.00718 -0.0023 0.00575 -0.0035 0.00535 -0.00408 0.00411 -0.00506 0.00331 -0.00584 0.0023 -0.00643 0.00129 -0.00761 0.00046 -0.01058 -0.0012 -0.00676 -0.00192 -0.00595 -0.00272 -0.00494 -0.00369 -0.00412 -0.00447 -0.00309 -0.00565 -0.00208 -0.00664 -0.00127 -0.00724 -0.00044 -0.0086 0.0012 -0.01078 0.00173 -0.00717 0.00271 -0.00615 0.00369 -0.00493 0.00448 -0.00412 0.00525 -0.0031 0.00645 -0.0023 0.00723 -0.00145 0.008 -0.00026zm0.09324 0.00991l0.00878 0.00095 0.00577 0.00152 0.00497 0.00209 0.00414 0.00308 0.00334 0.00346 0.00272 0.00444 0.0017 0.00544 0.00109 0.00602 0.00028 0.00641 -0.00097 0.00898 -0.00129 0.00537 -0.0025 0.00496 -0.00287 0.00415 -0.00386 0.00333 -0.00445 0.00252 -0.00523 0.0017 -0.00603 0.00129 -0.0068 8e-005 -0.00879 -0.00077 -0.00577 -0.00151 -0.00476 -0.00228 -0.00435 -0.00287 -0.00333 -0.00367 -0.00252 -0.00445 -0.0019 -0.00523 -0.00109 -0.00602 -8e-005 -0.0068 0.00056 -0.00879 0.0017 -0.00538 0.0023 -0.00515 0.00287 -0.00395 0.00386 -0.00333 0.00444 -0.00232 0.00524 -0.0021 0.00602 -0.00109 0.00681 -8e-005z"/>
  <path class="fil0" d="M1.03616 2.44826l0.0176 0.00124 0.0136 -0.00058 0.01201 -0.00196 0.0106 -0.00318 0.00881 -0.00439 0.00741 -0.00558 0.00602 -0.00678 0.00422 -0.00839 0.00302 -0.0094 0.00123 -0.01459 -0.00038 -0.0082 -0.00058 -0.00741 -0.00139 -0.0066 -0.00179 -0.0054 -0.00259 -0.00461 -0.00279 -0.0036 -0.00359 -0.00282 -0.004 -0.0016 -0.0062 -0.00083 0.015 0.00045 0.013 0.00163 0.01159 0.00202 0.0098 0.00342 0.00799 0.00442 0.00678 0.00501 0.00459 0.00622 0.00319 0.0072 0.00137 0.01081 -0.00041 0.0052 -0.00061 0.0046 -0.00141 0.00439 -0.00181 0.004 -0.00261 0.00359 -0.003 0.0032 -0.00341 0.00298 -0.00381 0.00239 -0.0062 0.00259 -4e-005 0.01921 0.01 -0.00379 0.00881 -0.00417 0.00781 -0.00459 0.00641 -0.00518 0.00502 -0.00539 0.00421 -0.0058 0.00281 -0.00658 0.00142 -0.0068 0.00022 -0.0098 -0.00117 -0.0126 -0.00358 -0.01162 -0.00597 -0.0098 -0.00838 -0.00842 -0.01039 -0.00704 -0.01319 -0.00562 -0.01539 -0.00384 -0.01779 -0.00303 -0.0274 -0.00106 -0.0208 0.00034 -0.01861 0.00236 -0.0164 0.00338 -0.01381 0.00517 -0.01142 0.00657 -0.00922 0.00778 -0.00662 0.00959 -0.00442 0.01079 -0.00224 0.01659 0.00078 0.0112 0.00218 0.0098 0.00398 0.00862 0.00518 0.00741 0.00699 0.00601 0.00839 0.00482 0.00999 0.00382 0.01139 0.00223zm-0.01032 -0.03302l-0.0034 -0.00421 -0.00278 -0.00481 -0.00159 -0.0058 -0.00058 -0.00881 0.00041 -0.00659 0.00142 -0.0058 0.00241 -0.00499 0.00321 -0.0044 0.004 -0.00399 0.00521 -0.0028 0.00581 -0.00217 0.007 -0.00119 0.0106 -0.00077 0.008 0.0006 0.007 0.00103 0.00659 0.00181 0.0052 0.00302 0.00439 0.00321 0.00359 0.00419 0.00259 0.00481 0.00159 0.0058 0.00078 0.0084 -0.00042 0.007 -0.00141 0.00581 -0.00221 0.00499 -0.00321 0.0044 -0.00421 0.00398 -0.00501 0.0028 -0.006 0.00197 -0.007 0.0014 -0.01041 0.00077 -0.00839 -0.00061 -0.007 -0.00102 -0.0062 -0.00202 -0.00559 -0.0028 -0.00439 -0.00321z"/>
  <path class="fil0" d="M1.56062 2.42613l0.13 0.00059 7e-005 -0.0166 -0.12964 -0.07977 -0.0232 -0.00011 -0.00033 0.074 -0.0468 -0.00021 -0.0001 0.02179 0.0468 0.00021 -0.00011 0.02461 0.0232 0.0001 0.00011 -0.02461zm0.0001 -0.02178l0.00024 -0.0548 0.08656 0.05519 -0.0868 -0.00039z"/>
  <path class="fil0" d="M0.7347 4.38282c-0.38453,-0.39818 -0.63079,-0.90947 -0.70243,-1.45835l0.19847 -0.11459c0.04972,0.53505 0.27979,1.03732 0.65247,1.42443l-0.14851 0.14851zm0.19067 -0.14825c-0.39119,-0.39624 -0.62827,-0.91899 -0.66864,-1.47434l-0.25673 0.14823c0.07031,0.57298 0.3286,1.1065 0.73445,1.51704l0.19092 -0.19093z"/>
  <polygon class="fil0" points="0.26749,3.60132 0.24001,3.53935 0.24404,3.53806 0.24742,3.53754 0.25084,3.5375 0.2547,3.53809 0.25863,3.53915 0.26272,3.54061 0.26713,3.54244 0.27185,3.54492 0.27649,3.54797 0.30165,3.56143 0.30782,3.56425 0.31273,3.5657 0.31745,3.56671 0.32258,3.56757 0.32782,3.56789 0.33299,3.56771 0.33851,3.56724 0.34399,3.56628 0.34975,3.56485 0.36041,3.55963 0.36707,3.5554 0.37213,3.55018 0.37596,3.54474 0.37832,3.53859 0.3793,3.53192 0.37896,3.52487 0.37723,3.51724 0.37425,3.50905 0.36891,3.49959 0.36394,3.49394 0.3583,3.48971 0.35191,3.4868 0.34486,3.48532 0.33723,3.48512 0.3287,3.48625 0.31951,3.48885 0.30959,3.49275 0.31543,3.50592 0.32412,3.50256 0.33004,3.5011 0.33543,3.50068 0.34051,3.50103 0.34502,3.50233 0.34908,3.50445 0.35257,3.50751 0.35561,3.51141 0.3582,3.51616 0.36064,3.52312 0.36156,3.52816 0.36168,3.53253 0.36076,3.53637 0.35898,3.5401 0.35636,3.54308 0.3528,3.54579 0.34839,3.54809 0.34314,3.54992 0.33795,3.55188 0.33428,3.55287 0.33076,3.55344 0.3273,3.5538 0.32437,3.55382 0.32123,3.5534 0.31839,3.55255 0.31549,3.55119 0.31288,3.54974 0.28758,3.53598 0.27746,3.53129 0.26973,3.52829 0.26217,3.5264 0.2545,3.52504 0.24701,3.52477 0.23952,3.52529 0.23195,3.52634 0.22453,3.5285 0.21728,3.53138 0.25144,3.60843 "/>
  <polygon class="fil0" points="0.24633,1.62694 0.24855,1.6212 0.25278,1.61418 0.25634,1.60982 0.26025,1.60624 0.26458,1.60367 0.2692,1.60199 0.27415,1.60095 0.27938,1.60088 0.28503,1.60176 0.29087,1.60336 0.29639,1.59006 0.28344,1.58678 0.27465,1.58571 0.26639,1.58605 0.25888,1.58765 0.25197,1.59062 0.24606,1.59467 0.24064,1.59991 0.23604,1.60674 0.23219,1.61441 0.22877,1.625 0.22777,1.63255 0.22797,1.63944 0.22961,1.64614 0.23233,1.65246 0.23638,1.65837 0.24175,1.66384 0.2484,1.66889 0.25633,1.67364 0.26272,1.67629 0.26738,1.67758 0.27214,1.67825 0.27664,1.67832 0.28117,1.67759 0.28573,1.67641 0.29025,1.67454 0.29464,1.67215 0.29885,1.66903 0.30032,1.67368 0.30186,1.67708 0.30378,1.68031 0.306,1.68352 0.3085,1.68649 0.31146,1.68918 0.31491,1.69177 0.31853,1.69439 0.32267,1.69659 0.33248,1.70033 0.33943,1.70161 0.34609,1.7016 0.35197,1.7003 0.35747,1.69758 0.36267,1.69371 0.36726,1.68848 0.3715,1.68179 0.37546,1.67386 0.37878,1.66354 0.37973,1.65612 0.37942,1.64949 0.3776,1.64323 0.3747,1.63732 0.37041,1.63199 0.36483,1.62705 0.35784,1.6227 0.34966,1.61867 0.34414,1.63197 0.35049,1.63538 0.35439,1.63816 0.35745,1.64168 0.35971,1.64523 0.36116,1.64924 0.36173,1.6537 0.36154,1.65848 0.36026,1.66348 0.35837,1.66921 0.35537,1.67491 0.35274,1.67853 0.34995,1.6813 0.34667,1.68334 0.34321,1.68467 0.33921,1.68529 0.33514,1.68491 0.33078,1.68408 0.32583,1.68231 0.3206,1.67966 0.3174,1.67721 0.3148,1.67483 0.31288,1.6716 0.31174,1.66851 0.31121,1.66508 0.31149,1.66126 0.31221,1.65719 0.31387,1.65283 0.31778,1.64342 0.30158,1.6367 0.2968,1.64821 0.29398,1.65337 0.29136,1.65651 0.28855,1.65907 0.28516,1.66058 0.28146,1.66163 0.27729,1.66188 0.27276,1.66145 0.26804,1.66029 0.26271,1.65826 0.2562,1.65522 0.25223,1.65227 0.2493,1.64878 0.24687,1.64518 0.24559,1.64125 0.24507,1.63663 0.24542,1.63191 "/>
  <path class="fil0" d="M1.59323 0.30137l0.01695 -0.0073 0.0386 0.08953 0.01143 -0.00493 0.01594 -0.11305 -0.00689 -0.01598 -0.05096 0.02198 -0.0139 -0.03224 -0.01501 0.00648 0.0139 0.03223 -0.01695 0.0073 0.00689 0.01598zm0.03196 -0.01378l0.03774 -0.01627 -0.01197 0.07605 -0.02577 -0.05978z"/>
  <polygon class="fil0" points="2.62609,0.15386 2.62983,0.15849 2.63203,0.16332 2.63313,0.17058 2.63313,0.17717 2.63203,0.18335 2.63005,0.18839 2.62675,0.19302 2.62235,0.19654 2.61707,0.19941 2.61047,0.20162 2.60277,0.20293 2.59089,0.20359 2.58254,0.20338 2.57462,0.20203 2.56802,0.19986 2.56274,0.19699 2.55768,0.19326 2.55394,0.18839 2.55152,0.18311 2.54954,0.17676 2.54866,0.16685 2.52446,0.16685 2.52534,0.17962 2.52754,0.19081 2.53106,0.20052 2.53656,0.20887 2.5436,0.21592 2.55196,0.2212 2.56186,0.22514 2.5733,0.228 2.59089,0.22932 2.60431,0.22845 2.61619,0.22648 2.62675,0.22317 2.63555,0.21833 2.64303,0.21239 2.64875,0.20514 2.65315,0.1961 2.65601,0.18622 2.65733,0.17058 2.65667,0.15849 2.65469,0.14813 2.65139,0.13891 2.64677,0.131 2.64083,0.12437 2.63357,0.11933 2.62521,0.1156 2.61531,0.11318 2.59969,0.11184 2.58826,0.1079 2.57814,0.10348 2.56912,0.09885 2.56142,0.09426 2.55504,0.08918 2.54998,0.0839 2.54646,0.0782 2.54382,0.07247 2.5425,0.06432 2.5436,0.05686 2.5458,0.05023 2.54888,0.04429 2.55284,0.0397 2.5579,0.03552 2.56384,0.0322 2.57088,0.02979 2.57858,0.02823 2.59089,0.02758 2.59991,0.02803 2.60849,0.02958 2.61553,0.032 2.62191,0.03552 2.62719,0.04011 2.63159,0.04564 2.63511,0.05223 2.63731,0.05969 2.63907,0.07157 2.66305,0.07157 2.66261,0.05883 2.65997,0.0474 2.65601,0.03704 2.65007,0.02823 2.64237,0.02077 2.63335,0.01418 2.62235,0.0091 2.61025,0.00513 2.59089,0.00206 2.57616,0.00271 2.56318,0.00472 2.55196,0.00824 2.54206,0.01328 2.53414,0.01988 2.52754,0.02782 2.52292,0.03704 2.51984,0.04761 2.51852,0.06432 2.51918,0.0771 2.52116,0.08832 2.52468,0.0982 2.52952,0.10679 2.5359,0.11405 2.54338,0.12019 2.55218,0.12482 2.56274,0.12789 2.57858,0.13031 2.5898,0.13363 2.59969,0.13715 2.60805,0.14088 2.61553,0.14485 2.62147,0.14923 "/>
  <path class="fil0" d="M2.76022 0.25673c0.55535,0.04037 1.0781,0.27745 1.47434,0.66864l0.19093 -0.19092c-0.41054,-0.40585 -0.94406,-0.66414 -1.51704,-0.73445l-0.14823 0.25673zm0.04965 -0.02599l0.11459 -0.19847c0.54888,0.07164 1.06017,0.3179 1.45835,0.70243l-0.14851 0.14851c-0.38711,-0.37268 -0.88938,-0.60275 -1.42443,-0.65247z"/>
  <polygon class="fil0" points="3.55637,0.24715 3.56384,0.25075 3.56842,0.25399 3.5722,0.25724 3.575,0.26061 3.57701,0.26436 3.57822,0.26813 3.57886,0.27216 3.57858,0.27653 3.57717,0.28094 3.59074,0.28575 3.59371,0.27472 3.59426,0.26729 3.5937,0.26038 3.59167,0.25395 3.5885,0.24807 3.58387,0.24276 3.57802,0.23813 3.57085,0.23415 3.56228,0.23049 3.55118,0.22766 3.54351,0.22731 3.53626,0.22841 3.52962,0.23101 3.52348,0.23488 3.51786,0.24035 3.51272,0.2473 3.50813,0.25571 3.50412,0.26571 3.5003,0.27916 3.49889,0.28808 3.49906,0.29656 3.50026,0.30399 3.50299,0.31067 3.50722,0.31664 3.51255,0.32186 3.51919,0.32598 3.52715,0.3296 3.53069,0.33038 3.53319,0.33094 3.53593,0.33129 3.53877,0.33134 3.54154,0.33118 3.54438,0.33076 3.54763,0.33016 3.55065,0.32932 3.55368,0.32835 3.53465,0.36409 3.48418,0.3462 3.47837,0.36257 3.54044,0.38457 3.57794,0.31562 3.56253,0.31016 3.5584,0.31235 3.5553,0.31345 3.55243,0.31438 3.54934,0.31501 3.54591,0.31522 3.54284,0.31494 3.53956,0.31473 3.53646,0.31411 3.53301,0.31306 3.52506,0.30944 3.52034,0.30615 3.51627,0.30233 3.51351,0.29802 3.51167,0.29337 3.51072,0.28794 3.51066,0.28222 3.51164,0.27589 3.51373,0.26912 3.51754,0.26061 3.52086,0.25527 3.52456,0.25115 3.52873,0.24788 3.53346,0.24574 3.53861,0.24471 3.54411,0.24442 3.55004,0.24524 "/>
  <path class="fil0" d="M4.25579 0.94659c0.39119,0.39624 0.62827,0.91899 0.66864,1.47434l0.25673 -0.14823c-0.07031,-0.57298 -0.3286,-1.1065 -0.73445,-1.51704l-0.19092 0.19093zm0.69463 1.42469c-0.04972,-0.53505 -0.27979,-1.03732 -0.65247,-1.42443l0.14851 -0.14851c0.38453,0.39818 0.63079,0.90947 0.70243,1.45835l-0.19847 0.11459z"/>
  <path class="fil0" d="M4.86193 1.60666l-0.00474 0.00566 -0.00342 0.00605 -0.0021 0.00648 -0.00038 0.00703 0.00073 0.00736 0.00353 0.01041 0.00272 0.00551 0.00262 0.00492 0.00294 0.00413 0.00285 0.00318 0.00316 0.00238 0.003 0.00164 0.00331 0.00085 0.00323 -9e-005 0.00451 -0.00129 -0.01045 0.00419 -0.00942 0.00278 -0.00858 0.00208 -0.00776 0.00059 -0.00681 -0.00063 -0.00618 -0.00143 -0.00501 -0.00288 -0.00435 -0.00401 -0.00418 -0.00701 -0.00128 -0.0037 -0.00096 -0.00335 -0.00035 -0.00344 5e-005 -0.00328 0.00071 -0.00326 0.00111 -0.00309 0.00145 -0.00309 0.00189 -0.00278 0.0035 -0.00363 -0.00573 -0.01322 -0.00575 0.0056 -0.0048 0.00552 -0.004 0.00548 -0.00285 0.00549 -0.00183 0.0052 -0.00116 0.00525 5e-005 0.00538 0.00106 0.00509 0.00279 0.00681 0.00458 0.00831 0.00593 0.00691 0.00706 0.00496 0.00828 0.00326 0.00925 0.00173 0.01075 -9e-005 0.01173 -0.00198 0.01314 -0.00325 0.01916 -0.00747 0.01419 -0.00649 0.01209 -0.00719 0.01027 -0.00725 0.00794 -0.00769 0.00588 -0.00794 0.004 -0.00811 0.00168 -0.00858 -0.0002 -0.00874 -0.00343 -0.01207 -0.00389 -0.00747 -0.00444 -0.0061 -0.00532 -0.00472 -0.00579 -0.00354 -0.0066 -0.00204 -0.00721 -0.00079 -0.00801 0.00037 -0.00851 0.00188 -0.01247 0.00442 -0.00918 0.00447 -0.00766 0.00495 -0.00634 0.00537zm0.01059 0.01651l0.00261 -0.00342 0.00353 -0.00317 0.00439 -0.00306 0.00692 -0.00365 0.00597 -0.00208 0.00511 -0.0014 0.00486 -0.00049 0.00469 0.00027 0.00398 0.00089 0.0036 0.00187 0.00336 0.00247 0.00282 0.00351 0.00304 0.00587 0.00169 0.00466 0.00077 0.00441 -0.00015 0.00417 -0.0009 0.00397 -0.00155 0.00396 -0.00275 0.00347 -0.00334 0.00324 -0.00445 0.00291 -0.00706 0.00372 -0.00568 0.00198 -0.00512 0.0014 -0.00508 0.00072 -0.00447 -0.0005 -0.00398 -0.00089 -0.00373 -0.00182 -0.00322 -0.00253 -0.00283 -0.00351 -0.00306 -0.00555 -0.00181 -0.00493 -0.00077 -0.00442 3e-005 -0.00409 0.00088 -0.00399 0.0017 -0.00399z"/>
  <polygon class="fil0" points="5.17585,2.52451 5.15011,2.52445 5.14987,2.63291 5.07287,2.63274 5.07309,2.53616 5.04736,2.5361 5.04714,2.63268 4.98114,2.63253 4.98138,2.52715 4.95586,2.5271 4.95557,2.65668 5.17556,2.65717 "/>
  <path class="fil0" d="M4.58887 2.34627l-0.00438 0.00542 -0.00359 0.00621 -0.00261 -0.0056 -0.00261 -0.00399 -0.00321 -0.00299 -0.0036 -0.00259 -0.00461 -0.00178 -0.0048 -0.00159 -0.00581 -0.00078 -0.0062 -0.00019 -0.0068 0.00041 -0.01319 0.00104 -0.0086 0.00243 -0.00739 0.00342 -0.00638 0.005 -0.00519 0.00622 -0.00398 0.00721 -0.00278 0.0084 -0.00177 0.01002 -0.00057 0.01099 0.00103 0.0132 0.00202 0.00859 0.00322 0.00739 0.00462 0.0062 0.00561 0.00518 0.00661 0.00378 0.00781 0.00279 0.009 0.00177 0.01021 0.00058 0.00819 -0.00063 0.0056 -0.00082 0.0052 -0.00141 0.00459 -0.002 0.0042 -0.00241 0.00379 -0.00282 0.00319 -0.00341 0.00279 -0.0042 0.00259 -0.00441 0.00402 0.00879 0.00422 0.00558 0.00461 0.00499 0.00501 0.004 0.00601 0.00358 0.00641 0.00258 0.007 0.00178 0.0078 0.00139 0.0082 -2e-005 0.015 -0.00124 0.00979 -0.00284 0.00839 -0.00382 0.00719 -0.00562 0.00578 -0.007 0.00458 -0.00863 0.00317 -0.0096 0.00197 -0.0116 0.00057 -0.0126 -0.00104 -0.017 -0.00263 -0.01079 -0.00363 -0.00939 -0.00522 -0.008 -0.00621 -0.00658 -0.00742 -0.00498 -0.00901 -0.00358 -0.0102 -0.00196 -0.0114 -0.00077 -0.0102 0.00082 -0.007 0.00081 -0.00639 0.00222 -0.0062 0.00261 -0.00559 0.00362 -0.00519 0.00402 -0.00459 0.0046zm-0.02094 0.02226l0.00261 0.0044 0.00202 0.00519 0.00121 0.00599 0.00022 0.00681 -0.00038 0.00879 -0.00158 0.00542 -0.00219 0.00519 -0.00279 0.00402 -0.00379 0.0034 -0.00439 0.00241 -0.0052 0.00222 -0.00599 0.00121 -0.0068 0.00022 -0.00881 -0.00077 -0.0058 -0.00138 -0.005 -0.002 -0.00421 -0.00299 -0.00341 -0.00338 -0.00281 -0.00439 -0.00182 -0.00541 -0.00121 -0.00599 -0.00042 -0.00639 0.00078 -0.00902 0.00118 -0.00539 0.00239 -0.005 0.00279 -0.00422 0.00379 -0.00341 0.00439 -0.00261 0.0052 -0.00181 0.006 -0.00142 0.00679 -0.00022 0.00881 0.00059 0.0058 0.00138 0.00481 0.00219 0.0044 0.00278 0.00341 0.00359zm0.03023 0.01133l0.00158 -0.0072 0.00219 -0.00581 0.00338 -0.00542 0.00399 -0.0042 0.00499 -0.00341 0.0058 -0.00242 0.00639 -0.00141 0.0076 -0.00063 0.01061 0.00097 0.0068 0.00178 0.00601 0.0026 0.00501 0.00358 0.00421 0.00438 0.00321 0.00559 0.00222 0.00661 0.00142 0.00719 0.00062 0.0086 -0.00097 0.0108 -0.00158 0.0072 -0.00259 0.00621 -0.00358 0.00501 -0.00439 0.00421 -0.00519 0.00322 -0.0064 0.00242 -0.00719 0.00161 -0.008 0.00042 -0.0098 -0.00077 -0.00621 -0.00159 -0.00561 -0.00279 -0.00461 -0.00377 -0.00381 -0.0044 -0.00281 -0.00539 -0.00242 -0.00679 -0.00102 -0.0072 -0.00062 -0.0082 0.00077 -0.011z"/>
  <path class="fil0" d="M4.16635 2.33879l-0.01001 -0.00378 -0.01141 -0.00217 -0.0176 -0.00115 -0.0136 0.00064 -0.01199 0.00202 -0.0106 0.00323 -0.00878 0.00443 -0.00739 0.00561 -0.00598 0.00682 -0.00418 0.00841 -0.00298 0.0094 -0.00116 0.01461 0.00042 0.0082 0.00062 0.00739 0.00142 0.0066 0.00181 0.00541 0.00261 0.00458 0.00281 0.00359 0.00361 0.0028 0.004 0.00158 0.00621 0.0008 -0.01501 -0.00037 -0.013 -0.00157 -0.0116 -0.00197 -0.00981 -0.00337 -0.00801 -0.00438 -0.00682 -0.00498 -0.00461 -0.00619 -0.00322 -0.0072 -0.00143 -0.01079 0.00039 -0.00521 0.00059 -0.0046 0.00138 -0.0044 0.00179 -0.00401 0.00259 -0.0036 0.003 -0.00321 0.00339 -0.003 0.00379 -0.00241 0.0062 -0.00261 -5e-005 -0.0192 -0.00999 0.00382 -0.00879 0.00421 -0.00779 0.00462 -0.00639 0.00522 -0.00498 0.00541 -0.00419 0.00582 -0.00278 0.0066 -0.00138 0.0068 -0.00018 0.00981 0.00123 0.01259 0.00363 0.0116 0.00603 0.00978 0.00842 0.00838 0.01042 0.00698 0.01321 0.00557 0.01541 0.00376 0.01781 0.00294 0.0274 0.00093 0.0208 -0.00044 0.01859 -0.00245 0.01639 -0.00345 0.01379 -0.00523 0.01138 -0.00664 0.00918 -0.00782 0.00658 -0.00962 0.00437 -0.01081 0.00216 -0.01661 -0.00083 -0.01119 -0.00222 -0.00979 -0.00403 -0.00859 -0.00522 -0.00739 -0.00701 -0.00599 -0.00841 -0.00477zm-0.01534 0.02384l0.00441 0.00319 0.00341 0.00419 0.00281 0.00479 0.00161 0.00579 0.00063 0.00881 -0.00039 0.00659 -0.00138 0.00581 -0.00239 0.005 -0.00319 0.00441 -0.00399 0.00401 -0.00519 0.00282 -0.00579 0.00222 -0.007 0.00122 -0.0106 0.00081 -0.008 -0.00056 -0.007 -0.001 -0.00661 -0.00178 -0.00521 -0.00298 -0.0044 -0.0032 -0.00361 -0.00418 -0.00262 -0.00479 -0.00161 -0.0058 -0.00082 -0.00839 0.00038 -0.007 0.00138 -0.00582 0.00219 -0.00499 0.00319 -0.00442 0.00419 -0.004 0.00499 -0.00283 0.006 -0.002 0.00699 -0.00142 0.0104 -0.00083 0.0084 0.00057 0.00701 0.00099 0.0062 0.00199 0.00561 0.00278z"/>
  <path class="fil0" d="M3.62042 2.3303l0.00015 0.02461 -0.13 0.00078 0.0001 0.0166 0.13047 0.07841 0.0232 -0.00014 -0.00044 -0.074 0.0468 -0.00028 -0.00013 -0.02179 -0.0468 0.00028 -0.00015 -0.02461 -0.0232 0.00014zm0.00028 0.0464l0.00032 0.0548 -0.08712 -0.05428 0.0868 -0.00052z"/>
  <path class="fil0" d="M4.92443 2.76022c-0.04037,0.55535 -0.27745,1.0781 -0.66864,1.47434l0.19092 0.19093c0.40585,-0.41054 0.66414,-0.94406 0.73445,-1.51704l-0.25673 -0.14823zm0.02599 0.04965l0.19847 0.11459c-0.07164,0.54888 -0.3179,1.06017 -0.70243,1.45835l-0.14851 -0.14851c0.37268,-0.38711 0.60275,-0.88938 0.65247,-1.42443z"/>
  <polygon class="fil0" points="4.84345,3.4756 4.82779,3.46798 4.79186,3.5419 4.80752,3.54951 4.83532,3.49232 4.84735,3.51285 4.85711,3.52676 4.86691,3.53986 4.87711,3.55149 4.88748,3.56237 4.89839,3.57218 4.90962,3.58064 4.92105,3.58836 4.93305,3.59454 4.9402,3.57984 4.9219,3.56809 4.90904,3.55851 4.89705,3.54852 4.88607,3.53784 4.87582,3.52669 4.86649,3.51465 4.85803,3.5022 4.85024,3.4894 "/>
  <path class="fil0" d="M3.59811 4.90537l-0.00148 -0.00765 -0.00262 -0.00816 -0.00343 -0.00687 -0.00251 -0.00465 -0.00332 -0.00383 -0.00355 -0.00359 -0.00407 -0.00289 -0.00424 -0.00249 -0.00449 -0.00191 -0.00499 -0.00155 -0.00532 -0.00077 0.00317 -0.00338 0.00204 -0.00292 0.0012 -0.00307 0.0008 -0.00324 -4e-005 -0.0037 -0.00023 -0.00379 -0.00107 -0.00426 -0.0016 -0.00437 -0.00219 -0.00461 -0.00439 -0.0089 -0.00407 -0.00532 -0.00445 -0.00419 -0.00526 -0.00305 -0.00578 -0.00188 -0.00613 -0.00077 -0.00662 0.00041 -0.00747 0.00155 -0.00782 0.00266 -0.0089 0.0044 -0.00542 0.0038 -0.00425 0.0043 -0.00303 0.00493 -0.00205 0.00536 -0.00079 0.00565 0.00024 0.00621 0.00126 0.00677 0.00244 0.00727 0.00272 0.00553 0.00213 0.00367 0.00243 0.00323 0.00267 0.00264 0.00286 0.00225 0.00301 0.00186 0.00326 0.00127 0.0037 0.00077 0.0038 0.00058 -0.005 0.00524 -0.00272 0.0045 -0.0022 0.0046 -0.00137 0.0046 -0.00082 0.00518 -2e-005 0.00518 0.00071 0.00537 0.00121 0.00582 0.0023 0.00571 0.00503 0.0101 0.0047 0.00603 0.005 0.00478 0.0059 0.00344 0.0065 0.00208 0.00728 0.00078 0.00758 -0.00046 0.00862 -0.00186 0.00894 -0.00312 0.01155 -0.00545 0.00677 -0.00484 0.00554 -0.00514 0.00411 -0.00586 0.00284 -0.00616 0.00142 -0.00655 -2e-005 -0.00727zm-0.01699 -0.00205l0.00065 0.00524 -0.00013 0.0049 -0.0011 0.00449 -0.00189 0.00415 -0.003 0.0038 -0.00397 0.00338 -0.00463 0.00299 -0.0058 0.00283 -0.0078 0.00233 -0.00546 0.00091 -0.00503 -8e-005 -0.0045 -0.0011 -0.00416 -0.00188 -0.00368 -0.00272 -0.00345 -0.00379 -0.00313 -0.00456 -0.00252 -0.00545 -0.00219 -0.00704 -0.00063 -0.00476 0.00038 -0.00469 0.00136 -0.00426 0.00198 -0.00387 0.00297 -0.00346 0.00407 -0.00358 0.00473 -0.00272 0.00554 -0.00271 0.00787 -0.00253 0.00545 -0.0009 0.00465 -9e-005 0.00471 0.00085 0.00405 0.0016 0.00377 0.00253 0.00329 0.00336 0.00277 0.00406 0.00255 0.00512 0.00228 0.00765zm-0.04795 -0.03793l-0.00623 0.00219 -0.00422 0.0004 -0.00422 -8e-005 -0.00357 -0.00082 -0.00343 -0.00169 -0.00291 -0.00239 -0.00298 -0.003 -0.00252 -0.00384 -0.00205 -0.00467 -0.0019 -0.00635 -0.00065 -0.00443 -2e-005 -0.00403 0.00092 -0.00377 0.0014 -0.00331 0.00229 -0.00319 0.00325 -0.00277 0.00384 -0.00251 0.00434 -0.00207 0.00648 -0.00197 0.00409 -0.00067 0.00416 0.00026 0.00369 0.00078 0.00344 0.00168 0.00304 0.00234 0.00271 0.00311 0.00266 0.00378 0.00204 0.00468 0.00205 0.00629 0.00064 0.00443 -0.00018 0.00395 -0.00071 0.00384 -0.00156 0.00338 -0.00232 0.00304 -0.00307 0.00285 -0.00383 0.00251 -0.00467 0.00205z"/>
  <path class="fil0" d="M4.23457 4.25579c-0.39624,0.39119 -0.91899,0.62827 -1.47434,0.66864l0.14823 0.25673c0.57298,-0.07031 1.1065,-0.3286 1.51704,-0.73445l-0.19093 -0.19092zm-1.4247 0.69463c0.53505,-0.04972 1.03732,-0.27979 1.42443,-0.65247l0.14851 0.14851c-0.39818,0.38453 -0.90947,0.63079 -1.45835,0.70243l-0.11459 -0.19847z"/>
  <path class="fil0" d="M2.42094 4.92443c-0.55535,-0.04037 -1.0781,-0.27745 -1.47434,-0.66864l-0.19093 0.19092c0.41054,0.40585 0.94406,0.66414 1.51704,0.73445l0.14823 -0.25673zm-1.47408 -0.62648c0.38711,0.37268 0.88938,0.60275 1.42443,0.65247l-0.11459 0.19847c-0.54888,-0.07164 -1.06017,-0.3179 -1.45835,-0.70243l0.14851 -0.14851z"/>
  <polygon class="fil0" points="2.51984,4.95559 2.51984,5.17559 2.54426,5.17559 2.54426,4.99981 2.63467,5.17559 2.66173,5.17559 2.66173,4.95559 2.63775,4.95559 2.63775,5.13159 2.54712,4.95559 "/>
  <polygon class="fil0" points="1.63396,4.95498 1.69465,4.81781 1.68313,4.81271 1.67978,4.81992 1.67683,4.82436 1.67321,4.82768 1.66911,4.82996 1.66452,4.83138 1.65932,4.8317 1.65385,4.83108 1.64768,4.8295 1.64108,4.82691 1.63605,4.8383 1.66238,4.84995 1.61887,4.94831 "/>
  <polygon class="fil0" points="2.0122,2.44819 2.01265,2.35779 2.01825,2.35842 2.02264,2.35964 2.02683,2.36146 2.03122,2.36428 2.0354,2.3677 2.03958,2.37171 2.04396,2.37634 2.04833,2.38197 2.0523,2.38819 2.07555,2.41829 2.08152,2.42513 2.08669,2.42956 2.09187,2.43339 2.09765,2.43722 2.10384,2.44045 2.11023,2.44308 2.11721,2.44551 2.1244,2.44734 2.1322,2.44879 2.148,2.44827 2.15841,2.44672 2.16743,2.44317 2.17505,2.4386 2.18128,2.43244 2.18612,2.42485 2.18956,2.41608 2.19161,2.40588 2.19247,2.39428 2.19114,2.37987 2.18819,2.37026 2.18363,2.36204 2.17747,2.35501 2.1697,2.34938 2.16052,2.34492 2.14954,2.34167 2.13694,2.33981 2.12275,2.33913 2.12265,2.35834 2.13505,2.359 2.14304,2.36043 2.14983,2.36287 2.15581,2.36611 2.16059,2.37012 2.16437,2.37494 2.16694,2.38056 2.16851,2.38696 2.16907,2.39416 2.16822,2.40397 2.16659,2.41055 2.16436,2.41595 2.16114,2.42012 2.15692,2.4237 2.15211,2.42588 2.14631,2.42725 2.1397,2.42763 2.13231,2.42698 2.12491,2.42655 2.11991,2.42572 2.11532,2.42449 2.11093,2.42308 2.10733,2.42146 2.10375,2.41925 2.10076,2.41663 2.09797,2.41342 2.09559,2.41019 2.07234,2.37969 2.0626,2.36843 2.05484,2.3606 2.04667,2.35415 2.0381,2.34831 2.02912,2.34387 2.01974,2.34042 2.00995,2.33757 1.99976,2.33611 1.98936,2.33567 1.9888,2.44807 "/>
  <polygon class="fil0" points="2.40742,1.95193 2.40742,2.24519 2.45538,2.24519 2.45538,2.22693 2.42546,2.22693 2.42546,1.97041 2.45538,1.97041 2.45538,1.95193 "/>
  <polygon class="fil0" points="2.5062,2.12529 2.50818,2.13189 2.5117,2.13739 2.5161,2.14201 2.5216,2.14553 2.52798,2.14795 2.53546,2.14949 2.54404,2.14993 2.5513,2.14949 2.55658,2.14839 2.56142,2.14663 2.56582,2.14443 2.57022,2.14157 2.57396,2.13805 2.57726,2.13409 2.58056,2.12947 2.5832,2.12419 2.58694,2.13101 2.5898,2.13563 2.59287,2.13937 2.59639,2.14267 2.59991,2.14531 2.60365,2.14729 2.60783,2.14883 2.61201,2.14971 2.61641,2.14993 2.62323,2.14949 2.62785,2.14883 2.63247,2.14729 2.63687,2.14531 2.64083,2.14289 2.64501,2.13981 2.64875,2.13629 2.65227,2.13255 2.65557,2.12793 2.65557,2.14619 2.67669,2.14619 2.67669,1.98867 2.65557,1.98867 2.65557,2.08019 2.65513,2.09295 2.65381,2.10131 2.65183,2.10835 2.64919,2.11429 2.64567,2.11913 2.64171,2.12309 2.63709,2.12573 2.63137,2.12749 2.62543,2.12793 2.61971,2.12749 2.61597,2.12661 2.61267,2.12485 2.60959,2.12243 2.60717,2.11979 2.60497,2.11627 2.60321,2.11209 2.60211,2.10747 2.60145,2.10219 2.60145,1.98867 2.58034,1.98867 2.58034,2.08019 2.57968,2.09295 2.57836,2.10131 2.57638,2.10835 2.57374,2.11429 2.57044,2.11913 2.56604,2.12309 2.56164,2.12573 2.55592,2.12749 2.54998,2.12793 2.54448,2.12749 2.54052,2.12661 2.53722,2.12485 2.53414,2.12243 2.53172,2.11979 2.52952,2.11627 2.52798,2.11209 2.52666,2.10747 2.526,2.10219 2.526,1.98867 2.50466,1.98867 2.50466,2.10615 2.50488,2.11759 "/>
  <polygon class="fil0" points="2.75634,1.97041 2.75634,2.22693 2.72619,2.22693 2.72619,2.24519 2.77415,2.24519 2.77415,1.95193 2.72619,1.95193 2.72619,1.97041 "/>
  <polygon class="fil0" points="3.1925,2.33623 3.1691,2.33622 3.16905,2.42663 3.16345,2.42602 3.15905,2.42482 3.15485,2.42301 3.15046,2.42021 3.14626,2.41682 3.14206,2.41282 3.13766,2.40821 3.13326,2.40261 3.12927,2.3964 3.10588,2.36641 3.09989,2.35959 3.09469,2.35518 3.08949,2.35138 3.08369,2.34759 3.0775,2.34437 3.0711,2.34177 3.0641,2.33937 3.0569,2.33758 3.0491,2.33616 3.0333,2.33675 3.0229,2.33834 3.0139,2.34194 3.00629,2.34653 3.00009,2.35273 2.99529,2.36034 2.99188,2.36914 2.98988,2.37934 2.98907,2.39094 2.99046,2.40534 2.99346,2.41494 2.99805,2.42314 3.00425,2.43013 3.01205,2.43575 3.02124,2.44015 3.03224,2.44336 3.04484,2.44516 3.05904,2.44578 3.05905,2.42657 3.04665,2.42596 3.03865,2.42456 3.03185,2.42216 3.02586,2.41896 3.02106,2.41495 3.01726,2.41015 3.01466,2.40455 3.01307,2.39815 3.01247,2.39095 3.01328,2.38115 3.01488,2.37455 3.01708,2.36915 3.02028,2.36495 3.02449,2.36136 3.02929,2.35917 3.03509,2.35776 3.04169,2.35735 3.04909,2.35797 3.05649,2.35836 3.06149,2.35918 3.06609,2.36038 3.07049,2.36178 3.07409,2.36337 3.07768,2.36557 3.08068,2.36817 3.08348,2.37139 3.08588,2.37459 3.10926,2.405 3.11906,2.41621 3.12685,2.42401 3.13505,2.43041 3.14365,2.43622 3.15264,2.44062 3.16204,2.44402 3.17184,2.44682 3.18204,2.44825 3.19244,2.44864 "/>
 </g>
</svg>
