<?xml version="1.0" standalone="no"?>
<!DOCTYPE svg PUBLIC "-//W3C//DTD SVG 20010904//EN"
"http://www.w3.org/TR/2001/REC-SVG-20010904/DTD/svg10.dtd">
<svg version="1.0" xmlns="http://www.w3.org/2000/svg" id="svg" width="100%" height="100%" viewBox="0 0 61.2 61.2" style=" fill:none; fill-rule:evenodd; stroke-linecap:round; stroke-linejoin:round; stroke:#ffff00; stroke-width:0.2;">
<desc>Cadran</desc>
<rect x="-20.4" y="-20.4" width="102" height="102" color-rendering="optimizeSpeed" style=" fill:#ffffff; stroke:none; fill-opacity:100;" />
<radialGradient id="grd4" spreadMethod="pad" gradientUnits="objectBoundingBox" cx="0.48" cy="0.52" r="0.5" fx="0.48" fy="0.52">
<stop offset="0" style="stop-color:#c8ffc8"/>
<stop offset="1" style="stop-color:#6aff6d"/>
</radialGradient>
<path d="M58,30.6A27.4,27.4 0 1,0 3.2,30.6 A27.4,27.4 0 1,0 58,30.6 " style="fill:url(#grd4); stroke:none;" />
<radialGradient id="grd10" spreadMethod="pad" gradientUnits="objectBoundingBox" cx="0.31" cy="0.59" r="0.5" fx="0.31" fy="0.59">
<stop offset="0" style="stop-color:#616161"/>
<stop offset="1" style="stop-color:#616161"/>
</radialGradient>
<path d="M58.6,30.6A28,28 0 1,0 2.6,30.6 A28,28 0 1,0 58.6,30.6 M60.6,5.6L60.6,55.6
A5,5 0 0,1 55.6,60.6 L5.6,60.6A5,5 0 0,1 0.6,55.6 L0.6,5.6A5,5 0 0,1 5.6,0.6 L55.6,0.6
A5,5 0 0,1 60.6,5.6 " style="fill:url(#grd10); stroke:none;" />
<radialGradient id="grd22" spreadMethod="pad" gradientUnits="objectBoundingBox" cx="0.97" cy="0.95" r="0.5" fx="0.97" fy="0.95">
<stop offset="0" style="stop-color:#ffffff"/>
<stop offset="1" style="stop-color:#000000"/>
</radialGradient>
<path d="M57.4,30.6A26.8,26.8 0 1,0 3.8,30.6 A26.8,26.8 0 1,0 57.4,30.6 M58.6,30.6
A28,28 0 1,0 2.6,30.6 A28,28 0 1,0 58.6,30.6 " style="fill:url(#grd22); stroke:none;" />
<radialGradient id="grd29" spreadMethod="pad" gradientUnits="objectBoundingBox" cx="0.48" cy="0.49" r="0.5" fx="0.48" fy="0.49">
<stop offset="0" style="stop-color:#d6d6d6"/>
<stop offset="1" style="stop-color:#000000"/>
</radialGradient>
<path d="M9.2,5.6A3.6,3.6 0 1,0 2,5.6 A3.6,3.6 0 1,0 9.2,5.6 " style="fill:url(#grd29); stroke:none;" />
<linearGradient id="grd34" spreadMethod="pad" gradientUnits="objectBoundingBox" x1="0" y1="0" x2="-3.82859e-016" y2="-1">
<stop offset="0" style="stop-color:#ffffff"/>
<stop offset="1" style="stop-color:#000000"/>
</linearGradient>
<path d="M6.8,7.6L5.85,7.6L5.85,5.62309L5.35,5.78743L5.35,7.6L4.4,7.6L4.4,6.25836
A1.8,1.8 0 0,0 3.8,7.6 L3.6,7.6A2,2 0 0,1 4.4,6 L4.4,3.6L5.35,3.6L5.35,5.57691L5.85,5.41257
L5.85,3.6L6.8,3.6L6.8,4.94164A1.8,1.8 0 0,0 7.4,3.6 L7.6,3.6A2,2 0 0,1 6.8,5.2 L6.8,7.6" style="fill:url(#grd34); stroke:none;" />
<radialGradient id="grd60" spreadMethod="pad" gradientUnits="objectBoundingBox" cx="0.48" cy="0.49" r="0.5" fx="0.48" fy="0.49">
<stop offset="0" style="stop-color:#d6d6d6"/>
<stop offset="1" style="stop-color:#000000"/>
</radialGradient>
<path d="M9.2,55.6A3.6,3.6 0 1,0 2,55.6 A3.6,3.6 0 1,0 9.2,55.6 " style="fill:url(#grd60); stroke:none;" />
<linearGradient id="grd65" spreadMethod="pad" gradientUnits="objectBoundingBox" x1="0" y1="0" x2="-3.82859e-016" y2="-1">
<stop offset="0" style="stop-color:#ffffff"/>
<stop offset="1" style="stop-color:#000000"/>
</linearGradient>
<path d="M6.8,57.6L5.85,57.6L5.85,55.6231L5.35,55.7874L5.35,57.6L4.4,57.6L4.4,56.2584
A1.8,1.8 0 0,0 3.8,57.6 L3.6,57.6A2,2 0 0,1 4.4,56 L4.4,53.6L5.35,53.6L5.35,55.5769
L5.85,55.4126L5.85,53.6L6.8,53.6L6.8,54.9416A1.8,1.8 0 0,0 7.4,53.6 L7.6,53.6A2,2 0 0,1 6.8,55.2 
L6.8,57.6" style="fill:url(#grd65); stroke:none;" />
<radialGradient id="grd91" spreadMethod="pad" gradientUnits="objectBoundingBox" cx="0.48" cy="0.49" r="0.5" fx="0.48" fy="0.49">
<stop offset="0" style="stop-color:#d6d6d6"/>
<stop offset="1" style="stop-color:#000000"/>
</radialGradient>
<path d="M59.2,55.6A3.6,3.6 0 1,0 52,55.6 A3.6,3.6 0 1,0 59.2,55.6 " style="fill:url(#grd91); stroke:none;" />
<linearGradient id="grd96" spreadMethod="pad" gradientUnits="objectBoundingBox" x1="0" y1="0" x2="-3.82859e-016" y2="-1">
<stop offset="0" style="stop-color:#ffffff"/>
<stop offset="1" style="stop-color:#000000"/>
</linearGradient>
<path d="M56.8,57.6L55.85,57.6L55.85,55.6231L55.35,55.7874L55.35,57.6L54.4,57.6L54.4,56.2584
A1.8,1.8 0 0,0 53.8,57.6 L53.6,57.6A2,2 0 0,1 54.4,56 L54.4,53.6L55.35,53.6L55.35,55.5769
L55.85,55.4126L55.85,53.6L56.8,53.6L56.8,54.9416A1.8,1.8 0 0,0 57.4,53.6 L57.6,53.6
A2,2 0 0,1 56.8,55.2 L56.8,57.6" style="fill:url(#grd96); stroke:none;" />
<radialGradient id="grd122" spreadMethod="pad" gradientUnits="objectBoundingBox" cx="0.48" cy="0.49" r="0.5" fx="0.48" fy="0.49">
<stop offset="0" style="stop-color:#d6d6d6"/>
<stop offset="1" style="stop-color:#000000"/>
</radialGradient>
<path d="M59.2,5.6A3.6,3.6 0 1,0 52,5.6 A3.6,3.6 0 1,0 59.2,5.6 " style="fill:url(#grd122); stroke:none;" />
<linearGradient id="grd127" spreadMethod="pad" gradientUnits="objectBoundingBox" x1="0" y1="0" x2="-3.82859e-016" y2="-1">
<stop offset="0" style="stop-color:#ffffff"/>
<stop offset="1" style="stop-color:#000000"/>
</linearGradient>
<path d="M56.8,7.6L55.85,7.6L55.85,5.62309L55.35,5.78743L55.35,7.6L54.4,7.6L54.4,6.25836
A1.8,1.8 0 0,0 53.8,7.6 L53.6,7.6A2,2 0 0,1 54.4,6 L54.4,3.6L55.35,3.6L55.35,5.57691
L55.85,5.41257L55.85,3.6L56.8,3.6L56.8,4.94164A1.8,1.8 0 0,0 57.4,3.6 L57.6,3.6A2,2 0 0,1 56.8,5.2 
L56.8,7.6" style="fill:url(#grd127); stroke:none;" />
<radialGradient id="grd153" spreadMethod="pad" gradientUnits="objectBoundingBox" cx="0.31" cy="0.59" r="0.5" fx="0.31" fy="0.59">
<stop offset="0" style="stop-color:#000000"/>
<stop offset="1" style="stop-color:#000000"/>
</radialGradient>
<path d="M53.6836,34.4418L56.3426,34.9106L56.2644,35.3538L53.6054,34.8849L53.6836,34.4418
M54.4287,32.4589L56.6203,32.6506L56.5811,33.0989L54.3894,32.9072L54.4287,32.4589M54,30.15
L56.7,30.15L56.7,31.05L54,31.05L54,30.15M54.3894,28.2928L56.5811,28.1011L56.6203,28.5494
L54.4287,28.7411L54.3894,28.2928M53.6054,26.3151L56.2644,25.8462L56.3426,26.2894L53.6836,26.7582
L53.6054,26.3151M53.6274,24.1969L55.7524,23.6275L55.8689,24.0622L53.7439,24.6316L53.6274,24.1969
M52.5119,22.3853L55.049,21.4618L55.2029,21.8847L52.6658,22.8082L52.5119,22.3853M52.1657,20.2955
L54.1595,19.3657L54.3497,19.7736L52.3558,20.7033L52.1657,20.2955M50.64,18.5103L52.9783,17.1603
L53.4283,17.9397L51.09,19.2897L50.64,18.5103M50.0487,16.7072L51.8508,15.4453L52.1089,15.814
L50.3068,17.0758L50.0487,16.7072M48.3808,15.3864L50.4491,13.6509L50.7384,13.9956L48.6701,15.7311
L48.3808,15.3864M47.3408,13.541L48.8964,11.9854L49.2146,12.3036L47.659,13.8592L47.3408,13.541
M45.4689,12.5299L47.2044,10.4616L47.5491,10.7509L45.8136,12.8192L45.4689,12.5299M44.1242,10.8932
L45.386,9.09108L45.7547,9.34919L44.4928,11.1513L44.1242,10.8932M41.9103,10.11L43.2603,7.77174
L44.0397,8.22174L42.6897,10.56L41.9103,10.11M40.4967,8.84415L41.4264,6.85028L41.8343,7.04046
L40.9045,9.03433L40.4967,8.84415M38.3918,8.53424L39.3153,5.99707L39.7382,6.15098L38.8147,8.68815
L38.3918,8.53424M36.5684,7.45614L37.1378,5.3311L37.5725,5.44757L37.0031,7.57261L36.5684,7.45614
M34.4418,7.51643L34.9106,4.85745L35.3538,4.93559L34.8849,7.59457L34.4418,7.51643M32.4589,6.77134
L32.6506,4.57971L33.0989,4.61893L32.9072,6.81056L32.4589,6.77134M30.15,7.2L30.15,4.5
L31.05,4.5L31.05,7.2L30.15,7.2M28.2928,6.81056L28.1011,4.61893L28.5494,4.57971L28.7411,6.77134
L28.2928,6.81056M26.3151,7.59457L25.8462,4.93559L26.2894,4.85745L26.7582,7.51643L26.3151,7.59457
M24.1969,7.57261L23.6275,5.44757L24.0622,5.3311L24.6316,7.45614L24.1969,7.57261M22.3853,8.68815
L21.4618,6.15098L21.8847,5.99707L22.8082,8.53424L22.3853,8.68815M20.2955,9.03433L19.3657,7.04046
L19.7736,6.85028L20.7033,8.84415L20.2955,9.03433M18.5103,10.56L17.1603,8.22174L17.9397,7.77174
L19.2897,10.11L18.5103,10.56M16.7072,11.1513L15.4453,9.34919L15.814,9.09108L17.0758,10.8932
L16.7072,11.1513M15.3864,12.8192L13.6509,10.7509L13.9956,10.4616L15.7311,12.5299L15.3864,12.8192
M13.541,13.8592L11.9854,12.3036L12.3036,11.9854L13.8592,13.541L13.541,13.8592M12.5299,15.7311
L10.4616,13.9956L10.7509,13.6509L12.8192,15.3864L12.5299,15.7311M10.8932,17.0758L9.09108,15.814
L9.34919,15.4453L11.1513,16.7072L10.8932,17.0758M10.11,19.2897L7.77174,17.9397L8.22174,17.1603
L10.56,18.5103L10.11,19.2897M8.84415,20.7033L6.85028,19.7736L7.04046,19.3657L9.03433,20.2955
L8.84415,20.7033M8.53424,22.8082L5.99707,21.8847L6.15098,21.4618L8.68815,22.3853L8.53424,22.8082
M7.45614,24.6316L5.3311,24.0622L5.44757,23.6275L7.57261,24.1969L7.45614,24.6316M7.51643,26.7582
L4.85745,26.2894L4.93559,25.8462L7.59457,26.3151L7.51643,26.7582M6.77134,28.7411L4.57971,28.5494
L4.61893,28.1011L6.81056,28.2928L6.77134,28.7411M7.2,31.05L4.5,31.05L4.5,30.15L7.2,30.15
L7.2,31.05M6.81056,32.9072L4.61893,33.0989L4.57971,32.6506L6.77134,32.4589L6.81056,32.9072
M7.59457,34.8849L4.93559,35.3538L4.85745,34.9106L7.51643,34.4418L7.59457,34.8849M7.57261,37.0031
L5.44757,37.5725L5.3311,37.1378L7.45614,36.5684L7.57261,37.0031M8.68815,38.8147L6.15098,39.7382
L5.99707,39.3153L8.53424,38.3918L8.68815,38.8147M9.03433,40.9045L7.04046,41.8343L6.85028,41.4264
L8.84415,40.4967L9.03433,40.9045M10.56,42.6897L8.22174,44.0397L7.77174,43.2603L10.11,41.9103
L10.56,42.6897M11.1513,44.4928L9.34919,45.7547L9.09108,45.386L10.8932,44.1242L11.1513,44.4928
M12.8192,45.8136L10.7509,47.5491L10.4616,47.2044L12.5299,45.4689L12.8192,45.8136M13.8592,47.659
L12.3036,49.2146L11.9854,48.8964L13.541,47.3408L13.8592,47.659M15.7311,48.6701L13.9956,50.7384
L13.6509,50.4491L15.3864,48.3808L15.7311,48.6701M17.0758,50.3068L15.814,52.1089L15.4453,51.8508
L16.7072,50.0487L17.0758,50.3068M19.2897,51.09L17.9397,53.4283L17.1603,52.9783L18.5103,50.64
L19.2897,51.09M20.7033,52.3558L19.7736,54.3497L19.3657,54.1595L20.2955,52.1657L20.7033,52.3558
M22.8082,52.6658L21.8847,55.2029L21.4618,55.049L22.3853,52.5119L22.8082,52.6658M24.6316,53.7439
L24.0622,55.8689L23.6275,55.7524L24.1969,53.6274L24.6316,53.7439M26.7582,53.6836L26.2894,56.3426
L25.8462,56.2644L26.3151,53.6054L26.7582,53.6836M28.7411,54.4287L28.5494,56.6203L28.1011,56.5811
L28.2928,54.3894L28.7411,54.4287M31.05,54L31.05,56.7L30.15,56.7L30.15,54L31.05,54
M32.9072,54.3894L33.0989,56.5811L32.6506,56.6203L32.4589,54.4287L32.9072,54.3894M34.8849,53.6054
L35.3538,56.2644L34.9106,56.3426L34.4418,53.6836L34.8849,53.6054M37.0031,53.6274L37.5725,55.7524
L37.1378,55.8689L36.5684,53.7439L37.0031,53.6274M38.8147,52.5119L39.7382,55.049L39.3153,55.2029
L38.3918,52.6658L38.8147,52.5119M40.9045,52.1657L41.8343,54.1595L41.4264,54.3497L40.4967,52.3558
L40.9045,52.1657M42.6897,50.64L44.0397,52.9783L43.2603,53.4283L41.9103,51.09L42.6897,50.64
M44.4928,50.0487L45.7547,51.8508L45.386,52.1089L44.1242,50.3068L44.4928,50.0487M45.8136,48.3808
L47.5491,50.4491L47.2044,50.7384L45.4689,48.6701L45.8136,48.3808M47.659,47.3408L49.2146,48.8964
L48.8964,49.2146L47.3408,47.659L47.659,47.3408M48.6701,45.4689L50.7384,47.2044L50.4491,47.5491
L48.3808,45.8136L48.6701,45.4689M50.3068,44.1242L52.1089,45.386L51.8508,45.7547L50.0487,44.4928
L50.3068,44.1242M51.09,41.9103L53.4283,43.2603L52.9783,44.0397L50.64,42.6897L51.09,41.9103
M52.3558,40.4967L54.3497,41.4264L54.1595,41.8343L52.1657,40.9045L52.3558,40.4967M52.6658,38.3918
L55.2029,39.3153L55.049,39.7382L52.5119,38.8147L52.6658,38.3918M53.7439,36.5684L55.8689,37.1378
L55.7524,37.5725L53.6274,37.0031L53.7439,36.5684" style="fill:url(#grd153); stroke:none;" />
<radialGradient id="grd228" spreadMethod="pad" gradientUnits="objectBoundingBox" cx="0.31" cy="0.59" r="0.5" fx="0.31" fy="0.59">
<stop offset="0" style="stop-color:#000000"/>
<stop offset="1" style="stop-color:#000000"/>
</radialGradient>
<path d="M30.5812,51.2125L30.4283,51.2183L30.289,51.2356L30.1634,51.2644L30.0515,51.3048
L29.9523,51.3563L29.8647,51.4186L29.7887,51.4918L29.7244,51.5756L29.6731,51.667L29.6366,51.7625
L29.6146,51.8621L29.6073,51.9658L29.6128,52.0537L29.6292,52.1373L29.6567,52.2165L29.6951,52.2915
L29.7455,52.3613L29.8091,52.4252L29.8859,52.4832L29.9757,52.5353L30.0879,52.5843L30.2318,52.6331
L30.4072,52.6815L30.6143,52.7297L30.696,52.7488L30.7613,52.7687L30.8101,52.7893L30.8424,52.8107
L30.864,52.8324L30.8795,52.8554L30.8888,52.8796L30.8919,52.9053L30.8881,52.9399L30.8769,52.9718
L30.8581,53.0011L30.8319,53.0276L30.7982,53.0496L30.7572,53.0653L30.7089,53.0747L30.6533,53.0778
L30.5851,53.0736L30.5248,53.0609L30.4722,53.0398L30.4274,53.0103L30.39,52.9715L30.3597,52.9225
L30.3364,52.8634L30.3201,52.7942L29.6793,52.8317L29.7115,52.9912L29.7662,53.1275L29.8432,53.2407
L29.9427,53.3307L30.0659,53.3993L30.2141,53.4483L30.3874,53.4777L30.5857,53.4875L30.7484,53.4821
L30.8928,53.4659L31.0189,53.439L31.1267,53.4012L31.2192,53.3541L31.2993,53.2988L31.367,53.2355
L31.4224,53.1641L31.4654,53.0875L31.4961,53.0086L31.5145,52.9273L31.5207,52.8437L31.5087,52.7204
L31.4726,52.6085L31.4126,52.508L31.3286,52.419L31.2172,52.3399L31.0738,52.269L30.8984,52.2063
L30.6908,52.1519L30.5666,52.1214L30.4672,52.09L30.3925,52.0576L30.3426,52.0244L30.3098,51.9895
L30.2864,51.9523L30.2723,51.9129L30.2676,51.8713L30.2725,51.8276L30.2873,51.7867L30.3119,51.7485
L30.3464,51.713L30.39,51.6831L30.4419,51.6617L30.5021,51.6489L30.5707,51.6447L30.6627,51.653
L30.7433,51.6781L30.8127,51.7198L30.8709,51.7782L30.9004,51.8242L30.9245,51.8795L30.9432,51.9443
L30.9564,52.0183L31.6032,51.9778L31.5772,51.8186L31.5278,51.6739L31.4549,51.5439L31.3586,51.4286
L31.229,51.334L31.0562,51.2665L30.8403,51.226L30.5812,51.2125M21.2626,49.4577L20.1797,48.8326
L20.0099,49.1268L20.5735,49.4521L20.5361,49.4615L20.5016,49.4694L20.4701,49.476L20.4415,49.4811
L20.4083,49.4858L20.3628,49.4909L20.305,49.4964L20.2349,49.5024L20.1137,49.5169L20.0083,49.537
L19.9187,49.5626L19.8448,49.5938L19.7828,49.631L19.7287,49.6745L19.6825,49.7243L19.6443,49.7805
L19.6166,49.8372L19.5981,49.8955L19.5888,49.9555L19.5886,50.0171L19.5975,50.0784L19.6154,50.137
L19.6423,50.1931L19.6782,50.2467L19.7254,50.2993L19.7864,50.3526L19.8611,50.4066L19.9495,50.4612
L20.0375,50.5082L20.1188,50.5438L20.1935,50.5679L20.2616,50.5806L20.325,50.5834L20.3853,50.5779
L20.4428,50.564L20.4973,50.5418L20.5505,50.5099L20.6042,50.4672L20.6582,50.4135L20.7126,50.3489
L20.368,50.1109L20.3293,50.1563L20.2919,50.1913L20.2556,50.216L20.2205,50.2302L20.1861,50.2356
L20.1516,50.2338L20.117,50.2247L20.0825,50.2084L20.0522,50.1874L20.0278,50.1628L20.0092,50.1345
L19.9965,50.1026L19.9901,50.0694L19.9904,50.0372L19.9974,50.006L20.0112,49.9758L20.03,49.9496
L20.0549,49.9257L20.0857,49.9043L20.1225,49.8853L20.1715,49.8681L20.2389,49.8521L20.3246,49.8372
L20.4288,49.8235L20.6019,49.7995L20.7508,49.77L20.8752,49.7349L20.9754,49.6942L21.0593,49.6469
L21.1352,49.5917L21.2029,49.5286L21.2626,49.4577M19.5612,49.3781L19.4902,49.3628L19.4242,49.351
L19.3633,49.3427L19.3073,49.3379L19.2526,49.3362L19.1953,49.3373L19.1354,49.3412L19.0729,49.3479
L19.5728,48.4821L19.2077,48.2714L18.4449,49.5925L18.7435,49.765L18.809,49.7245L18.8772,49.6921
L18.9481,49.6677L19.0217,49.6515L19.101,49.6437L19.1888,49.6449L19.2853,49.655L19.3903,49.674
L19.5612,49.3781M13.0847,42.2626L12.4595,41.1797L12.1653,41.3496L12.4907,41.9132L12.4536,41.9026
L12.4198,41.8922L12.3893,41.8821L12.362,41.8723L12.3308,41.8597L12.2889,41.8414L12.236,41.8173
L12.1723,41.7874L12.0601,41.7394L11.9588,41.7041L11.8684,41.6815L11.7888,41.6715L11.7165,41.6727
L11.6479,41.6833L11.583,41.7034L11.5218,41.7329L11.4695,41.7682L11.4243,41.8095L11.3863,41.8567
L11.3553,41.91L11.3323,41.9675L11.3185,42.0272L11.3138,42.0893L11.3181,42.1536L11.3327,42.2228
L11.3589,42.2995L11.3966,42.3836L11.4458,42.4751L11.4985,42.5598L11.5511,42.6312L11.6038,42.6895
L11.6564,42.7345L11.7098,42.7686L11.7649,42.794L11.8216,42.8107L11.8799,42.8187L11.9419,42.8178
L12.0098,42.8076L12.0834,42.7881L12.1628,42.7594L11.9834,42.3809L11.9272,42.4009L11.8772,42.4125
L11.8335,42.4157L11.796,42.4105L11.7635,42.398L11.7345,42.3791L11.7091,42.354L11.6874,42.3226
L11.6716,42.2893L11.6628,42.2557L11.6608,42.222L11.6658,42.188L11.6768,42.156L11.6932,42.1283
L11.7149,42.1048L11.7419,42.0855L11.7714,42.0722L11.8048,42.064L11.8422,42.0609L11.8836,42.0628
L11.9346,42.0724L12.001,42.0922L12.0827,42.1222L12.1797,42.1624L12.3417,42.2282L12.4853,42.2771
L12.6107,42.3089L12.7177,42.3238L12.8141,42.3248L12.9074,42.3149L12.9976,42.2941L13.0847,42.2626
M12.1492,41.203L11.8523,41.3743L10.6912,41.1681L10.5096,40.8535L11.308,40.3926L11.2138,40.2295
L11.4938,40.0679L11.588,40.2309L11.8308,40.0907L12.0124,40.4053L11.7696,40.5455L12.1492,41.203
M11.6901,41.0545L11.4896,40.7071L11.0808,40.9432L11.6901,41.0545M9.95,31.6487L7.75,32.1382
L7.75,31.4925L8.98161,31.26L7.75,30.9198L7.75,30.2764L8.97997,29.9354L7.75,29.7026
L7.75,29.0603L9.95,29.5453L9.95,30.2119L8.56487,30.5977L9.95,30.9821L9.95,31.6487
M11.478,21.0626L11.5445,21.0697L11.6081,21.07L11.6687,21.0636L11.7268,21.05L11.7826,21.0292
L11.8363,21.001L11.8877,20.9656L11.9382,20.9202L11.9889,20.8625L12.0397,20.7925L12.0908,20.71
L12.1372,20.6215L12.1715,20.5378L12.1937,20.4587L12.2039,20.3842L12.2031,20.3137L12.1926,20.2463
L12.1723,20.1819L12.1422,20.1206L12.1046,20.0643L12.0615,20.0146L12.0129,19.9718L11.959,19.9357
L11.9141,19.9127L11.8697,19.8961L11.8259,19.8858L11.7827,19.8818L11.7403,19.8836L11.699,19.8909
L11.6588,19.9036L11.6197,19.9217L11.5949,19.9369L11.5683,19.957L11.5399,19.982L11.5097,20.0118
L11.5081,19.9528L11.5011,19.8984L11.4885,19.8487L11.4704,19.8036L11.447,19.7632L11.4182,19.7274
L11.3841,19.6962L11.3446,19.6696L11.2718,19.637L11.1969,19.6221L11.1199,19.6249L11.0408,19.6454
L10.9615,19.6869L10.8838,19.753L10.8079,19.8434L10.7336,19.9584L10.6788,20.066L10.642,20.1673
L10.6233,20.2623L10.6228,20.351L10.6388,20.4344L10.6701,20.5135L10.7166,20.5883L10.7782,20.6587
L11.0364,20.3529L10.9967,20.3184L10.9662,20.2849L10.9447,20.2524L10.9324,20.2208L10.9279,20.1897
L10.93,20.1583L10.9386,20.1267L10.9537,20.0949L10.9729,20.0668L10.9946,20.0446L11.0188,20.0283
L11.0455,20.0179L11.0736,20.0135L11.1022,20.0152L11.1313,20.0231L11.1607,20.0372L11.189,20.0574
L11.2117,20.0824L11.2289,20.1121L11.2406,20.1465L11.2458,20.1831L11.2437,20.2193L11.2343,20.2553
L11.2175,20.2909L11.2119,20.3L11.2047,20.3104L11.1961,20.3222L11.1859,20.3353L11.433,20.5028
L11.4441,20.4622L11.4555,20.4271L11.4672,20.3976L11.4793,20.3735L11.5042,20.3375L11.533,20.3092
L11.5655,20.2887L11.6018,20.2759L11.6409,20.2713L11.6818,20.2755L11.7244,20.2885L11.7687,20.3102
L11.8091,20.3375L11.8415,20.3683L11.866,20.4026L11.8826,20.4404L11.891,20.4795L11.8911,20.5178
L11.8827,20.5553L11.8659,20.592L11.8442,20.6235L11.819,20.649L11.7903,20.6683L11.7581,20.6816
L11.7208,20.6879L11.6768,20.6865L11.6262,20.6773L11.5689,20.6604L11.4085,21.0486L11.478,21.0626
M12.0213,19.7548L11.9495,19.7242L11.8762,19.6884L11.8016,19.6475L11.6351,19.5403L11.5061,19.4324
L11.4144,19.3239L11.3602,19.2149L11.339,19.1021L11.3464,18.9825L11.3823,18.8562L11.4468,18.7231
L11.485,18.6617L11.5238,18.6084L11.5633,18.5633L11.6035,18.5265L11.644,18.4964L11.6848,18.4715
L11.7258,18.452L11.767,18.4377L11.8077,18.4277L11.8476,18.4209L11.8864,18.4173L11.9243,18.4169
L11.9624,18.4196L12.0021,18.4251L12.0433,18.4335L12.086,18.4447L12.1687,18.4712L12.2502,18.5032
L12.3307,18.5406L12.4101,18.5834L12.5707,18.6861L12.699,18.79L12.7949,18.8953L12.8585,19.0018
L12.8894,19.1138L12.8874,19.2356L12.8525,19.3671L12.7845,19.5085L12.7362,19.5846L12.6859,19.6491
L12.6336,19.702L12.5793,19.7432L12.5222,19.7746L12.4617,19.7979L12.3978,19.8132L12.3303,19.8204
L12.2783,19.82L12.2212,19.8131L12.1591,19.7999L12.0918,19.7802L12.0213,19.7548M12.2243,19.3996
L12.3071,19.4291L12.3734,19.4418L12.4273,19.4404L12.4726,19.4275L12.5094,19.403L12.5377,19.3671
L12.5506,19.3392L12.5576,19.3103L12.5588,19.2804L12.5541,19.2496L12.5429,19.218L12.5246,19.1859
L12.4991,19.1532L12.4666,19.1199L12.4239,19.0842L12.3683,19.0441L12.2996,18.9997L12.2179,18.951
L12.0976,18.8851L11.9953,18.837L11.911,18.8067L11.8448,18.794L11.7916,18.7962L11.7464,18.8103
L11.7091,18.8363L11.6798,18.8742L11.6614,18.9191L11.658,18.9644L11.6695,19.01L11.6959,19.056
L11.7409,19.1052L11.8081,19.1607L11.8976,19.2223L12.0092,19.29L12.125,19.3532L12.2243,19.3996
M18.7554,12.7325L18.8086,12.7793L18.8626,12.8188L18.9175,12.8508L18.9732,12.8756L19.0303,12.8929
L19.0891,12.9028L19.1496,12.9052L19.2119,12.9002L19.2783,12.8862L19.351,12.8615L19.4301,12.8263
L19.5156,12.7804L19.6,12.727L19.6716,12.6716L19.7304,12.6142L19.7764,12.5548L19.811,12.4934
L19.8356,12.4297L19.8502,12.3638L19.8548,12.2957L19.8504,12.2281L19.8379,12.1636L19.8173,12.1022
L19.7886,12.0439L19.7611,12.0016L19.7311,11.965L19.6983,11.9342L19.6629,11.9091L19.6253,11.8895
L19.5858,11.8752L19.5447,11.866L19.5017,11.8622L19.4726,11.8629L19.4395,11.867L19.4025,11.8745
L19.3614,11.8852L19.3896,11.8333L19.4106,11.7827L19.4246,11.7334L19.4315,11.6853L19.4314,11.6385
L19.4243,11.5931L19.4104,11.549L19.3896,11.5063L19.3428,11.4416L19.2854,11.3913L19.2173,11.3552
L19.1385,11.3334L19.0491,11.3298L18.9488,11.3481L18.8378,11.3885L18.716,11.4509L18.6147,11.5167
L18.5322,11.586L18.4685,11.6589L18.4237,11.7355L18.3959,11.8157L18.3835,11.8999L18.3863,11.9879
L18.4045,12.0797L18.7809,11.9439L18.7638,11.8942L18.7542,11.85L18.7519,11.8111L18.757,11.7776
L18.7687,11.7483L18.7861,11.7222L18.8094,11.6991L18.8384,11.6792L18.869,11.6645L18.8989,11.6561
L18.928,11.654L18.9563,11.6584L18.9829,11.6686L19.0068,11.6844L19.028,11.7058L19.0465,11.7327
L19.0608,11.7644L19.068,11.7974L19.0681,11.8317L19.061,11.8673L19.0473,11.9016L19.0273,11.9319
L19.0012,11.9583L18.9688,11.9808L18.9594,11.9858L18.948,11.9913L18.9346,11.9972L18.9193,12.0035
L19.0495,12.2721L19.0794,12.2424L19.1068,12.2177L19.1317,12.198L19.1542,12.1833L19.1938,12.1645
L19.2328,12.1544L19.2713,12.1529L19.3092,12.16L19.3453,12.1756L19.3786,12.1997L19.409,12.2322
L19.4365,12.2731L19.4578,12.317L19.4705,12.3599L19.4746,12.4018L19.4701,12.4428L19.4578,12.4809
L19.4387,12.5141L19.4127,12.5424L19.3798,12.5658L19.3453,12.5822L19.3107,12.5917L19.2762,12.5941
L19.2416,12.5894L19.2062,12.5763L19.1688,12.5531L19.1296,12.5198L19.0884,12.4765L18.7554,12.7325
M19.9658,12.0337L20.2988,11.7776L20.34,11.821L20.3792,11.8542L20.4166,11.8774L20.4521,11.8906
L20.4866,11.8952L20.5211,11.8928L20.5557,11.8834L20.5902,11.867L20.6231,11.8435L20.6491,11.8152
L20.6683,11.782L20.6805,11.744L20.685,11.703L20.6809,11.661L20.6682,11.6181L20.6469,11.5743
L20.6194,11.5333L20.589,11.5008L20.5557,11.4768L20.5196,11.4611L20.4817,11.4541L20.4433,11.4556
L20.4043,11.4657L20.3647,11.4844L20.3422,11.4992L20.3172,11.5189L20.2898,11.5436L20.26,11.5732
L20.1297,11.3046L20.1451,11.2983L20.1584,11.2925L20.1698,11.287L20.1792,11.2819L20.2116,11.2595
L20.2377,11.2331L20.2577,11.2028L20.2714,11.1685L20.2785,11.1328L20.2785,11.0985L20.2713,11.0655
L20.2569,11.0339L20.2384,11.007L20.2173,10.9856L20.1934,10.9698L20.1668,10.9595L20.1384,10.9552
L20.1093,10.9572L20.0794,10.9656L20.0488,10.9803L20.0198,11.0003L19.9966,11.0234L19.9791,11.0495
L19.9674,11.0787L19.9623,11.1122L19.9646,11.1511L19.9743,11.1954L19.9914,11.2451L19.6149,11.3809
L19.5968,11.289L19.5939,11.201L19.6064,11.1169L19.6341,11.0366L19.679,10.9601L19.7426,10.8872
L19.8251,10.8178L19.9265,10.7521L20.0482,10.6897L20.1592,10.6493L20.2595,10.6309L20.349,10.6346
L20.4277,10.6564L20.4958,10.6925L20.5532,10.7428L20.6,10.8074L20.6208,10.8502L20.6348,10.8943
L20.6418,10.9397L20.6419,10.9865L20.635,11.0345L20.6211,11.0839L20.6,11.1345L20.5719,11.1864
L20.6129,11.1756L20.65,11.1682L20.683,11.1641L20.7121,11.1633L20.7551,11.1672L20.7963,11.1763
L20.8357,11.1907L20.8733,11.2103L20.9087,11.2353L20.9415,11.2662L20.9716,11.3027L20.999,11.345
L21.0277,11.4033L21.0483,11.4647L21.0608,11.5292L21.0652,11.5969L21.0606,11.665L21.046,11.7308
L21.0214,11.7945L20.9868,11.856L20.9408,11.9154L20.882,11.9728L20.8104,12.0282L20.726,12.0816
L20.6405,12.1274L20.5615,12.1627L20.4887,12.1873L20.4224,12.2014L20.36,12.2064L20.2995,12.2039
L20.2407,12.194L20.1837,12.1767L20.1279,12.152L20.073,12.1199L20.019,12.0805L19.9658,12.0337
M29.5495,9.95L29.5495,7.75L30.1843,7.75L31.0127,8.96715L31.0127,7.75L31.6535,7.75
L31.6535,9.95L31.0127,9.95L30.1888,8.74204L30.1888,9.95L29.5495,9.95M40.7426,11.8274
L40.7566,11.758L41.1448,11.9183L41.1279,11.9756L41.1187,12.0263L41.1173,12.0702L41.1236,12.1075
L41.1369,12.1397L41.1563,12.1684L41.1817,12.1936L41.2132,12.2154L41.2499,12.2321L41.2874,12.2405
L41.3258,12.2405L41.3648,12.232L41.4026,12.2154L41.4369,12.1909L41.4677,12.1585L41.495,12.1181
L41.5167,12.0738L41.5297,12.0312L41.5339,11.9904L41.5293,11.9513L41.5165,11.9149L41.496,11.8824
L41.4677,11.8537L41.4317,11.8287L41.4077,11.8166L41.3781,11.8049L41.343,11.7935L41.3024,11.7825
L41.4699,11.5354L41.483,11.5455L41.4948,11.5542L41.5052,11.5613L41.5143,11.5669L41.5499,11.5837
L41.5859,11.5931L41.6221,11.5952L41.6587,11.59L41.6931,11.5783L41.7228,11.5611L41.7478,11.5384
L41.768,11.5102L41.7821,11.4807L41.79,11.4517L41.7917,11.4231L41.7873,11.3949L41.7769,11.3682
L41.7606,11.344L41.7384,11.3223L41.7103,11.3032L41.6785,11.288L41.6469,11.2794L41.6156,11.2774
L41.5844,11.2818L41.5528,11.2942L41.5203,11.3156L41.4868,11.3461L41.4523,11.3858L41.1465,11.1277
L41.2169,11.066L41.2917,11.0196L41.3708,10.9883L41.4542,10.9722L41.5429,10.9727L41.6379,10.9914
L41.7392,11.0282L41.8468,11.0831L41.9618,11.1573L42.0522,11.2333L42.1183,11.3109L42.1598,11.3902
L42.1803,11.4693L42.1831,11.5463L42.1682,11.6212L42.1356,11.694L42.109,11.7335L42.0778,11.7676
L42.042,11.7964L42.0016,11.8198L41.9565,11.8379L41.9068,11.8505L41.8524,11.8576L41.7934,11.8592
L41.8232,11.8893L41.8482,11.9177L41.8683,11.9443L41.8835,11.9691L41.9016,12.0082L41.9143,12.0485
L41.9216,12.0898L41.9235,12.1322L41.9194,12.1754L41.9091,12.2191L41.8925,12.2635L41.8696,12.3084
L41.8334,12.3624L41.7906,12.4109L41.741,12.454L41.6846,12.4916L41.6233,12.5217L41.5589,12.542
L41.4915,12.5525L41.421,12.5533L41.3466,12.5432L41.2675,12.5209L41.1837,12.4866L41.0952,12.4402
L41.0128,12.3892L40.9427,12.3383L40.885,12.2876L40.8397,12.2372L40.8042,12.1857L40.776,12.132
L40.7552,12.0762L40.7416,12.0181L40.7352,11.9575L40.7355,11.8939L40.7426,11.8274M48.8393,19.417
L48.9172,19.3427L49.0119,19.2704L49.1235,19.2001L49.293,19.1146L49.4496,19.0612L49.5934,19.0398
L49.7243,19.0506L49.8426,19.0904L49.9488,19.1563L50.0428,19.2484L50.1246,19.3665L50.1648,19.4412
L50.1958,19.5104L50.2176,19.5741L50.2302,19.6322L50.235,19.6868L50.2335,19.74L50.2256,19.7918
L50.2114,19.8421L50.1907,19.8913L50.1636,19.9394L50.13,19.9866L50.0899,20.0328L49.8384,19.6995
L49.8685,19.6711L49.8917,19.6434L49.908,19.6167L49.9173,19.5907L49.9208,19.5653L49.9192,19.5401
L49.9126,19.5153L49.901,19.4908L49.8716,19.4526L49.8339,19.4256L49.7879,19.4099L49.7336,19.4055
L49.6831,19.4126L49.6157,19.4325L49.5315,19.4653L49.4305,19.5108L49.48,19.5257L49.5254,19.5434
L49.5669,19.5641L49.6043,19.5877L49.6385,19.6152L49.6704,19.6476L49.6998,19.685L49.7268,19.7273
L49.7673,19.8152L49.7883,19.9054L49.79,19.9979L49.7724,20.0926L49.7365,20.1834L49.6837,20.2639
L49.6139,20.3342L49.5271,20.3943L49.4621,20.4268L49.3954,20.4501L49.3271,20.4642L49.2572,20.4692
L49.1881,20.4647L49.122,20.4507L49.0591,20.427L48.9992,20.3937L48.9423,20.3502L48.8883,20.296
L48.8372,20.231L48.7889,20.1553L48.7396,20.0603L48.7041,19.9701L48.6825,19.8847L48.6748,19.8042
L48.6807,19.7261L48.6999,19.6483L48.7324,19.5707L48.7783,19.4933L48.8393,19.417M49.0796,19.7344
L49.1276,19.7023L49.1782,19.6772L49.2266,19.662L49.2727,19.6567L49.3165,19.6611L49.3565,19.674
L49.3913,19.694L49.4208,19.721L49.4452,19.7552L49.462,19.7925L49.4698,19.831L49.4687,19.8707
L49.4587,19.9116L49.4392,19.9518L49.4095,19.9896L49.3698,20.025L49.3199,20.0579L49.2679,20.0839
L49.2191,20.1002L49.1734,20.1066L49.131,20.1032L49.0927,20.0915L49.0595,20.073L49.0314,20.0477
L49.0084,20.0156L48.9907,19.9764L48.9823,19.9359L48.983,19.894L48.993,19.8508L49.0123,19.8087
L49.0412,19.7698L49.0796,19.7344M51.25,29.7138L53.45,29.7138L53.45,31.5357L52.9803,31.5357
L52.9803,30.3952L52.6306,30.3952L52.6306,31.4531L52.1819,31.4531L52.1819,30.3952L51.7482,30.3952
L51.7482,31.5687L51.25,31.5687L51.25,29.7138M50.0769,40.4284L50.0616,40.4994L50.0499,40.5653
L50.0415,40.6263L50.0367,40.6822L50.035,40.737L50.0361,40.7943L50.04,40.8542L50.0467,40.9166
L49.181,40.4168L48.9702,40.7819L50.2914,41.5447L50.4638,41.2461L50.4233,41.1806L50.3909,41.1124
L50.3666,41.0415L50.3503,40.9679L50.3425,40.8886L50.3437,40.8007L50.3538,40.7043L50.3729,40.5993
L50.0769,40.4284M49.6501,41.6978L49.7147,41.7522L49.7683,41.8063L49.8111,41.8599L49.843,41.9131
L49.8652,41.9676L49.879,42.0251L49.8846,42.0855L49.8818,42.1488L49.8691,42.2169L49.8449,42.2916
L49.8094,42.373L49.7624,42.4609L49.7077,42.5493L49.6538,42.624L49.6005,42.685L49.5478,42.7323
L49.4943,42.7682L49.4382,42.7951L49.3795,42.813L49.3183,42.8218L49.2566,42.8217L49.1967,42.8123
L49.1383,42.7938L49.0817,42.7662L49.0255,42.7279L48.9756,42.6817L48.9321,42.6276L48.895,42.5656
L48.8638,42.4918L48.8382,42.4021L48.8181,42.2967L48.8036,42.1755L48.7976,42.1054L48.7921,42.0476
L48.787,42.0021L48.7823,41.9689L48.7771,41.9403L48.7706,41.9088L48.7626,41.8744L48.7533,41.837
L48.4279,42.4005L48.1337,42.2307L48.7589,41.1478L48.8298,41.2075L48.8929,41.2752L48.9481,41.3511
L48.9954,41.435L49.036,41.5352L49.0711,41.6597L49.1007,41.8085L49.1246,41.9816L49.1384,42.0858
L49.1532,42.1715L49.1693,42.2389L49.1865,42.2879L49.2055,42.3247L49.2269,42.3555L49.2507,42.3804
L49.277,42.3992L49.3072,42.413L49.3384,42.42L49.3706,42.4204L49.4038,42.4139L49.4357,42.4012
L49.4639,42.3827L49.4885,42.3582L49.5095,42.3279L49.5259,42.2934L49.5349,42.2589L49.5368,42.2244
L49.5314,42.1899L49.5171,42.1548L49.4925,42.1186L49.4575,42.0811L49.4121,42.0424L49.6501,41.6978
M42.5533,48.8501L42.5046,48.9039L42.4614,48.9552L42.4237,49.0038L42.3916,49.0498L42.3627,49.0964
L42.335,49.1466L42.3085,49.2004L42.283,49.2578L41.7832,48.3921L41.4181,48.6029L42.1809,49.9241
L42.4795,49.7517L42.4772,49.6747L42.4832,49.5995L42.4976,49.5259L42.5203,49.454L42.5533,49.3814
L42.5982,49.3059L42.6552,49.2275L42.7242,49.1461L42.5533,48.8501M41.3405,49.4487L41.6294,50.213
L40.7725,50.7077L40.6062,50.4197L41.1866,50.0846L41.1051,49.8717L41.0827,49.9024L41.0595,49.9311
L41.0354,49.9581L41.0105,49.9831L40.9847,50.0062L40.958,50.0275L40.9305,50.047L40.9021,50.0645
L40.805,50.1108L40.7086,50.137L40.6128,50.1432L40.5177,50.1293L40.4284,50.0972L40.3498,50.0488
L40.282,49.9839L40.225,49.9026L40.1929,49.838L40.1693,49.7702L40.1543,49.699L40.1478,49.6246
L40.1507,49.5501L40.1642,49.4786L40.1882,49.4103L40.2227,49.345L40.2686,49.2829L40.327,49.2237
L40.3978,49.1675L40.4811,49.1143L40.5439,49.0801L40.6039,49.0515L40.6611,49.0287L40.7154,49.0115
L40.7674,48.9997L40.8177,48.9929L40.8664,48.9911L40.9133,48.9942L40.9583,49.0015L41.0012,49.0121
L41.0419,49.0261L41.0806,49.0435L41.1184,49.0649L41.1568,49.0911L41.1957,49.1219L41.235,49.1575
L40.893,49.4082L40.8603,49.3721L40.8263,49.3438L40.7908,49.3233L40.754,49.3106L40.7169,49.3054
L40.6808,49.3072L40.6457,49.3161L40.6115,49.332L40.5776,49.3564L40.551,49.386L40.5318,49.4209
L40.52,49.4611L40.517,49.5056L40.5243,49.5536L40.5417,49.6051L40.5693,49.66L40.6037,49.7124
L40.6398,49.7534L40.6776,49.7831L40.7172,49.8015L40.7577,49.8096L40.7984,49.8087L40.8393,49.7986
L40.8804,49.7793L40.9054,49.7628L40.9281,49.7432L40.9485,49.7208L40.9666,49.6953L40.9787,49.6734
L40.9896,49.6472L40.9992,49.6167L41.0075,49.5819L41.3405,49.4487" style="fill:url(#grd228); stroke:none;" />
<radialGradient id="grd1439" spreadMethod="pad" gradientUnits="objectBoundingBox" cx="0.31" cy="0.59" r="0.5" fx="0.31" fy="0.59">
<stop offset="0" style="stop-color:#000000"/>
<stop offset="1" style="stop-color:#000000"/>
</radialGradient>
<path d="M32.2857,37.6A1,1 0 0,0 33.2857,38.6 L50.9286,38.6A1,1 0 0,0 51.8741,37.9256 
A22.5,22.5 0 0,0 52.6868,34.8924 A1,1 0 0,0 52.1934,33.829 A3.7,3.7 0 0,1 52.1934,27.371 
A1,1 0 0,0 52.6868,26.3076 A22.5,22.5 0 0,0 51.8741,23.2744 A1,1 0 0,0 50.9286,22.6 
L33.2857,22.6A1,1 0 0,0 32.2857,23.6 L32.2857,28.4688A1,1 0 0,0 32.5024,29.0904 A2.42857,2.42857 0 0,1 32.5024,32.1096 
A1,1 0 0,0 32.2857,32.7312 L32.2857,37.6M32.8857,37.6L32.8857,32.7312A0.4,0.4 0 0,1 32.9724,32.4826 
A3.02857,3.02857 0 0,0 32.9724,28.7174 A0.4,0.4 0 0,1 32.8857,28.4688 L32.8857,23.6
A0.4,0.4 0 0,1 33.2857,23.2 L50.9286,23.2A0.4,0.4 0 0,1 51.3068,23.4698 A21.9,21.9 0 0,1 52.0978,26.422 
A0.4,0.4 0 0,1 51.9004,26.8474 A4.3,4.3 0 0,0 51.9004,34.3526 A0.4,0.4 0 0,1 52.0978,34.778 
A21.9,21.9 0 0,1 51.3068,37.7302 A0.4,0.4 0 0,1 50.9286,38 L33.2857,38A0.4,0.4 0 0,1 32.8857,37.6 " style="fill:url(#grd1439); stroke:none;" />
<radialGradient id="grd1474" spreadMethod="pad" gradientUnits="objectBoundingBox" cx="0.31" cy="0.59" r="0.5" fx="0.31" fy="0.59">
<stop offset="0" style="stop-color:#61ff61"/>
<stop offset="1" style="stop-color:#61ff61"/>
</radialGradient>
<path d="M32.9724,32.4826A3.02857,3.02857 0 0,0 32.9724,28.7174 A0.4,0.4 0 0,1 32.8857,28.4688 
L32.8857,23.6A0.4,0.4 0 0,1 33.2857,23.2 L50.9286,23.2A0.4,0.4 0 0,1 51.3068,23.4698 
A21.9,21.9 0 0,1 52.0978,26.422 A0.4,0.4 0 0,1 51.9004,26.8474 A4.3,4.3 0 0,0 51.9004,34.3526 
A0.4,0.4 0 0,1 52.0978,34.778 A21.9,21.9 0 0,1 51.3068,37.7302 A0.4,0.4 0 0,1 50.9286,38 
L33.2857,38A0.4,0.4 0 0,1 32.8857,37.6 L32.8857,32.7312A0.4,0.4 0 0,1 32.9724,32.4826 " style="fill:url(#grd1474); stroke:none;" />
<path d="M37.7415,31.6L37.7415,29.8656L37.0936,29.8656L37.0936,29.6335L38.6523,29.6335
L38.6523,29.8656L38.0017,29.8656L38.0017,31.6L37.7415,31.6" style=" fill:#000000; stroke:#000000;" />
<path d="M38.7033,31.6L39.4585,29.6335L39.7388,29.6335L40.5437,31.6L40.2472,31.6L40.0178,31.0044
L39.1956,31.0044L38.9796,31.6L38.7033,31.6M39.2707,30.7925L39.9374,30.7925L39.7321,30.2479
L39.6882,30.1293L39.6503,30.0219L39.6184,29.9255L39.5926,29.8401L39.5719,29.9345L39.5474,30.0286
L39.5189,30.1223L39.4867,30.2157L39.2707,30.7925" style=" fill:#000000; stroke:#000000;" />
<path d="M40.7556,31.6L40.7556,29.6335L41.6275,29.6335L41.7511,29.6368L41.8589,29.6468
L41.9509,29.6633L42.0272,29.6865L42.0922,29.7181L42.1503,29.7598L42.2015,29.8116L42.2459,29.8736
L42.2817,29.9425L42.3072,30.0148L42.3226,30.0907L42.3277,30.1701L42.3192,30.2706L42.2938,30.3629
L42.2515,30.447L42.1922,30.5229L42.1153,30.5881L42.0199,30.6402L41.906,30.6793L41.7737,30.7053
L41.8223,30.73L41.8646,30.7546L41.9007,30.779L41.9307,30.8032L41.9869,30.8588L42.0416,30.9209
L42.0949,30.9896L42.1466,31.0648L42.4887,31.6L42.1614,31.6L41.9011,31.1909L41.8466,31.1075
L41.7972,31.0346L41.7527,30.9721L41.7133,30.9199L41.6774,30.8765L41.6434,30.8401L41.6114,30.8108
L41.5812,30.7885L41.5519,30.7711L41.5224,30.7566L41.4926,30.745L41.4625,30.7362L41.4369,30.732
L41.4042,30.7291L41.3644,30.7273L41.3176,30.7268L41.0158,30.7268L41.0158,31.6L40.7556,31.6
M41.0158,30.5014L41.5752,30.5014L41.6595,30.4991L41.7341,30.4922L41.799,30.4807L41.8542,30.4645
L41.9015,30.4433L41.9427,30.4166L41.9779,30.3843L42.0071,30.3465L42.03,30.305L42.0463,30.2618
L42.0562,30.2168L42.0594,30.1701L42.0531,30.1034L42.0341,30.043L42.0025,29.9887L41.9581,29.9407
L41.9002,29.9014L41.8275,29.8733L41.7402,29.8565L41.6382,29.8508L41.0158,29.8508L41.0158,30.5014" style=" fill:#000000; stroke:#000000;" />
<path d="M43.6557,30.8287L43.6557,30.598L44.4887,30.5966L44.4887,31.3264L44.392,31.3981
L44.2938,31.4603L44.1941,31.5131L44.093,31.5564L43.9903,31.5901L43.8864,31.6143L43.7811,31.6287
L43.6744,31.6335L43.5329,31.6258L43.398,31.6025L43.2696,31.5637L43.148,31.5095L43.0368,31.4405
L42.9402,31.3577L42.8581,31.2611L42.7905,31.1506L42.7377,31.0298L42.6999,30.9021L42.6773,30.7676
L42.6698,30.6262L42.6773,30.485L42.6998,30.3487L42.7373,30.2171L42.7898,30.0903L42.8564,29.9739
L42.9362,29.8735L43.0291,29.7891L43.1352,29.7207L43.2522,29.6679L43.3777,29.6302L43.5117,29.6075
L43.6543,29.6L43.7584,29.6043L43.8574,29.6173L43.9512,29.6389L44.04,29.6691L44.1215,29.707
L44.1937,29.7517L44.2566,29.8033L44.3103,29.8616L44.3563,29.928L44.3964,30.0038L44.4307,30.0889
L44.4592,30.1835L44.2244,30.2479L44.2009,30.1768L44.1748,30.1137L44.1459,30.0588L44.1144,30.0118
L44.078,29.971L44.0346,29.9345L43.9841,29.9023L43.9266,29.8743L43.8639,29.8517L43.7979,29.8356
L43.7284,29.8259L43.6557,29.8227L43.5695,29.8261L43.4893,29.8363L43.4152,29.8532L43.3471,29.877
L43.2852,29.9063L43.2296,29.9399L43.1803,29.9777L43.1372,30.0199L43.0995,30.0652L43.0663,30.1127
L43.0375,30.1625L43.0131,30.2144L42.9803,30.3075L42.9568,30.4045L42.9427,30.5053L42.938,30.6101
L42.9437,30.7362L42.9607,30.8515L42.989,30.9561L43.0286,31.05L43.079,31.1329L43.1397,31.2043
L43.2108,31.2643L43.2922,31.3129L43.38,31.3505L43.4706,31.3773L43.5638,31.3934L43.6597,31.3988
L43.7437,31.3947L43.8267,31.3825L43.9087,31.3622L43.9897,31.3337L44.0653,31.3007L44.1312,31.2665
L44.1874,31.2312L44.2338,31.1949L44.2338,30.8287L43.6557,30.8287" style=" fill:#000000; stroke:#000000;" />
<path d="M44.8777,31.6L44.8777,29.6335L46.2995,29.6335L46.2995,29.8656L45.1379,29.8656
L45.1379,30.4679L46.2258,30.4679L46.2258,30.6986L45.1379,30.6986L45.1379,31.3679L46.3451,31.3679
L46.3451,31.6L44.8777,31.6" style=" fill:#000000; stroke:#000000;" />
<path d="M47.205,31.6L47.205,29.8656L46.5571,29.8656L46.5571,29.6335L48.1158,29.6335
L48.1158,29.8656L47.4652,29.8656L47.4652,31.6L47.205,31.6" style=" fill:#000000; stroke:#000000;" />
<radialGradient id="grd1496" spreadMethod="pad" gradientUnits="objectBoundingBox" cx="0.31" cy="0.59" r="0.5" fx="0.31" fy="0.59">
<stop offset="0" style="stop-color:#000000"/>
<stop offset="1" style="stop-color:#000000"/>
</radialGradient>
<path d="M28.9143,23.6A1,1 0 0,0 27.9143,22.6 L10.2714,22.6A1,1 0 0,0 9.32593,23.2744 
A22.5,22.5 0 0,0 8.51324,26.3076 A1,1 0 0,0 9.0066,27.371 A3.7,3.7 0 0,1 9.0066,33.829 
A1,1 0 0,0 8.51324,34.8924 A22.5,22.5 0 0,0 9.32593,37.9256 A1,1 0 0,0 10.2714,38.6 
L27.9143,38.6A1,1 0 0,0 28.9143,37.6 L28.9143,32.7312A1,1 0 0,0 28.6976,32.1096 A2.42857,2.42857 0 0,1 28.6976,29.0904 
A1,1 0 0,0 28.9143,28.4688 L28.9143,23.6M28.3143,23.6L28.3143,28.4688A0.4,0.4 0 0,1 28.2276,28.7174 
A3.02857,3.02857 0 0,0 28.2276,32.4826 A0.4,0.4 0 0,1 28.3143,32.7312 L28.3143,37.6
A0.4,0.4 0 0,1 27.9143,38 L10.2714,38A0.4,0.4 0 0,1 9.89324,37.7302 A21.9,21.9 0 0,1 9.10222,34.778 
A0.4,0.4 0 0,1 9.29956,34.3526 A4.3,4.3 0 0,0 9.29956,26.8474 A0.4,0.4 0 0,1 9.10222,26.422 
A21.9,21.9 0 0,1 9.89324,23.4698 A0.4,0.4 0 0,1 10.2714,23.2 L27.9143,23.2A0.4,0.4 0 0,1 28.3143,23.6 " style="fill:url(#grd1496); stroke:none;" />
<radialGradient id="grd1531" spreadMethod="pad" gradientUnits="objectBoundingBox" cx="0.31" cy="0.59" r="0.5" fx="0.31" fy="0.59">
<stop offset="0" style="stop-color:#61ff61"/>
<stop offset="1" style="stop-color:#61ff61"/>
</radialGradient>
<path d="M28.2276,28.7174A3.02857,3.02857 0 0,0 28.2276,32.4826 A0.4,0.4 0 0,1 28.3143,32.7312 
L28.3143,37.6A0.4,0.4 0 0,1 27.9143,38 L10.2714,38A0.4,0.4 0 0,1 9.89324,37.7302 
A21.9,21.9 0 0,1 9.10222,34.778 A0.4,0.4 0 0,1 9.29956,34.3526 A4.3,4.3 0 0,0 9.29956,26.8474 
A0.4,0.4 0 0,1 9.10222,26.422 A21.9,21.9 0 0,1 9.89324,23.4698 A0.4,0.4 0 0,1 10.2714,23.2 
L27.9143,23.2A0.4,0.4 0 0,1 28.3143,23.6 L28.3143,28.4688A0.4,0.4 0 0,1 28.2276,28.7174 " style="fill:url(#grd1531); stroke:none;" />
<path d="M14.2968,31.6L14.2968,29.6335L14.5571,29.6335L14.5571,31.3679L15.5256,31.3679
L15.5256,31.6L14.2968,31.6" style=" fill:#000000; stroke:#000000;" />
<path d="M15.7563,30.6423L15.7727,30.4107L15.822,30.2058L15.9042,30.0274L16.0192,29.8757
L16.1602,29.7545L16.3203,29.6679L16.4996,29.616L16.6979,29.5987L16.8307,29.6068L16.9568,29.6312
L17.0762,29.6718L17.1889,29.7288L17.2917,29.8002L17.3815,29.8845L17.4584,29.9817L17.5222,30.0916
L17.5724,30.2119L17.6082,30.3399L17.6297,30.4758L17.6369,30.6195L17.6293,30.7651L17.6067,30.9028
L17.569,31.0327L17.5162,31.1547L17.4495,31.2655L17.3703,31.3621L17.2785,31.4443L17.1741,31.5121
L17.0613,31.5652L16.9441,31.6032L16.8225,31.6259L16.6966,31.6335L16.5614,31.6252L16.4337,31.6
L16.3133,31.5581L16.2003,31.4994L16.0976,31.4262L16.0081,31.3408L15.9319,31.2431L15.8689,31.1332
L15.8197,31.0155L15.7844,30.8944L15.7633,30.77L15.7563,30.6423M16.0245,30.6463L16.0365,30.8146
L16.0723,30.964L16.1321,31.0946L16.2157,31.2063L16.3173,31.2958L16.4312,31.3597L16.5571,31.3981
L16.6952,31.4109L16.8356,31.398L16.963,31.3592L17.0774,31.2947L17.1788,31.2043L17.2618,31.0902
L17.3212,30.9545L17.3567,30.7971L17.3686,30.6181L17.3635,30.5019L17.3483,30.3933L17.323,30.2923
L17.2875,30.1989L17.2422,30.1144L17.1875,30.04L17.1235,29.9756L17.05,29.9213L16.9695,29.8781
L16.8842,29.8473L16.7941,29.8288L16.6993,29.8227L16.5659,29.8345L16.4422,29.8701L16.3282,29.9294
L16.2237,30.0125L16.1366,30.1233L16.0743,30.2658L16.037,30.4402L16.0245,30.6463" style=" fill:#000000; stroke:#000000;" />
<path d="M19.3753,30.9105L19.6355,30.9763L19.5865,31.127L19.521,31.2588L19.4392,31.3715
L19.3411,31.4652L19.2289,31.5388L19.1049,31.5914L18.969,31.623L18.8213,31.6335L18.6698,31.6254
L18.5331,31.6012L18.4112,31.5607L18.3042,31.5041L18.2106,31.4321L18.1288,31.3456L18.059,31.2447
L18.0011,31.1292L17.9556,31.0042L17.9231,30.8746L17.9036,30.7406L17.8971,30.602L17.9045,30.4533
L17.9265,30.3145L17.9631,30.1854L18.0145,30.0661L18.0794,29.9587L18.1567,29.8649L18.2464,29.7849
L18.3485,29.7187L18.4595,29.6668L18.576,29.6297L18.698,29.6074L18.8254,29.6L18.967,29.6094
L19.097,29.6376L19.2152,29.6845L19.3217,29.7502L19.4146,29.833L19.4924,29.931L19.5548,30.0442
L19.602,30.1728L19.3458,30.2331L19.3077,30.1331L19.262,30.0477L19.2085,29.9768L19.1473,29.9206
L19.078,29.8777L19.0004,29.8471L18.9144,29.8288L18.82,29.8227L18.7113,29.8295L18.6119,29.8498
L18.5218,29.8838L18.441,29.9313L18.3706,29.9903L18.3114,30.0586L18.2636,30.1362L18.2271,30.2231
L18.2001,30.3153L18.1808,30.409L18.1692,30.5041L18.1654,30.6007L18.17,30.7221L18.1837,30.8356
L18.2065,30.9411L18.2385,31.0386L18.2801,31.1263L18.3319,31.2021L18.3938,31.2661L18.4659,31.3183
L18.5446,31.3588L18.6265,31.3877L18.7116,31.4051L18.7999,31.4109L18.905,31.403L19.0017,31.3793
L19.0901,31.3399L19.1701,31.2848L19.2398,31.2141L19.2972,31.1282L19.3424,31.027L19.3753,30.9105" style=" fill:#000000; stroke:#000000;" />
<path d="M19.7402,31.6L20.4954,29.6335L20.7757,29.6335L21.5805,31.6L21.2841,31.6L21.0547,31.0044
L20.2325,31.0044L20.0165,31.6L19.7402,31.6M20.3076,30.7925L20.9742,30.7925L20.769,30.2479
L20.7251,30.1293L20.6872,30.0219L20.6553,29.9255L20.6295,29.8401L20.6088,29.9345L20.5842,30.0286
L20.5558,30.1223L20.5235,30.2157L20.3076,30.7925" style=" fill:#000000; stroke:#000000;" />
<path d="M21.7777,31.6L21.7777,29.6335L22.038,29.6335L22.038,31.3679L23.0064,31.3679
L23.0064,31.6L21.7777,31.6" style=" fill:#000000; stroke:#000000;" />
</svg>
