<?xml version="1.0" standalone="no"?>
<!DOCTYPE svg PUBLIC "-//W3C//DTD SVG 20010904//EN"
"http://www.w3.org/TR/2001/REC-SVG-20010904/DTD/svg10.dtd">
<svg version="1.0" xmlns="http://www.w3.org/2000/svg" id="svg" width="100%" height="100%" viewBox="0 0 14.8779 3.59172" style=" fill:none; fill-rule:evenodd; stroke-linecap:round; stroke-linejoin:round; stroke:#ffff00; stroke-width:0.2;">
<desc>PumpGpsCompasTargetLatitude</desc>
<rect x="-4.9593" y="-4.9593" width="24.7965" height="13.5103" color-rendering="optimizeSpeed" style=" fill:#ffffff; stroke:none; fill-opacity:100;" />
<g id="parts0000">
<g id="parts0001" onclick="view_parts('-0.145862 -0.145862 15.1696 3.88345','parts0001','Latitude Target')">
<path d="M0.355117,2.64586L0.355117,0.679396L0.622052,0.679396L1.65492,2.22333L1.65492,0.679396
L1.90441,0.679396L1.90441,2.64586L1.63748,2.64586L0.604614,1.10059L0.604614,2.64586
L0.355117,2.64586" style=" fill:#000000; stroke:#000000;" />
<path d="M3.00837,2.12675L3.24982,2.09455L3.27426,2.19L3.30599,2.27111L3.34502,2.33789
L3.39133,2.39033L3.44403,2.42994L3.50217,2.45824L3.56576,2.47521L3.6348,2.48087L3.71666,2.47349
L3.7919,2.45136L3.86052,2.41447L3.92252,2.36283L3.97387,2.30029L4.01055,2.2307L4.03256,2.15408
L4.03989,2.07041L4.0331,1.99089L4.01273,1.91867L3.97878,1.85373L3.93124,1.7961L3.87323,1.74885
L3.80783,1.71511L3.73506,1.69486L3.65492,1.68812L3.61862,1.68979L3.57812,1.69482L3.53344,1.70321
L3.48456,1.71494L3.51139,1.503L3.52287,1.50418L3.53319,1.50502L3.54232,1.50552L3.55029,1.50569
L3.62549,1.50066L3.69683,1.48557L3.76432,1.46042L3.82795,1.4252L3.88195,1.37951L3.92051,1.32292
L3.94365,1.25544L3.95136,1.17705L3.94574,1.1135L3.92889,1.05565L3.90081,1.00351L3.86149,0.957062
L3.81328,0.918917L3.75854,0.89167L3.69725,0.875322L3.62943,0.869873L3.56194,0.875406
L3.50032,0.892005L3.44457,0.919671L3.39469,0.958404L3.35193,1.0082L3.31756,1.06907
L3.29157,1.141L3.27396,1.224L3.03252,1.18107L3.06169,1.06651L3.10495,0.965614L3.16229,0.878382
L3.23372,0.804816L3.31697,0.746424L3.40978,0.704715L3.51214,0.67969L3.62406,0.671348
L3.70295,0.675666L3.77866,0.688618L3.85118,0.710206L3.92051,0.740429L3.98427,0.778114
L4.04006,0.822086L4.08789,0.872346L4.12775,0.928893L4.15915,0.989507L4.18158,1.05197
L4.19503,1.11627L4.19952,1.18241L4.19524,1.2447L4.18241,1.30414L4.16104,1.36073L4.13111,1.41447
L4.09279,1.4641L4.04626,1.50837L3.99152,1.54727L3.92856,1.5808L4.01089,1.60633L4.08349,1.64268
L4.14636,1.68983L4.19952,1.74781L4.24177,1.81517L4.27195,1.8905L4.29006,1.97379L4.2961,2.06504
L4.28436,2.18891L4.24915,2.30297L4.19046,2.40722L4.1083,2.50166L4.0082,2.58001L3.89569,2.63597
L3.77078,2.66955L3.63345,2.68074L3.5095,2.6711L3.39653,2.64217L3.29455,2.59397L3.20354,2.52648
L3.12721,2.44365L3.06924,2.34942L3.02962,2.24378L3.00837,2.12675" style=" fill:#000000; stroke:#000000;" />
<path d="M4.53486,2.13077L4.78838,2.10931L4.80712,2.19612L4.83516,2.27145L4.87251,2.33529
L4.91917,2.38765L4.97312,2.42843L5.03235,2.45757L5.09686,2.47505L5.16665,2.48087L5.25049,2.47266
L5.32762,2.44801L5.39804,2.40693L5.46176,2.34942L5.51457,2.27832L5.5523,2.1965L5.57494,2.10394
L5.58248,2.00066L5.57523,1.90282L5.55347,1.81588L5.51721,1.73984L5.46645,1.6747L5.40395,1.62247
L5.33248,1.58516L5.25204,1.56278L5.16263,1.55532L5.1057,1.55863L5.05163,1.56856L5.00041,1.58512
L4.95203,1.6083L4.9076,1.63677L4.8682,1.66917L4.83382,1.70551L4.80448,1.74579L4.57779,1.71628
L4.76826,0.706224L5.74613,0.706224L5.74613,0.936942L4.96142,0.936942L4.85545,1.46545
L4.94507,1.41146L5.03687,1.37289L5.13086,1.34975L5.22702,1.34204L5.35076,1.35319L5.46444,1.38664
L5.56806,1.44239L5.66162,1.52044L5.73909,1.61602L5.79442,1.72433L5.82762,1.84539L5.83869,1.9792
L5.82896,2.10814L5.79979,2.22802L5.75116,2.33885L5.68309,2.44063L5.57988,2.54509L5.45941,2.6197
L5.32167,2.66447L5.16665,2.6794L5.03868,2.67001L4.92302,2.64184L4.8197,2.59489L4.72869,2.52916
L4.65295,2.44792L4.59539,2.35445L4.55603,2.24873L4.53486,2.13077" style=" fill:#000000; stroke:#000000;" />
<path d="M6.12038,1.01742L6.12721,0.943146L6.14771,0.874567L6.18187,0.81169L6.2297,0.754514
L6.28708,0.706979L6.34992,0.673025L6.4182,0.652653L6.49194,0.645862L6.5668,0.652653
L6.6358,0.673025L6.69893,0.706979L6.75619,0.754514L6.80373,0.81169L6.83768,0.874567
L6.85805,0.943146L6.86484,1.01742L6.85801,1.09175L6.83751,1.16045L6.80335,1.22354
L6.75552,1.28101L6.69805,1.32883L6.63496,1.363L6.56626,1.3835L6.49194,1.39033L6.4182,1.38354
L6.34992,1.36317L6.28708,1.32921L6.2297,1.28168L6.18187,1.22442L6.14771,1.16129L6.12721,1.09229
L6.12038,1.01742M6.26659,1.01742L6.27074,1.06265L6.28319,1.10445L6.30394,1.1428L6.33298,1.17772
L6.3679,1.20677L6.40626,1.22752L6.44805,1.23997L6.49328,1.24412L6.53792,1.23997L6.5793,1.22752
L6.6174,1.20677L6.65223,1.17772L6.68128,1.1428L6.70203,1.10445L6.71448,1.06265L6.71863,1.01742
L6.71448,0.972195L6.70203,0.930402L6.68128,0.892047L6.65223,0.857129L6.6174,0.82808
L6.5793,0.807331L6.53792,0.794881L6.49328,0.790731L6.44805,0.794881L6.40626,0.807331
L6.3679,0.82808L6.33298,0.857129L6.30394,0.892047L6.28319,0.930402L6.27074,0.972195
L6.26659,1.01742" style=" fill:#000000; stroke:#000000;" />
<path d="M7.16129,2.13077L7.41481,2.10931L7.43355,2.19612L7.46159,2.27145L7.49894,2.33529
L7.54559,2.38765L7.59954,2.42843L7.65877,2.45757L7.72328,2.47505L7.79308,2.48087L7.87691,2.47266
L7.95404,2.44801L8.02447,2.40693L8.08818,2.34942L8.141,2.27832L8.17873,2.1965L8.20136,2.10394
L8.20891,2.00066L8.20165,1.90282L8.1799,1.81588L8.14364,1.73984L8.09288,1.6747L8.03038,1.62247
L7.95891,1.58516L7.87847,1.56278L7.78905,1.55532L7.73213,1.55863L7.67805,1.56856L7.62683,1.58512
L7.57846,1.6083L7.53402,1.63677L7.49462,1.66917L7.46025,1.70551L7.43091,1.74579L7.20421,1.71628
L7.39469,0.706224L8.37256,0.706224L8.37256,0.936942L7.58785,0.936942L7.48188,1.46545
L7.5715,1.41146L7.6633,1.37289L7.75728,1.34975L7.85344,1.34204L7.97718,1.35319L8.09087,1.38664
L8.19449,1.44239L8.28805,1.52044L8.36551,1.61602L8.42085,1.72433L8.45404,1.84539L8.46511,1.9792
L8.45539,2.10814L8.42621,2.22802L8.37759,2.33885L8.30951,2.44063L8.20631,2.54509L8.08584,2.6197
L7.94809,2.66447L7.79308,2.6794L7.6651,2.67001L7.54945,2.64184L7.44612,2.59489L7.35512,2.52916
L7.27937,2.44792L7.22182,2.35445L7.18246,2.24873L7.16129,2.13077" style=" fill:#000000; stroke:#000000;" />
<path d="M9.95807,2.4138L9.95807,2.64586L8.65827,2.64586L8.65902,2.60269L8.66397,2.56035
L8.67311,2.51885L8.68644,2.47819L8.71498,2.41204L8.75099,2.3464L8.79446,2.28126L8.84539,2.21662
L8.90613,2.14972L8.97903,2.07779L9.06408,2.00082L9.16129,1.91883L9.30859,1.79421L9.4299,1.68325
L9.52522,1.58596L9.59455,1.50233L9.64385,1.42659L9.67906,1.35294L9.70019,1.28138L9.70723,1.21192
L9.70082,1.14297L9.68158,1.07963L9.64951,1.02191L9.60461,0.969805L9.54941,0.926672
L9.48641,0.895862L9.41561,0.877376L9.33701,0.871214L9.25418,0.877753L9.18007,0.897371
L9.11467,0.930067L9.058,0.975842L9.01214,1.03319L8.9792,1.10059L8.95916,1.17805L8.95203,1.26558
L8.70388,1.24009L8.72542,1.10952L8.76457,0.995459L8.82133,0.897916L8.89569,0.816888
L8.98599,0.753214L9.09053,0.707733L9.20933,0.680444L9.34237,0.671348L9.47651,0.681157
L9.5959,0.710584L9.70052,0.759628L9.7904,0.82829L9.86258,0.911455L9.91414,1.00401
L9.94507,1.10596L9.95539,1.21729L9.95237,1.27606L9.94331,1.33433L9.92822,1.39209L9.9071,1.44935
L9.87897,1.50711L9.84288,1.56638L9.79882,1.62717L9.7468,1.68946L9.68153,1.75837L9.59774,1.83902
L9.49542,1.93141L9.37457,2.03553L9.27564,2.11941L9.19616,2.18862L9.13614,2.24315L9.09556,2.28302
L9.06605,2.31559L9.03922,2.34824L9.01508,2.38098L8.99362,2.4138L9.95807,2.4138" style=" fill:#000000; stroke:#000000;" />
<path d="M10.2854,1.37557L10.2237,1.00803L10.2237,0.679396L10.4986,0.679396L10.4986,1.00803
L10.4343,1.37557L10.2854,1.37557" style=" fill:#000000; stroke:#000000;" />
<path d="M10.7414,2.13077L10.995,2.10931L11.0137,2.19612L11.0417,2.27145L11.0791,2.33529
L11.1257,2.38765L11.1797,2.42843L11.2389,2.45757L11.3034,2.47505L11.3732,2.48087L11.4571,2.47266
L11.5342,2.44801L11.6046,2.40693L11.6683,2.34942L11.7211,2.27832L11.7589,2.1965L11.7815,2.10394
L11.7891,2.00066L11.7818,1.90282L11.76,1.81588L11.7238,1.73984L11.673,1.6747L11.6105,1.62247
L11.5391,1.58516L11.4586,1.56278L11.3692,1.55532L11.3123,1.55863L11.2582,1.56856L11.207,1.58512
L11.1586,1.6083L11.1142,1.63677L11.0748,1.66917L11.0404,1.70551L11.0111,1.74579L10.7844,1.71628
L10.9748,0.706224L11.9527,0.706224L11.9527,0.936942L11.168,0.936942L11.062,1.46545
L11.1516,1.41146L11.2434,1.37289L11.3374,1.34975L11.4336,1.34204L11.5573,1.35319L11.671,1.38664
L11.7746,1.44239L11.8682,1.52044L11.9457,1.61602L12.001,1.72433L12.0342,1.84539L12.0453,1.9792
L12.0355,2.10814L12.0064,2.22802L11.9577,2.33885L11.8897,2.44063L11.7865,2.54509L11.666,2.6197
L11.5282,2.66447L11.3732,2.6794L11.2452,2.67001L11.1296,2.64184L11.0263,2.59489L10.9353,2.52916
L10.8595,2.44792L10.802,2.35445L10.7626,2.24873L10.7414,2.13077" style=" fill:#000000; stroke:#000000;" />
<path d="M13.5382,2.4138L13.5382,2.64586L12.2384,2.64586L12.2392,2.60269L12.2441,2.56035
L12.2533,2.51885L12.2666,2.47819L12.2951,2.41204L12.3311,2.3464L12.3746,2.28126L12.4255,2.21662
L12.4863,2.14972L12.5592,2.07779L12.6442,2.00082L12.7414,1.91883L12.8887,1.79421L13.01,1.68325
L13.1054,1.58596L13.1747,1.50233L13.224,1.42659L13.2592,1.35294L13.2803,1.28138L13.2874,1.21192
L13.281,1.14297L13.2617,1.07963L13.2297,1.02191L13.1848,0.969805L13.1296,0.926672
L13.0666,0.895862L12.9958,0.877376L12.9172,0.871214L12.8343,0.877753L12.7602,0.897371
L12.6948,0.930067L12.6381,0.975842L12.5923,1.03319L12.5593,1.10059L12.5393,1.17805
L12.5322,1.26558L12.284,1.24009L12.3056,1.10952L12.3447,0.995459L12.4015,0.897916
L12.4758,0.816888L12.5661,0.753214L12.6707,0.707733L12.7895,0.680444L12.9225,0.671348
L13.0567,0.681157L13.176,0.710584L13.2807,0.759628L13.3705,0.82829L13.4427,0.911455
L13.4943,1.00401L13.5252,1.10596L13.5355,1.21729L13.5325,1.27606L13.5235,1.33433L13.5084,1.39209
L13.4872,1.44935L13.4591,1.50711L13.423,1.56638L13.379,1.62717L13.3269,1.68946L13.2617,1.75837
L13.1779,1.83902L13.0756,1.93141L12.9547,2.03553L12.8558,2.11941L12.7763,2.18862L12.7163,2.24315
L12.6757,2.28302L12.6462,2.31559L12.6194,2.34824L12.5952,2.38098L12.5738,2.4138L13.5382,2.4138" style=" fill:#000000; stroke:#000000;" />
<path d="M13.8655,1.37557L13.8038,1.00803L13.8038,0.679396L14.0788,0.679396L14.0788,1.00803
L14.0144,1.37557L13.8655,1.37557" style=" fill:#000000; stroke:#000000;" />
<path d="M14.39,1.37557L14.3283,1.00803L14.3283,0.679396L14.6033,0.679396L14.6033,1.00803
L14.5389,1.37557L14.39,1.37557" style=" fill:#000000; stroke:#000000;" />
</g>
</g>
</svg>
