<?xml version="1.0" standalone="no"?>
<!DOCTYPE svg PUBLIC "-//W3C//DTD SVG 20010904//EN"
"http://www.w3.org/TR/2001/REC-SVG-20010904/DTD/svg10.dtd">
<svg version="1.0" xmlns="http://www.w3.org/2000/svg" id="svg" width="100%" height="100%" viewBox="0 0 14.7233 3.58869" style=" fill:none; fill-rule:evenodd; stroke-linecap:round; stroke-linejoin:round; stroke:#ffff00; stroke-width:0.2;">
<desc>PumpGpsCompasTargetLongitude</desc>
<rect x="-4.90777" y="-4.90777" width="24.5388" height="13.4042" color-rendering="optimizeSpeed" style=" fill:#ffffff; stroke:none; fill-opacity:100;" />
<g id="parts0000">
<g id="parts0001" onclick="view_parts('-0.144346 -0.144346 15.012 3.87738','parts0001','Longitude Target')">
<path d="M0.36165,2.64435L0.36165,0.677881L1.78351,0.677881L1.78351,0.90994L0.621878,0.90994
L0.621878,1.51222L1.70974,1.51222L1.70974,1.74294L0.621878,1.74294L0.621878,2.41229
L1.82912,2.41229L1.82912,2.64435L0.36165,2.64435" style=" fill:#000000; stroke:#000000;" />
<path d="M4.12288,2.41229L4.12288,2.64435L2.82309,2.64435L2.82384,2.60117L2.82879,2.55883
L2.83792,2.51733L2.85125,2.47667L2.8798,2.41053L2.91581,2.34488L2.95928,2.27974L3.01021,2.2151
L3.07095,2.1482L3.14384,2.07627L3.2289,1.99931L3.3261,1.91732L3.4734,1.79269L3.59471,1.68174
L3.69004,1.58445L3.75937,1.50082L3.80867,1.42507L3.84388,1.35142L3.865,1.27987L3.87205,1.21041
L3.86563,1.14145L3.84639,1.07812L3.81432,1.02039L3.76943,0.96829L3.71422,0.925156
L3.65122,0.894346L3.58042,0.87586L3.50182,0.869698L3.41899,0.876237L3.34488,0.895855
L3.27949,0.928551L3.22282,0.974326L3.17696,1.03167L3.14401,1.09907L3.12397,1.17654
L3.11685,1.26406L2.86869,1.23858L2.89024,1.108L2.92939,0.993944L2.98615,0.8964L3.06051,0.815372
L3.1508,0.751699L3.25535,0.706217L3.37414,0.678929L3.50719,0.669832L3.64133,0.679641
L3.76071,0.709068L3.86534,0.758112L3.95521,0.826774L4.02739,0.90994L4.07895,1.00249
L4.10989,1.10444L4.1202,1.21577L4.11718,1.27454L4.10813,1.33281L4.09304,1.39057L4.07191,1.44783
L4.04378,1.5056L4.00769,1.56487L3.96364,1.62565L3.91162,1.68794L3.84635,1.75685L3.76256,1.83751
L3.66023,1.92989L3.53938,2.03402L3.44046,2.1179L3.36098,2.1871L3.30095,2.24164L3.26038,2.2815
L3.23087,2.31407L3.20404,2.34673L3.17989,2.37947L3.15843,2.41229L4.12288,2.41229" style=" fill:#000000; stroke:#000000;" />
<path d="M4.38311,2.12523L4.62456,2.09304L4.649,2.18849L4.68073,2.2696L4.71976,2.33637
L4.76608,2.38881L4.81877,2.42843L4.87691,2.45672L4.9405,2.4737L5.00954,2.47936L5.0914,2.47198
L5.16665,2.44985L5.23527,2.41296L5.29726,2.36131L5.34861,2.29877L5.38529,2.22919L5.4073,2.15256
L5.41463,2.06889L5.40784,1.98937L5.38747,1.91715L5.35352,1.85222L5.30598,1.79458L5.24797,1.74734
L5.18258,1.71359L5.10981,1.69335L5.02966,1.6866L4.99336,1.68828L4.95286,1.69331L4.90818,1.70169
L4.8593,1.71343L4.88613,1.50149L4.89762,1.50266L4.90793,1.5035L4.91707,1.504L4.92503,1.50417
L5.00023,1.49914L5.07158,1.48405L5.13906,1.4589L5.2027,1.42369L5.25669,1.378L5.29525,1.32141
L5.31839,1.25392L5.3261,1.17553L5.32049,1.11199L5.30364,1.05414L5.27555,1.00199L5.23623,0.955547
L5.18802,0.917401L5.13328,0.890154L5.072,0.873806L5.00417,0.868357L4.93668,0.87389
L4.87506,0.89049L4.81931,0.918156L4.76943,0.956888L4.72667,1.00669L4.6923,1.06755
L4.66631,1.13948L4.64871,1.22248L4.40726,1.17956L4.43643,1.06499L4.47969,0.964098
L4.53704,0.876866L4.60846,0.8033L4.69171,0.744908L4.78452,0.703199L4.88688,0.678174
L4.99881,0.669832L5.0777,0.67415L5.1534,0.687103L5.22592,0.70869L5.29525,0.738913
L5.35901,0.776598L5.4148,0.82057L5.46263,0.87083L5.50249,0.927378L5.53389,0.987991
L5.55632,1.05045L5.56977,1.11475L5.57426,1.1809L5.56998,1.24319L5.55716,1.30263L5.53578,1.35922
L5.50585,1.41296L5.46754,1.46259L5.42101,1.50685L5.36626,1.54575L5.3033,1.57929L5.38563,1.60482
L5.45823,1.64116L5.52111,1.68832L5.57426,1.74629L5.61651,1.81365L5.64669,1.88898L5.6648,1.97227
L5.67084,2.06353L5.6591,2.1874L5.62389,2.30146L5.5652,2.40571L5.48304,2.50015L5.38294,2.57849
L5.27044,2.63445L5.14552,2.66803L5.0082,2.67922L4.88424,2.66958L4.77127,2.64066L4.66929,2.59245
L4.57828,2.52496L4.50195,2.44213L4.44398,2.3479L4.40436,2.24227L4.38311,2.12523" style=" fill:#000000; stroke:#000000;" />
<path d="M5.96728,1.01591L5.97412,0.94163L5.99461,0.873052L6.02878,0.810174L6.07661,0.752998
L6.13399,0.705463L6.19683,0.671509L6.26511,0.651137L6.33885,0.644346L6.41371,0.651137
L6.48271,0.671509L6.54584,0.705463L6.6031,0.752998L6.65063,0.810174L6.68459,0.873052
L6.70496,0.94163L6.71175,1.01591L6.70492,1.09023L6.68442,1.15893L6.65026,1.22202L6.60243,1.27949
L6.54496,1.32732L6.48187,1.36148L6.41317,1.38198L6.33885,1.38881L6.26511,1.38202L6.19683,1.36165
L6.13399,1.3277L6.07661,1.28016L6.02878,1.2229L5.99461,1.15977L5.97412,1.09077L5.96728,1.01591
M6.11349,1.01591L6.11764,1.06114L6.13009,1.10293L6.15084,1.14129L6.17989,1.1762L6.21481,1.20525
L6.25317,1.226L6.29496,1.23845L6.34019,1.2426L6.38483,1.23845L6.4262,1.226L6.46431,1.20525
L6.49914,1.1762L6.52819,1.14129L6.54894,1.10293L6.56139,1.06114L6.56554,1.01591L6.56139,0.970679
L6.54894,0.928887L6.52819,0.890532L6.49914,0.855614L6.46431,0.826564L6.4262,0.805815
L6.38483,0.793365L6.34019,0.789215L6.29496,0.793365L6.25317,0.805815L6.21481,0.826564
L6.17989,0.855614L6.15084,0.890532L6.13009,0.928887L6.11764,0.970679L6.11349,1.01591" style=" fill:#000000; stroke:#000000;" />
<path d="M7.91765,2.64435L7.6762,2.64435L7.6762,1.10578L7.62921,1.14736L7.57543,1.18895
L7.51486,1.23053L7.4475,1.27211L7.37854,1.3111L7.31319,1.34488L7.25145,1.37347L7.19331,1.39686
L7.19331,1.16346L7.2914,1.11333L7.38311,1.05816L7.46846,0.997968L7.54743,0.932743
L7.61769,0.865506L7.67687,0.799276L7.725,0.734051L7.76205,0.669832L7.91765,0.669832
L7.91765,2.64435" style=" fill:#000000; stroke:#000000;" />
<path d="M8.55213,0.935426L8.55213,0.703367L9.8251,0.703367L9.8251,0.89116L9.73141,0.999309
L9.63814,1.12389L9.54529,1.2649L9.45286,1.42235L9.36588,1.58918L9.28938,1.75836L9.22336,1.92989
L9.16782,2.10377L9.13487,2.23011L9.10846,2.36232L9.08859,2.5004L9.07526,2.64435L8.82711,2.64435
L8.83432,2.52228L8.85192,2.38814L8.87993,2.24193L8.91832,2.08365L8.96665,1.9208L9.02446,1.76088
L9.09174,1.6039L9.16849,1.44985L9.25128,1.30326L9.33667,1.16866L9.42465,1.04605L9.51524,0.935426
L8.55213,0.935426" style=" fill:#000000; stroke:#000000;" />
<path d="M10.1323,1.37406L10.0706,1.00652L10.0706,0.677881L10.3456,0.677881L10.3456,1.00652
L10.2812,1.37406L10.1323,1.37406" style=" fill:#000000; stroke:#000000;" />
<path d="M11.4978,2.64435L11.2564,2.64435L11.2564,1.10578L11.2094,1.14736L11.1556,1.18895
L11.095,1.23053L11.0276,1.27211L10.9587,1.3111L10.8933,1.34488L10.8316,1.37347L10.7735,1.39686
L10.7735,1.16346L10.8715,1.11333L10.9633,1.05816L11.0486,0.997968L11.1276,0.932743
L11.1978,0.865506L11.257,0.799276L11.3051,0.734051L11.3422,0.669832L11.4978,0.669832
L11.4978,2.64435" style=" fill:#000000; stroke:#000000;" />
<path d="M12.1524,2.18962L12.3845,2.16816L12.4026,2.24436L12.4274,2.30934L12.4589,2.36308
L12.4971,2.40558L12.5416,2.43786L12.592,2.46091L12.6483,2.47475L12.7104,2.47936L12.7644,2.47617
L12.8149,2.46661L12.8619,2.45068L12.9056,2.42838L12.9456,2.40076L12.9819,2.36886L13.0144,2.33268
L13.0431,2.29223L13.0688,2.24591L13.0924,2.19213L13.1137,2.13089L13.1329,2.06219L13.1488,1.98942
L13.1601,1.91598L13.1669,1.84186L13.1692,1.76708L13.1691,1.75803L13.1688,1.74696L13.1684,1.73388
L13.1678,1.71879L13.1283,1.77375L13.0821,1.82325L13.0294,1.86731L12.97,1.90592L12.906,1.93731
L12.8393,1.95974L12.7701,1.97319L12.6983,1.97768L12.581,1.96661L12.473,1.93341L12.3744,1.87808
L12.2852,1.80062L12.2112,1.70504L12.1584,1.59539L12.1267,1.47164L12.1162,1.33382L12.1272,1.19155
L12.1603,1.06386L12.2154,0.950768L12.2926,0.85226L12.3863,0.772448L12.4913,0.715439
L12.6073,0.681234L12.7346,0.669832L12.8284,0.676288L12.9182,0.695654L13.0038,0.727931
L13.0853,0.773119L13.16,0.830253L13.2252,0.89837L13.2807,0.97747L13.3268,1.06755L13.3629,1.17381
L13.3886,1.30146L13.4041,1.45047L13.4093,1.62087L13.4042,1.79974L13.3888,1.9594L13.3632,2.09987
L13.3274,2.22114L13.2815,2.32615L13.2257,2.41782L13.1598,2.49617L13.084,2.56118L12.9997,2.61224
L12.9084,2.64871L12.8102,2.67059L12.705,2.67788L12.595,2.66987L12.4955,2.64586L12.4065,2.60582
L12.3281,2.54978L12.2623,2.47923L12.2111,2.39569L12.1744,2.29915L12.1524,2.18962M13.141,1.32174
L13.1341,1.22315L13.1133,1.13529L13.0787,1.05816L13.0303,0.991764L12.9722,0.93836
L12.9084,0.900215L12.8391,0.877327L12.7641,0.869698L12.6862,0.877914L12.6135,0.902562
L12.546,0.943642L12.4837,1.00115L12.4315,1.07174L12.3942,1.15206L12.3718,1.2421L12.3643,1.34186
L12.3714,1.43136L12.3927,1.51205L12.4281,1.58394L12.4777,1.64703L12.5377,1.69838L12.6043,1.73506
L12.6775,1.75706L12.7574,1.7644L12.8375,1.75706L12.9101,1.73506L12.9753,1.69838L13.033,1.64703
L13.0803,1.58268L13.114,1.50702L13.1342,1.42004L13.141,1.32174" style=" fill:#000000; stroke:#000000;" />
<path d="M13.7124,1.37406L13.6507,1.00652L13.6507,0.677881L13.9257,0.677881L13.9257,1.00652
L13.8613,1.37406L13.7124,1.37406" style=" fill:#000000; stroke:#000000;" />
<path d="M14.2369,1.37406L14.1752,1.00652L14.1752,0.677881L14.4502,0.677881L14.4502,1.00652
L14.3858,1.37406L14.2369,1.37406" style=" fill:#000000; stroke:#000000;" />
</g>
</g>
</svg>
