<?xml version="1.0" standalone="no"?>
<!DOCTYPE svg PUBLIC "-//W3C//DTD SVG 20010904//EN"
"http://www.w3.org/TR/2001/REC-SVG-20010904/DTD/svg10.dtd">
<svg version="1.0" xmlns="http://www.w3.org/2000/svg" id="svg" width="100%" height="100%" viewBox="0 0 45.0945 16.8842" style=" fill:none; fill-rule:evenodd; stroke-linecap:round; stroke-linejoin:round; stroke:#ffff00; stroke-width:0.2;">
<desc>PumpGpsCompasLocalBackGround</desc>
<rect x="-15.0315" y="-15.0315" width="75.1574" height="46.9472" color-rendering="optimizeSpeed" style=" fill:#ffffff; stroke:none; fill-opacity:100;" />
<g id="parts0000">
<g id="parts0001" onclick="view_parts('23.8246 0.0337143 21.2362 16.8168','parts0001','Target')">
<radialGradient id="grd3" spreadMethod="pad" gradientUnits="objectBoundingBox" cx="0.31" cy="0.59" r="0.5" fx="0.31" fy="0.59">
<stop offset="0" style="stop-color:#000000"/>
<stop offset="1" style="stop-color:#000000"/>
</radialGradient>
<path d="M24.2329,15.4421A1,1 0 0,0 25.2329,16.4421 L42.8758,16.4421A1,1 0 0,0 43.8213,15.7677 
A22.5,22.5 0 0,0 44.634,12.7345 A1,1 0 0,0 44.1406,11.6711 A3.7,3.7 0 0,1 44.1406,5.21314 
A1,1 0 0,0 44.634,4.14967 A22.5,22.5 0 0,0 43.8213,1.11652 A1,1 0 0,0 42.8758,0.442103 
L25.2329,0.442103A1,1 0 0,0 24.2329,1.4421 L24.2329,6.3109A1,1 0 0,0 24.4496,6.9325 
A2.42857,2.42857 0 0,1 24.4496,9.95171 A1,1 0 0,0 24.2329,10.5733 L24.2329,15.4421
M24.8329,15.4421L24.8329,10.5733A0.4,0.4 0 0,1 24.9196,10.3247 A3.02857,3.02857 0 0,0 24.9196,6.55954 
A0.4,0.4 0 0,1 24.8329,6.3109 L24.8329,1.4421A0.4,0.4 0 0,1 25.2329,1.0421 L42.8758,1.0421
A0.4,0.4 0 0,1 43.254,1.31187 A21.9,21.9 0 0,1 44.045,4.26414 A0.4,0.4 0 0,1 43.8477,4.68953 
A4.3,4.3 0 0,0 43.8477,12.1947 A0.4,0.4 0 0,1 44.045,12.6201 A21.9,21.9 0 0,1 43.254,15.5723 
A0.4,0.4 0 0,1 42.8758,15.8421 L25.2329,15.8421A0.4,0.4 0 0,1 24.8329,15.4421 " style="fill:url(#grd3); stroke:none;" />
<radialGradient id="grd38" spreadMethod="pad" gradientUnits="objectBoundingBox" cx="0.31" cy="0.59" r="0.5" fx="0.31" fy="0.59">
<stop offset="0" style="stop-color:#61ff61"/>
<stop offset="1" style="stop-color:#61ff61"/>
</radialGradient>
<path d="M24.9196,10.3247A3.02857,3.02857 0 0,0 24.9196,6.55954 A0.4,0.4 0 0,1 24.8329,6.3109 
L24.8329,1.4421A0.4,0.4 0 0,1 25.2329,1.0421 L42.8758,1.0421A0.4,0.4 0 0,1 43.254,1.31187 
A21.9,21.9 0 0,1 44.045,4.26414 A0.4,0.4 0 0,1 43.8477,4.68953 A4.3,4.3 0 0,0 43.8477,12.1947 
A0.4,0.4 0 0,1 44.045,12.6201 A21.9,21.9 0 0,1 43.254,15.5723 A0.4,0.4 0 0,1 42.8758,15.8421 
L25.2329,15.8421A0.4,0.4 0 0,1 24.8329,15.4421 L24.8329,10.5733A0.4,0.4 0 0,1 24.9196,10.3247 " style="fill:url(#grd38); stroke:none;" />
<path d="M29.6887,9.4421L29.6887,7.7077L29.0409,7.7077L29.0409,7.47564L30.5995,7.47564
L30.5995,7.7077L29.949,7.7077L29.949,9.4421L29.6887,9.4421" style=" fill:#000000; stroke:#000000;" />
<path d="M30.6505,9.4421L31.4057,7.47564L31.6861,7.47564L32.4909,9.4421L32.1944,9.4421
L31.9651,8.84653L31.1428,8.84653L30.9268,9.4421L30.6505,9.4421M31.2179,8.63459L31.8846,8.63459
L31.6794,8.08999L31.6354,7.97145L31.5975,7.86397L31.5657,7.76756L31.5399,7.68221L31.5191,7.77661
L31.4946,7.87067L31.4662,7.9644L31.4339,8.0578L31.2179,8.63459" style=" fill:#000000; stroke:#000000;" />
<path d="M32.7028,9.4421L32.7028,7.47564L33.5747,7.47564L33.6983,7.47895L33.8061,7.48888
L33.8982,7.50544L33.9745,7.52862L34.0394,7.56019L34.0975,7.60189L34.1488,7.65375L34.1931,7.71574
L34.2289,7.78457L34.2545,7.85692L34.2698,7.9328L34.2749,8.01219L34.2665,8.11271L34.2411,8.20501
L34.1987,8.2891L34.1395,8.36497L34.0625,8.4302L33.9671,8.48234L33.8532,8.52141L33.7209,8.5474
L33.7695,8.57213L33.8118,8.5967L33.848,8.62109L33.8779,8.64532L33.9341,8.70091L33.9889,8.76303
L34.0421,8.83169L34.0938,8.90689L34.4359,9.4421L34.1086,9.4421L33.8484,9.03298L33.7939,8.94965
L33.7444,8.87671L33.7,8.81417L33.6606,8.76202L33.6247,8.71859L33.5907,8.68221L33.5586,8.65287
L33.5285,8.63057L33.4992,8.61321L33.4696,8.59871L33.4398,8.58706L33.4097,8.57825L33.3841,8.57414
L33.3514,8.57121L33.3117,8.56945L33.2649,8.56886L32.9631,8.56886L32.9631,9.4421L32.7028,9.4421
M32.9631,8.34351L33.5224,8.34351L33.6068,8.34121L33.6814,8.33429L33.7463,8.32276L33.8014,8.30662
L33.8487,8.28541L33.89,8.25867L33.9252,8.22639L33.9543,8.18858L33.9772,8.14712L33.9936,8.10391
L34.0034,8.05893L34.0067,8.01219L34.0003,7.94554L33.9813,7.88509L33.9497,7.83085L33.9054,7.78281
L33.8474,7.74349L33.7748,7.71541L33.6874,7.69856L33.5855,7.69294L32.9631,7.69294L32.9631,8.34351" style=" fill:#000000; stroke:#000000;" />
<path d="M35.6029,8.67081L35.6029,8.44009L36.4359,8.43875L36.4359,9.16846L36.3392,9.24018
L36.2411,9.30243L36.1414,9.35521L36.0402,9.39851L35.9376,9.43225L35.8336,9.45635L35.7283,9.47082
L35.6217,9.47564L35.4801,9.46788L35.3452,9.44462L35.2169,9.40584L35.0952,9.35156L34.9841,9.2826
L34.8874,9.19982L34.8053,9.10319L34.7377,8.99274L34.6849,8.87193L34.6472,8.74425L34.6245,8.60969
L34.617,8.46826L34.6245,8.32712L34.647,8.19076L34.6845,8.05918L34.737,7.93238L34.8036,7.81597
L34.8834,7.71558L34.9763,7.6312L35.0824,7.56283L35.1994,7.51001L35.3249,7.47228L35.459,7.44965
L35.6016,7.4421L35.7056,7.44642L35.8046,7.45937L35.8985,7.48096L35.9872,7.51118L36.0687,7.54912
L36.141,7.59385L36.2039,7.64536L36.2575,7.70367L36.3035,7.77007L36.3437,7.84586L36.378,7.93104
L36.4064,8.0256L36.1716,8.08999L36.1482,8.0189L36.122,7.95585L36.0932,7.90086L36.0617,7.85391
L36.0253,7.81312L35.9818,7.77661L35.9314,7.74437L35.8739,7.71642L35.8111,7.69382L35.7451,7.67768
L35.6757,7.668L35.6029,7.66477L35.5167,7.66817L35.4366,7.67835L35.3625,7.69533L35.2944,7.7191
L35.2325,7.7484L35.1768,7.78198L35.1275,7.81983L35.0845,7.86196L35.0468,7.90731L35.0135,7.95485
L34.9847,8.00456L34.9604,8.05646L34.9275,8.1496L34.904,8.2466L34.89,8.34745L34.8853,8.45216
L34.8909,8.57825L34.9079,8.69361L34.9362,8.79824L34.9758,8.89214L35.0262,8.97497L35.087,9.04639
L35.158,9.10642L35.2394,9.15505L35.3272,9.19261L35.4178,9.21943L35.511,9.23553L35.6069,9.2409
L35.6909,9.23683L35.7739,9.22463L35.8559,9.2043L35.9369,9.17584L36.0125,9.14276L36.0784,9.1086
L36.1346,9.07335L36.181,9.03701L36.181,8.67081L35.6029,8.67081" style=" fill:#000000; stroke:#000000;" />
<path d="M36.8249,9.4421L36.8249,7.47564L38.2468,7.47564L38.2468,7.7077L37.0851,7.7077
L37.0851,8.30998L38.173,8.30998L38.173,8.54069L37.0851,8.54069L37.0851,9.21004L38.2924,9.21004
L38.2924,9.4421L36.8249,9.4421" style=" fill:#000000; stroke:#000000;" />
<path d="M39.1522,9.4421L39.1522,7.7077L38.5043,7.7077L38.5043,7.47564L40.063,7.47564
L40.063,7.7077L39.4124,7.7077L39.4124,9.4421L39.1522,9.4421" style=" fill:#000000; stroke:#000000;" />
</g>
<g id="parts0002" onclick="view_parts('0.0337143 0.0337143 21.2362 16.8168','parts0002','Local')">
<radialGradient id="grd60" spreadMethod="pad" gradientUnits="objectBoundingBox" cx="0.31" cy="0.59" r="0.5" fx="0.31" fy="0.59">
<stop offset="0" style="stop-color:#000000"/>
<stop offset="1" style="stop-color:#000000"/>
</radialGradient>
<path d="M20.8615,1.4421A1,1 0 0,0 19.8615,0.442103 L2.21868,0.442103A1,1 0 0,0 1.27317,1.11652 
A22.5,22.5 0 0,0 0.460469,4.14967 A1,1 0 0,0 0.953832,5.21314 A3.7,3.7 0 0,1 0.953832,11.6711 
A1,1 0 0,0 0.460469,12.7345 A22.5,22.5 0 0,0 1.27317,15.7677 A1,1 0 0,0 2.21868,16.4421 
L19.8615,16.4421A1,1 0 0,0 20.8615,15.4421 L20.8615,10.5733A1,1 0 0,0 20.6448,9.95171 
A2.42857,2.42857 0 0,1 20.6448,6.9325 A1,1 0 0,0 20.8615,6.3109 L20.8615,1.4421M20.2615,1.4421
L20.2615,6.3109A0.4,0.4 0 0,1 20.1748,6.55954 A3.02857,3.02857 0 0,0 20.1748,10.3247 
A0.4,0.4 0 0,1 20.2615,10.5733 L20.2615,15.4421A0.4,0.4 0 0,1 19.8615,15.8421 L2.21868,15.8421
A0.4,0.4 0 0,1 1.84047,15.5723 A21.9,21.9 0 0,1 1.04945,12.6201 A0.4,0.4 0 0,1 1.24679,12.1947 
A4.3,4.3 0 0,0 1.24679,4.68953 A0.4,0.4 0 0,1 1.04945,4.26414 A21.9,21.9 0 0,1 1.84047,1.31187 
A0.4,0.4 0 0,1 2.21868,1.0421 L19.8615,1.0421A0.4,0.4 0 0,1 20.2615,1.4421 " style="fill:url(#grd60); stroke:none;" />
<radialGradient id="grd95" spreadMethod="pad" gradientUnits="objectBoundingBox" cx="0.31" cy="0.59" r="0.5" fx="0.31" fy="0.59">
<stop offset="0" style="stop-color:#61ff61"/>
<stop offset="1" style="stop-color:#61ff61"/>
</radialGradient>
<path d="M20.1748,6.55954A3.02857,3.02857 0 0,0 20.1748,10.3247 A0.4,0.4 0 0,1 20.2615,10.5733 
L20.2615,15.4421A0.4,0.4 0 0,1 19.8615,15.8421 L2.21868,15.8421A0.4,0.4 0 0,1 1.84047,15.5723 
A21.9,21.9 0 0,1 1.04945,12.6201 A0.4,0.4 0 0,1 1.24679,12.1947 A4.3,4.3 0 0,0 1.24679,4.68953 
A0.4,0.4 0 0,1 1.04945,4.26414 A21.9,21.9 0 0,1 1.84047,1.31187 A0.4,0.4 0 0,1 2.21868,1.0421 
L19.8615,1.0421A0.4,0.4 0 0,1 20.2615,1.4421 L20.2615,6.3109A0.4,0.4 0 0,1 20.1748,6.55954 " style="fill:url(#grd95); stroke:none;" />
<path d="M6.24408,9.4421L6.24408,7.47564L6.50431,7.47564L6.50431,9.21004L7.47278,9.21004
L7.47278,9.4421L6.24408,9.4421" style=" fill:#000000; stroke:#000000;" />
<path d="M7.7035,8.48436L7.71993,8.25284L7.76923,8.0479L7.85139,7.86954L7.96641,7.71776
L8.10743,7.59657L8.26755,7.51001L8.44679,7.45807L8.64515,7.44076L8.77795,7.44889L8.90404,7.47329
L9.02342,7.51395L9.1361,7.57088L9.23892,7.64235L9.32875,7.72664L9.40559,7.82377L9.46943,7.93372
L9.51961,8.05398L9.55545,8.18204L9.57695,8.3179L9.58412,8.46155L9.57657,8.60718L9.55394,8.74492
L9.51621,8.87478L9.46339,8.99676L9.39674,9.10764L9.31752,9.20417L9.22572,9.28638L9.12134,9.35424
L9.0085,9.40735L8.8913,9.44529L8.76973,9.46805L8.64381,9.47564L8.50867,9.46725L8.3809,9.4421
L8.26051,9.40018L8.1475,9.3415L8.0448,9.26831L7.95535,9.18288L7.87914,9.08521L7.81618,8.9753
L7.76688,8.8576L7.73167,8.73654L7.71054,8.61212L7.7035,8.48436M7.97178,8.48838L7.98372,8.65668
L8.01956,8.80612L8.0793,8.9367L8.16292,9.04841L8.26458,9.1379L8.37838,9.20183L8.50435,9.24018
L8.64247,9.25297L8.78285,9.24006L8.91024,9.20132L9.02464,9.13677L9.12604,9.04639L9.20908,8.93229
L9.26839,8.79656L9.30398,8.6392L9.31584,8.46021L9.31077,8.34397L9.29555,8.23536L9.27019,8.13438
L9.23469,8.04103L9.18942,7.95652L9.13476,7.88208L9.0707,7.81769L8.99726,7.76336L8.91674,7.72023
L8.83144,7.68942L8.74135,7.67093L8.64649,7.66477L8.51315,7.67663L8.38945,7.71222L8.27539,7.77154
L8.17097,7.85458L8.08383,7.96537L8.02158,8.10793L7.98423,8.28227L7.97178,8.48838" style=" fill:#000000; stroke:#000000;" />
<path d="M11.3225,8.75263L11.5828,8.81836L11.5337,8.96914L11.4683,9.10089L11.3865,9.21361
L11.2883,9.30729L11.1761,9.38094L11.0521,9.43355L10.9162,9.46512L10.7686,9.47564L10.617,9.46755
L10.4803,9.44328L10.3585,9.40283L10.2515,9.34619L10.1578,9.27422L10.0761,9.18774L10.0062,9.08676
L9.9483,8.97128L9.90282,8.84628L9.87034,8.71675L9.85084,8.5827L9.84435,8.44411L9.85168,8.29543
L9.87369,8.15656L9.91037,8.02749L9.96172,7.90823L10.0266,7.80075L10.1039,7.70703L10.1936,7.62705
L10.2957,7.56081L10.4068,7.50888L10.5233,7.47178L10.6452,7.44952L10.7726,7.4421L10.9143,7.45149
L11.0442,7.47966L11.1624,7.52661L11.2689,7.59234L11.3619,7.67508L11.4396,7.77309L11.502,7.88635
L11.5492,8.01487L11.293,8.07523L11.255,7.97522L11.2092,7.88979L11.1557,7.81895L11.0945,7.76269
L11.0253,7.71985L10.9476,7.68925L10.8616,7.67089L10.7672,7.66477L10.6585,7.67156L10.5591,7.69193
L10.4691,7.72589L10.3883,7.77342L10.3178,7.8324L10.2587,7.90069L10.2108,7.97828L10.1743,8.06517
L10.1473,8.15744L10.128,8.25112L10.1165,8.34624L10.1126,8.44277L10.1172,8.56421L10.1309,8.67768
L10.1537,8.78319L10.1857,8.88073L10.2274,8.96839L10.2791,9.04422L10.341,9.10822L10.4131,9.16041
L10.4918,9.20091L10.5737,9.22983L10.6588,9.24718L10.7471,9.25297L10.8522,9.24509L10.949,9.22145
L11.0373,9.18204L11.1173,9.12688L11.187,9.0562L11.2444,8.97027L11.2896,8.86908L11.3225,8.75263" style=" fill:#000000; stroke:#000000;" />
<path d="M11.6874,9.4421L12.4426,7.47564L12.723,7.47564L13.5278,9.4421L13.2313,9.4421
L13.002,8.84653L12.1797,8.84653L11.9637,9.4421L11.6874,9.4421M12.2548,8.63459L12.9215,8.63459
L12.7162,8.08999L12.6723,7.97145L12.6344,7.86397L12.6026,7.76756L12.5767,7.68221L12.556,7.77661
L12.5315,7.87067L12.503,7.9644L12.4708,8.0578L12.2548,8.63459" style=" fill:#000000; stroke:#000000;" />
<path d="M13.725,9.4421L13.725,7.47564L13.9852,7.47564L13.9852,9.21004L14.9537,9.21004
L14.9537,9.4421L13.725,9.4421" style=" fill:#000000; stroke:#000000;" />
</g>
</g>
</svg>
