<?xml version="1.0" standalone="no"?>
<!DOCTYPE svg PUBLIC "-//W3C//DTD SVG 20010904//EN"
"http://www.w3.org/TR/2001/REC-SVG-20010904/DTD/svg10.dtd">
<svg version="1.0" xmlns="http://www.w3.org/2000/svg" id="svg" width="100%" height="100%" viewBox="0 0 14.7219 3.58867" style=" fill:none; fill-rule:evenodd; stroke-linecap:round; stroke-linejoin:round; stroke:#ffff00; stroke-width:0.2;">
<desc>PumpGpsCompasLocalLongitude</desc>
<rect x="-4.90731" y="-4.90731" width="24.5366" height="13.4033" color-rendering="optimizeSpeed" style=" fill:#ffffff; stroke:none; fill-opacity:100;" />
<g id="parts0000">
<g id="parts0001" onclick="view_parts('-0.144333 -0.144333 15.0106 3.87733','parts0001','Longitude Local')">
<path d="M0.361636,2.64433L0.361636,0.677867L1.7835,0.677867L1.7835,0.909926L0.621865,0.909926
L0.621865,1.51221L1.70973,1.51221L1.70973,1.74292L0.621865,1.74292L0.621865,2.41227
L1.82911,2.41227L1.82911,2.64433L0.361636,2.64433" style=" fill:#000000; stroke:#000000;" />
<path d="M5.63327,1.15942L5.39316,1.1782L5.37539,1.11197L5.35426,1.05547L5.32978,1.00869
L5.30195,0.97163L5.25013,0.926442L5.19262,0.894165L5.12941,0.874799L5.0605,0.868343
L5.00458,0.872368L4.95218,0.88444L4.9033,0.904561L4.85795,0.93273L4.80396,0.979091
L4.756,1.03501L4.71408,1.10049L4.6782,1.17552L4.64928,1.2638L4.62824,1.36901L4.61507,1.49116
L4.60979,1.63025L4.65582,1.56813L4.70671,1.51455L4.76246,1.46953L4.82307,1.43307L4.88687,1.4049
L4.95218,1.38478L5.019,1.3727L5.08732,1.36868L5.20356,1.37979L5.31083,1.41311L5.40913,1.46865
L5.49846,1.54641L5.57269,1.64178L5.62572,1.75013L5.65754,1.87149L5.66814,2.00584L5.66315,2.09676
L5.64819,2.18441L5.62325,2.26879L5.58833,2.3499L5.54469,2.42472L5.49359,2.49024L5.43504,2.54645
L5.36901,2.59336L5.29691,2.63033L5.22012,2.65674L5.13863,2.67259L5.05245,2.67787L4.9085,2.66399
L4.77847,2.62237L4.66236,2.55299L4.56016,2.45587L4.47683,2.32689L4.4173,2.16194L4.38159,1.96102
L4.36968,1.72414L4.38285,1.45855L4.42233,1.23186L4.48815,1.04406L4.58028,0.895171
L4.68013,0.796579L4.79591,0.726157L4.92762,0.683903L5.07525,0.669819L5.18604,0.677951
L5.28635,0.702347L5.37618,0.743008L5.45553,0.799933L5.52223,0.871194L5.57408,0.954863
L5.61109,1.05094L5.63327,1.15942M4.64735,2.00718L4.65066,2.06888L4.6606,2.12924L4.67715,2.18826
L4.70034,2.24594L4.72947,2.29956L4.76388,2.34638L4.80358,2.38641L4.84856,2.41965L4.89676,2.44577
L4.94614,2.46442L4.9967,2.47561L5.04842,2.47934L5.1222,2.47163L5.19061,2.44849L5.25366,2.40993
L5.31133,2.35594L5.35946,2.2887L5.39383,2.2104L5.41445,2.12103L5.42133,2.02059L5.41454,1.92405
L5.39416,1.83833L5.36021,1.76342L5.31268,1.69933L5.25483,1.64798L5.18994,1.6113L5.11801,1.58929
L5.03903,1.58196L4.96031,1.58929L4.88779,1.6113L4.82148,1.64798L4.76137,1.69933L4.71149,1.76258
L4.67586,1.83498L4.65448,1.91651L4.64735,2.00718" style=" fill:#000000; stroke:#000000;" />
<path d="M5.96593,1.0159L5.97276,0.941616L5.99326,0.873038L6.02742,0.810161L6.07525,0.752985
L6.13264,0.705449L6.19547,0.671496L6.26376,0.651123L6.33749,0.644333L6.41236,0.651123
L6.48135,0.671496L6.54448,0.705449L6.60174,0.752985L6.64928,0.810161L6.68323,0.873038
L6.7036,0.941616L6.7104,1.0159L6.70356,1.09022L6.68307,1.15892L6.6489,1.22201L6.60107,1.27948
L6.5436,1.32731L6.48052,1.36147L6.41181,1.38197L6.33749,1.3888L6.26376,1.38201L6.19547,1.36164
L6.13264,1.32768L6.07525,1.28015L6.02742,1.22289L5.99326,1.15976L5.97276,1.09076L5.96593,1.0159
M6.11214,1.0159L6.11629,1.06113L6.12874,1.10292L6.14949,1.14127L6.17854,1.17619L6.21346,1.20524
L6.25181,1.22599L6.2936,1.23844L6.33883,1.24259L6.38348,1.23844L6.42485,1.22599L6.46295,1.20524
L6.49779,1.17619L6.52684,1.14127L6.54759,1.10292L6.56004,1.06113L6.56419,1.0159L6.56004,0.970666
L6.54759,0.928873L6.52684,0.890518L6.49779,0.8556L6.46295,0.826551L6.42485,0.805801
L6.38348,0.793352L6.33883,0.789202L6.2936,0.793352L6.25181,0.805801L6.21346,0.826551
L6.17854,0.8556L6.14949,0.890518L6.12874,0.928873L6.11629,0.970666L6.11214,1.0159" style=" fill:#000000; stroke:#000000;" />
<path d="M7.9163,2.64433L7.67485,2.64433L7.67485,1.10577L7.62786,1.14735L7.57408,1.18893
L7.51351,1.23052L7.44614,1.2721L7.37719,1.31108L7.31184,1.34487L7.25009,1.37346L7.19195,1.39685
L7.19195,1.16345L7.29004,1.11331L7.38176,1.05815L7.4671,0.997954L7.54608,0.93273L7.61633,0.865493
L7.67552,0.799262L7.72364,0.734038L7.7607,0.669819L7.9163,0.669819L7.9163,2.64433" style=" fill:#000000; stroke:#000000;" />
<path d="M9.30865,2.64433L9.30865,2.17351L8.45553,2.17351L8.45553,1.95218L9.35292,0.677867
L9.5501,0.677867L9.5501,1.95218L9.81569,1.95218L9.81569,2.17351L9.5501,2.17351L9.5501,2.64433
L9.30865,2.64433M9.30865,1.95218L9.30865,1.06553L8.69296,1.95218L9.30865,1.95218" style=" fill:#000000; stroke:#000000;" />
<path d="M10.1309,1.37404L10.0692,1.00651L10.0692,0.677867L10.3442,0.677867L10.3442,1.00651
L10.2798,1.37404L10.1309,1.37404" style=" fill:#000000; stroke:#000000;" />
<path d="M11.8559,2.41227L11.8559,2.64433L10.5561,2.64433L10.5569,2.60116L10.5618,2.55882
L10.571,2.51732L10.5843,2.47666L10.6129,2.41051L10.6489,2.34487L10.6923,2.27973L10.7433,2.21509
L10.804,2.14819L10.8769,2.07626L10.9619,1.9993L11.0592,1.9173L11.2065,1.79268L11.3278,1.68172
L11.4231,1.58443L11.4924,1.5008L11.5417,1.42506L11.5769,1.35141L11.5981,1.27985L11.6051,1.2104
L11.5987,1.14144L11.5794,1.0781L11.5474,1.02038L11.5025,0.968276L11.4473,0.925143
L11.3843,0.894333L11.3135,0.875847L11.2349,0.869685L11.152,0.876224L11.0779,0.895842
L11.0125,0.928538L10.9559,0.974313L10.91,1.03166L10.8771,1.09906L10.857,1.17653L10.8499,1.26405
L10.6017,1.23856L10.6233,1.10799L10.6624,0.99393L10.7192,0.896387L10.7936,0.815359
L10.8839,0.751685L10.9884,0.706204L11.1072,0.678915L11.2402,0.669819L11.3744,0.679628
L11.4938,0.709054L11.5984,0.758099L11.6883,0.826761L11.7604,0.909926L11.812,1.00248
L11.8429,1.10443L11.8533,1.21576L11.8502,1.27453L11.8412,1.3328L11.8261,1.39056L11.805,1.44782
L11.7768,1.50558L11.7407,1.56486L11.6967,1.62564L11.6447,1.68793L11.5794,1.75684L11.4956,1.83749
L11.3933,1.92988L11.2724,2.034L11.1735,2.11788L11.094,2.18709L11.034,2.24162L10.9934,2.28149
L10.9639,2.31406L10.9371,2.34671L10.9129,2.37945L10.8915,2.41227L11.8559,2.41227" style=" fill:#000000; stroke:#000000;" />
<path d="M13.3838,2.41227L13.3838,2.64433L12.084,2.64433L12.0847,2.60116L12.0897,2.55882
L12.0988,2.51732L12.1121,2.47666L12.1407,2.41051L12.1767,2.34487L12.2202,2.27973L12.2711,2.21509
L12.3318,2.14819L12.4047,2.07626L12.4898,1.9993L12.587,1.9173L12.7343,1.79268L12.8556,1.68172
L12.9509,1.58443L13.0203,1.5008L13.0696,1.42506L13.1048,1.35141L13.1259,1.27985L13.1329,1.2104
L13.1265,1.14144L13.1073,1.0781L13.0752,1.02038L13.0303,0.968276L12.9751,0.925143
L12.9121,0.894333L12.8413,0.875847L12.7627,0.869685L12.6799,0.876224L12.6058,0.895842
L12.5404,0.928538L12.4837,0.974313L12.4378,1.03166L12.4049,1.09906L12.3849,1.17653
L12.3777,1.26405L12.1296,1.23856L12.1511,1.10799L12.1903,0.99393L12.247,0.896387L12.3214,0.815359
L12.4117,0.751685L12.5162,0.706204L12.635,0.678915L12.7681,0.669819L12.9022,0.679628
L13.0216,0.709054L13.1262,0.758099L13.2161,0.826761L13.2883,0.909926L13.3398,1.00248
L13.3708,1.10443L13.3811,1.21576L13.3781,1.27453L13.369,1.3328L13.3539,1.39056L13.3328,1.44782
L13.3047,1.50558L13.2686,1.56486L13.2245,1.62564L13.1725,1.68793L13.1072,1.75684L13.0234,1.83749
L12.9211,1.92988L12.8003,2.034L12.7013,2.11788L12.6219,2.18709L12.5618,2.24162L12.5213,2.28149
L12.4918,2.31406L12.4649,2.34671L12.4408,2.37945L12.4193,2.41227L13.3838,2.41227" style=" fill:#000000; stroke:#000000;" />
<path d="M13.7111,1.37404L13.6494,1.00651L13.6494,0.677867L13.9243,0.677867L13.9243,1.00651
L13.86,1.37404L13.7111,1.37404" style=" fill:#000000; stroke:#000000;" />
<path d="M14.2355,1.37404L14.1738,1.00651L14.1738,0.677867L14.4488,0.677867L14.4488,1.00651
L14.3844,1.37404L14.2355,1.37404" style=" fill:#000000; stroke:#000000;" />
</g>
</g>
</svg>
