<?xml version="1.0" standalone="no"?>
<!DOCTYPE svg PUBLIC "-//W3C//DTD SVG 20010904//EN"
"http://www.w3.org/TR/2001/REC-SVG-20010904/DTD/svg10.dtd">
<svg version="1.0" xmlns="http://www.w3.org/2000/svg" id="svg" width="100%" height="100%" viewBox="0 0 14.8779 3.59172" style=" fill:none; fill-rule:evenodd; stroke-linecap:round; stroke-linejoin:round; stroke:#ffff00; stroke-width:0.2;">
<desc>PumpGpsCompasLocalLatitude</desc>
<rect x="-4.9593" y="-4.9593" width="24.7965" height="13.5103" color-rendering="optimizeSpeed" style=" fill:#ffffff; stroke:none; fill-opacity:100;" />
<g id="parts0000">
<g id="parts0001" onclick="view_parts('-0.145862 -0.145862 15.1696 3.88345','parts0001','Latitude Local')">
<path d="M0.355117,2.64586L0.355117,0.679396L0.622052,0.679396L1.65492,2.22333L1.65492,0.679396
L1.90441,0.679396L1.90441,2.64586L1.63748,2.64586L0.604614,1.10059L0.604614,2.64586
L0.355117,2.64586" style=" fill:#000000; stroke:#000000;" />
<path d="M3.78101,2.64586L3.78101,2.17504L2.92789,2.17504L2.92789,1.95371L3.82527,0.679396
L4.02245,0.679396L4.02245,1.95371L4.28805,1.95371L4.28805,2.17504L4.02245,2.17504
L4.02245,2.64586L3.78101,2.64586M3.78101,1.95371L3.78101,1.06706L3.16531,1.95371L3.78101,1.95371" style=" fill:#000000; stroke:#000000;" />
<path d="M5.78771,1.16095L5.54761,1.17973L5.52983,1.1135L5.50871,1.057L5.48423,1.01021
L5.45639,0.973159L5.40458,0.927971L5.34707,0.895694L5.28386,0.876328L5.21494,0.869873
L5.15902,0.873897L5.10663,0.885969L5.05775,0.90609L5.01239,0.934259L4.9584,0.98062
L4.91045,1.03654L4.86853,1.10202L4.83265,1.17705L4.80373,1.26533L4.78268,1.37054L4.76952,1.49269
L4.76424,1.63178L4.81026,1.56965L4.86115,1.51608L4.9169,1.47106L4.97752,1.43459L5.04132,1.40643
L5.10663,1.3863L5.17344,1.37423L5.24177,1.37021L5.35801,1.38132L5.46528,1.41464L5.56358,1.47018
L5.6529,1.54794L5.72714,1.6433L5.78017,1.75166L5.81198,1.87302L5.82259,2.00736L5.8176,2.09828
L5.80264,2.18594L5.77769,2.27032L5.74278,2.35143L5.69914,2.42625L5.64804,2.49177L5.58948,2.54798
L5.52346,2.59489L5.45136,2.63186L5.37457,2.65827L5.29308,2.67411L5.20689,2.6794L5.06295,2.66552
L4.93292,2.6239L4.8168,2.55452L4.71461,2.4574L4.63127,2.32842L4.57175,2.16347L4.53604,1.96255
L4.52413,1.72567L4.53729,1.46008L4.57678,1.23339L4.64259,1.04559L4.73473,0.8967L4.83458,0.798109
L4.95036,0.727686L5.08206,0.685433L5.2297,0.671348L5.34049,0.67948L5.4408,0.703877
L5.53063,0.744537L5.60998,0.801462L5.67667,0.872723L5.72852,0.956392L5.76554,1.05247
L5.78771,1.16095M4.8018,2.00871L4.80511,2.07041L4.81504,2.13077L4.8316,2.18979L4.85478,2.24747
L4.88392,2.30108L4.91833,2.34791L4.95803,2.38794L5.003,2.42118L5.05121,2.4473L5.10059,2.46595
L5.15114,2.47714L5.20287,2.48087L5.27665,2.47316L5.34506,2.45002L5.4081,2.41146L5.46578,2.35746
L5.5139,2.29023L5.54828,2.21192L5.5689,2.12256L5.57577,2.02212L5.56898,1.92558L5.54861,1.83986
L5.51466,1.76495L5.46712,1.70086L5.40928,1.64951L5.34439,1.61283L5.27245,1.59082L5.19348,1.58349
L5.11476,1.59082L5.04224,1.61283L4.97593,1.64951L4.91581,1.70086L4.86593,1.76411L4.8303,1.83651
L4.80892,1.91804L4.8018,2.00871" style=" fill:#000000; stroke:#000000;" />
<path d="M6.12038,1.01742L6.12721,0.943146L6.14771,0.874567L6.18187,0.81169L6.2297,0.754514
L6.28708,0.706979L6.34992,0.673025L6.4182,0.652653L6.49194,0.645862L6.5668,0.652653
L6.6358,0.673025L6.69893,0.706979L6.75619,0.754514L6.80373,0.81169L6.83768,0.874567
L6.85805,0.943146L6.86484,1.01742L6.85801,1.09175L6.83751,1.16045L6.80335,1.22354
L6.75552,1.28101L6.69805,1.32883L6.63496,1.363L6.56626,1.3835L6.49194,1.39033L6.4182,1.38354
L6.34992,1.36317L6.28708,1.32921L6.2297,1.28168L6.18187,1.22442L6.14771,1.16129L6.12721,1.09229
L6.12038,1.01742M6.26659,1.01742L6.27074,1.06265L6.28319,1.10445L6.30394,1.1428L6.33298,1.17772
L6.3679,1.20677L6.40626,1.22752L6.44805,1.23997L6.49328,1.24412L6.53792,1.23997L6.5793,1.22752
L6.6174,1.20677L6.65223,1.17772L6.68128,1.1428L6.70203,1.10445L6.71448,1.06265L6.71863,1.01742
L6.71448,0.972195L6.70203,0.930402L6.68128,0.892047L6.65223,0.857129L6.6174,0.82808
L6.5793,0.807331L6.53792,0.794881L6.49328,0.790731L6.44805,0.794881L6.40626,0.807331
L6.3679,0.82808L6.33298,0.857129L6.30394,0.892047L6.28319,0.930402L6.27074,0.972195
L6.26659,1.01742" style=" fill:#000000; stroke:#000000;" />
<path d="M8.43023,2.4138L8.43023,2.64586L7.13044,2.64586L7.13119,2.60269L7.13614,2.56035
L7.14527,2.51885L7.1586,2.47819L7.18715,2.41204L7.22316,2.3464L7.26663,2.28126L7.31756,2.21662
L7.3783,2.14972L7.45119,2.07779L7.53625,2.00082L7.63345,1.91883L7.78075,1.79421L7.90207,1.68325
L7.99739,1.58596L8.06672,1.50233L8.11602,1.42659L8.15123,1.35294L8.17235,1.28138L8.1794,1.21192
L8.17298,1.14297L8.15374,1.07963L8.12168,1.02191L8.07678,0.969805L8.02157,0.926672
L7.95857,0.895862L7.88777,0.877376L7.80918,0.871214L7.72634,0.877753L7.65223,0.897371
L7.58684,0.930067L7.53017,0.975842L7.48431,1.03319L7.45136,1.10059L7.43132,1.17805
L7.4242,1.26558L7.17604,1.24009L7.19759,1.10952L7.23674,0.995459L7.2935,0.897916L7.36786,0.816888
L7.45815,0.753214L7.5627,0.707733L7.68149,0.680444L7.81454,0.671348L7.94868,0.681157
L8.06806,0.710584L8.17269,0.759628L8.26256,0.82829L8.33475,0.911455L8.3863,1.00401
L8.41724,1.10596L8.42755,1.21729L8.42453,1.27606L8.41548,1.33433L8.40039,1.39209L8.37926,1.44935
L8.35114,1.50711L8.31504,1.56638L8.27099,1.62717L8.21897,1.68946L8.1537,1.75837L8.06991,1.83902
L7.96758,1.93141L7.84673,2.03553L7.74781,2.11941L7.66833,2.18862L7.6083,2.24315L7.56773,2.28302
L7.53822,2.31559L7.51139,2.34824L7.48724,2.38098L7.46578,2.4138L8.43023,2.4138" style=" fill:#000000; stroke:#000000;" />
<path d="M9.95807,2.4138L9.95807,2.64586L8.65827,2.64586L8.65902,2.60269L8.66397,2.56035
L8.67311,2.51885L8.68644,2.47819L8.71498,2.41204L8.75099,2.3464L8.79446,2.28126L8.84539,2.21662
L8.90613,2.14972L8.97903,2.07779L9.06408,2.00082L9.16129,1.91883L9.30859,1.79421L9.4299,1.68325
L9.52522,1.58596L9.59455,1.50233L9.64385,1.42659L9.67906,1.35294L9.70019,1.28138L9.70723,1.21192
L9.70082,1.14297L9.68158,1.07963L9.64951,1.02191L9.60461,0.969805L9.54941,0.926672
L9.48641,0.895862L9.41561,0.877376L9.33701,0.871214L9.25418,0.877753L9.18007,0.897371
L9.11467,0.930067L9.058,0.975842L9.01214,1.03319L8.9792,1.10059L8.95916,1.17805L8.95203,1.26558
L8.70388,1.24009L8.72542,1.10952L8.76457,0.995459L8.82133,0.897916L8.89569,0.816888
L8.98599,0.753214L9.09053,0.707733L9.20933,0.680444L9.34237,0.671348L9.47651,0.681157
L9.5959,0.710584L9.70052,0.759628L9.7904,0.82829L9.86258,0.911455L9.91414,1.00401
L9.94507,1.10596L9.95539,1.21729L9.95237,1.27606L9.94331,1.33433L9.92822,1.39209L9.9071,1.44935
L9.87897,1.50711L9.84288,1.56638L9.79882,1.62717L9.7468,1.68946L9.68153,1.75837L9.59774,1.83902
L9.49542,1.93141L9.37457,2.03553L9.27564,2.11941L9.19616,2.18862L9.13614,2.24315L9.09556,2.28302
L9.06605,2.31559L9.03922,2.34824L9.01508,2.38098L8.99362,2.4138L9.95807,2.4138" style=" fill:#000000; stroke:#000000;" />
<path d="M10.2854,1.37557L10.2237,1.00803L10.2237,0.679396L10.4986,0.679396L10.4986,1.00803
L10.4343,1.37557L10.2854,1.37557" style=" fill:#000000; stroke:#000000;" />
<path d="M10.7414,2.13077L10.995,2.10931L11.0137,2.19612L11.0417,2.27145L11.0791,2.33529
L11.1257,2.38765L11.1797,2.42843L11.2389,2.45757L11.3034,2.47505L11.3732,2.48087L11.4571,2.47266
L11.5342,2.44801L11.6046,2.40693L11.6683,2.34942L11.7211,2.27832L11.7589,2.1965L11.7815,2.10394
L11.7891,2.00066L11.7818,1.90282L11.76,1.81588L11.7238,1.73984L11.673,1.6747L11.6105,1.62247
L11.5391,1.58516L11.4586,1.56278L11.3692,1.55532L11.3123,1.55863L11.2582,1.56856L11.207,1.58512
L11.1586,1.6083L11.1142,1.63677L11.0748,1.66917L11.0404,1.70551L11.0111,1.74579L10.7844,1.71628
L10.9748,0.706224L11.9527,0.706224L11.9527,0.936942L11.168,0.936942L11.062,1.46545
L11.1516,1.41146L11.2434,1.37289L11.3374,1.34975L11.4336,1.34204L11.5573,1.35319L11.671,1.38664
L11.7746,1.44239L11.8682,1.52044L11.9457,1.61602L12.001,1.72433L12.0342,1.84539L12.0453,1.9792
L12.0355,2.10814L12.0064,2.22802L11.9577,2.33885L11.8897,2.44063L11.7865,2.54509L11.666,2.6197
L11.5282,2.66447L11.3732,2.6794L11.2452,2.67001L11.1296,2.64184L11.0263,2.59489L10.9353,2.52916
L10.8595,2.44792L10.802,2.35445L10.7626,2.24873L10.7414,2.13077" style=" fill:#000000; stroke:#000000;" />
<path d="M12.3055,2.19113L12.5375,2.16967L12.5557,2.24588L12.5805,2.31085L12.612,2.36459
L12.6502,2.4071L12.6947,2.43937L12.7451,2.46243L12.8014,2.47626L12.8635,2.48087L12.9174,2.47769
L12.968,2.46813L13.015,2.4522L13.0587,2.4299L13.0987,2.40228L13.135,2.37038L13.1674,2.3342
L13.1962,2.29375L13.2219,2.24743L13.2455,2.19365L13.2668,2.13241L13.286,2.0637L13.3019,1.99093
L13.3132,1.91749L13.32,1.84338L13.3223,1.7686L13.3222,1.75954L13.3219,1.74848L13.3215,1.7354
L13.3209,1.72031L13.2814,1.77526L13.2352,1.82477L13.1825,1.86882L13.1231,1.90743L13.059,1.93883
L12.9924,1.96125L12.9232,1.97471L12.8514,1.9792L12.7341,1.96813L12.6261,1.93493L12.5275,1.8796
L12.4383,1.80213L12.3643,1.70656L12.3115,1.5969L12.2798,1.47316L12.2693,1.33533L12.2803,1.19306
L12.3134,1.06538L12.3685,0.952284L12.4457,0.853776L12.5394,0.773964L12.6444,0.716955
L12.7604,0.68275L12.8876,0.671348L12.9815,0.677803L13.0712,0.69717L13.1569,0.729447
L13.2384,0.774634L13.3131,0.831769L13.3783,0.899886L13.4338,0.978986L13.4799,1.06907
L13.516,1.17533L13.5417,1.30297L13.5572,1.45199L13.5624,1.62239L13.5572,1.80125L13.5419,1.96092
L13.5163,2.10139L13.4805,2.22266L13.4346,2.32766L13.3788,2.41934L13.3129,2.49768L13.2371,2.5627
L13.1528,2.61375L13.0615,2.65022L12.9633,2.6721L12.8581,2.6794L12.7481,2.67139L12.6485,2.64737
L12.5596,2.60734L12.4812,2.55129L12.4154,2.48075L12.3642,2.3972L12.3275,2.30067L12.3055,2.19113
M13.2941,1.32326L13.2872,1.22467L13.2664,1.13681L13.2318,1.05968L13.1834,0.99328L13.1253,0.939876
L13.0615,0.90173L12.9921,0.878843L12.9172,0.871214L12.8393,0.87943L12.7666,0.904078
L12.6991,0.945158L12.6368,1.00267L12.5846,1.07326L12.5473,1.15357L12.5249,1.24362
L12.5174,1.34338L12.5245,1.43288L12.5458,1.51357L12.5812,1.58546L12.6308,1.64854L12.6908,1.69989
L12.7574,1.73657L12.8306,1.75858L12.9104,1.76592L12.9906,1.75858L13.0632,1.73657L13.1284,1.69989
L13.1861,1.64854L13.2333,1.5842L13.2671,1.50854L13.2873,1.42156L13.2941,1.32326" style=" fill:#000000; stroke:#000000;" />
<path d="M13.8655,1.37557L13.8038,1.00803L13.8038,0.679396L14.0788,0.679396L14.0788,1.00803
L14.0144,1.37557L13.8655,1.37557" style=" fill:#000000; stroke:#000000;" />
<path d="M14.39,1.37557L14.3283,1.00803L14.3283,0.679396L14.6033,0.679396L14.6033,1.00803
L14.5389,1.37557L14.39,1.37557" style=" fill:#000000; stroke:#000000;" />
</g>
</g>
</svg>
