<?xml version="1.0" standalone="no"?>
<!DOCTYPE svg PUBLIC "-//W3C//DTD SVG 20010904//EN"
"http://www.w3.org/TR/2001/REC-SVG-20010904/DTD/svg10.dtd">
<svg version="1.0" xmlns="http://www.w3.org/2000/svg" id="svg" width="100%" height="100%" viewBox="0 0 4.48286 39.1971" style=" fill:none; fill-rule:evenodd; stroke-linecap:round; stroke-linejoin:round; stroke:#ffff00; stroke-width:0.2;">
<desc>PumpGpsCompasHand</desc>
<rect x="-13.0657" y="-13.0657" width="30.6143" height="65.3286" color-rendering="optimizeSpeed" style=" fill:none; stroke:none; fill-opacity:100;" />
<g id="parts0000">
<g id="parts0001" onclick="view_parts('-0.384286 -0.384286 5.25143 39.9657','parts0001','Aiguille')">
<radialGradient id="grd3" spreadMethod="pad" gradientUnits="objectBoundingBox" cx="0.31" cy="0.59" r="0.5" fx="0.31" fy="0.59">
<stop offset="0" style="stop-color:#000000"/>
<stop offset="1" style="stop-color:#000000"/>
</radialGradient>
<path d="M0.955714,38.8129L3.52714,38.8129L3.52714,21.7244A1.85714,1.85714 0 0,0 3.52714,19.0442 
L3.52714,1.95571L2.27714,0.384286L2.20571,0.384286L0.955714,1.95571L0.955714,19.0442
A1.85714,1.85714 0 0,0 0.955714,21.7244 L0.955714,38.8129M1.53231,37.6986L1.53231,28.4557
L2.95571,28.4557L2.95571,37.7027L1.53231,37.6986M2.95571,22.8129L1.53231,22.8129L1.53231,27.8843
L2.95571,27.8843L2.95571,22.8129M3.24143,20.3843A1,1 0 1,0 1.24143,20.3843 A1,1 0 1,0 3.24143,20.3843 
M1.52714,17.9557L2.95055,17.9557L2.95055,12.8843L1.52714,12.8843L1.52714,17.9557M1.52714,12.3129
L1.52714,3.06592L2.20571,2.21286L2.27714,2.21286L2.95055,3.07L2.95055,12.3129L1.52714,12.3129" style="fill:url(#grd3); stroke:none;" />
<linearGradient id="grd29" spreadMethod="pad" gradientUnits="objectBoundingBox" x1="0" y1="0" x2="1" y2="-1.53144e-015">
<stop offset="0" style="stop-color:#ffffff"/>
<stop offset="0.5" style="stop-color:#c8c8c8"/>
<stop offset="1" style="stop-color:#ffffff"/>
</linearGradient>
<path d="M2.95571,28.4557L2.95571,37.7027L1.53231,37.6986L1.53231,28.4557L2.95571,28.4557" style="fill:url(#grd29); stroke:none;" />
<linearGradient id="grd36" spreadMethod="pad" gradientUnits="objectBoundingBox" x1="0" y1="0" x2="1" y2="-1.53144e-015">
<stop offset="0" style="stop-color:#ff0000"/>
<stop offset="0.5" style="stop-color:#ff6767"/>
<stop offset="1" style="stop-color:#ff0000"/>
</linearGradient>
<path d="M1.52714,12.3129L1.52714,3.06592L2.20571,2.21286L2.27714,2.21286L2.95055,3.07
L2.95055,12.3129L1.52714,12.3129" style="fill:url(#grd36); stroke:none;" />
<radialGradient id="grd45" spreadMethod="pad" gradientUnits="objectBoundingBox" cx="0.48" cy="0.51" r="0.5" fx="0.48" fy="0.51">
<stop offset="0" style="stop-color:#d6d6d6"/>
<stop offset="1" style="stop-color:#000000"/>
</radialGradient>
<path d="M3.24143,20.3843A1,1 0 1,0 1.24143,20.3843 A1,1 0 1,0 3.24143,20.3843 " style="fill:url(#grd45); stroke:none;" />
</g>
</g>
</svg>
