<?xml version="1.0" encoding="utf-8"?>
<!-- Generator: Adobe Illustrator 19.1.0, SVG Export Plug-In . SVG Version: 6.00 Build 0)  -->
<svg version="1.1" id="Calque_1" xmlns="http://www.w3.org/2000/svg" xmlns:xlink="http://www.w3.org/1999/xlink" x="0px" y="0px"
	 viewBox="156 -156 512 512" style="enable-background:new 156 -156 512 512;" xml:space="preserve">
<style type="text/css">
	.st0{fill:#E20A0A;}
</style>
<g>
	<g>
		<path class="st0" d="M412-2.4c-56.6,0-102.4,45.8-102.4,102.4S355.4,202.4,412,202.4S514.4,156.5,514.4,100
			C514.4,43.4,468.5-2.4,412-2.4L412-2.4z M565.6-156H258.4C201.8-156,156-110.2,156-53.6v307.2c0,56.6,45.8,102.4,102.4,102.4
			h307.2c56.6,0,102.4-45.8,102.4-102.4V-53.6C668-110.2,622.2-156,565.6-156z M616.8,228c0,42.4-34.4,76.8-76.8,76.8H284
			c-42.4,0-76.8-34.4-76.8-76.8V-28c0-42.4,34.4-76.8,76.8-76.8h256c42.4,0,76.8,34.4,76.8,76.8V228z"/>
	</g>
</g>
</svg>
