<?xml version="1.0" encoding="utf-8"?>
<!-- Generator: Adobe Illustrator 19.1.0, SVG Export Plug-In . SVG Version: 6.00 Build 0)  -->
<svg version="1.1" id="Capa_1" xmlns="http://www.w3.org/2000/svg" xmlns:xlink="http://www.w3.org/1999/xlink" x="0px" y="0px"
	 viewBox="130 -130 310 310" style="enable-background:new 130 -130 310 310;" xml:space="preserve">
<style type="text/css">
	.st0{fill:#666666;}
</style>
<g>
	<path class="st0" d="M250.6-59.3L270-78.8V75.1c0,8.3,6.7,15,15,15s15-6.7,15-15V-78.8l19.4,19.4c2.9,2.9,6.8,4.4,10.6,4.4
		s7.7-1.5,10.6-4.4c5.9-5.9,5.9-15.4,0-21.2l-45-45c-0.4-0.4-0.7-0.7-1.1-1c-0.2-0.1-0.3-0.3-0.5-0.4c-0.2-0.2-0.4-0.3-0.7-0.5
		c-0.2-0.1-0.4-0.3-0.6-0.4c-0.2-0.1-0.4-0.3-0.6-0.4c-0.2-0.1-0.4-0.2-0.7-0.3c-0.2-0.1-0.4-0.2-0.7-0.3c-0.2-0.1-0.4-0.2-0.6-0.2
		c-0.2-0.1-0.5-0.2-0.7-0.3c-0.2-0.1-0.4-0.1-0.7-0.2c-0.3-0.1-0.5-0.1-0.8-0.2c-0.2,0-0.5-0.1-0.8-0.1c-0.2,0-0.5-0.1-0.7-0.1
		c-0.5,0-0.9-0.1-1.4-0.1h-0.1h-0.1c-0.5,0-0.9,0-1.4,0.1c-0.2,0-0.5,0.1-0.7,0.1c-0.3,0-0.5,0.1-0.8,0.1s-0.5,0.1-0.7,0.2
		c-0.2,0.1-0.5,0.1-0.7,0.2s-0.5,0.2-0.7,0.2c-0.2,0.1-0.5,0.2-0.7,0.2c-0.2,0.1-0.4,0.2-0.6,0.3c-0.2,0.1-0.5,0.2-0.7,0.3
		c-0.2,0.1-0.4,0.2-0.6,0.4c-0.2,0.1-0.4,0.3-0.7,0.4c-0.3,0.1-0.4,0.3-0.6,0.5c-0.2,0.1-0.4,0.3-0.5,0.4c-0.4,0.3-0.7,0.6-1,0.9
		c0,0,0,0-0.1,0l-45,45c-5.9,5.9-5.9,15.4,0,21.2C235.2-53.5,244.7-53.5,250.6-59.3z"/>
	<path class="st0" d="M385-30h-40c-8.3,0-15,6.7-15,15s6.7,15,15,15h25v150H200V0h25c8.3,0,15-6.7,15-15s-6.7-15-15-15h-40
		c-8.3,0-15,6.7-15,15v180c0,8.3,6.7,15,15,15h200c8.3,0,15-6.7,15-15V-15C400-23.2,393.3-30,385-30z"/>
</g>
</svg>
