<?xml version="1.0" encoding="utf-8"?>
<!-- Generator: Adobe Illustrator 19.1.0, SVG Export Plug-In . SVG Version: 6.00 Build 0)  -->
<svg version="1.1" id="Calque_1" xmlns="http://www.w3.org/2000/svg" xmlns:xlink="http://www.w3.org/1999/xlink" x="0px" y="0px"
	 viewBox="194 -293 595.3 841.9" style="enable-background:new 194 -293 595.3 841.9;" xml:space="preserve">
<style type="text/css">
	.st0{fill:url(#SVGID_1_);}
	.st1{fill:#282828;}
	.st2{display:none;}
	.st3{display:inline;}
	.st4{fill:#4C4C4C;}
	.st5{fill:#333333;}
	.st6{fill:#E2E1E4;}
	.st7{fill:#1A1A1A;}
	.st8{fill:#C4C2C6;}
	.st9{fill:#386B1B;}
	.st10{fill:#62B12F;}
	.st11{fill:#FFFFFF;}
	.st12{display:inline;fill:none;stroke:#262626;stroke-miterlimit:10;}
	.st13{display:inline;fill:#6D6D6D;}
	.st14{display:inline;fill:#C3F900;}
	.st15{display:inline;fill:#FFFFFF;}
	.st16{font-family:'Arial'; font-weight:bold;}
	.st17{font-size:13px;}
	.st18{enable-background:new    ;}
	.st19{font-family:'Arial'; font-weight:bold;}
	.st20{font-size:20px;}
	.st21{fill:#353535;}
	.st22{fill:#1E1E1E;}
	.st23{fill:none;stroke:#FFFFFF;stroke-width:2;stroke-miterlimit:10;}
</style>
<radialGradient id="SVGID_1_" cx="489.65" cy="126.05" r="169.5" gradientTransform="matrix(1 0 0 -1 0 254.05)" gradientUnits="userSpaceOnUse">
	<stop  offset="0" style="stop-color:#DCFFAB"/>
	<stop  offset="1" style="stop-color:#B7D685"/>
</radialGradient>
<circle class="st0" cx="489.6" cy="128" r="169.5"/>
<g id="roll">
	<g>
		<polyline class="st1" points="449.5,255.7 353,255.7 369.7,283.6 393.3,301.1 409.2,299.5 422.3,299.5 444.6,302.3 466.8,306.6
			480.5,307.4 491,307.4 491.6,255.4 		"/>
		<polyline class="st1" points="534.4,255.7 631,255.7 614.3,283.6 590.7,301.1 574.4,302.3 567.8,303.9 554.5,306.3 533.4,306.6
			515.8,307.4 489.6,307.4 490.6,255.4 		"/>
	</g>
	<g>
		<polyline class="st1" points="522.1,0.8 618.7,0.8 601.9,-27.1 578.4,-44.7 562.5,-43.1 549.4,-43.1 527,-45.9 504.9,-50.2
			491.2,-51 480.7,-51 480,1 		"/>
		<polyline class="st1" points="440.5,0.8 344,0.8 360.7,-27.1 384.3,-44.7 400.6,-45.9 407.2,-47.5 420.5,-49.8 441.6,-50.2
			459.2,-51 484,-50.6 483.4,1 		"/>
	</g>
	<polygon class="st1" points="411.5,298.4 571.1,298.4 555.9,247.9 425.9,247.9 	"/>
	<polygon class="st1" points="571,-41.9 411.5,-41.9 426.7,8.6 556.6,8.6 	"/>
</g>
<g id="bouton" class="st2">
	<g class="st3">
		<path class="st4" d="M774.4-408.4h-21c0.5,0.4,1,0.8,1.4,1.2h18.8c7.1,0,12.9,5.2,12.9,11.5v1.4c0,6.3-5.8,11.5-12.9,11.5h-18.8
			c-0.4,0.4-0.9,0.8-1.4,1.2h21c7.7,0,14-5.7,14-12.7v-1.5C788.5-402.8,782.1-408.4,774.4-408.4z"/>
		<path class="st5" d="M760-394.9c0,4.8-2,9.1-5.2,12.2h18.8c7.1,0,12.9-5.2,12.9-11.5v-1.4c0-6.3-5.8-11.5-12.9-11.5h-18.8
			C758-404,760-399.8,760-394.9z"/>
		<path class="st6" d="M760-394.9c0-4.8-2-9.1-5.2-12.2c-0.4-0.4-0.9-0.8-1.4-1.2c-2.9-2.3-6.5-3.6-10.5-3.6
			c-9.4,0-17.1,7.6-17.1,17.1c0,9.4,7.6,17.1,17.1,17.1c4,0,7.6-1.4,10.5-3.6c0.5-0.4,1-0.8,1.4-1.2C758-385.9,760-390.1,760-394.9z
			 M742.9-380.1c-8.2,0-14.9-6.7-14.9-14.9s6.7-14.9,14.9-14.9s14.9,6.7,14.9,14.9C757.8-386.8,751.1-380.1,742.9-380.1z"/>
		<path class="st7" d="M735.6-391.8c1.5,0,2.3-1.4,2.3-3.2c0-1.7-0.8-3.2-2.3-3.2s-2.3,1.4-2.3,3.2
			C733.3-393,734.1-391.8,735.6-391.8z"/>
		<path class="st7" d="M757.8-394.9c0-8.2-6.7-14.9-14.9-14.9s-14.9,6.7-14.9,14.9c0,8.2,6.7,14.9,14.9,14.9
			C751.1-380.1,757.8-386.8,757.8-394.9z M741.6-399.8h5.8v1.8h-3.7v2.2h3.4v1.8h-3.4v3.8h-2.2L741.6-399.8L741.6-399.8z
			 M754.9-399.8v1.8h-3.7v2.2h3.4v1.8h-3.4v3.8H749v-9.5L754.9-399.8L754.9-399.8z M735.6-399.9c2.9,0,4.5,2.2,4.5,4.8
			c0,3.1-1.9,5-4.7,5s-4.5-2.1-4.5-4.9C731-397.8,732.8-399.9,735.6-399.9z"/>
		<path class="st8" d="M735.5-390c2.8,0,4.7-1.9,4.7-5c0-2.6-1.6-4.8-4.5-4.8c-2.8,0-4.6,2.1-4.6,5C731-392.1,732.6-390,735.5-390z
			 M735.6-398.1c1.5,0,2.3,1.5,2.3,3.2c0,1.9-0.8,3.2-2.3,3.2c-1.4,0-2.3-1.3-2.3-3.2C733.3-396.9,734.1-398.1,735.6-398.1z"/>
		<polygon class="st8" points="743.7,-394 747.2,-394 747.2,-395.9 743.7,-395.9 743.7,-397.9 747.4,-397.9 747.4,-399.8
			741.6,-399.8 741.6,-390.2 743.7,-390.2 		"/>
		<polygon class="st8" points="749,-390.2 751.2,-390.2 751.2,-394 754.6,-394 754.6,-395.9 751.2,-395.9 751.2,-397.9
			754.9,-397.9 754.9,-399.8 749,-399.8 		"/>
	</g>
	<g class="st3">
		<path class="st1" d="M780-189.8h-38.1c-10.2,0-18.5,8.3-18.5,18.5v2.2c0,10.2,8.3,18.5,18.5,18.5H780c10.2,0,18.5-8.3,18.5-18.5
			v-2.2C798.5-181.3,790.2-189.8,780-189.8z M778-153.1c-4,0-7.6-1.4-10.5-3.6h-21c-7.7,0-14-5.7-14-12.7v-1.5c0-7,6.3-12.7,14-12.7
			h21c2.9-2.3,6.5-3.6,10.5-3.6c9.4,0,17.1,7.6,17.1,17.1C795.1-160.6,787.4-153.1,778-153.1z"/>
		<path class="st9" d="M748-157.9c-7.1,0-12.9-5.2-12.9-11.5v-1.4c0-6.3,5.8-11.5,12.9-11.5h18.1c0.4-0.4,0.9-0.8,1.4-1.2h-21
			c-7.7,0-14,5.7-14,12.7v1.5c0,7,6.3,12.7,14,12.7h21c-0.5-0.4-1-0.8-1.4-1.2L748-157.9L748-157.9z"/>
		<path class="st10" d="M735.1-170.8v1.4c0,6.3,5.8,11.5,12.9,11.5h18.1c-3.2-3.1-5.2-7.4-5.2-12.2c0-4.8,2-9.1,5.2-12.2H748
			C740.9-182.3,735.1-177.1,735.1-170.8z"/>
		<path class="st6" d="M778-187.1c-4,0-7.6,1.4-10.5,3.6c-0.5,0.4-1,0.8-1.4,1.2c-3.2,3.1-5.2,7.4-5.2,12.2c0,4.8,2,9.1,5.2,12.2
			c0.4,0.4,0.9,0.8,1.4,1.2c2.9,2.3,6.5,3.6,10.5,3.6c9.4,0,17.1-7.6,17.1-17.1C795.1-179.5,787.4-187.1,778-187.1z M778-155.2
			c-8.2,0-14.9-6.7-14.9-14.9c0-8.2,6.7-14.9,14.9-14.9s14.9,6.7,14.9,14.9C792.9-161.8,786.2-155.2,778-155.2z"/>
		<path class="st10" d="M778-184.9c-8.2,0-14.9,6.7-14.9,14.9c0,8.2,6.7,14.9,14.9,14.9s14.9-6.7,14.9-14.9
			C792.9-178.3,786.2-184.9,778-184.9z M765.2-170c0-3.8,2.4-6.6,6.2-6.6c3.9,0,6,2.9,6,6.4c0,4.2-2.5,6.7-6.2,6.7
			C767.4-163.6,765.2-166.4,765.2-170z M789.8-163.8h-3l-2.7-4.9c-0.8-1.4-1.6-3-2.2-4.5h-0.1c0.1,1.7,0.1,3.5,0.1,5.5v3.8h-2.6
			v-12.7h3.3l2.6,4.6c0.8,1.3,1.5,2.9,2.1,4.3h0.1c-0.2-1.7-0.2-3.4-0.2-5.3v-3.7h2.6L789.8-163.8L789.8-163.8z"/>
		<path class="st10" d="M774.4-170.1c0-2.3-1.1-4.2-3.1-4.2c-1.9,0-3.1,1.8-3.1,4.3s1.2,4.2,3.1,4.2
			C773.3-165.8,774.4-167.6,774.4-170.1z"/>
		<path class="st11" d="M777.4-170.2c0-3.5-2.1-6.4-6-6.4c-3.7,0-6.2,2.8-6.2,6.6c0,3.6,2.2,6.5,6,6.5
			C774.9-163.6,777.4-166,777.4-170.2z M768.2-170c0-2.5,1.1-4.3,3.1-4.3s3.1,2,3.1,4.2c0,2.5-1.1,4.3-3,4.3
			C769.4-165.8,768.2-167.5,768.2-170z"/>
		<path class="st11" d="M787.2-176.4v3.7c0,1.9,0.1,3.6,0.2,5.3h-0.1c-0.6-1.4-1.3-3-2.1-4.3l-2.6-4.6h-3.3v12.7h2.6v-3.8
			c0-2.1,0-3.9-0.1-5.5h0.1c0.6,1.5,1.4,3.1,2.2,4.5l2.7,4.9h3v-12.7h-2.6L787.2-176.4L787.2-176.4z"/>
	</g>
</g>
<g id="slider" class="st2">
	<line class="st12" x1="626.8" y1="-250.1" x2="626.8" y2="-218.4"/>
	<line class="st12" x1="895.7" y1="-250.1" x2="895.7" y2="-218.4"/>
	<line class="st12" x1="761.8" y1="-249.1" x2="761.8" y2="-217.4"/>
	<rect x="626.3" y="-241.6" class="st13" width="269.4" height="14.5"/>
	<rect x="626.8" y="-241.1" class="st14" width="206.3" height="13.6"/>
	<text transform="matrix(1 0 0 1 623.6479 -254.0178)" class="st15 st16 st17">0</text>
	<text transform="matrix(1 0 0 1 754.7949 -254.0179)" class="st15 st16 st17">50</text>
	<text transform="matrix(1 0 0 1 885.7446 -254.018)" class="st15 st16 st17">100</text>
	<line class="st12" x1="626.1" y1="-333.9" x2="626.1" y2="-302.4"/>
	<line class="st12" x1="895" y1="-333.9" x2="895" y2="-302.4"/>
	<line class="st12" x1="761.1" y1="-332.9" x2="761.1" y2="-301.4"/>
	<rect x="625.6" y="-325.5" class="st13" width="269.4" height="14.5"/>
	<text transform="matrix(1 0 0 1 622.9223 -337.879)" class="st15 st16 st17">0</text>
	<text transform="matrix(1 0 0 1 754.0693 -337.8791)" class="st15 st16 st17">50</text>
	<text transform="matrix(1 0 0 1 885.019 -337.8792)" class="st15 st16 st17">100</text>
</g>
<g id="indicateurs">
	<text transform="matrix(1 0 0 1 443.7526 -6.4536)" class="st11 st19 st20">CLEANER</text>
	<text transform="matrix(1 0 0 1 444.267 275.3006)" class="st11 st19 st20">STORAGE</text>
</g>
<g id="contourCadran">
	<path class="st21" d="M645.4-57H337.8c-17.1,0-31.2,14-31.2,31.2v307.6c0,17.1,14,31.2,31.2,31.2h307.6c17.1,0,31.2-14,31.2-31.2
		V-25.8C676.6-43,662.6-57,645.4-57z M491.6,294.8c-92.1,0-166.8-74.7-166.8-166.8S399.5-38.8,491.6-38.8S658.4,35.9,658.4,128
		S583.7,294.8,491.6,294.8z"/>
</g>
<g id="logo_1_">
	<g>
		<circle id="Fond" class="st22" cx="337.3" cy="-26.5" r="21.9"/>
		<g>
			<path class="st23" d="M325.8-13.5c0-2.2,2.5-12.8,11.5-12.8s11.6-9.7,11.6-12.3"/>
			<rect x="329.3" y="-38.5" class="st11" width="7" height="25.1"/>
			<rect x="338.3" y="-38.5" class="st11" width="7" height="25.1"/>
		</g>
	</g>
</g>
<g id="logo_-_copie">
	<g>
		<circle id="Fond_1_" class="st22" cx="645.9" cy="-26.5" r="21.9"/>
		<g>
			<path class="st23" d="M634.3-13.5c0-2.2,2.5-12.8,11.5-12.8s11.6-9.7,11.6-12.3"/>
			<rect x="637.9" y="-38.5" class="st11" width="7" height="25.1"/>
			<rect x="646.9" y="-38.5" class="st11" width="7" height="25.1"/>
		</g>
	</g>
</g>
<g id="logo_-_copie_2">
	<g>
		<circle id="Fond_2_" class="st22" cx="645.9" cy="282" r="21.9"/>
		<g>
			<path class="st23" d="M634.3,295.1c0-2.2,2.5-12.8,11.5-12.8s11.6-9.7,11.6-12.3"/>
			<rect x="637.9" y="270" class="st11" width="7" height="25.1"/>
			<rect x="646.9" y="270" class="st11" width="7" height="25.1"/>
		</g>
	</g>
</g>
<g id="logo_-_copie_3">
	<g>
		<circle id="Fond_3_" class="st22" cx="337.2" cy="282" r="21.9"/>
		<g>
			<path class="st23" d="M325.6,295.1c0-2.2,2.5-12.8,11.5-12.8s11.6-9.7,11.6-12.3"/>
			<rect x="329.2" y="270" class="st11" width="7" height="25.1"/>
			<rect x="338.2" y="270" class="st11" width="7" height="25.1"/>
		</g>
	</g>
</g>
<g id="reperes" class="st2">
</g>
</svg>
