<?xml version="1.0" encoding="utf-8"?>
<!-- Generator: Adobe Illustrator 19.1.0, SVG Export Plug-In . SVG Version: 6.00 Build 0)  -->
<svg version="1.1" id="Capa_1" xmlns="http://www.w3.org/2000/svg" xmlns:xlink="http://www.w3.org/1999/xlink" x="0px" y="0px"
	 viewBox="-50 -173.5 397.5 397.5" style="enable-background:new -50 -173.5 397.5 397.5;" xml:space="preserve">
<g>
	<path d="M50.7,111.3c2.2-1.5,2.8-4.5,1.3-6.6c-1.5-2.2-4.4-2.8-6.6-1.3c-9.6,6.4-14.4,13.7-14.4,21.5c0,28.3,60.7,43.5,117.8,43.5
		s117.8-15.3,117.8-43.5c0-7.2-4.2-14-12.4-20.1c-2.1-1.6-5.1-1.1-6.7,1c-1.6,2.1-1.1,5.1,1,6.7c3.9,2.9,8.5,7.4,8.5,12.4
		c0,16.1-44.5,34-108.3,34c-63.8,0-108.3-17.9-108.3-34C40.5,119.4,46,114.5,50.7,111.3z"/>
	<path d="M299.1,85.9c-2.4-1-5.2,0.2-6.2,2.6c-1,2.4,0.2,5.2,2.6,6.2c27.4,11.2,42.4,24.8,42.4,38.3c0,29.8-76,61.7-189.2,61.7
		c-113.2,0-189.2-31.9-189.2-61.7c0-13.9,16-27.9,45.1-39.3c2.5-1,3.7-3.7,2.7-6.2c-1-2.5-3.8-3.7-6.2-2.7C-32.3,98-50,114.6-50,133
		c0,40,87.3,71.3,198.8,71.3c111.5,0,198.8-31.3,198.8-71.3C347.6,115.1,330.8,98.8,299.1,85.9z"/>
	<path d="M72.2,23.1c0-42.3,76.6-177,76.6-177s76.6,134.7,76.6,177s-34.3,76.6-76.6,76.6S72.2,65.4,72.2,23.1z"/>
</g>
</svg>
