<?xml version="1.0" encoding="utf-8"?>
<!-- Generator: Adobe Illustrator 19.1.0, SVG Export Plug-In . SVG Version: 6.00 Build 0)  -->
<svg version="1.1" id="Calque_1" xmlns="http://www.w3.org/2000/svg" xmlns:xlink="http://www.w3.org/1999/xlink" x="0px" y="0px"
	 viewBox="194 -293 595.3 841.9" style="enable-background:new 194 -293 595.3 841.9;" xml:space="preserve">
<style type="text/css">
	.st0{display:none;}
	.st1{display:inline;}
	.st2{fill:#0F6B84;}
	.st3{fill:#82531A;}
	.st4{display:inline;fill:#7C7C7C;}
	.st5{display:inline;fill:none;stroke:#000000;stroke-width:4;stroke-miterlimit:10;}
	.st6{display:inline;fill:none;stroke:#000000;stroke-miterlimit:10;}
	.st7{fill:#282828;}
	.st8{fill:#FFFFFF;}
	.st9{font-family:'Arial'; font-weight:bold;}
	.st10{font-size:20px;}
	.st11{fill:none;stroke:#282828;stroke-width:2;stroke-miterlimit:10;}
	.st12{fill:#020202;}
	.st13{font-size:19px;}
	.st14{fill:none;}
	.st15{fill:#353535;}
	.st16{fill:#1E1E1E;}
	.st17{fill:none;stroke:#FFFFFF;stroke-width:2;stroke-miterlimit:10;}
</style>
<g id="masque_1_" class="st0">
	<g class="st1">
		<path class="st2" d="M760.5-419.6c76,0,137.6,61.3,138.2,137.2h33.6c0-94.6-76.7-171.2-171.2-171.2s-171.2,76.7-171.2,171.2h32.5
			C622.9-358.4,684.5-419.6,760.5-419.6z"/>
		<path class="st3" d="M898.7-282.4c0,76.3-61.9,138.2-138.2,138.2s-138.2-61.9-138.2-138.2c0-0.1,0-0.1,0-0.2h-32.5
			c0,94.6,76.7,171.2,171.2,171.2s171.2-76.7,171.2-171.2h-33.6C898.7-282.5,898.7-282.5,898.7-282.4z"/>
	</g>
	<g id="Calque_19" class="st1">
	</g>
</g>
<g id="Calque_11" class="st0">
	<circle class="st4" cx="761" cy="-281.4" r="139.2"/>
</g>
<g id="diagonaleGros" class="st0">
	<line class="st5" x1="663.5" y1="-183.6" x2="871.5" y2="-391.6"/>
	<line class="st5" x1="652.5" y1="-391.6" x2="860.7" y2="-183.3"/>
	<line class="st5" x1="607.6" y1="-282.1" x2="915.3" y2="-282.1"/>
	<line class="st5" x1="762.5" y1="-142.6" x2="762.5" y2="-436.8"/>
</g>
<g id="diagonalePtit" class="st0">
	<line class="st6" x1="762" y1="-436.5" x2="762" y2="-420.6"/>
	<line class="st6" x1="822.3" y1="-424.2" x2="815.8" y2="-408.9"/>
	<line class="st6" x1="701.7" y1="-424.2" x2="707.7" y2="-410"/>
	<line class="st6" x1="889.6" y1="-228" x2="904" y2="-221.9"/>
	<line class="st6" x1="889" y1="-336.1" x2="904" y2="-342.5"/>
	<line class="st6" x1="620" y1="-342.5" x2="633.3" y2="-336.9"/>
	<line class="st6" x1="620" y1="-221.9" x2="633.1" y2="-227.5"/>
</g>
<g id="Calque_15" class="st0">
	<circle class="st4" cx="762" cy="-282.1" r="173.5"/>
</g>
<g id="roll">
	<g>
		<polyline class="st7" points="449.5,255.7 353,255.7 369.7,283.6 393.3,301.1 409.2,299.5 422.3,299.5 444.6,302.3 466.8,306.6
			480.5,307.4 491,307.4 491.6,255.4 		"/>
		<polyline class="st7" points="534.4,255.7 631,255.7 614.3,283.6 590.7,301.1 574.4,302.3 567.8,303.9 554.5,306.3 533.4,306.6
			515.8,307.4 489.6,307.4 490.6,255.4 		"/>
	</g>
	<polygon class="st7" points="411.5,280.4 571.1,280.4 555.9,229.9 425.9,229.9 	"/>
</g>
<g id="indicateurs">
	<g id="indicateurs_1_">
		<text transform="matrix(1 0 0 1 442.3268 266.7821)" class="st8 st9 st10">CONTROL</text>
	</g>
	<line class="st11" x1="481.6" y1="63.7" x2="501.3" y2="63.7"/>
	<line class="st11" x1="481.6" y1="14.5" x2="501.3" y2="14.5"/>
	<line class="st11" x1="469.7" y1="38.8" x2="513.2" y2="38.8"/>
	<line class="st11" x1="469.7" y1="-10.4" x2="513.2" y2="-10.4"/>
	<line class="st11" x1="481.6" y1="113" x2="501.3" y2="113"/>
	<line class="st11" x1="469.7" y1="88.8" x2="513.2" y2="88.8"/>
	<line class="st11" x1="481.6" y1="163.5" x2="501.3" y2="163.5"/>
	<line class="st11" x1="469.7" y1="138.6" x2="513.2" y2="138.6"/>
	<line class="st11" x1="469.7" y1="190.6" x2="513.2" y2="190.6"/>
	<g id="indicateurs_2_">
		<text transform="matrix(1 0 0 1 420.0782 196.3971)" class="st12 st9 st13">-100</text>
	</g>
	<g id="indicateurs_3_">
		<text transform="matrix(1 0 0 1 450.0757 94.3971)" class="st12 st9 st13">0</text>
	</g>
	<g id="indicateurs_4_">
		<text transform="matrix(1 0 0 1 429.0731 -5.6029)" class="st12 st9 st13">100</text>
	</g>
	<g id="indicateurs_7_">
		<text transform="matrix(1 0 0 1 525.0807 196.3971)" class="st12 st9 st13">-100</text>
	</g>
	<g id="indicateurs_6_">
		<text transform="matrix(1 0 0 1 524.0807 94.3971)" class="st12 st9 st13">0</text>
	</g>
	<g id="indicateurs_5_">
		<text transform="matrix(1 0 0 1 522.0804 -5.6029)" class="st12 st9 st13">100</text>
	</g>
</g>
<g id="Calque_17">
</g>
<g id="Calque_13">
	<line class="st14" x1="391.6" y1="226.3" x2="398" y2="203.7"/>
</g>
<g id="contourCadran">
	<path class="st15" d="M645.4-57H337.8c-17.1,0-31.2,14-31.2,31.2v307.6c0,17.1,14,31.2,31.2,31.2h307.6c17.1,0,31.2-14,31.2-31.2
		V-25.8C676.6-43,662.6-57,645.4-57z M491.6,294.8c-92.1,0-166.8-74.7-166.8-166.8S399.5-38.8,491.6-38.8S658.4,35.9,658.4,128
		S583.7,294.8,491.6,294.8z"/>
</g>
<g id="logo_1_">
	<g>
		<circle id="Fond" class="st16" cx="337.3" cy="-26.5" r="21.9"/>
		<g>
			<path class="st17" d="M325.8-13.5c0-2.2,2.5-12.8,11.5-12.8s11.6-9.7,11.6-12.3"/>
			<rect x="329.3" y="-38.5" class="st8" width="7" height="25.1"/>
			<rect x="338.3" y="-38.5" class="st8" width="7" height="25.1"/>
		</g>
	</g>
</g>
<g id="logo_-_copie">
	<g>
		<circle id="Fond_1_" class="st16" cx="645.9" cy="-26.5" r="21.9"/>
		<g>
			<path class="st17" d="M634.3-13.5c0-2.2,2.5-12.8,11.5-12.8s11.6-9.7,11.6-12.3"/>
			<rect x="637.9" y="-38.5" class="st8" width="7" height="25.1"/>
			<rect x="646.9" y="-38.5" class="st8" width="7" height="25.1"/>
		</g>
	</g>
</g>
<g id="logo_-_copie_2">
	<g>
		<circle id="Fond_2_" class="st16" cx="645.9" cy="282" r="21.9"/>
		<g>
			<path class="st17" d="M634.3,295.1c0-2.2,2.5-12.8,11.5-12.8s11.6-9.7,11.6-12.3"/>
			<rect x="637.9" y="270" class="st8" width="7" height="25.1"/>
			<rect x="646.9" y="270" class="st8" width="7" height="25.1"/>
		</g>
	</g>
</g>
<g id="logo_-_copie_3">
	<g>
		<circle id="Fond_3_" class="st16" cx="337.2" cy="282" r="21.9"/>
		<g>
			<path class="st17" d="M325.6,295.1c0-2.2,2.5-12.8,11.5-12.8s11.6-9.7,11.6-12.3"/>
			<rect x="329.2" y="270" class="st8" width="7" height="25.1"/>
			<rect x="338.2" y="270" class="st8" width="7" height="25.1"/>
		</g>
	</g>
</g>
<g id="Calque_14">
</g>
<g id="reperes" class="st0">
</g>
</svg>
