<?xml version="1.0" encoding="utf-8"?>
<!-- Generator: Adobe Illustrator 19.1.0, SVG Export Plug-In . SVG Version: 6.00 Build 0)  -->
<svg version="1.1" id="Calque_1" xmlns="http://www.w3.org/2000/svg" xmlns:xlink="http://www.w3.org/1999/xlink" x="0px" y="0px"
	 viewBox="194 -293 595.3 841.9" style="enable-background:new 194 -293 595.3 841.9;" xml:space="preserve">
<style type="text/css">
	.st0{display:none;}
	.st1{display:inline;}
	.st2{fill:#28AEDD;stroke:#FFFFFF;stroke-width:2;stroke-miterlimit:10;}
	.st3{fill:#C67F32;stroke:#FFFFFF;stroke-width:2;stroke-miterlimit:10;}
	.st4{fill:#0F6B84;stroke:#FFFFFF;stroke-width:2;stroke-miterlimit:10;}
	.st5{fill:#82531A;stroke:#FFFFFF;stroke-width:2;stroke-miterlimit:10;}
	.st6{fill:none;stroke:#FFFFFF;stroke-width:4;stroke-miterlimit:10;}
	.st7{fill:none;stroke:#020202;stroke-width:2;stroke-miterlimit:10;}
	.st8{fill:none;stroke:#020202;stroke-width:4;stroke-miterlimit:10;}
	.st9{display:inline;fill:none;stroke:#000000;stroke-width:3;stroke-miterlimit:10;}
	.st10{display:inline;fill:none;stroke:#020202;stroke-width:3;stroke-miterlimit:10;}
	.st11{display:inline;fill:none;stroke:#FFFFFF;stroke-width:2;stroke-miterlimit:10;}
	.st12{fill:#282828;}
	.st13{fill:#FF4800;}
	.st14{fill:none;stroke:#FF4800;stroke-width:6;stroke-miterlimit:10;}
	.st15{display:inline;fill:#32B716;}
	.st16{display:inline;fill:#C91414;}
	.st17{fill:none;stroke:#FFFFFF;stroke-width:2;stroke-miterlimit:10;}
	.st18{display:inline;fill:#A82D1D;}
	.st19{fill:#020202;}
	.st20{fill:#353535;}
	.st21{fill:#1E1E1E;}
	.st22{fill:#FFFFFF;}
</style>
<g id="cadran1" class="st0">
	<g class="st1">
		<path class="st2" d="M221.5,127.5c0-149.1,120.8-269.9,269.9-269.9S761.3-21.5,761.3,127.5"/>
		<path class="st3" d="M761.3,128.8c0,149.1-120.8,269.9-269.9,269.9S221.5,277.8,221.5,128.8"/>
	</g>
</g>
<g id="masque_1_">
	<g>
		<path class="st4" d="M490.5-9.8c76,0,137.6,61.3,138.2,137.2h33.6c0-94.6-76.7-171.2-171.2-171.2S319.9,33,319.9,127.4h32.5
			C352.9,51.5,414.5-9.8,490.5-9.8z"/>
		<path class="st5" d="M628.7,128.4c0,76.3-61.9,138.2-138.2,138.2s-138.2-61.9-138.2-138.2c0-0.1,0-0.1,0-0.2h-32.5
			c0,94.6,76.7,171.2,171.2,171.2s171.2-76.7,171.2-171.2h-33.6C628.7,128.3,628.7,128.3,628.7,128.4z"/>
	</g>
	<g id="Calque_19">
		<line class="st6" x1="352.6" y1="127.9" x2="324.1" y2="127.9"/>
		<line class="st6" x1="627.9" y1="128.2" x2="658.8" y2="128.2"/>
	</g>
</g>
<g id="traitDessous">
	<line class="st7" x1="515.4" y1="-8.6" x2="518.6" y2="-26.6"/>
	<line class="st7" x1="538.7" y1="-2.4" x2="545.3" y2="-20.4"/>
	<line class="st8" x1="560.5" y1="8" x2="572.5" y2="-12.8"/>
	<line class="st8" x1="610.9" y1="58.7" x2="631.9" y2="46.6"/>
	<line class="st7" x1="466.6" y1="-8.7" x2="463.5" y2="-26.1"/>
	<line class="st7" x1="443.1" y1="-2.7" x2="436.8" y2="-19.9"/>
	<line class="st8" x1="421" y1="7.6" x2="409.6" y2="-12.2"/>
	<line class="st8" x1="369.9" y1="58.5" x2="350.2" y2="47.2"/>
</g>
<g id="traitDessus" class="st0">
	<line class="st9" x1="624.4" y1="128.5" x2="356.7" y2="128.5"/>
	<line class="st10" x1="595.4" y1="197.2" x2="533.6" y2="145.3"/>
	<line class="st10" x1="608.9" y1="169.5" x2="536.9" y2="135.2"/>
	<line class="st10" x1="388.3" y1="197.2" x2="449.9" y2="145.3"/>
	<line class="st10" x1="374.8" y1="169.5" x2="447.1" y2="135.2"/>
	<line class="st10" x1="491" y1="129.5" x2="491" y2="237.9"/>
</g>
<g id="traitPitch" class="st0">
	<line class="st11" x1="481" y1="103.6" x2="500.7" y2="103.6"/>
	<line class="st11" x1="481" y1="54.4" x2="500.7" y2="54.4"/>
	<line class="st11" x1="469.1" y1="78.7" x2="512.6" y2="78.7"/>
	<line class="st11" x1="469.1" y1="29.5" x2="512.6" y2="29.5"/>
	<line class="st11" x1="481" y1="152.9" x2="500.7" y2="152.9"/>
</g>
<g id="roll">
	<polygon class="st12" points="534.8,223.6 513.9,180.5 491.4,180.5 470.8,180.5 449.9,223.6 353.4,223.6 370.1,251.5 393.7,269 
		413.6,281.8 427.8,286.5 445,292.8 467.2,297 480.9,297.8 491.4,297.8 503.9,297.8 517.6,297 539.7,292.8 557,286.5 571.1,281.8 
		591.1,269 614.7,251.5 631.4,223.6 	"/>
</g>
<g id="Calque_18">
	<circle class="st13" cx="490.7" cy="128.7" r="6.5"/>
	<path class="st14" d="M537.6,128.4c0,24.9-21.5,45.1-46.4,45.1c-24.9,0-46.7-20.2-46.7-45.1"/>
	<rect x="392.8" y="125.5" class="st13" width="54.7" height="6.1"/>
	<rect x="534.5" y="125.2" class="st13" width="54.7" height="6"/>
</g>
<g id="Calque_16" class="st0">
	<circle class="st15" cx="476.4" cy="205.2" r="9.7"/>
	<circle class="st16" cx="508.4" cy="205.2" r="9.7"/>
</g>
<g id="fleches">
	<path class="st17" d="M495.5-13.6"/>
	<g class="st0">
		<path class="st18" d="M491.3-2.4l10.9,16.1h-21.3L491.3-2.4 M491.3-7.8l-15.9,24.5h32.4L491.3-7.8L491.3-7.8z"/>
	</g>
	<g>
		<polygon class="st19" points="491.3,-14.9 503.7,-34 478.4,-34 		"/>
	</g>
</g>
<g id="contourCadran">
	<path class="st20" d="M645.8-57.1H338.2c-17.1,0-31.2,14-31.2,31.2v307.6c0,17.1,14,31.2,31.2,31.2h307.6c17.1,0,31.2-14,31.2-31.2
		V-25.9C677-43.1,663-57.1,645.8-57.1z M492,294.8c-92.1,0-166.8-74.7-166.8-166.8S399.9-38.9,492-38.9s166.8,74.7,166.8,166.8
		S584.1,294.8,492,294.8z"/>
</g>
<g id="logo_1_">
	<g>
		<circle id="Fond" class="st21" cx="337.7" cy="-26.6" r="21.9"/>
		<g>
			<path class="st17" d="M326.2-13.6c0-2.2,2.5-12.8,11.5-12.8s11.6-9.7,11.6-12.3"/>
			<rect x="329.7" y="-38.6" class="st22" width="7" height="25.1"/>
			<rect x="338.7" y="-38.6" class="st22" width="7" height="25.1"/>
		</g>
	</g>
</g>
<g id="logo_-_copie">
	<g>
		<circle id="Fond_1_" class="st21" cx="646.3" cy="-26.6" r="21.9"/>
		<g>
			<path class="st17" d="M634.7-13.6c0-2.2,2.5-12.8,11.5-12.8s11.6-9.7,11.6-12.3"/>
			<rect x="638.3" y="-38.6" class="st22" width="7" height="25.1"/>
			<rect x="647.3" y="-38.6" class="st22" width="7" height="25.1"/>
		</g>
	</g>
</g>
<g id="logo_-_copie_2">
	<g>
		<circle id="Fond_2_" class="st21" cx="646.3" cy="282" r="21.9"/>
		<g>
			<path class="st17" d="M634.7,295c0-2.2,2.5-12.8,11.5-12.8s11.6-9.7,11.6-12.3"/>
			<rect x="638.3" y="270" class="st22" width="7" height="25.1"/>
			<rect x="647.3" y="270" class="st22" width="7" height="25.1"/>
		</g>
	</g>
</g>
<g id="logo_-_copie_3">
	<g>
		<circle id="Fond_3_" class="st21" cx="337.6" cy="282" r="21.9"/>
		<g>
			<path class="st17" d="M326,295c0-2.2,2.5-12.8,11.5-12.8s11.6-9.7,11.6-12.3"/>
			<rect x="329.6" y="270" class="st22" width="7" height="25.1"/>
			<rect x="338.6" y="270" class="st22" width="7" height="25.1"/>
		</g>
	</g>
</g>
<g id="reperes" class="st0">
</g>
</svg>
