<?xml version="1.0" encoding="utf-8"?>
<!-- Generator: Adobe Illustrator 19.1.0, SVG Export Plug-In . SVG Version: 6.00 Build 0)  -->
<svg version="1.1" xmlns="http://www.w3.org/2000/svg" xmlns:xlink="http://www.w3.org/1999/xlink" x="0px" y="0px"
	 viewBox="0 0 595.3 841.9" style="enable-background:new 0 0 595.3 841.9;" xml:space="preserve">
<style type="text/css">
	.st0{fill:#28AEDD;}
	.st1{fill:#C67F32;}
	.st2{fill:none;stroke:#FFFFFF;stroke-width:2;stroke-miterlimit:10;}
	.st3{display:none;}
	.st4{display:inline;}
	.st5{fill:#0F6B84;}
	.st6{fill:#82531A;}
	.st7{display:inline;fill:none;stroke:#020202;stroke-width:2;stroke-miterlimit:10;}
	.st8{display:inline;fill:none;stroke:#020202;stroke-width:4;stroke-miterlimit:10;}
	.st9{fill:none;stroke:#000000;stroke-width:3;stroke-miterlimit:10;}
	.st10{fill:none;stroke:#020202;stroke-width:3;stroke-miterlimit:10;}
	.st11{fill:#282828;}
	.st12{display:inline;fill:#FFFFFF;}
	.st13{font-family:'OpenSans';}
	.st14{font-size:14px;}
	.st15{display:inline;fill:#FF4800;}
	.st16{display:inline;fill:none;stroke:#FF4800;stroke-width:6;stroke-miterlimit:10;}
	.st17{display:inline;fill:#32B716;}
	.st18{display:inline;fill:#C91414;}
	.st19{display:inline;fill:none;stroke:#FFFFFF;stroke-width:2;stroke-miterlimit:10;}
	.st20{display:inline;fill:#A82D1D;}
	.st21{fill:#020202;}
	.st22{display:inline;fill:#353535;}
	.st23{fill:#1E1E1E;}
	.st24{fill:#FFFFFF;}
</style>
<g id="Calque_21">
	<polygon class="st0" points="589,4 8.7,4 7.7,217 0,422.9 593.2,422.9 587.7,217 	"/>
	<polygon class="st1" points="6.3,841.9 586.7,841.9 585.6,628.9 593.2,422.9 0,422.9 5.5,628.9 	"/>
	<line class="st2" x1="287" y1="639.9" x2="306.7" y2="639.9"/>
	<line class="st2" x1="287" y1="590.7" x2="306.7" y2="590.7"/>
	<line class="st2" x1="275.1" y1="615.1" x2="318.6" y2="615.1"/>
	<line class="st2" x1="275.1" y1="565.9" x2="318.6" y2="565.9"/>
</g>
<g id="masque_1_" class="st3">
	<g class="st4">
		<path class="st5" d="M296.5,283.2c76,0,137.6,61.3,138.2,137.2h33.6c0-94.6-76.7-171.2-171.2-171.2s-171.2,76.7-171.2,171.2h32.5
			C158.9,344.5,220.5,283.2,296.5,283.2z"/>
		<path class="st6" d="M434.7,421.4c0,76.3-61.9,138.2-138.2,138.2s-138.2-61.9-138.2-138.2c0-0.1,0-0.1,0-0.2h-32.5
			c0,94.6,76.7,171.2,171.2,171.2s171.2-76.7,171.2-171.2h-33.6C434.7,421.3,434.7,421.3,434.7,421.4z"/>
	</g>
</g>
<g id="traitDessous" class="st3">
	<line class="st7" x1="321.2" y1="285.4" x2="324.6" y2="266.4"/>
	<line class="st7" x1="344.3" y1="291.7" x2="351.3" y2="272.6"/>
	<line class="st8" x1="366" y1="301.8" x2="378.5" y2="280.2"/>
	<line class="st8" x1="416.1" y1="352.2" x2="437.9" y2="339.6"/>
	<line class="st7" x1="272.7" y1="285.3" x2="269.5" y2="266.9"/>
	<line class="st7" x1="249.3" y1="291.1" x2="242.8" y2="273.1"/>
	<line class="st8" x1="227.7" y1="301.7" x2="215.6" y2="280.8"/>
	<line class="st8" x1="177" y1="352.2" x2="156.2" y2="340.2"/>
</g>
<g id="Calque_22" class="st3">
</g>
<g id="traitDessus">
	<line class="st9" x1="430.4" y1="421.5" x2="162.7" y2="421.5"/>
	<line class="st10" x1="401.4" y1="490.2" x2="339.6" y2="438.3"/>
	<line class="st10" x1="414.9" y1="462.5" x2="342.9" y2="428.2"/>
	<line class="st10" x1="194.3" y1="490.2" x2="255.9" y2="438.3"/>
	<line class="st10" x1="180.8" y1="462.5" x2="253.1" y2="428.2"/>
	<line class="st10" x1="297" y1="422.5" x2="297" y2="530.9"/>
</g>
<g id="traitPitch">
	<line class="st2" x1="287" y1="396.6" x2="306.7" y2="396.6"/>
	<line class="st2" x1="287" y1="347.4" x2="306.7" y2="347.4"/>
	<line class="st2" x1="275.1" y1="371.7" x2="318.6" y2="371.7"/>
	<line class="st2" x1="275.1" y1="322.5" x2="318.6" y2="322.5"/>
	<line class="st2" x1="287" y1="445.9" x2="306.7" y2="445.9"/>
	<line class="st2" x1="286.7" y1="298.3" x2="306.4" y2="298.3"/>
	<line class="st2" x1="286.7" y1="249.1" x2="306.4" y2="249.1"/>
	<line class="st2" x1="274.8" y1="273.4" x2="318.3" y2="273.4"/>
	<line class="st2" x1="274.8" y1="224.2" x2="318.3" y2="224.2"/>
	<line class="st2" x1="286.7" y1="545.1" x2="306.4" y2="545.1"/>
	<line class="st2" x1="287.2" y1="495.9" x2="306.8" y2="495.9"/>
	<line class="st2" x1="279.6" y1="520.2" x2="314.4" y2="520.2"/>
	<line class="st2" x1="279.6" y1="471" x2="314.4" y2="471"/>
</g>
<g id="roll" class="st3">
	<g class="st4">
		<polygon class="st11" points="297.4,473.5 276.8,473.5 255.9,516.6 159.4,516.6 176.1,544.5 199.7,562 219.6,574.8 233.8,579.5 
			251,585.7 273.2,590 286.9,590.8 297.4,590.8 		"/>
		<polygon class="st11" points="297.4,473.5 319.9,473.5 340.8,516.6 437.4,516.6 420.7,544.5 397.1,562 377.1,574.8 363,579.5 
			345.7,585.7 323.6,590 309.9,590.8 297.4,590.8 		"/>
	</g>
</g>
<g id="indicateurs" class="st3">
	<rect x="240.9" y="539.4" class="st12" width="47.1" height="30.4"/>
	<rect x="307.7" y="539.4" class="st12" width="47.1" height="30.4"/>
	<text transform="matrix(1 0 0 1 244.086 533.9976)" class="st12 st13 st14">PITCH</text>
	<text transform="matrix(1 0 0 1 313.4482 533.9979)" class="st12 st13 st14">ROLL</text>
</g>
<g id="Calque_18" class="st3">
	<circle class="st15" cx="296.7" cy="421.7" r="6.5"/>
	<path class="st16" d="M343.6,421.4c0,24.9-21.5,45.1-46.4,45.1c-24.9,0-46.7-20.2-46.7-45.1"/>
	<rect x="198.8" y="418.5" class="st15" width="54.7" height="6.1"/>
	<rect x="340.5" y="418.2" class="st15" width="54.7" height="6"/>
</g>
<g id="Calque_16" class="st3">
	<circle class="st17" cx="282.4" cy="498.2" r="9.7"/>
	<circle class="st18" cx="314.4" cy="498.2" r="9.7"/>
</g>
<g id="fleches" class="st3">
	<path class="st19" d="M301.5,279.4"/>
	<g>
		<path class="st20" d="M297.3,290.6l10.9,16.1h-21.3L297.3,290.6 M297.3,285.2l-15.9,24.5h32.4L297.3,285.2L297.3,285.2z"/>
	</g>
	<g class="st4">
		<polygon class="st21" points="297.3,278.1 309.7,259 284.4,259 		"/>
	</g>
</g>
<g id="contourCadran" class="st3">
	<path class="st22" d="M451.8,235.9H144.2c-17.1,0-31.2,14-31.2,31.2v307.6c0,17.1,14,31.2,31.2,31.2h307.6
		c17.1,0,31.2-14,31.2-31.2V267.1C483,249.9,469,235.9,451.8,235.9z M298,587.7c-92.1,0-166.8-74.7-166.8-166.8
		S205.9,254.1,298,254.1s166.8,74.7,166.8,166.8S390.1,587.7,298,587.7z"/>
</g>
<g id="logo_1_" class="st3">
	<g class="st4">
		<circle id="Fond" class="st23" cx="143.7" cy="266.4" r="21.9"/>
		<g>
			<path class="st2" d="M132.2,279.4c0-2.2,2.5-12.8,11.5-12.8s11.6-9.7,11.6-12.3"/>
			<rect x="135.7" y="254.4" class="st24" width="7" height="25.1"/>
			<rect x="144.7" y="254.4" class="st24" width="7" height="25.1"/>
		</g>
	</g>
</g>
<g id="logo_-_copie" class="st3">
	<g class="st4">
		<circle id="Fond_1_" class="st23" cx="452.3" cy="266.4" r="21.9"/>
		<g>
			<path class="st2" d="M440.7,279.4c0-2.2,2.5-12.8,11.5-12.8s11.6-9.7,11.6-12.3"/>
			<rect x="444.3" y="254.4" class="st24" width="7" height="25.1"/>
			<rect x="453.3" y="254.4" class="st24" width="7" height="25.1"/>
		</g>
	</g>
</g>
<g id="logo_-_copie_2" class="st3">
	<g class="st4">
		<circle id="Fond_2_" class="st23" cx="452.3" cy="574.9" r="21.9"/>
		<g>
			<path class="st2" d="M440.7,588c0-2.2,2.5-12.8,11.5-12.8s11.6-9.7,11.6-12.3"/>
			<rect x="444.3" y="562.9" class="st24" width="7" height="25.1"/>
			<rect x="453.3" y="562.9" class="st24" width="7" height="25.1"/>
		</g>
	</g>
</g>
<g id="logo_-_copie_3" class="st3">
	<g class="st4">
		<circle id="Fond_3_" class="st23" cx="143.6" cy="574.9" r="21.9"/>
		<g>
			<path class="st2" d="M132,588c0-2.2,2.5-12.8,11.5-12.8c9,0,11.6-9.7,11.6-12.3"/>
			<rect x="135.6" y="562.9" class="st24" width="7" height="25.1"/>
			<rect x="144.6" y="562.9" class="st24" width="7" height="25.1"/>
		</g>
	</g>
</g>
<g id="reperes" class="st3">
</g>
</svg>
