<?xml version="1.0" encoding="utf-8"?>
<!-- Generator: Adobe Illustrator 19.1.0, SVG Export Plug-In . SVG Version: 6.00 Build 0)  -->
<svg version="1.1" id="Calque_1" xmlns="http://www.w3.org/2000/svg" xmlns:xlink="http://www.w3.org/1999/xlink" x="0px" y="0px"
	 viewBox="194 -293 595.3 841.9" style="enable-background:new 194 -293 595.3 841.9;" xml:space="preserve">
<style type="text/css">
	.st0{display:none;}
	.st1{display:inline;}
	.st2{fill:#0F6B84;}
	.st3{fill:#82531A;}
	.st4{fill:url(#SVGID_1_);}
	.st5{fill:none;stroke:#000000;stroke-width:4;stroke-miterlimit:10;}
	.st6{fill:none;stroke:#000000;stroke-miterlimit:10;}
	.st7{fill:url(#SVGID_2_);}
	.st8{fill:#282828;}
	.st9{fill:none;}
	.st10{fill:#353535;}
	.st11{fill:#1E1E1E;}
	.st12{fill:none;stroke:#FFFFFF;stroke-width:2;stroke-miterlimit:10;}
	.st13{fill:#FFFFFF;}
</style>
<g id="masque_1_" class="st0">
	<g class="st1">
		<path class="st2" d="M954.5-712.6c76,0,137.6,61.3,138.2,137.2h33.6c0-94.6-76.7-171.2-171.2-171.2s-171.2,76.7-171.2,171.2h32.5
			C816.9-651.4,878.5-712.6,954.5-712.6z"/>
		<path class="st3" d="M1092.7-575.4c0,76.3-61.9,138.2-138.2,138.2s-138.2-61.9-138.2-138.2c0-0.1,0-0.1,0-0.2h-32.5
			c0,94.6,76.7,171.2,171.2,171.2s171.2-76.7,171.2-171.2h-33.6C1092.7-575.5,1092.7-575.5,1092.7-575.4z"/>
	</g>
	<g id="Calque_19" class="st1">
	</g>
</g>
<g id="Calque_11">
	
		<radialGradient id="SVGID_1_" cx="490.65" cy="132.4" r="139.2" gradientTransform="matrix(1 0 0 1 0 -3.9)" gradientUnits="userSpaceOnUse">
		<stop  offset="0" style="stop-color:#DCFFAB"/>
		<stop  offset="1" style="stop-color:#B7D685"/>
	</radialGradient>
	<circle class="st4" cx="490.6" cy="128.5" r="139.2"/>
</g>
<g id="diagonaleGros">
	<line class="st5" x1="393.1" y1="226.3" x2="601.1" y2="18.3"/>
	<line class="st5" x1="382.1" y1="18.3" x2="590.3" y2="226.6"/>
	<line class="st5" x1="337.2" y1="127.8" x2="645" y2="127.8"/>
	<line class="st5" x1="492.1" y1="267.4" x2="492.1" y2="-26.8"/>
</g>
<g id="diagonalePtit">
	<line class="st6" x1="491.6" y1="-26.6" x2="491.6" y2="-10.7"/>
	<line class="st6" x1="552" y1="-14.3" x2="545.5" y2="1"/>
	<line class="st6" x1="431.3" y1="-14.3" x2="437.3" y2="-0.1"/>
	<line class="st6" x1="619.2" y1="181.9" x2="633.6" y2="188"/>
	<line class="st6" x1="618.6" y1="73.8" x2="633.6" y2="67.4"/>
	<line class="st6" x1="349.6" y1="67.4" x2="362.9" y2="73.1"/>
	<line class="st6" x1="349.6" y1="188" x2="362.8" y2="182.4"/>
</g>
<g id="Calque_15">
	
		<radialGradient id="SVGID_2_" cx="491.65" cy="131.7" r="132.4" gradientTransform="matrix(1 0 0 1 0 -3.9)" gradientUnits="userSpaceOnUse">
		<stop  offset="0" style="stop-color:#DCFFAB"/>
		<stop  offset="1" style="stop-color:#B7D685"/>
	</radialGradient>
	<circle class="st7" cx="491.6" cy="127.8" r="132.4"/>
</g>
<g id="roll">
	<g id="roll_1_">
		<polygon class="st8" points="534.5,223.7 513.5,210.6 491,210.6 470.4,210.6 449.5,223.7 395.8,223.7 369.6,250.4 369.8,251.6 
			393.3,269.1 413.2,281.9 427.4,286.6 444.6,292.8 466.8,297.1 480.5,297.9 491,297.9 503.5,297.9 517.2,297.1 539.3,292.8 
			556.6,286.6 570.8,281.9 590.8,269.1 614.3,251.6 615,251.3 587.3,223.7 		"/>
	</g>
	<g id="roll_2_">
		<polygon class="st8" points="448.5,31.8 469.4,44.9 491.9,44.9 512.5,44.9 533.5,31.8 587.1,31.8 613.3,5.1 613.2,3.9 
			589.6,-13.6 569.8,-26.4 555.5,-31.1 538.3,-37.3 516.1,-41.6 502.4,-42.4 491.9,-42.4 479.4,-42.4 465.8,-41.6 443.6,-37.3 
			426.3,-31.1 412.2,-26.4 392.2,-13.6 368.6,3.9 368,4.2 395.6,31.8 		"/>
	</g>
</g>
<g id="Calque_13">
	<line class="st9" x1="391.6" y1="226.3" x2="398" y2="203.7"/>
</g>
<g id="contourCadran">
	<path class="st10" d="M645.5-57H337.8c-17.1,0-31.2,14-31.2,31.2v307.6c0,17.1,14,31.2,31.2,31.2h307.6c17.1,0,31.2-14,31.2-31.2
		V-25.8C676.6-43,662.6-57,645.5-57z M491.6,294.8c-92.1,0-166.8-74.7-166.8-166.8S399.5-38.8,491.6-38.8S658.5,35.9,658.5,128
		S583.8,294.8,491.6,294.8z"/>
</g>
<g id="logo_1_">
	<g>
		<circle id="Fond" class="st11" cx="337.3" cy="-26.5" r="21.9"/>
		<g>
			<path class="st12" d="M325.8-13.5c0-2.2,2.5-12.8,11.5-12.8s11.6-9.7,11.6-12.3"/>
			<rect x="329.3" y="-38.5" class="st13" width="7" height="25.1"/>
			<rect x="338.3" y="-38.5" class="st13" width="7" height="25.1"/>
		</g>
	</g>
</g>
<g id="logo_-_copie">
	<g>
		<circle id="Fond_1_" class="st11" cx="646" cy="-26.5" r="21.9"/>
		<g>
			<path class="st12" d="M634.3-13.5c0-2.2,2.5-12.8,11.5-12.8s11.6-9.7,11.6-12.3"/>
			<rect x="638" y="-38.5" class="st13" width="7" height="25.1"/>
			<rect x="647" y="-38.5" class="st13" width="7" height="25.1"/>
		</g>
	</g>
</g>
<g id="logo_-_copie_2">
	<g>
		<circle id="Fond_2_" class="st11" cx="646" cy="282" r="21.9"/>
		<g>
			<path class="st12" d="M634.3,295.1c0-2.2,2.5-12.8,11.5-12.8s11.6-9.7,11.6-12.3"/>
			<rect x="638" y="270" class="st13" width="7" height="25.1"/>
			<rect x="647" y="270" class="st13" width="7" height="25.1"/>
		</g>
	</g>
</g>
<g id="logo_-_copie_3">
	<g>
		<circle id="Fond_3_" class="st11" cx="337.2" cy="282" r="21.9"/>
		<g>
			<path class="st12" d="M325.6,295.1c0-2.2,2.5-12.8,11.5-12.8s11.6-9.7,11.6-12.3"/>
			<rect x="329.2" y="270" class="st13" width="7" height="25.1"/>
			<rect x="338.2" y="270" class="st13" width="7" height="25.1"/>
		</g>
	</g>
</g>
<g id="Calque_14">
</g>
<g id="reperes" class="st0">
</g>
</svg>
