<?xml version="1.0" encoding="utf-8"?>
<!-- Generator: Adobe Illustrator 19.1.0, SVG Export Plug-In . SVG Version: 6.00 Build 0)  -->
<svg version="1.1" id="Calque_1" xmlns="http://www.w3.org/2000/svg" xmlns:xlink="http://www.w3.org/1999/xlink" x="0px" y="0px"
	 viewBox="-53 108.9 100 40" style="enable-background:new -53 108.9 100 40;" xml:space="preserve">
<style type="text/css">
	.st0{fill:#4C4C4C;}
	.st1{fill:#AF0000;}
	.st2{fill:#E2E0E3;}
	.st3{fill:#C5C3C7;}
</style>
<g>
	<path class="st0" d="M14.4,115.5h-21c0.5,0.4,1,0.8,1.4,1.2h18.8c7.1,0,12.9,5.2,12.9,11.5v1.4c0,6.3-5.8,11.5-12.9,11.5H-5.2
		c-0.4,0.4-0.9,0.8-1.4,1.2h21c7.7,0,14-5.7,14-12.7v-1.5C28.5,121.2,22.1,115.5,14.4,115.5z"/>
	<path class="st1" d="M0,128.9c0,4.8-2,9.1-5.2,12.2h18.8c7.1,0,12.9-5.2,12.9-11.5v-1.4c0-6.3-5.8-11.5-12.9-11.5H-5.2
		C-2,119.8,0,124.1,0,128.9z"/>
	<path class="st2" d="M0,128.9c0-4.8-2-9.1-5.2-12.2c-0.4-0.4-0.9-0.8-1.4-1.2c-2.9-2.3-6.5-3.6-10.5-3.6c-9.4,0-17.1,7.6-17.1,17.1
		c0,9.4,7.6,17.1,17.1,17.1c4,0,7.6-1.4,10.5-3.6c0.5-0.4,1-0.8,1.4-1.2C-2,138,0,133.7,0,128.9z M-17.1,143.8
		c-8.2,0-14.9-6.7-14.9-14.9s6.7-14.9,14.9-14.9s14.9,6.7,14.9,14.9C-2.2,137.1-8.9,143.8-17.1,143.8z"/>
	<path d="M-24.4,132.1c1.5,0,2.3-1.4,2.3-3.2c0-1.7-0.8-3.2-2.3-3.2s-2.3,1.4-2.3,3.2C-26.7,130.8-25.9,132.1-24.4,132.1z"/>
	<path d="M-2.2,128.9c0-8.2-6.7-14.9-14.9-14.9S-32,120.7-32,128.9s6.7,14.9,14.9,14.9S-2.2,137.1-2.2,128.9z M-18.4,124.1h5.8v1.8
		h-3.7v2.2h3.4v1.8h-3.4v3.8h-2.2v-9.6H-18.4z M-5.1,124.1v1.8h-3.7v2.2h3.4v1.8h-3.4v3.8H-11v-9.5L-5.1,124.1L-5.1,124.1z
		 M-24.4,124c2.9,0,4.5,2.2,4.5,4.8c0,3.1-1.9,5-4.7,5s-4.5-2.1-4.5-4.9C-29,126.1-27.2,124-24.4,124z"/>
	<path class="st3" d="M-24.5,133.8c2.8,0,4.7-1.9,4.7-5c0-2.6-1.6-4.8-4.5-4.8c-2.8,0-4.6,2.1-4.6,5
		C-29,131.7-27.4,133.8-24.5,133.8z M-24.4,125.7c1.5,0,2.3,1.5,2.3,3.2c0,1.9-0.8,3.2-2.3,3.2c-1.4,0-2.3-1.3-2.3-3.2
		C-26.7,127.1-25.9,125.7-24.4,125.7z"/>
	<polygon class="st3" points="-16.3,129.8 -12.8,129.8 -12.8,128.1 -16.3,128.1 -16.3,125.9 -12.6,125.9 -12.6,124.1 -18.4,124.1 
		-18.4,133.7 -16.3,133.7 	"/>
	<polygon class="st3" points="-11,133.7 -8.8,133.7 -8.8,129.8 -5.4,129.8 -5.4,128.1 -8.8,128.1 -8.8,125.9 -5.1,125.9 -5.1,124.1 
		-11,124.1 	"/>
</g>
</svg>
