<?xml version="1.0" encoding="utf-8"?>
<!-- Generator: Adobe Illustrator 19.1.0, SVG Export Plug-In . SVG Version: 6.00 Build 0)  -->
<svg version="1.1" id="Calque_1" xmlns="http://www.w3.org/2000/svg" xmlns:xlink="http://www.w3.org/1999/xlink" x="0px" y="0px"
	 viewBox="0 0 100 40" style="enable-background:new 0 0 100 40;" xml:space="preserve">
<style type="text/css">
	.st0{fill:#282829;}
	.st1{fill:#3A6C2D;}
	.st2{fill:#63B232;}
	.st3{fill:#E2E0E3;}
	.st4{fill:#FFFFFF;}
</style>
<g>
	<path class="st0" d="M69,0.4H30.9c-10.2,0-18.5,8.3-18.5,18.5v2.2c0,10.2,8.3,18.5,18.5,18.5H69c10.2,0,18.5-8.3,18.5-18.5v-2.2
		C87.5,8.7,79.2,0.4,69,0.4z M67,37.1c-4,0-7.6-1.4-10.5-3.6h-21c-7.7,0-14-5.7-14-12.7v-1.5c0-7,6.3-12.7,14-12.7h21
		c2.9-2.3,6.5-3.6,10.5-3.6c9.4,0,17.1,7.6,17.1,17.1C84.1,29.4,76.4,37.1,67,37.1z"/>
	<path class="st1" d="M37,32.2c-7.1,0-12.9-5.2-12.9-11.5v-1.4C24.1,13,29.9,7.8,37,7.8h18.1C55.6,7.4,56,7,56.5,6.6h-21
		c-7.7,0-14,5.7-14,12.7v1.5c0,7,6.3,12.7,14,12.7h21c-0.5-0.4-1-0.8-1.4-1.2H37z"/>
	<path class="st2" d="M24.1,19.3v1.4c0,6.3,5.8,11.5,12.9,11.5h18.1C51.9,29.1,50,24.8,50,20c0-4.8,2-9.1,5.2-12.2H37
		C29.9,7.8,24.1,13,24.1,19.3z"/>
	<path class="st3" d="M67,2.9c-4,0-7.6,1.4-10.5,3.6c-0.5,0.4-1,0.8-1.4,1.2C51.9,10.9,50,15.2,50,20c0,4.8,2,9.1,5.2,12.2
		c0.4,0.4,0.9,0.8,1.4,1.2c2.9,2.3,6.5,3.6,10.5,3.6c9.4,0,17.1-7.6,17.1-17.1C84.1,10.6,76.4,2.9,67,2.9z M67,34.9
		c-8.2,0-14.9-6.7-14.9-14.9c0-8.2,6.7-14.9,14.9-14.9c8.2,0,14.9,6.7,14.9,14.9C81.9,28.2,75.2,34.9,67,34.9z"/>
	<path class="st2" d="M67,5.1c-8.2,0-14.9,6.7-14.9,14.9c0,8.2,6.7,14.9,14.9,14.9c8.2,0,14.9-6.7,14.9-14.9
		C81.9,11.8,75.2,5.1,67,5.1z M54.2,20.1c0-3.8,2.4-6.6,6.2-6.6c3.9,0,6,2.9,6,6.4c0,4.2-2.5,6.7-6.2,6.7
		C56.4,26.5,54.2,23.7,54.2,20.1z M78.8,26.3h-3l-2.7-4.9c-0.8-1.4-1.6-3-2.2-4.5l-0.1,0c0.1,1.7,0.1,3.5,0.1,5.5v3.8h-2.6V13.7h3.3
		l2.6,4.6c0.8,1.3,1.5,2.9,2.1,4.3h0.1c-0.2-1.7-0.2-3.4-0.2-5.3v-3.7h2.6V26.3z"/>
	<path class="st2" d="M63.4,20c0-2.3-1.1-4.2-3.1-4.2c-1.9,0-3.1,1.8-3.1,4.3c0,2.5,1.2,4.2,3.1,4.2C62.3,24.3,63.4,22.4,63.4,20z"
		/>
	<path class="st4" d="M66.4,19.9c0-3.5-2.1-6.4-6-6.4c-3.7,0-6.2,2.8-6.2,6.6c0,3.6,2.2,6.5,6,6.5C63.9,26.5,66.4,24,66.4,19.9z
		 M57.2,20c0-2.5,1.1-4.3,3.1-4.3c2,0,3.1,2,3.1,4.2c0,2.5-1.1,4.3-3,4.3C58.4,24.3,57.2,22.5,57.2,20z"/>
	<path class="st4" d="M76.2,13.7v3.7c0,1.9,0.1,3.6,0.2,5.3h-0.1c-0.6-1.4-1.3-3-2.1-4.3l-2.6-4.6h-3.3v12.7h2.6v-3.8
		c0-2.1,0-3.9-0.1-5.5l0.1,0c0.6,1.5,1.4,3.1,2.2,4.5l2.7,4.9h3V13.7H76.2z"/>
</g>
</svg>
