<?xml version="1.0" encoding="utf-8"?>
<!-- Generator: Adobe Illustrator 19.1.0, SVG Export Plug-In . SVG Version: 6.00 Build 0)  -->
<svg version="1.1" id="Calque_1" xmlns="http://www.w3.org/2000/svg" xmlns:xlink="http://www.w3.org/1999/xlink" x="0px" y="0px"
	 viewBox="194 -293 595.3 841.9" style="enable-background:new 194 -293 595.3 841.9;" xml:space="preserve">
<style type="text/css">
	.st0{display:none;}
	.st1{display:inline;}
	.st2{fill:#0F6B84;}
	.st3{fill:#82531A;}
	.st4{fill:url(#SVGID_1_);}
	.st5{fill:none;stroke:#000000;stroke-width:8;stroke-miterlimit:10;}
	.st6{fill:none;stroke:#000000;stroke-width:2;stroke-miterlimit:10;}
	.st7{fill:url(#SVGID_2_);}
	.st8{fill:#DCFFAB;stroke:#6C823C;stroke-miterlimit:10;}
	.st9{fill:none;stroke:#707070;stroke-width:2;stroke-miterlimit:10;}
	.st10{fill:#A0A0A0;stroke:#707070;stroke-miterlimit:10;}
	.st11{fill:#282828;}
	.st12{fill:#FFFFFF;}
	.st13{font-family:'Arial'; font-weight:bold;}
	.st14{font-size:20px;}
	.st15{font-size:19px;}
	.st16{fill:none;}
	.st17{fill:#353535;}
	.st18{fill:#1E1E1E;}
	.st19{fill:none;stroke:#FFFFFF;stroke-width:2;stroke-miterlimit:10;}
</style>
<g id="masque_1_" class="st0">
	<g class="st1">
		<path class="st2" d="M760.5-419.6c76,0,137.6,61.3,138.2,137.2h33.6c0-94.6-76.7-171.2-171.2-171.2s-171.2,76.7-171.2,171.2h32.5
			C622.9-358.4,684.5-419.6,760.5-419.6z"/>
		<path class="st3" d="M898.7-282.4c0,76.3-61.9,138.2-138.2,138.2s-138.2-61.9-138.2-138.2c0-0.1,0-0.1,0-0.2h-32.5
			c0,94.6,76.7,171.2,171.2,171.2s171.2-76.7,171.2-171.2h-33.6C898.7-282.5,898.7-282.5,898.7-282.4z"/>
	</g>
	<g id="Calque_19" class="st1">
	</g>
</g>
<g id="Calque_11">

		<radialGradient id="SVGID_1_" cx="490.65" cy="125.55" r="139.2" gradientTransform="matrix(1 0 0 -1 0 254.05)" gradientUnits="userSpaceOnUse">
		<stop  offset="0" style="stop-color:#DCFFAB"/>
		<stop  offset="1" style="stop-color:#B7D685"/>
	</radialGradient>
	<circle class="st4" cx="490.6" cy="128.5" r="139.2"/>
</g>
<g id="diagonaleGros">
	<line class="st5" x1="393.1" y1="226.3" x2="601.1" y2="18.3"/>
	<line class="st5" x1="382.1" y1="18.3" x2="590.3" y2="226.6"/>
	<line class="st5" x1="337.2" y1="127.8" x2="644.9" y2="127.8"/>
	<line class="st5" x1="492.1" y1="267.4" x2="492.1" y2="-26.8"/>
</g>
<g id="diagonalePtit">
	<line class="st6" x1="491.6" y1="-26.6" x2="491.6" y2="-10.7"/>
	<line class="st6" x1="551.9" y1="-14.3" x2="545.4" y2="1"/>
	<line class="st6" x1="431.3" y1="-14.3" x2="437.3" y2="-0.1"/>
	<line class="st6" x1="619.2" y1="181.9" x2="633.6" y2="188"/>
	<line class="st6" x1="618.6" y1="73.8" x2="633.6" y2="67.4"/>
	<line class="st6" x1="349.6" y1="67.4" x2="362.9" y2="73.1"/>
	<line class="st6" x1="349.6" y1="188" x2="362.7" y2="182.4"/>
</g>
<g id="Calque_15">

		<radialGradient id="SVGID_2_" cx="491.65" cy="126.25" r="132.4" gradientTransform="matrix(1 0 0 -1 0 254.05)" gradientUnits="userSpaceOnUse">
		<stop  offset="0" style="stop-color:#DCFFAB"/>
		<stop  offset="1" style="stop-color:#B7D685"/>
	</radialGradient>
	<circle class="st7" cx="491.6" cy="127.8" r="132.4"/>
</g>
<g id="cerclePuissance">
	<circle class="st8" cx="450" cy="86.2" r="38.3"/>
	<circle class="st8" cx="533.4" cy="86.2" r="38.3"/>
	<circle class="st8" cx="449.5" cy="169.1" r="38.3"/>
	<circle class="st8" cx="533" cy="169.1" r="38.3"/>
</g>
<g id="indicatorPuissance">
	<line class="st9" x1="450" y1="47.9" x2="450" y2="54.4"/>
	<line class="st9" x1="482.9" y1="86.2" x2="488.2" y2="86.2"/>
	<line class="st9" x1="450" y1="119.1" x2="450" y2="124.5"/>
	<line class="st9" x1="411.7" y1="86.2" x2="418.5" y2="86.2"/>
	<line class="st9" x1="422.9" y1="59.1" x2="427.5" y2="63.7"/>
	<line class="st9" x1="473.3" y1="62.9" x2="477" y2="59.1"/>
	<line class="st9" x1="473.2" y1="109.5" x2="477" y2="113.3"/>
	<line class="st9" x1="422.9" y1="113.3" x2="427.7" y2="108.4"/>
	<circle class="st10" cx="450" cy="86.2" r="1.3"/>
	<line class="st9" x1="533.4" y1="47.9" x2="533.4" y2="54.4"/>
	<line class="st9" x1="566.3" y1="86.2" x2="571.7" y2="86.2"/>
	<line class="st9" x1="533.4" y1="119.1" x2="533.4" y2="124.5"/>
	<line class="st9" x1="495.1" y1="86.2" x2="502" y2="86.2"/>
	<line class="st9" x1="506.3" y1="59.1" x2="510.9" y2="63.7"/>
	<line class="st9" x1="556.7" y1="62.9" x2="560.5" y2="59.1"/>
	<line class="st9" x1="556.6" y1="109.5" x2="560.5" y2="113.3"/>
	<line class="st9" x1="506.3" y1="113.3" x2="511.2" y2="108.4"/>
	<circle class="st10" cx="533.4" cy="86.2" r="1.3"/>
	<line class="st9" x1="450" y1="130.8" x2="450" y2="137.3"/>
	<line class="st9" x1="482.9" y1="169.1" x2="488.2" y2="169.1"/>
	<line class="st9" x1="450" y1="202" x2="450" y2="207.4"/>
	<line class="st9" x1="411.7" y1="169.1" x2="418.5" y2="169.1"/>
	<line class="st9" x1="422.9" y1="142" x2="427.5" y2="146.6"/>
	<line class="st9" x1="473.3" y1="145.8" x2="477" y2="142"/>
	<line class="st9" x1="473.2" y1="192.4" x2="477" y2="196.2"/>
	<line class="st9" x1="422.9" y1="196.2" x2="427.7" y2="191.3"/>
	<circle class="st10" cx="450" cy="169.1" r="1.3"/>
	<line class="st9" x1="533.4" y1="130.8" x2="533.4" y2="137.3"/>
	<line class="st9" x1="566.3" y1="169.1" x2="571.7" y2="169.1"/>
	<line class="st9" x1="533.4" y1="202" x2="533.4" y2="207.4"/>
	<line class="st9" x1="495.1" y1="169.1" x2="502" y2="169.1"/>
	<line class="st9" x1="506.3" y1="142" x2="510.9" y2="146.6"/>
	<line class="st9" x1="556.7" y1="145.8" x2="560.5" y2="142"/>
	<line class="st9" x1="556.6" y1="192.4" x2="560.5" y2="196.2"/>
	<line class="st9" x1="506.3" y1="196.2" x2="511.2" y2="191.3"/>
	<circle class="st10" cx="533.4" cy="169.1" r="1.3"/>
</g>
<g id="roll">
	<polygon class="st11" points="534.4,223.7 513.5,210.6 491,210.6 470.4,210.6 449.5,223.7 395.8,223.7 369.6,250.4 369.7,251.6
		393.3,269.1 413.2,281.9 427.4,286.6 444.6,292.8 466.8,297.1 480.5,297.9 491,297.9 503.5,297.9 517.2,297.1 539.3,292.8
		556.6,286.6 570.7,281.9 590.7,269.1 614.3,251.6 614.9,251.3 587.3,223.7 	"/>
</g>
<g id="indicateurs">
	<text transform="matrix(1 0 0 1 450.9843 253.0848)" class="st12 st13 st14">THRUST</text>
	<text transform="matrix(1 0 0 1 467.9841 272.4774)" class="st12 st13 st14">[ W ]</text>
	<text transform="matrix(1 0 0 1 369.0109 133.1251)" class="st13 st15">40</text>
	<text transform="matrix(1 0 0 1 583.707 133.1255)" class="st13 st15">200</text>
	<text transform="matrix(1 0 0 1 401.0925 50.9223)" class="st13 st15">80</text>
	<text transform="matrix(1 0 0 1 550.5421 48.9225)" class="st13 st15">160</text>
	<text transform="matrix(1 0 0 1 552.5417 216.022)" class="st13 st15">240</text>
	<text transform="matrix(1 0 0 1 402.0925 216.0222)" class="st13 st15">0</text>
	<text transform="matrix(1 0 0 1 476.1606 18.2724)" class="st13 st15">120</text>
</g>
<g id="Calque_13">
	<line class="st16" x1="391.6" y1="226.3" x2="398" y2="203.7"/>
</g>
<g id="contourCadran">
	<path class="st17" d="M645.4-57H337.8c-17.1,0-31.2,14-31.2,31.2v307.6c0,17.1,14,31.2,31.2,31.2h307.6c17.1,0,31.2-14,31.2-31.2
		V-25.8C676.6-43,662.6-57,645.4-57z M491.6,294.8c-92.1,0-166.8-74.7-166.8-166.8S399.5-38.8,491.6-38.8S658.4,35.9,658.4,128
		S583.7,294.8,491.6,294.8z"/>
</g>
<g id="logo_1_">
	<g>
		<circle id="Fond" class="st18" cx="337.3" cy="-26.5" r="21.9"/>
		<g>
			<path class="st19" d="M325.8-13.5c0-2.2,2.5-12.8,11.5-12.8s11.6-9.7,11.6-12.3"/>
			<rect x="329.3" y="-38.5" class="st12" width="7" height="25.1"/>
			<rect x="338.3" y="-38.5" class="st12" width="7" height="25.1"/>
		</g>
	</g>
</g>
<g id="logo_-_copie">
	<g>
		<circle id="Fond_1_" class="st18" cx="645.9" cy="-26.5" r="21.9"/>
		<g>
			<path class="st19" d="M634.3-13.5c0-2.2,2.5-12.8,11.5-12.8s11.6-9.7,11.6-12.3"/>
			<rect x="637.9" y="-38.5" class="st12" width="7" height="25.1"/>
			<rect x="646.9" y="-38.5" class="st12" width="7" height="25.1"/>
		</g>
	</g>
</g>
<g id="logo_-_copie_2">
	<g>
		<circle id="Fond_2_" class="st18" cx="645.9" cy="282" r="21.9"/>
		<g>
			<path class="st19" d="M634.3,295.1c0-2.2,2.5-12.8,11.5-12.8s11.6-9.7,11.6-12.3"/>
			<rect x="637.9" y="270" class="st12" width="7" height="25.1"/>
			<rect x="646.9" y="270" class="st12" width="7" height="25.1"/>
		</g>
	</g>
</g>
<g id="logo_-_copie_3">
	<g>
		<circle id="Fond_3_" class="st18" cx="337.2" cy="282" r="21.9"/>
		<g>
			<path class="st19" d="M325.6,295.1c0-2.2,2.5-12.8,11.5-12.8s11.6-9.7,11.6-12.3"/>
			<rect x="329.2" y="270" class="st12" width="7" height="25.1"/>
			<rect x="338.2" y="270" class="st12" width="7" height="25.1"/>
		</g>
	</g>
</g>
<g id="Calque_14">
</g>
<g id="reperes" class="st0">
</g>
</svg>
