<?xml version="1.0" standalone="no"?>
<!DOCTYPE svg PUBLIC "-//W3C//DTD SVG 20010904//EN"
"http://www.w3.org/TR/2001/REC-SVG-20010904/DTD/svg10.dtd">
<svg version="1.0" xmlns="http://www.w3.org/2000/svg" id="svg" width="100%" height="100%" viewBox="0 0 61.2 61.2" style=" fill:none; fill-rule:evenodd; stroke-linecap:round; stroke-linejoin:round; stroke:#ffff00; stroke-width:0.2;">
<desc>CadranPower</desc>
<rect x="-20.4" y="-20.4" width="102" height="102" color-rendering="optimizeSpeed" style=" fill:#ffffff; stroke:none; fill-opacity:100;" />
<radialGradient id="grd4" spreadMethod="pad" gradientUnits="objectBoundingBox" cx="0.48" cy="0.52" r="0.5" fx="0.48" fy="0.52">
<stop offset="0" style="stop-color:#c8ffc8"/>
<stop offset="1" style="stop-color:#6aff6d"/>
</radialGradient>
<path d="M58,30.6A27.4,27.4 0 1,0 3.2,30.6 A27.4,27.4 0 1,0 58,30.6 " style="fill:url(#grd4); stroke:none;" />
<radialGradient id="grd10" spreadMethod="pad" gradientUnits="objectBoundingBox" cx="0.31" cy="0.59" r="0.5" fx="0.31" fy="0.59">
<stop offset="0" style="stop-color:#616161"/>
<stop offset="1" style="stop-color:#616161"/>
</radialGradient>
<path d="M58.6,30.6A28,28 0 1,0 2.6,30.6 A28,28 0 1,0 58.6,30.6 M60.6,5.6L60.6,55.6
A5,5 0 0,1 55.6,60.6 L5.6,60.6A5,5 0 0,1 0.6,55.6 L0.6,5.6A5,5 0 0,1 5.6,0.6 L55.6,0.6
A5,5 0 0,1 60.6,5.6 " style="fill:url(#grd10); stroke:none;" />
<radialGradient id="grd22" spreadMethod="pad" gradientUnits="objectBoundingBox" cx="0.97" cy="0.95" r="0.5" fx="0.97" fy="0.95">
<stop offset="0" style="stop-color:#ffffff"/>
<stop offset="1" style="stop-color:#000000"/>
</radialGradient>
<path d="M57.4,30.6A26.8,26.8 0 1,0 3.8,30.6 A26.8,26.8 0 1,0 57.4,30.6 M58.6,30.6
A28,28 0 1,0 2.6,30.6 A28,28 0 1,0 58.6,30.6 " style="fill:url(#grd22); stroke:none;" />
<radialGradient id="grd29" spreadMethod="pad" gradientUnits="objectBoundingBox" cx="0.48" cy="0.49" r="0.5" fx="0.48" fy="0.49">
<stop offset="0" style="stop-color:#d6d6d6"/>
<stop offset="1" style="stop-color:#000000"/>
</radialGradient>
<path d="M9.2,5.6A3.6,3.6 0 1,0 2,5.6 A3.6,3.6 0 1,0 9.2,5.6 " style="fill:url(#grd29); stroke:none;" />
<linearGradient id="grd34" spreadMethod="pad" gradientUnits="objectBoundingBox" x1="0" y1="0" x2="-3.82859e-016" y2="-1">
<stop offset="0" style="stop-color:#ffffff"/>
<stop offset="1" style="stop-color:#000000"/>
</linearGradient>
<path d="M6.8,7.6L5.85,7.6L5.85,5.62309L5.35,5.78743L5.35,7.6L4.4,7.6L4.4,6.25836
A1.8,1.8 0 0,0 3.8,7.6 L3.6,7.6A2,2 0 0,1 4.4,6 L4.4,3.6L5.35,3.6L5.35,5.57691L5.85,5.41257
L5.85,3.6L6.8,3.6L6.8,4.94164A1.8,1.8 0 0,0 7.4,3.6 L7.6,3.6A2,2 0 0,1 6.8,5.2 L6.8,7.6" style="fill:url(#grd34); stroke:none;" />
<radialGradient id="grd60" spreadMethod="pad" gradientUnits="objectBoundingBox" cx="0.48" cy="0.49" r="0.5" fx="0.48" fy="0.49">
<stop offset="0" style="stop-color:#d6d6d6"/>
<stop offset="1" style="stop-color:#000000"/>
</radialGradient>
<path d="M9.2,55.6A3.6,3.6 0 1,0 2,55.6 A3.6,3.6 0 1,0 9.2,55.6 " style="fill:url(#grd60); stroke:none;" />
<linearGradient id="grd65" spreadMethod="pad" gradientUnits="objectBoundingBox" x1="0" y1="0" x2="-3.82859e-016" y2="-1">
<stop offset="0" style="stop-color:#ffffff"/>
<stop offset="1" style="stop-color:#000000"/>
</linearGradient>
<path d="M6.8,57.6L5.85,57.6L5.85,55.6231L5.35,55.7874L5.35,57.6L4.4,57.6L4.4,56.2584
A1.8,1.8 0 0,0 3.8,57.6 L3.6,57.6A2,2 0 0,1 4.4,56 L4.4,53.6L5.35,53.6L5.35,55.5769
L5.85,55.4126L5.85,53.6L6.8,53.6L6.8,54.9416A1.8,1.8 0 0,0 7.4,53.6 L7.6,53.6A2,2 0 0,1 6.8,55.2 
L6.8,57.6" style="fill:url(#grd65); stroke:none;" />
<radialGradient id="grd91" spreadMethod="pad" gradientUnits="objectBoundingBox" cx="0.48" cy="0.49" r="0.5" fx="0.48" fy="0.49">
<stop offset="0" style="stop-color:#d6d6d6"/>
<stop offset="1" style="stop-color:#000000"/>
</radialGradient>
<path d="M59.2,55.6A3.6,3.6 0 1,0 52,55.6 A3.6,3.6 0 1,0 59.2,55.6 " style="fill:url(#grd91); stroke:none;" />
<linearGradient id="grd96" spreadMethod="pad" gradientUnits="objectBoundingBox" x1="0" y1="0" x2="-3.82859e-016" y2="-1">
<stop offset="0" style="stop-color:#ffffff"/>
<stop offset="1" style="stop-color:#000000"/>
</linearGradient>
<path d="M56.8,57.6L55.85,57.6L55.85,55.6231L55.35,55.7874L55.35,57.6L54.4,57.6L54.4,56.2584
A1.8,1.8 0 0,0 53.8,57.6 L53.6,57.6A2,2 0 0,1 54.4,56 L54.4,53.6L55.35,53.6L55.35,55.5769
L55.85,55.4126L55.85,53.6L56.8,53.6L56.8,54.9416A1.8,1.8 0 0,0 57.4,53.6 L57.6,53.6
A2,2 0 0,1 56.8,55.2 L56.8,57.6" style="fill:url(#grd96); stroke:none;" />
<radialGradient id="grd122" spreadMethod="pad" gradientUnits="objectBoundingBox" cx="0.48" cy="0.49" r="0.5" fx="0.48" fy="0.49">
<stop offset="0" style="stop-color:#d6d6d6"/>
<stop offset="1" style="stop-color:#000000"/>
</radialGradient>
<path d="M59.2,5.6A3.6,3.6 0 1,0 52,5.6 A3.6,3.6 0 1,0 59.2,5.6 " style="fill:url(#grd122); stroke:none;" />
<linearGradient id="grd127" spreadMethod="pad" gradientUnits="objectBoundingBox" x1="0" y1="0" x2="-3.82859e-016" y2="-1">
<stop offset="0" style="stop-color:#ffffff"/>
<stop offset="1" style="stop-color:#000000"/>
</linearGradient>
<path d="M56.8,7.6L55.85,7.6L55.85,5.62309L55.35,5.78743L55.35,7.6L54.4,7.6L54.4,6.25836
A1.8,1.8 0 0,0 53.8,7.6 L53.6,7.6A2,2 0 0,1 54.4,6 L54.4,3.6L55.35,3.6L55.35,5.57691
L55.85,5.41257L55.85,3.6L56.8,3.6L56.8,4.94164A1.8,1.8 0 0,0 57.4,3.6 L57.6,3.6A2,2 0 0,1 56.8,5.2 
L56.8,7.6" style="fill:url(#grd127); stroke:none;" />
<path d="M24.6291,51.5L23.5624,48.7469L23.9568,48.7469L24.6723,50.7469L24.7137,50.8653
L24.7516,50.9798L24.786,51.0906L24.8169,51.1977L24.8501,51.085L24.8859,50.9723L24.9243,50.8596
L24.9653,50.7469L25.7089,48.7469L26.0808,48.7469L25.0028,51.5L24.6291,51.5" style=" fill:#ffffff; stroke:#ffffff;" />
<path d="M27.6657,51.254L27.5727,51.3279L27.4815,51.3901L27.392,51.4406L27.3042,51.4793
L27.2158,51.5081L27.1242,51.5286L27.0294,51.541L26.9315,51.5451L26.7766,51.535L26.6408,51.5049
L26.5241,51.4548L26.4263,51.3845L26.3491,51.2987L26.2939,51.2016L26.2608,51.0935L26.2498,50.9742
L26.2539,50.9025L26.2664,50.834L26.2873,50.7687L26.3164,50.7066L26.3523,50.649L26.3934,50.5974
L26.4397,50.5518L26.4911,50.5122L26.5468,50.4778L26.6059,50.4479L26.6684,50.4224L26.7343,50.4014
L26.7904,50.3884L26.8592,50.3756L26.9406,50.363L27.0347,50.3507L27.2259,50.3251L27.3901,50.2972
L27.5273,50.2669L27.6376,50.2343L27.6384,50.2027L27.639,50.1775L27.6393,50.1586L27.6394,50.146
L27.6335,50.0504L27.6155,49.97L27.5856,49.9048L27.5437,49.8549L27.471,49.8048L27.3826,49.769
L27.2785,49.7475L27.1587,49.7404L27.0472,49.7456L26.9514,49.7613L26.8712,49.7874L26.8066,49.8239
L26.7535,49.8738L26.7077,49.9397L26.6694,50.0217L26.6385,50.1197L26.308,50.0746L26.3342,49.9737
L26.3676,49.8829L26.4083,49.8023L26.4563,49.7319L26.5137,49.6704L26.5826,49.6164L26.663,49.57
L26.7549,49.531L26.8565,49.5002L26.9657,49.4782L27.0827,49.465L27.2075,49.4606L27.3292,49.4643
L27.439,49.4756L27.5367,49.4944L27.6225,49.5207L27.6971,49.5526L27.761,49.5885L27.8144,49.6282
L27.8573,49.6718L27.892,49.7204L27.9211,49.7749L27.9446,49.8354L27.9624,49.9019L27.9698,49.9538
L27.9751,50.023L27.9783,50.1096L27.9793,50.2136L27.9793,50.6643L27.9807,50.8783L27.9847,51.0491
L27.9915,51.1765L28.0009,51.2606L28.0144,51.3224L28.0331,51.3829L28.0571,51.4421L28.0864,51.5
L27.7333,51.5L27.7094,51.4452L27.6901,51.3859L27.6756,51.3222L27.6657,51.254M27.6376,50.4991
L27.534,50.5352L27.4075,50.5685L27.258,50.5991L27.0854,50.6268L26.9888,50.6423L26.9075,50.6587
L26.8414,50.6761L26.7906,50.6944L26.7499,50.7153L26.7141,50.7406L26.6832,50.7702L26.6573,50.8042
L26.6367,50.8414L26.6221,50.8805L26.6133,50.9217L26.6103,50.9648L26.6167,51.0296L26.6359,51.0887
L26.6679,51.1423L26.7127,51.1901L26.7698,51.2296L26.8387,51.2577L26.9195,51.2746L27.0122,51.2803
L27.1072,51.2749L27.1967,51.2589L27.2809,51.2322L27.3596,51.1948L27.4306,51.1482L27.4915,51.0937
L27.5424,51.0313L27.5831,50.961L27.6069,50.8969L27.6239,50.8192L27.6342,50.7279L27.6376,50.623
L27.6376,50.4991" style=" fill:#ffffff; stroke:#ffffff;" />
<path d="M29.8047,50.7695L30.1371,50.8127L30.0992,50.9752L30.0401,51.119L29.9598,51.2442
L29.8582,51.3507L29.7396,51.4357L29.6082,51.4965L29.464,51.5329L29.307,51.5451L29.1124,51.5283
L28.9378,51.4782L28.7833,51.3945L28.6488,51.2775L28.54,51.1292L28.4622,50.9519L28.4156,50.7456
L28.4,50.5103L28.4067,50.3539L28.4268,50.2075L28.4602,50.0712L28.507,49.9451L28.5675,49.8315
L28.642,49.7331L28.7305,49.6498L28.8329,49.5817L28.9447,49.5287L29.0613,49.4908L29.1827,49.4681
L29.3089,49.4606L29.464,49.4708L29.6042,49.5016L29.7297,49.553L29.8404,49.6249L29.9344,49.7157
L30.0099,49.8237L30.0668,49.949L30.1052,50.0915L29.7765,50.1423L29.7485,50.048L29.7115,49.9662
L29.6654,49.8968L29.6103,49.8399L29.5476,49.7955L29.4786,49.7638L29.4035,49.7448L29.3221,49.7385
L29.2004,49.7499L29.0906,49.7843L28.9928,49.8415L28.907,49.9216L28.8372,50.0265L28.7873,50.158
L28.7574,50.3161L28.7474,50.5009L28.757,50.6881L28.7859,50.8479L28.834,50.9802L28.9014,51.085
L28.9843,51.1647L29.0789,51.2216L29.1852,51.2558L29.3033,51.2671L29.3987,51.2595L29.4859,51.2366
L29.5649,51.1985L29.6357,51.1451L29.6962,51.0758L29.7446,50.9901L29.7808,50.888L29.8047,50.7695" style=" fill:#ffffff; stroke:#ffffff;" />
<path d="M31.7333,51.5L31.7333,51.207L31.6065,51.3549L31.4587,51.4606L31.29,51.5239
L31.1005,51.5451L31.0137,51.5408L30.9298,51.5282L30.8489,51.507L30.7709,51.4775L30.6993,51.4415
L30.6376,51.4012L30.5857,51.3565L30.5437,51.3075L30.5093,51.2535L30.4805,51.1937L30.4572,51.1281
L30.4394,51.0568L30.4304,50.9998L30.4239,50.9282L30.4201,50.842L30.4188,50.7413L30.4188,49.5056
L30.7568,49.5056L30.7568,50.6117L30.7581,50.7333L30.762,50.8333L30.7684,50.9117L30.7775,50.9685
L30.7979,51.0316L30.8272,51.0876L30.8655,51.1363L30.9127,51.1779L30.9674,51.2112L31.0282,51.235
L31.0951,51.2492L31.1681,51.254L31.243,51.2491L31.3155,51.2345L31.3857,51.2102L31.4535,51.1761
L31.5153,51.1336L31.5674,51.084L31.6097,51.0275L31.6423,50.9638L31.6665,50.8891L31.6838,50.7993
L31.6942,50.6943L31.6977,50.5742L31.6977,49.5056L32.0357,49.5056L32.0357,51.5L31.7333,51.5" style=" fill:#ffffff; stroke:#ffffff;" />
<path d="M33.8723,51.5L33.8723,51.207L33.7454,51.3549L33.5977,51.4606L33.429,51.5239
L33.2394,51.5451L33.1526,51.5408L33.0688,51.5282L32.9879,51.507L32.9099,51.4775L32.8383,51.4415
L32.7765,51.4012L32.7246,51.3565L32.6826,51.3075L32.6483,51.2535L32.6195,51.1937L32.5962,51.1281
L32.5784,51.0568L32.5694,50.9998L32.5629,50.9282L32.559,50.842L32.5577,50.7413L32.5577,49.5056
L32.8958,49.5056L32.8958,50.6117L32.8971,50.7333L32.9009,50.8333L32.9074,50.9117L32.9164,50.9685
L32.9369,51.0316L32.9662,51.0876L33.0045,51.1363L33.0516,51.1779L33.1063,51.2112L33.1671,51.235
L33.234,51.2492L33.307,51.254L33.3819,51.2491L33.4545,51.2345L33.5246,51.2102L33.5925,51.1761
L33.6543,51.1336L33.7063,51.084L33.7487,51.0275L33.7812,50.9638L33.8055,50.8891L33.8228,50.7993
L33.8332,50.6943L33.8366,50.5742L33.8366,49.5056L34.1746,49.5056L34.1746,51.5L33.8723,51.5" style=" fill:#ffffff; stroke:#ffffff;" />
<path d="M34.7042,51.5L34.7042,49.5056L35.0066,49.5056L35.0066,49.7854L35.0574,49.7158
L35.116,49.6533L35.1823,49.5979L35.2563,49.5498L35.337,49.5107L35.423,49.4829L35.5144,49.4661
L35.6113,49.4606L35.7171,49.4663L35.8129,49.4836L35.8988,49.5123L35.9746,49.5526L36.0403,49.6032
L36.0955,49.6629L36.1403,49.7318L36.1746,49.8099L36.3019,49.657L36.4469,49.5479L36.6099,49.4824
L36.7906,49.4606L36.9304,49.4708L37.0531,49.5016L37.1586,49.553L37.2469,49.6249L37.3168,49.7181
L37.3667,49.8336L37.3966,49.9712L37.4066,50.131L37.4066,51.5L37.0704,51.5L37.0704,50.2437
L37.0684,50.1494L37.0622,50.0692L37.0519,50.0033L37.0376,49.9516L37.0178,49.9092L36.9913,49.8711
L36.9582,49.8374L36.9183,49.808L36.8732,49.7842L36.8244,49.7671L36.7718,49.7569L36.7155,49.7535
L36.6148,49.7623L36.523,49.7885L36.4401,49.8322L36.3662,49.8934L36.3054,49.9739L36.262,50.0754
L36.2359,50.1978L36.2272,50.3413L36.2272,51.5L35.8892,51.5L35.8892,50.2042L35.884,50.0986
L35.8685,50.007L35.8427,49.9296L35.8066,49.8662L35.7587,49.8169L35.6977,49.7817L35.6235,49.7606
L35.5362,49.7535L35.4661,49.7582L35.3988,49.7723L35.3342,49.7958L35.2723,49.8286L35.2159,49.8705
L35.1678,49.9211L35.1281,49.9804L35.0967,50.0484L35.0729,50.1286L35.0559,50.2249L35.0457,50.3371
L35.0423,50.4653L35.0423,51.5L34.7042,51.5" style=" fill:#ffffff; stroke:#ffffff;" />
<radialGradient id="grd155" spreadMethod="pad" gradientUnits="objectBoundingBox" cx="0.31" cy="0.59" r="0.5" fx="0.31" fy="0.59">
<stop offset="0" style="stop-color:#000000"/>
<stop offset="1" style="stop-color:#000000"/>
</radialGradient>
<path d="M9.18521,42.502L9.58521,43.1948L11.7506,41.9446L11.3506,41.2518L9.18521,42.502
M7.0415,37.3266L6.83444,36.5539L9.24962,35.9067L9.45667,36.6794L7.0415,37.3266M4.61082,29.85
L8.61279,29.85L8.61279,31.35L4.61082,31.35L4.61082,29.85M6.83444,24.6461L7.0415,23.8734
L9.45667,24.5206L9.24962,25.2933L6.83444,24.6461M9.18521,18.698L9.58521,18.0052L11.7506,19.2554
L11.3506,19.9482L9.18521,18.698M12.9954,13.561L13.561,12.9954L15.3291,14.7634L14.7634,15.3291
L12.9954,13.561M18.2549,7.71771L20.2559,11.1835L18.9569,11.9335L16.9559,8.46771L18.2549,7.71771
M23.8734,7.0415L24.6461,6.83444L25.2933,9.24962L24.5206,9.45667L23.8734,7.0415M30.2,6.10327
L31,6.10327L31,8.60364L30.2,8.60364L30.2,6.10327M36.5539,6.83444L37.3266,7.0415L36.6794,9.45667
L35.9067,9.24962L36.5539,6.83444M44.2441,8.46771L42.2431,11.9335L40.9441,11.1835L42.9451,7.71771
L44.2441,8.46771M47.639,12.9954L48.2046,13.561L46.4366,15.3291L45.8709,14.7634L47.639,12.9954
M51.6148,18.0052L52.0148,18.698L49.8494,19.9482L49.4494,19.2554L51.6148,18.0052M54.1585,23.8734
L54.3656,24.6461L51.9504,25.2933L51.7433,24.5206L54.1585,23.8734M56.5892,31.35L52.5872,31.35
L52.5872,29.85L56.5892,29.85L56.5892,31.35M54.3656,36.5539L54.1585,37.3266L51.7433,36.6794
L51.9504,35.9067L54.3656,36.5539M52.0148,42.502L51.6148,43.1948L49.4494,41.9446L49.8494,41.2518
L52.0148,42.502M48.2046,47.639L47.639,48.2046L45.8709,46.4366L46.4366,45.8709L48.2046,47.639
M42.9451,53.4823L40.9441,50.0165L42.2431,49.2665L44.2441,52.7323L42.9451,53.4823M16.9559,52.7323
L18.9569,49.2665L20.2559,50.0165L18.2549,53.4823L16.9559,52.7323M13.561,48.2046L12.9954,47.639
L14.7634,45.8709L15.3291,46.4366L13.561,48.2046" style="fill:url(#grd155); stroke:none;" />
<path d="M20.6198,46.3525L20.6261,46.1202L20.645,45.9119L20.6764,45.7273L20.7203,45.5666
L20.7767,45.4262L20.8452,45.3029L20.9259,45.1967L21.0189,45.1074L21.1244,45.0367L21.2426,44.9863
L21.3737,44.956L21.5175,44.9459L21.6249,44.9515L21.7255,44.9682L21.8193,44.9961L21.9062,45.0351
L21.9862,45.0846L22.0588,45.144L22.1242,45.2133L22.1823,45.2924L22.2338,45.381L22.2795,45.4788
L22.3193,45.5857L22.3532,45.7018L22.3803,45.8329L22.3997,45.9851L22.4113,46.1583L22.4152,46.3525
L22.4089,46.583L22.3903,46.7903L22.3592,46.9741L22.3156,47.1346L22.2597,47.275L22.1914,47.3985
L22.1109,47.505L22.018,47.5947L21.9124,47.6658L21.7938,47.7166L21.6622,47.747L21.5175,47.7572
L21.3291,47.7393L21.1621,47.6858L21.0164,47.5966L20.8921,47.4717L20.773,47.2729L20.6879,47.0201
L20.6369,46.7133L20.6198,46.3525M20.9673,46.3525L20.9772,46.6631L21.0069,46.917L21.0565,47.1143
L21.1259,47.2548L21.2099,47.353L21.3032,47.4231L21.4057,47.4652L21.5175,47.4792L21.6293,47.4651
L21.7318,47.4229L21.8251,47.3525L21.909,47.2539L21.9785,47.113L22.0281,46.9158L22.0578,46.6623
L22.0677,46.3525L22.0578,46.0411L22.0281,45.7867L21.9785,45.5894L21.909,45.4492L21.8248,45.3514
L21.7309,45.2816L21.6272,45.2397L21.5137,45.2257L21.4032,45.238L21.3044,45.275L21.2173,45.3366
L21.1419,45.4229L21.0655,45.5754L21.0109,45.7811L20.9782,46.0401L20.9673,46.3525" style=" fill:#ffffff; stroke:#ffffff;" />
<path d="M10.0864,30.6423L10.0927,30.41L10.1115,30.2016L10.1429,30.0171L10.1869,29.8563
L10.2432,29.716L10.3117,29.5927L10.3925,29.4864L10.4854,29.3972L10.5909,29.3265L10.7092,29.2761
L10.8402,29.2458L10.984,29.2357L11.0914,29.2413L11.192,29.258L11.2858,29.2859L11.3728,29.3249
L11.4527,29.3744L11.5254,29.4338L11.5907,29.5031L11.6488,29.5822L11.7004,29.6708L11.746,29.7685
L11.7858,29.8755L11.8197,29.9915L11.8468,30.1227L11.8662,30.2749L11.8778,30.4481L11.8817,30.6423
L11.8755,30.8728L11.8568,31.08L11.8257,31.2639L11.7822,31.4244L11.7262,31.5648L11.658,31.6883
L11.5774,31.7948L11.4845,31.8845L11.3789,31.9556L11.2603,32.0063L11.1287,32.0368L10.984,32.0469
L10.7957,32.0291L10.6286,31.9756L10.483,31.8864L10.3587,31.7615L10.2396,31.5627L10.1545,31.3099
L10.1034,31.0031L10.0864,30.6423M10.4338,30.6423L10.4437,30.9529L10.4735,31.2068L10.5231,31.404
L10.5925,31.5446L10.6765,31.6428L10.7697,31.7129L10.8722,31.755L10.984,31.769L11.0958,31.7549
L11.1984,31.7127L11.2916,31.6423L11.3756,31.5437L11.445,31.4028L11.4946,31.2056L11.5244,30.9521
L11.5343,30.6423L11.5244,30.3309L11.4946,30.0765L11.445,29.8792L11.3756,29.739L11.2914,29.6412
L11.1974,29.5714L11.0937,29.5295L10.9803,29.5155L10.8697,29.5278L10.7709,29.5648L10.6838,29.6264
L10.6085,29.7127L10.532,29.8651L10.4775,30.0709L10.4447,30.3299L10.4338,30.6423" style=" fill:#ffffff; stroke:#ffffff;" />
<path d="M12.415,32L12.415,31.615L12.8,31.615L12.8,32L12.415,32" style=" fill:#ffffff; stroke:#ffffff;" />
<path d="M15.0704,31.6751L15.0704,32L13.2507,32L13.2518,31.9396L13.2587,31.8803L13.2715,31.8222
L13.2901,31.7653L13.3301,31.6727L13.3805,31.5808L13.4414,31.4896L13.5127,31.3991L13.5977,31.3054
L13.6998,31.2047L13.8188,31.0969L13.9549,30.9822L14.1612,30.8077L14.331,30.6523L14.4644,30.5161
L14.5615,30.3991L14.6305,30.293L14.6798,30.1899L14.7094,30.0897L14.7192,29.9925L14.7103,29.896
L14.6833,29.8073L14.6384,29.7265L14.5756,29.6535L14.4983,29.5931L14.4101,29.55L14.311,29.5241
L14.2009,29.5155L14.085,29.5246L13.9812,29.5521L13.8897,29.5979L13.8103,29.662L13.7461,29.7423
L13.7,29.8366L13.6719,29.9451L13.662,30.0676L13.3146,30.0319L13.3447,29.8491L13.3995,29.6894
L13.479,29.5529L13.5831,29.4394L13.7095,29.3503L13.8559,29.2866L14.0222,29.2484L14.2085,29.2357
L14.3962,29.2494L14.5634,29.2906L14.7099,29.3593L14.8357,29.4554L14.9367,29.5718L15.0089,29.7014
L15.0522,29.8441L15.0667,30L15.0624,30.0823L15.0498,30.1638L15.0286,30.2447L14.9991,30.3249
L14.9597,30.4058L14.9092,30.4887L14.8475,30.5738L14.7746,30.661L14.6833,30.7575L14.566,30.8704
L14.4227,30.9998L14.2535,31.1455L14.115,31.263L14.0038,31.3599L13.9197,31.4362L13.8629,31.492
L13.8216,31.5376L13.784,31.5833L13.7502,31.6292L13.7202,31.6751L15.0704,31.6751" style=" fill:#ffffff; stroke:#ffffff;" />
<path d="M19.0161,15.1756L19.0224,14.9433L19.0412,14.7349L19.0726,14.5504L19.1166,14.3896
L19.1729,14.2493L19.2414,14.126L19.3222,14.0197L19.4152,13.9305L19.5206,13.8598L19.6389,13.8094
L19.7699,13.7791L19.9137,13.769L20.0211,13.7746L20.1217,13.7913L20.2155,13.8192L20.3025,13.8582
L20.3824,13.9077L20.4551,13.9671L20.5204,14.0364L20.5785,14.1155L20.6301,14.2041L20.6757,14.3018
L20.7155,14.4088L20.7494,14.5248L20.7765,14.656L20.7959,14.8082L20.8075,14.9814L20.8114,15.1756
L20.8052,15.4061L20.7865,15.6133L20.7554,15.7972L20.7119,15.9577L20.6559,16.0981L20.5877,16.2216
L20.5071,16.3281L20.4142,16.4178L20.3086,16.4889L20.19,16.5396L20.0584,16.5701L19.9137,16.5802
L19.7254,16.5624L19.5583,16.5089L19.4127,16.4197L19.2884,16.2948L19.1693,16.096L19.0842,15.8432
L19.0331,15.5364L19.0161,15.1756M19.3635,15.1756L19.3734,15.4862L19.4032,15.7401L19.4528,15.9373
L19.5222,16.0779L19.6062,16.1761L19.6994,16.2462L19.8019,16.2883L19.9137,16.3023L20.0255,16.2882
L20.1281,16.246L20.2213,16.1756L20.3053,16.077L20.3747,15.9361L20.4243,15.7389L20.4541,15.4854
L20.464,15.1756L20.4541,14.8642L20.4243,14.6098L20.3747,14.4125L20.3053,14.2723L20.2211,14.1745
L20.1271,14.1047L20.0234,14.0628L19.91,14.0488L19.7994,14.0611L19.7006,14.0981L19.6135,14.1597
L19.5382,14.246L19.4617,14.3984L19.4072,14.6042L19.3744,14.8632L19.3635,15.1756" style=" fill:#ffffff; stroke:#ffffff;" />
<path d="M21.3447,16.5333L21.3447,16.1483L21.7297,16.1483L21.7297,16.5333L21.3447,16.5333" style=" fill:#ffffff; stroke:#ffffff;" />
<path d="M23.3072,16.5333L23.3072,15.8741L22.1128,15.8741L22.1128,15.5643L23.3691,13.7802
L23.6452,13.7802L23.6452,15.5643L24.017,15.5643L24.017,15.8741L23.6452,15.8741L23.6452,16.5333
L23.3072,16.5333M23.3072,15.5643L23.3072,14.323L22.4452,15.5643L23.3072,15.5643" style=" fill:#ffffff; stroke:#ffffff;" />
<path d="M37.0161,15.1756L37.0224,14.9433L37.0412,14.7349L37.0726,14.5504L37.1166,14.3896
L37.1729,14.2493L37.2414,14.126L37.3222,14.0197L37.4152,13.9305L37.5206,13.8598L37.6389,13.8094
L37.7699,13.7791L37.9137,13.769L38.0211,13.7746L38.1217,13.7913L38.2155,13.8192L38.3025,13.8582
L38.3824,13.9077L38.4551,13.9671L38.5204,14.0364L38.5785,14.1155L38.6301,14.2041L38.6757,14.3018
L38.7155,14.4088L38.7494,14.5248L38.7765,14.656L38.7959,14.8082L38.8075,14.9814L38.8114,15.1756
L38.8052,15.4061L38.7865,15.6133L38.7554,15.7972L38.7119,15.9577L38.6559,16.0981L38.5877,16.2216
L38.5071,16.3281L38.4142,16.4178L38.3086,16.4889L38.19,16.5396L38.0584,16.5701L37.9137,16.5802
L37.7254,16.5624L37.5583,16.5089L37.4127,16.4197L37.2884,16.2948L37.1693,16.096L37.0842,15.8432
L37.0331,15.5364L37.0161,15.1756M37.3635,15.1756L37.3734,15.4862L37.4032,15.7401L37.4528,15.9373
L37.5222,16.0779L37.6062,16.1761L37.6994,16.2462L37.8019,16.2883L37.9137,16.3023L38.0255,16.2882
L38.1281,16.246L38.2213,16.1756L38.3053,16.077L38.3747,15.9361L38.4243,15.7389L38.4541,15.4854
L38.464,15.1756L38.4541,14.8642L38.4243,14.6098L38.3747,14.4125L38.3053,14.2723L38.2211,14.1745
L38.1271,14.1047L38.0234,14.0628L37.91,14.0488L37.7994,14.0611L37.7006,14.0981L37.6135,14.1597
L37.5382,14.246L37.4617,14.3984L37.4072,14.6042L37.3744,14.8632L37.3635,15.1756" style=" fill:#ffffff; stroke:#ffffff;" />
<path d="M39.3447,16.5333L39.3447,16.1483L39.7297,16.1483L39.7297,16.5333L39.3447,16.5333" style=" fill:#ffffff; stroke:#ffffff;" />
<path d="M41.9776,14.4544L41.6414,14.4807L41.6166,14.388L41.587,14.3089L41.5527,14.2434
L41.5137,14.1915L41.4412,14.1283L41.3607,14.0831L41.2722,14.056L41.1757,14.0469L41.0974,14.0525
L41.0241,14.0694L40.9556,14.0976L40.8921,14.1371L40.8166,14.202L40.7494,14.2802L40.6907,14.3719
L40.6405,14.477L40.6,14.6006L40.5705,14.7479L40.5521,14.9189L40.5447,15.1136L40.6092,15.0266
L40.6804,14.9516L40.7585,14.8886L40.8433,14.8375L40.9326,14.7981L41.0241,14.7699L41.1176,14.753
L41.2133,14.7474L41.376,14.7629L41.5262,14.8096L41.6638,14.8873L41.7889,14.9962L41.8928,15.1297
L41.967,15.2814L42.0116,15.4513L42.0264,15.6394L42.0194,15.7667L41.9985,15.8894L41.9636,16.0075
L41.9147,16.1211L41.8536,16.2258L41.7821,16.3176L41.7001,16.3963L41.6076,16.4619L41.5067,16.5137
L41.3992,16.5507L41.2851,16.5729L41.1644,16.5802L40.9629,16.5608L40.7809,16.5025L40.6183,16.4054
L40.4752,16.2694L40.3586,16.0889L40.2752,15.8579L40.2252,15.5767L40.2086,15.245L40.227,14.8732
L40.2823,14.5558L40.3744,14.2929L40.5034,14.0845L40.6432,13.9464L40.8053,13.8479L40.9897,13.7887
L41.1964,13.769L41.3515,13.7804L41.4919,13.8145L41.6177,13.8714L41.7288,13.9511L41.8221,14.0509
L41.8947,14.168L41.9465,14.3025L41.9776,14.4544M40.5973,15.6413L40.6019,15.7277L40.6159,15.8122
L40.639,15.8948L40.6715,15.9756L40.7123,16.0506L40.7605,16.1162L40.816,16.1722L40.879,16.2187
L40.9465,16.2553L41.0156,16.2814L41.0864,16.2971L41.1588,16.3023L41.2621,16.2915L41.3579,16.2591
L41.4461,16.2051L41.5269,16.1295L41.5943,16.0354L41.6424,15.9258L41.6713,15.8007L41.6809,15.6601
L41.6714,15.5249L41.6428,15.4049L41.5953,15.3L41.5288,15.2103L41.4478,15.1384L41.3569,15.0871
L41.2562,15.0562L41.1457,15.046L41.0355,15.0562L40.9339,15.0871L40.8411,15.1384L40.7569,15.2103
L40.6871,15.2989L40.6372,15.4002L40.6073,15.5143L40.5973,15.6413" style=" fill:#ffffff; stroke:#ffffff;" />
<path d="M46.0161,30.764L46.0224,30.5318L46.0412,30.3234L46.0726,30.1388L46.1166,29.9781
L46.1729,29.8378L46.2414,29.7145L46.3222,29.6082L46.4152,29.5189L46.5206,29.4483L46.6389,29.3978
L46.7699,29.3675L46.9137,29.3574L47.0211,29.363L47.1217,29.3797L47.2155,29.4076L47.3025,29.4466
L47.3824,29.4962L47.4551,29.5556L47.5204,29.6248L47.5785,29.7039L47.6301,29.7925L47.6757,29.8903
L47.7155,29.9972L47.7494,30.1133L47.7765,30.2445L47.7959,30.3966L47.8075,30.5698L47.8114,30.764
L47.8052,30.9946L47.7865,31.2018L47.7554,31.3857L47.7119,31.5462L47.6559,31.6865L47.5877,31.81
L47.5071,31.9166L47.4142,32.0063L47.3086,32.0773L47.19,32.1281L47.0584,32.1586L46.9137,32.1687
L46.7254,32.1509L46.5583,32.0973L46.4127,32.0081L46.2884,31.8833L46.1693,31.6844L46.0842,31.4316
L46.0331,31.1248L46.0161,30.764M46.3635,30.764L46.3734,31.0746L46.4032,31.3286L46.4528,31.5258
L46.5222,31.6664L46.6062,31.7645L46.6994,31.8347L46.8019,31.8767L46.9137,31.8908L47.0255,31.8767
L47.1281,31.8344L47.2213,31.764L47.3053,31.6654L47.3747,31.5246L47.4243,31.3274L47.4541,31.0739
L47.464,30.764L47.4541,30.4526L47.4243,30.1983L47.3747,30.001L47.3053,29.8607L47.2211,29.763
L47.1271,29.6931L47.0234,29.6512L46.91,29.6372L46.7994,29.6496L46.7006,29.6865L46.6135,29.7482
L46.5382,29.8344L46.4617,29.9869L46.4072,30.1926L46.3744,30.4517L46.3635,30.764" style=" fill:#ffffff; stroke:#ffffff;" />
<path d="M48.3447,32.1218L48.3447,31.7368L48.7297,31.7368L48.7297,32.1218L48.3447,32.1218" style=" fill:#ffffff; stroke:#ffffff;" />
<path d="M49.7438,30.6288L49.6454,30.5862L49.5607,30.5354L49.4896,30.4763L49.4321,30.4091
L49.3877,30.3342L49.356,30.2523L49.337,30.1633L49.3306,30.0673L49.3441,29.923L49.3846,29.7908
L49.4521,29.6705L49.5466,29.5621L49.6635,29.4726L49.7982,29.4086L49.9508,29.3702L50.1213,29.3574
L50.2927,29.3705L50.4466,29.4098L50.5829,29.4752L50.7015,29.5668L50.7977,29.6772L50.8663,29.799
L50.9075,29.9321L50.9213,30.0767L50.915,30.1693L50.8961,30.2558L50.8647,30.336L50.8208,30.41
L50.764,30.4769L50.6943,30.5356L50.6115,30.5863L50.5156,30.6288L50.6348,30.6765L50.7389,30.7368
L50.8278,30.8098L50.9015,30.8955L50.9595,30.9919L51.0008,31.0973L51.0257,31.2117L51.0339,31.3349
L51.0183,31.5044L50.9715,31.6598L50.8934,31.8011L50.7842,31.9283L50.6494,32.0335L50.495,32.1086
L50.3208,32.1537L50.1269,32.1687L49.933,32.1536L49.7588,32.1084L49.6044,32.033L49.4696,31.9274
L49.3603,31.7993L49.2823,31.6563L49.2355,31.4983L49.2198,31.3255L49.2284,31.1967L49.2539,31.0788
L49.2964,30.9718L49.356,30.8757L49.4313,30.7924L49.521,30.7234L49.6252,30.6689L49.7438,30.6288
M49.6762,30.056L49.684,30.1492L49.7076,30.2335L49.747,30.3088L49.802,30.3753L49.8696,30.4295
L49.9466,30.4682L50.033,30.4915L50.1288,30.4992L50.222,30.4915L50.3065,30.4685L50.3821,30.43
L50.449,30.3762L50.5036,30.3113L50.5426,30.2394L50.566,30.1605L50.5738,30.0748L50.5658,29.9855
L50.5417,29.9037L50.5015,29.8292L50.4452,29.7621L50.3769,29.7067L50.3008,29.6671L50.2169,29.6433
L50.125,29.6354L50.0324,29.6431L49.948,29.6664L49.8718,29.7051L49.8039,29.7593L49.748,29.8243
L49.7081,29.8955L49.6842,29.9727L49.6762,30.056M49.5673,31.3274L49.5715,31.3991L49.5844,31.4696
L49.6058,31.539L49.6358,31.6072L49.6742,31.671L49.721,31.7272L49.7761,31.7757L49.8396,31.8166
L49.9085,31.849L49.9799,31.8722L50.054,31.8861L50.1306,31.8908L50.2465,31.881L50.3518,31.8518
L50.4465,31.8031L50.5306,31.7349L50.5997,31.6517L50.649,31.5579L50.6785,31.4536L50.6884,31.3387
L50.6782,31.2219L50.6478,31.1157L50.597,31.02L50.5259,30.9349L50.4396,30.8651L50.3431,30.8152
L50.2363,30.7853L50.1194,30.7753L50.0052,30.7851L49.9013,30.8147L49.8076,30.864L49.7241,30.933
L49.6555,31.0168L49.6065,31.1105L49.5771,31.214L49.5673,31.3274" style=" fill:#ffffff; stroke:#ffffff;" />
<path d="M38.2893,47.7102L37.9513,47.7102L37.9513,45.5562L37.8855,45.6144L37.8102,45.6727
L37.7254,45.7309L37.6311,45.7891L37.5346,45.8437L37.4431,45.891L37.3566,45.931L37.2752,45.9637
L37.2752,45.637L37.4126,45.5668L37.541,45.4896L37.6605,45.4053L37.771,45.314L37.8694,45.2198
L37.9522,45.1271L38.0196,45.0358L38.0715,44.9459L38.2893,44.9459L38.2893,47.7102" style=" fill:#ffffff; stroke:#ffffff;" />
<path d="M39.3447,47.7102L39.3447,47.3252L39.7297,47.3252L39.7297,47.7102L39.3447,47.7102" style=" fill:#ffffff; stroke:#ffffff;" />
<path d="M40.2236,46.3525L40.2299,46.1202L40.2487,45.9119L40.2801,45.7273L40.3241,45.5666
L40.3804,45.4262L40.449,45.3029L40.5297,45.1967L40.6227,45.1074L40.7281,45.0367L40.8464,44.9863
L40.9774,44.956L41.1213,44.9459L41.2286,44.9515L41.3292,44.9682L41.423,44.9961L41.51,45.0351
L41.5899,45.0846L41.6626,45.144L41.7279,45.2133L41.786,45.2924L41.8376,45.381L41.8832,45.4788
L41.923,45.5857L41.9569,45.7018L41.984,45.8329L42.0034,45.9851L42.015,46.1583L42.0189,46.3525
L42.0127,46.583L41.994,46.7903L41.9629,46.9741L41.9194,47.1346L41.8634,47.275L41.7952,47.3985
L41.7146,47.505L41.6217,47.5947L41.5161,47.6658L41.3975,47.7166L41.2659,47.747L41.1213,47.7572
L40.9329,47.7393L40.7659,47.6858L40.6202,47.5966L40.4959,47.4717L40.3768,47.2729L40.2917,47.0201
L40.2406,46.7133L40.2236,46.3525M40.571,46.3525L40.5809,46.6631L40.6107,46.917L40.6603,47.1143
L40.7297,47.2548L40.8137,47.353L40.9069,47.4231L41.0095,47.4652L41.1213,47.4792L41.233,47.4651
L41.3356,47.4229L41.4288,47.3525L41.5128,47.2539L41.5822,47.113L41.6318,46.9158L41.6616,46.6623
L41.6715,46.3525L41.6616,46.0411L41.6318,45.7867L41.5822,45.5894L41.5128,45.4492L41.4286,45.3514
L41.3346,45.2816L41.2309,45.2397L41.1175,45.2257L41.0069,45.238L40.9081,45.275L40.821,45.3366
L40.7457,45.4229L40.6693,45.5754L40.6147,45.7811L40.5819,46.0401L40.571,46.3525" style=" fill:#ffffff; stroke:#ffffff;" />
<path d="M24.7702,41.15L24.7702,38.397L26.7608,38.397L26.7608,38.7218L25.1345,38.7218
L25.1345,39.565L26.6575,39.565L26.6575,39.888L25.1345,39.888L25.1345,40.8251L26.8246,40.8251
L26.8246,41.15L24.7702,41.15" style=" fill:#ffffff; stroke:#ffffff;" />
<path d="M27.0594,41.15L27.788,40.1134L27.1138,39.1556L27.5364,39.1556L27.8425,39.6233
L27.8836,39.6872L27.9204,39.7458L27.953,39.799L27.9814,39.8467L28.0219,39.7865L28.0608,39.7298
L28.098,39.6767L28.1336,39.627L28.4697,39.1556L28.8735,39.1556L28.1843,40.0946L28.926,41.15
L28.511,41.15L28.1016,40.5303L27.9927,40.3632L27.4688,41.15L27.0594,41.15" style=" fill:#ffffff; stroke:#ffffff;" />
<path d="M29.9458,40.8477L29.9946,41.1463L29.9251,41.1594L29.8594,41.1688L29.7974,41.1744
L29.7392,41.1763L29.6523,41.1727L29.5758,41.1617L29.5096,41.1436L29.4537,41.1181L29.4068,41.0867
L29.3674,41.0507L29.3354,41.0102L29.311,40.965L29.2929,40.9045L29.28,40.8179L29.2723,40.705
L29.2697,40.566L29.2697,39.4186L29.0218,39.4186L29.0218,39.1556L29.2697,39.1556L29.2697,38.6617
L29.6059,38.4589L29.6059,39.1556L29.9458,39.1556L29.9458,39.4186L29.6059,39.4186L29.6059,40.5848
L29.607,40.6506L29.6103,40.7035L29.6159,40.7436L29.6237,40.7707L29.634,40.7903L29.6472,40.8078
L29.6631,40.8231L29.6819,40.8364L29.7043,40.8471L29.731,40.8547L29.762,40.8593L29.7974,40.8608
L29.8278,40.86L29.8627,40.8575L29.902,40.8534L29.9458,40.8477" style=" fill:#ffffff; stroke:#ffffff;" />
<path d="M30.2725,41.15L30.2725,39.1556L30.5767,39.1556L30.5767,39.458L30.6338,39.3609
L30.6887,39.2819L30.7414,39.221L30.7918,39.1782L30.8423,39.1486L30.8953,39.1275L30.9508,39.1148
L31.0087,39.1106L31.0945,39.1174L31.181,39.1378L31.2682,39.1718L31.3561,39.2195L31.2397,39.5331
L31.1777,39.5011L31.1157,39.4782L31.0537,39.4644L30.9918,39.4599L30.9378,39.464L30.8866,39.4765
L30.8383,39.4974L30.7927,39.5265L30.7517,39.5631L30.7171,39.6061L30.6888,39.6556L30.6669,39.7115
L30.6422,39.8038L30.6246,39.9002L30.6141,40.001L30.6106,40.1059L30.6106,41.15L30.2725,41.15" style=" fill:#ffffff; stroke:#ffffff;" />
<path d="M32.8584,40.904L32.7654,40.9779L32.6742,41.0402L32.5847,41.0906L32.4969,41.1294
L32.4085,41.1581L32.3169,41.1787L32.2221,41.191L32.1242,41.1951L31.9694,41.185L31.8336,41.1549
L31.7168,41.1048L31.619,41.0345L31.5418,40.9487L31.4866,40.8517L31.4535,40.7435L31.4425,40.6242
L31.4466,40.5525L31.4591,40.484L31.48,40.4187L31.5091,40.3566L31.5451,40.299L31.5861,40.2474
L31.6324,40.2018L31.6838,40.1622L31.7395,40.1278L31.7986,40.0979L31.8611,40.0724L31.927,40.0514
L31.9831,40.0384L32.0519,40.0256L32.1333,40.013L32.2275,40.0007L32.4186,39.9751L32.5829,39.9472
L32.7201,39.9169L32.8303,39.8843L32.8311,39.8527L32.8317,39.8275L32.832,39.8086L32.8321,39.796
L32.8262,39.7004L32.8082,39.62L32.7783,39.5548L32.7364,39.5049L32.6637,39.4548L32.5753,39.419
L32.4712,39.3975L32.3514,39.3904L32.24,39.3956L32.1441,39.4113L32.0639,39.4374L31.9993,39.474
L31.9462,39.5238L31.9005,39.5897L31.8621,39.6717L31.8312,39.7697L31.5007,39.7247L31.5269,39.6237
L31.5603,39.5329L31.601,39.4523L31.649,39.3819L31.7064,39.3204L31.7753,39.2664L31.8557,39.22
L31.9476,39.181L32.0492,39.1502L32.1584,39.1282L32.2755,39.115L32.4002,39.1106L32.5219,39.1143
L32.6317,39.1256L32.7294,39.1444L32.8152,39.1707L32.8898,39.2027L32.9537,39.2385L33.0071,39.2782
L33.05,39.3218L33.0847,39.3704L33.1138,39.4249L33.1373,39.4854L33.1552,39.5519L33.1625,39.6038
L33.1678,39.673L33.171,39.7596L33.1721,39.8636L33.1721,40.3143L33.1734,40.5284L33.1775,40.6991
L33.1842,40.8265L33.1936,40.9106L33.2071,40.9724L33.2258,41.0329L33.2498,41.0921L33.2791,41.15
L32.926,41.15L32.9021,41.0952L32.8829,41.0359L32.8683,40.9722L32.8584,40.904M32.8303,40.1491
L32.7267,40.1852L32.6002,40.2186L32.4507,40.2491L32.2782,40.2768L32.1816,40.2923L32.1002,40.3087
L32.0341,40.3261L31.9833,40.3444L31.9426,40.3653L31.9068,40.3906L31.8759,40.4203L31.85,40.4542
L31.8294,40.4914L31.8148,40.5305L31.806,40.5717L31.803,40.6148L31.8094,40.6796L31.8286,40.7387
L31.8606,40.7923L31.9054,40.8402L31.9625,40.8796L32.0314,40.9078L32.1123,40.9247L32.2049,40.9303
L32.2999,40.925L32.3894,40.9089L32.4736,40.8822L32.5523,40.8448L32.6233,40.7982L32.6843,40.7437
L32.7351,40.6813L32.7758,40.611L32.7996,40.547L32.8167,40.4693L32.8269,40.3779L32.8303,40.273
L32.8303,40.1491" style=" fill:#ffffff; stroke:#ffffff;" />
<path d="M34.9974,40.4195L35.3298,40.4627L35.2919,40.6252L35.2329,40.769L35.1525,40.8942
L35.0509,41.0007L34.9323,41.0858L34.8009,41.1465L34.6567,41.1829L34.4998,41.1951L34.3051,41.1784
L34.1305,41.1282L33.976,41.0446L33.8415,40.9275L33.7327,40.7792L33.6549,40.6019L33.6083,40.3956
L33.5927,40.1603L33.5994,40.0039L33.6195,39.8575L33.6529,39.7213L33.6998,39.5951L33.7603,39.4815
L33.8347,39.3831L33.9232,39.2998L34.0256,39.2317L34.1374,39.1787L34.254,39.1409L34.3754,39.1181
L34.5016,39.1106L34.6567,39.1208L34.7969,39.1517L34.9224,39.203L35.0331,39.2749L35.1271,39.3657
L35.2026,39.4737L35.2595,39.599L35.2979,39.7416L34.9692,39.7923L34.9412,39.698L34.9042,39.6162
L34.8581,39.5468L34.803,39.4899L34.7403,39.4456L34.6713,39.4139L34.5962,39.3948L34.5148,39.3885
L34.3931,39.4L34.2833,39.4343L34.1856,39.4915L34.0998,39.5716L34.0299,39.6765L33.98,39.808
L33.9501,39.9662L33.9401,40.151L33.9498,40.3382L33.9786,40.4979L34.0267,40.6302L34.0941,40.735
L34.177,40.8147L34.2716,40.8716L34.3779,40.9058L34.496,40.9171L34.5914,40.9095L34.6786,40.8866
L34.7576,40.8485L34.8284,40.7951L34.889,40.7258L34.9373,40.6402L34.9735,40.538L34.9974,40.4195" style=" fill:#ffffff; stroke:#ffffff;" />
<path d="M36.357,40.8477L36.4059,41.1463L36.3364,41.1594L36.2706,41.1688L36.2087,41.1744
L36.1505,41.1763L36.0636,41.1727L35.9871,41.1617L35.9209,41.1436L35.865,41.1181L35.8181,41.0867
L35.7786,41.0507L35.7467,41.0102L35.7223,40.965L35.7042,40.9045L35.6913,40.8179L35.6836,40.705
L35.681,40.566L35.681,39.4186L35.4331,39.4186L35.4331,39.1556L35.681,39.1556L35.681,38.6617
L36.0171,38.4589L36.0171,39.1556L36.357,39.1556L36.357,39.4186L36.0171,39.4186L36.0171,40.5848
L36.0182,40.6506L36.0216,40.7035L36.0272,40.7436L36.035,40.7707L36.0453,40.7903L36.0584,40.8078
L36.0744,40.8231L36.0932,40.8364L36.1155,40.8471L36.1422,40.8547L36.1733,40.8593L36.2087,40.8608
L36.2391,40.86L36.2739,40.8575L36.3133,40.8534L36.357,40.8477" style=" fill:#ffffff; stroke:#ffffff;" />
<path d="M26.4094,35L26.4094,32.2469L27.3577,32.2469L27.5088,32.2494L27.6408,32.2568
L27.7539,32.2691L27.8479,32.2864L27.9619,32.3191L28.0671,32.3629L28.1637,32.4177L28.2516,32.4836
L28.3537,32.582L28.442,32.6932L28.5166,32.8172L28.5775,32.954L28.6247,33.1023L28.6585,33.2608
L28.6787,33.4295L28.6854,33.6085L28.6809,33.7608L28.6671,33.9042L28.6442,34.0387L28.6122,34.1643
L28.573,34.2802L28.5286,34.3857L28.4791,34.4807L28.4244,34.5653L28.3658,34.6404L28.3045,34.707
L28.2404,34.7653L28.1737,34.815L28.1021,34.8578L28.0235,34.8951L27.9378,34.9268L27.8451,34.9531
L27.7452,34.9736L27.6383,34.9883L27.5241,34.9971L27.4028,35L26.4094,35M26.7737,34.6751
L27.3615,34.6751L27.4903,34.6719L27.6045,34.6624L27.7039,34.6466L27.7887,34.6244L27.8623,34.5965
L27.9279,34.5634L27.9857,34.5251L28.0357,34.4817L28.0969,34.4113L28.1509,34.3298L28.1978,34.2371
L28.2376,34.1333L28.2692,34.0181L28.2918,33.8913L28.3053,33.7529L28.3099,33.6028L28.301,33.3994
L28.2744,33.2209L28.2301,33.0674L28.1681,32.939L28.0934,32.8326L28.011,32.7453L27.9211,32.6772
L27.8235,32.6282L27.7391,32.6035L27.6324,32.5859L27.5034,32.5754L27.3521,32.5718L26.7737,32.5718
L26.7737,34.6751" style=" fill:#ffffff; stroke:#ffffff;" />
<path d="M29.1399,35L29.1399,33.0056L29.4441,33.0056L29.4441,33.308L29.5012,33.2109
L29.5561,33.1319L29.6087,33.071L29.6592,33.0282L29.7097,32.9986L29.7627,32.9775L29.8181,32.9648
L29.8761,32.9606L29.9619,32.9674L30.0484,32.9878L30.1356,33.0218L30.2235,33.0695L30.107,33.3831
L30.0451,33.3511L29.9831,33.3282L29.9211,33.3144L29.8592,33.3099L29.8052,33.314L29.754,33.3265
L29.7056,33.3474L29.6601,33.3765L29.6191,33.4131L29.5845,33.4561L29.5562,33.5056L29.5343,33.5615
L29.5096,33.6538L29.492,33.7502L29.4815,33.8509L29.4779,33.9559L29.4779,35L29.1399,35" style=" fill:#ffffff; stroke:#ffffff;" />
<path d="M30.4263,32.6357L30.4263,32.2469L30.7643,32.2469L30.7643,32.6357L30.4263,32.6357
M30.4263,35L30.4263,33.0056L30.7643,33.0056L30.7643,35L30.4263,35" style=" fill:#ffffff; stroke:#ffffff;" />
<path d="M31.8329,35L31.0742,33.0056L31.431,33.0056L31.8592,34.2L31.8932,34.2977L31.9258,34.3972
L31.957,34.4986L31.9869,34.6019L32.0116,34.519L32.0408,34.4282L32.0745,34.3293L32.1127,34.2225
L32.5559,33.0056L32.9033,33.0056L32.1484,35L31.8329,35" style=" fill:#ffffff; stroke:#ffffff;" />
<path d="M34.5671,34.3577L34.9164,34.4009L34.8663,34.5454L34.7986,34.6728L34.7133,34.783
L34.6103,34.8761L34.4908,34.95L34.3559,35.0028L34.2054,35.0345L34.0394,35.0451L33.832,35.0282
L33.6472,34.9777L33.485,34.8935L33.3455,34.7756L33.2334,34.6273L33.1533,34.4519L33.1052,34.2494
L33.0892,34.0197L33.1054,33.7822L33.154,33.5728L33.235,33.3915L33.3484,33.2385L33.4876,33.1169
L33.646,33.03L33.8237,32.9779L34.0207,32.9606L34.2115,32.9776L34.384,33.0286L34.5383,33.1137
L34.6742,33.2329L34.7851,33.3829L34.8643,33.5606L34.9119,33.766L34.9277,33.9991L34.9276,34.016
L34.9272,34.0366L34.9266,34.061L34.9258,34.0892L33.4385,34.0892L33.4572,34.2439L33.4944,34.3793
L33.5501,34.4955L33.6244,34.5925L33.7131,34.6689L33.8122,34.7235L33.9216,34.7562L34.0413,34.7671
L34.1309,34.761L34.2136,34.7427L34.2896,34.7122L34.3587,34.6695L34.421,34.6134L34.4765,34.5427
L34.5252,34.4575L34.5671,34.3577M33.4573,33.8113L34.5709,33.8113L34.5545,33.6933L34.5277,33.5911
L34.4906,33.5046L34.4432,33.4338L34.3565,33.3484L34.2577,33.2873L34.1471,33.2507L34.0244,33.2385
L33.9126,33.2482L33.8101,33.2775L33.7168,33.3262L33.6329,33.3944L33.5624,33.4789L33.5096,33.5765
L33.4746,33.6873L33.4573,33.8113" style=" fill:#ffffff; stroke:#ffffff;" />
<radialGradient id="grd232" spreadMethod="pad" gradientUnits="objectBoundingBox" cx="0.31" cy="0.59" r="0.5" fx="0.31" fy="0.59">
<stop offset="0" style="stop-color:#000000"/>
<stop offset="1" style="stop-color:#000000"/>
</radialGradient>
<path d="M41.4787,31.095L43.9909,31.095A13.4,13.4 0 0,1 43.3143,34.8316 A2,2 0 0,1 41.4167,36.2 
L19.7833,36.2A2,2 0 0,1 17.8857,34.8316 A13.4,13.4 0 0,1 17.2091,31.095 L19.7213,31.095
L19.7213,30.105L17.2091,30.105A13.4,13.4 0 0,1 20.7812,21.4813 L22.5575,23.2576L23.2576,22.5575
L21.4813,20.7812A13.4,13.4 0 0,1 30.105,17.2091 L30.105,19.7213L31.095,19.7213L31.095,17.2091
A13.4,13.4 0 0,1 39.7187,20.7812 L37.9424,22.5575L38.6425,23.2576L40.4188,21.4813
A13.4,13.4 0 0,1 43.9909,30.105 L41.4787,30.105L41.4787,31.095M44.0734,35.0842A14.2,14.2 0 1,0 17.1266,35.0842 
A2.8,2.8 0 0,0 19.7833,37 L41.4167,37A2.8,2.8 0 0,0 44.0734,35.0842 M33.3022,42.4898
L27.8978,42.4898L30.6,45.192L33.3022,42.4898" style="fill:url(#grd232); stroke:none;" />
<path d="M22.8,31.315L20.8335,31.315L20.8335,30.5772L20.8373,30.4701L20.8485,30.3741
L20.8671,30.2893L20.8932,30.2157L20.9271,30.1513L20.969,30.0943L21.019,30.0447L21.077,30.0024
L21.1397,29.9687L21.2039,29.9446L21.2695,29.9301L21.3366,29.9253L21.3987,29.9296L21.459,29.9424
L21.5174,29.9638L21.574,29.9937L21.627,30.0323L21.6746,30.0795L21.7168,30.1355L21.7537,30.2003
L21.7845,30.1162L21.8245,30.0425L21.8737,29.9791L21.9321,29.926L21.998,29.884L22.0696,29.854
L22.1469,29.836L22.2299,29.83L22.2978,29.8337L22.3632,29.8446L22.4262,29.8629L22.4868,29.8884
L22.5427,29.9193L22.5919,29.9536L22.6343,29.9914L22.6699,30.0326L22.7001,30.0782L22.7264,30.1293
L22.7487,30.1859L22.7671,30.2479L22.7815,30.3163L22.7918,30.3919L22.7979,30.4749L22.8,30.5651
L22.8,31.315M21.6598,31.0547L21.6598,30.6295L21.6584,30.5491L21.6541,30.481L21.647,30.425
L21.637,30.3814L21.6198,30.3348L21.5978,30.2943L21.5709,30.26L21.5391,30.2318L21.5027,30.2098
L21.462,30.1941L21.4169,30.1846L21.3674,30.1815L21.3199,30.1844L21.2754,30.1932L21.2337,30.2079
L21.195,30.2284L21.1607,30.2544L21.1323,30.2854L21.1098,30.3215L21.0931,30.3626L21.0811,30.414
L21.0725,30.481L21.0673,30.5635L21.0656,30.6617L21.0656,31.0547L21.6598,31.0547M22.5679,31.0547
L22.5679,30.5651L22.5674,30.5068L22.5656,30.4578L22.5627,30.4182L22.5586,30.3881L22.5492,30.345
L22.5371,30.3056L22.5223,30.2699L22.5049,30.2378L22.484,30.209L22.4588,30.1828L22.4293,30.1594
L22.3956,30.1386L22.3583,30.1215L22.3183,30.1094L22.2755,30.1021L22.2299,30.0997L22.1767,30.1032
L22.1271,30.1137L22.0811,30.1314L22.0388,30.156L22.0012,30.1869L21.9697,30.2232L21.9442,30.265
L21.9247,30.3123L21.9104,30.3677L21.9001,30.4342L21.8939,30.5116L21.8919,30.6L21.8919,31.0547
L22.5679,31.0547" style=" fill:#ffffff; stroke:#ffffff;" />
<path d="M24.5616,25.8679L24.0952,23.1041L24.259,22.9402L24.7254,25.7041L24.5616,25.8679
M23.8448,24.9362L23.2668,24.3582L23.2514,24.4517L23.2269,24.5415L23.1935,24.6275L23.151,24.7098
L23.0227,24.5814L23.0433,24.5356L23.0615,24.4836L23.0773,24.4255L23.0905,24.3613L23.1001,24.2954
L23.1048,24.2322L23.1048,24.1717L23.0999,24.114L23.2126,24.0013L23.9961,24.7849L23.8448,24.9362
M25.3911,24.9842L25.3673,24.9494L25.348,24.9098L25.3334,24.8654L25.3233,24.8162L25.3145,24.732
L25.3141,24.6349L25.3223,24.5249L25.3389,24.402L25.3569,24.285L25.3692,24.1928L25.3757,24.1254
L25.3765,24.0827L25.3718,24.0443L25.3621,24.0105L25.3473,23.9812L25.3274,23.9565L25.3013,23.9348
L25.2729,23.92L25.2423,23.9119L25.2095,23.9106L25.1754,23.9169L25.1407,23.9317L25.1055,23.955
L25.0697,23.9867L25.039,24.0205L25.0157,24.053L24.9999,24.0841L24.9915,24.114L24.9903,24.1452
L24.9962,24.1805L25.0091,24.2198L25.029,24.2632L24.8558,24.4051L24.8192,24.3326L24.796,24.2623
L24.7861,24.1941L24.7896,24.1281L24.8072,24.0626L24.8395,23.996L24.8867,23.9283L24.9487,23.8594
L25.0261,23.7898L25.1006,23.7383L25.1724,23.705L25.2414,23.6899L25.306,23.6902L25.3649,23.7031
L25.4179,23.7285L25.4652,23.7666L25.5045,23.8137L25.5351,23.8673L25.5567,23.9274L25.5695,23.994
L25.5717,24.0581L25.5669,24.1448L25.555,24.2542L25.5361,24.3863L25.5256,24.4571L25.5181,24.5181
L25.5136,24.5692L25.5121,24.6106L25.9148,24.2079L26.0411,24.3342L25.3911,24.9842" style=" fill:#ffffff; stroke:#ffffff;" />
<path d="M29.9863,22.8L29.9863,20.8335L31.3129,20.8335L31.3129,21.0656L30.2465,21.0656
L30.2465,21.6746L31.1694,21.6746L31.1694,21.9066L30.2465,21.9066L30.2465,22.8L29.9863,22.8" style=" fill:#ffffff; stroke:#ffffff;" />
<path d="M35.3321,24.5616L38.0959,24.0952L38.2598,24.259L35.4959,24.7254L35.3321,24.5616
M36.2638,23.8448L36.8418,23.2668L36.7483,23.2514L36.6585,23.2269L36.5725,23.1935L36.4902,23.151
L36.6186,23.0227L36.6644,23.0433L36.7164,23.0615L36.7745,23.0773L36.8387,23.0905L36.9046,23.1001
L36.9678,23.1048L37.0283,23.1048L37.086,23.0999L37.1987,23.2126L36.4151,23.9961L36.2638,23.8448
M36.2158,25.3911L36.2506,25.3673L36.2902,25.348L36.3346,25.3334L36.3838,25.3233L36.468,25.3145
L36.5651,25.3141L36.6751,25.3223L36.798,25.3389L36.915,25.3569L37.0072,25.3692L37.0746,25.3757
L37.1173,25.3765L37.1557,25.3718L37.1895,25.3621L37.2188,25.3473L37.2435,25.3274L37.2652,25.3013
L37.28,25.2729L37.2881,25.2423L37.2894,25.2095L37.2831,25.1754L37.2683,25.1407L37.245,25.1055
L37.2133,25.0697L37.1795,25.039L37.147,25.0157L37.1159,24.9999L37.086,24.9915L37.0548,24.9903
L37.0195,24.9962L36.9802,25.0091L36.9368,25.029L36.7949,24.8558L36.8674,24.8192L36.9377,24.796
L37.0059,24.7861L37.0719,24.7896L37.1374,24.8072L37.204,24.8395L37.2717,24.8867L37.3406,24.9487
L37.4102,25.0261L37.4617,25.1006L37.495,25.1724L37.5101,25.2414L37.5098,25.306L37.4969,25.3649
L37.4715,25.4179L37.4334,25.4652L37.3863,25.5045L37.3327,25.5351L37.2726,25.5567L37.206,25.5695
L37.1419,25.5717L37.0552,25.5669L36.9458,25.555L36.8137,25.5361L36.7429,25.5256L36.6819,25.5181
L36.6308,25.5136L36.5894,25.5121L36.9921,25.9148L36.8658,26.0411L36.2158,25.3911" style=" fill:#ffffff; stroke:#ffffff;" />
<path d="M38.4,30.4732L40.1344,30.4732L40.1344,29.8254L40.3665,29.8254L40.3665,31.384
L40.1344,31.384L40.1344,30.7335L38.4,30.7335L38.4,30.4732" style=" fill:#ffffff; stroke:#ffffff;" />
<path d="M27.016,56.2643L27.016,52.7469L27.7615,52.7469L27.7615,53.0268L27.354,53.0268
L27.354,55.9845L27.7615,55.9845L27.7615,56.2643L27.016,56.2643" style=" fill:#ffffff; stroke:#ffffff;" />
<path d="M28.0789,55.5L28.0789,52.7469L28.4169,52.7469L28.4169,54.3169L29.2169,53.5056
L29.6545,53.5056L28.892,54.2455L29.7315,55.5L29.3146,55.5L28.6554,54.4803L28.4169,54.7094
L28.4169,55.5L28.0789,55.5" style=" fill:#ffffff; stroke:#ffffff;" />
<path d="M30.5239,55.5L29.7934,52.7469L30.1671,52.7469L30.5859,54.5516L30.6185,54.6932
L30.6488,54.8343L30.6768,54.9749L30.7023,55.115L30.7495,54.9177L30.7859,54.7671L30.8115,54.6633
L30.8263,54.6061L31.3502,52.7469L31.7897,52.7469L32.184,54.1404L32.2531,54.3957L32.3117,54.6432
L32.3601,54.883L32.3981,55.115L32.4264,54.9797L32.4587,54.8347L32.495,54.6802L32.5352,54.516
L32.9671,52.7469L33.3333,52.7469L32.5784,55.5L32.2272,55.5L31.6469,53.4023L31.6141,53.2836
L31.5887,53.1901L31.5709,53.1221L31.5606,53.0793L31.5393,53.1707L31.5188,53.2549L31.4989,53.3322
L31.4798,53.4023L30.8958,55.5L30.5239,55.5" style=" fill:#ffffff; stroke:#ffffff;" />
<path d="M34.1953,56.2643L33.4498,56.2643L33.4498,55.9845L33.8573,55.9845L33.8573,53.0268
L33.4498,53.0268L33.4498,52.7469L34.1953,52.7469L34.1953,56.2643" style=" fill:#ffffff; stroke:#ffffff;" />
</svg>
