<?xml version="1.0" standalone="no"?>
<!DOCTYPE svg PUBLIC "-//W3C//DTD SVG 20010904//EN"
"http://www.w3.org/TR/2001/REC-SVG-20010904/DTD/svg10.dtd">
<svg version="1.0" xmlns="http://www.w3.org/2000/svg" id="svg" width="100%" height="100%" viewBox="0 0 53.0179 51.5563" style=" fill:none; fill-rule:evenodd; stroke-linecap:round; stroke-linejoin:round; stroke:#ffff00; stroke-width:0.2;">
<desc>PumpPowerControlDial</desc>
<rect x="-17.6726" y="-17.6726" width="88.3632" height="86.9016" color-rendering="optimizeSpeed" style=" fill:#ffffff; stroke:none; fill-opacity:100;" />
<g id="parts0000">
<g id="parts0001">
<g id="parts0002" onclick="view_parts('-0.519784 -0.519784 54.0575 52.5959','parts0002','Echelle Power-Dir')">
<path d="M20.5381,45.9165L19.4714,43.1635L19.8658,43.1635L20.5813,45.1635L20.6227,45.2818
L20.6606,45.3963L20.695,45.5071L20.7259,45.6142L20.7591,45.5015L20.7949,45.3888L20.8333,45.2761
L20.8742,45.1635L21.6179,43.1635L21.9897,43.1635L20.9118,45.9165L20.5381,45.9165" style=" fill:#000000; stroke:#000000;" />
<path d="M23.5747,45.6705L23.4817,45.7445L23.3904,45.8067L23.3009,45.8571L23.2132,45.8959
L23.1248,45.9246L23.0331,45.9452L22.9384,45.9575L22.8404,45.9616L22.6856,45.9516L22.5498,45.9214
L22.433,45.8713L22.3353,45.801L22.258,45.7152L22.2029,45.6182L22.1698,45.51L22.1587,45.3907
L22.1629,45.319L22.1754,45.2506L22.1962,45.1852L22.2254,45.1231L22.2613,45.0655L22.3024,45.0139
L22.3486,44.9683L22.4,44.9287L22.4557,44.8943L22.5148,44.8644L22.5773,44.8389L22.6432,44.8179
L22.6993,44.8049L22.7681,44.7921L22.8496,44.7795L22.9437,44.7672L23.1349,44.7416L23.2991,44.7137
L23.4363,44.6834L23.5465,44.6508L23.5473,44.6192L23.5479,44.594L23.5483,44.5751L23.5484,44.5625
L23.5424,44.4669L23.5245,44.3865L23.4945,44.3213L23.4526,44.2714L23.38,44.2213L23.2916,44.1855
L23.1875,44.1641L23.0676,44.1569L22.9562,44.1621L22.8604,44.1778L22.7801,44.2039L22.7155,44.2405
L22.6624,44.2903L22.6167,44.3562L22.5784,44.4382L22.5475,44.5362L22.2169,44.4912L22.2431,44.3902
L22.2766,44.2994L22.3173,44.2188L22.3653,44.1484L22.4227,44.0869L22.4916,44.033L22.572,43.9865
L22.6639,43.9475L22.7654,43.9167L22.8747,43.8947L22.9917,43.8815L23.1165,43.8771L23.2382,43.8808
L23.3479,43.8921L23.4457,43.9109L23.5315,43.9372L23.606,43.9692L23.67,44.005L23.7234,44.0447
L23.7662,44.0883L23.801,44.1369L23.8301,44.1914L23.8536,44.2519L23.8714,44.3184L23.8788,44.3703
L23.8841,44.4395L23.8873,44.5261L23.8883,44.6301L23.8883,45.0808L23.8897,45.2949L23.8937,45.4656
L23.9005,45.593L23.9099,45.6771L23.9233,45.7389L23.9421,45.7994L23.9661,45.8586L23.9953,45.9165
L23.6423,45.9165L23.6184,45.8617L23.5991,45.8024L23.5846,45.7387L23.5747,45.6705M23.5465,44.9156
L23.443,44.9517L23.3165,44.9851L23.1669,45.0156L22.9944,45.0433L22.8978,45.0588L22.8165,45.0752
L22.7504,45.0926L22.6996,45.1109L22.6588,45.1318L22.623,45.1571L22.5922,45.1868L22.5662,45.2207
L22.5457,45.2579L22.531,45.297L22.5222,45.3382L22.5193,45.3813L22.5257,45.4461L22.5449,45.5053
L22.5769,45.5588L22.6216,45.6067L22.6787,45.6461L22.7477,45.6743L22.8285,45.6912L22.9212,45.6968
L23.0161,45.6915L23.1057,45.6754L23.1898,45.6487L23.2686,45.6114L23.3396,45.5647L23.4005,45.5102
L23.4513,45.4478L23.4921,45.3776L23.5159,45.3135L23.5329,45.2358L23.5431,45.1445L23.5465,45.0395
L23.5465,44.9156" style=" fill:#000000; stroke:#000000;" />
<path d="M25.7137,45.186L26.0461,45.2292L26.0082,45.3917L25.9491,45.5355L25.8688,45.6607
L25.7672,45.7672L25.6486,45.8523L25.5172,45.913L25.373,45.9494L25.216,45.9616L25.0213,45.9449
L24.8468,45.8947L24.6922,45.8111L24.5578,45.694L24.4489,45.5457L24.3712,45.3684L24.3245,45.1621
L24.309,44.9268L24.3157,44.7704L24.3357,44.624L24.3692,44.4878L24.416,44.3616L24.4765,44.248
L24.551,44.1496L24.6394,44.0663L24.7418,43.9982L24.8536,43.9452L24.9702,43.9074L25.0917,43.8847
L25.2179,43.8771L25.3729,43.8874L25.5132,43.9182L25.6387,43.9695L25.7493,44.0414L25.8434,44.1322
L25.9188,44.2402L25.9757,44.3655L26.0141,44.5081L25.6855,44.5588L25.6575,44.4645L25.6205,44.3827
L25.5744,44.3133L25.5193,44.2564L25.4566,44.2121L25.3876,44.1804L25.3124,44.1614L25.231,44.155
L25.1093,44.1665L24.9996,44.2008L24.9018,44.258L24.816,44.3381L24.7462,44.443L24.6963,44.5745
L24.6664,44.7327L24.6564,44.9175L24.666,45.1047L24.6949,45.2644L24.743,45.3967L24.8104,45.5015
L24.8932,45.5812L24.9878,45.6381L25.0942,45.6723L25.2123,45.6837L25.3077,45.676L25.3949,45.6531
L25.4739,45.615L25.5446,45.5616L25.6052,45.4923L25.6536,45.4067L25.6897,45.3045L25.7137,45.186" style=" fill:#000000; stroke:#000000;" />
<path d="M27.6423,45.9165L27.6423,45.6236L27.5154,45.7714L27.3676,45.8771L27.199,45.9405
L27.0094,45.9616L26.9226,45.9574L26.8388,45.9447L26.7578,45.9236L26.6799,45.894L26.6083,45.858
L26.5465,45.8177L26.4946,45.773L26.4526,45.724L26.4183,45.67L26.3895,45.6102L26.3662,45.5446
L26.3484,45.4733L26.3394,45.4163L26.3329,45.3447L26.329,45.2585L26.3277,45.1578L26.3277,43.9222
L26.6658,43.9222L26.6658,45.0283L26.6671,45.1499L26.6709,45.2499L26.6774,45.3283L26.6864,45.3851
L26.7069,45.4481L26.7362,45.5041L26.7745,45.5528L26.8216,45.5945L26.8763,45.6277L26.9371,45.6515
L27.004,45.6658L27.077,45.6705L27.1519,45.6656L27.2245,45.651L27.2946,45.6267L27.3625,45.5926
L27.4243,45.5501L27.4763,45.5006L27.5186,45.444L27.5512,45.3804L27.5755,45.3057L27.5928,45.2158
L27.6032,45.1108L27.6066,44.9907L27.6066,43.9222L27.9446,43.9222L27.9446,45.9165L27.6423,45.9165" style=" fill:#000000; stroke:#000000;" />
<path d="M29.7813,45.9165L29.7813,45.6236L29.6544,45.7714L29.5066,45.8771L29.338,45.9405
L29.1484,45.9616L29.0616,45.9574L28.9777,45.9447L28.8968,45.9236L28.8188,45.894L28.7472,45.858
L28.6855,45.8177L28.6336,45.773L28.5916,45.724L28.5573,45.67L28.5284,45.6102L28.5051,45.5446
L28.4874,45.4733L28.4783,45.4163L28.4719,45.3447L28.468,45.2585L28.4667,45.1578L28.4667,43.9222
L28.8047,43.9222L28.8047,45.0283L28.806,45.1499L28.8099,45.2499L28.8164,45.3283L28.8254,45.3851
L28.8458,45.4481L28.8752,45.5041L28.9134,45.5528L28.9606,45.5945L29.0153,45.6277L29.0761,45.6515
L29.143,45.6658L29.216,45.6705L29.2909,45.6656L29.3634,45.651L29.4336,45.6267L29.5015,45.5926
L29.5632,45.5501L29.6153,45.5006L29.6576,45.444L29.6902,45.3804L29.7144,45.3057L29.7317,45.2158
L29.7421,45.1108L29.7456,44.9907L29.7456,43.9222L30.0836,43.9222L30.0836,45.9165L29.7813,45.9165" style=" fill:#000000; stroke:#000000;" />
<path d="M30.6132,45.9165L30.6132,43.9222L30.9155,43.9222L30.9155,44.202L30.9664,44.1323
L31.0249,44.0698L31.0912,44.0145L31.1653,43.9663L31.2459,43.9273L31.332,43.8994L31.4234,43.8827
L31.5202,43.8771L31.626,43.8828L31.7219,43.9001L31.8077,43.9288L31.8836,43.9691L31.9493,44.0197
L32.0045,44.0794L32.0493,44.1483L32.0836,44.2264L32.2108,44.0736L32.3559,43.9644L32.5188,43.8989
L32.6996,43.8771L32.8394,43.8874L32.962,43.9182L33.0675,43.9695L33.1559,44.0414L33.2257,44.1347
L33.2756,44.2501L33.3056,44.3877L33.3155,44.5475L33.3155,45.9165L32.9794,45.9165L32.9794,44.6602
L32.9773,44.5659L32.9712,44.4858L32.9609,44.4199L32.9465,44.3682L32.9267,44.3257L32.9003,44.2876
L32.8671,44.2539L32.8273,44.2245L32.7822,44.2007L32.7334,44.1837L32.6808,44.1734L32.6245,44.17
L32.5238,44.1788L32.432,44.205L32.3491,44.2487L32.2752,44.3099L32.2144,44.3904L32.1709,44.4919
L32.1449,44.6143L32.1362,44.7578L32.1362,45.9165L31.7982,45.9165L31.7982,44.6207L31.793,44.5151
L31.7775,44.4236L31.7517,44.3461L31.7155,44.2827L31.6676,44.2334L31.6066,44.1982L31.5324,44.1771
L31.4451,44.17L31.3751,44.1747L31.3078,44.1888L31.2432,44.2123L31.1813,44.2452L31.1249,44.2871
L31.0768,44.3376L31.0371,44.3969L31.0057,44.4649L30.9819,44.5452L30.9648,44.6414L30.9546,44.7536
L30.9512,44.8818L30.9512,45.9165L30.6132,45.9165" style=" fill:#000000; stroke:#000000;" />
<radialGradient id="grd5" spreadMethod="pad" gradientUnits="objectBoundingBox" cx="0.31" cy="0.59" r="0.5" fx="0.31" fy="0.59">
<stop offset="0" style="stop-color:#000000"/>
<stop offset="1" style="stop-color:#000000"/>
</radialGradient>
<path d="M5.09417,36.9185L5.49417,37.6113L7.65955,36.3611L7.25955,35.6683L5.09417,36.9185
M2.95046,31.7431L2.74341,30.9704L5.15858,30.3232L5.36564,31.096L2.95046,31.7431M0.519784,24.2665
L4.52175,24.2665L4.52175,25.7665L0.519784,25.7665L0.519784,24.2665M2.74341,19.0627
L2.95046,18.2899L5.36564,18.9371L5.15858,19.7098L2.74341,19.0627M5.09417,13.1146L5.49417,12.4217
L7.65955,13.6719L7.25955,14.3647L5.09417,13.1146M8.90431,7.97755L9.47,7.41187L11.238,9.1799
L10.6723,9.74558L8.90431,7.97755M14.1639,2.13423L16.1649,5.60003L14.8658,6.35003L12.8649,2.88423
L14.1639,2.13423M19.7824,1.45802L20.5551,1.25096L21.2023,3.66614L20.4295,3.87319L19.7824,1.45802
M26.109,0.519784L26.909,0.519784L26.909,3.02015L26.109,3.02015L26.109,0.519784M32.4628,1.25096
L33.2356,1.45802L32.5884,3.87319L31.8157,3.66614L32.4628,1.25096M40.1531,2.88423L38.1521,6.35003
L36.8531,5.60003L38.854,2.13423L40.1531,2.88423M43.5479,7.41187L44.1136,7.97755L42.3456,9.74558
L41.7799,9.1799L43.5479,7.41187M47.5238,12.4217L47.9238,13.1146L45.7584,14.3647L45.3584,13.6719
L47.5238,12.4217M50.0675,18.2899L50.2745,19.0627L47.8593,19.7098L47.6523,18.9371L50.0675,18.2899
M52.4981,25.7665L48.4962,25.7665L48.4962,24.2665L52.4981,24.2665L52.4981,25.7665M50.2745,30.9704
L50.0675,31.7431L47.6523,31.096L47.8593,30.3232L50.2745,30.9704M47.9238,36.9185L47.5238,37.6113
L45.3584,36.3611L45.7584,35.6683L47.9238,36.9185M44.1136,42.0555L43.5479,42.6212L41.7799,40.8531
L42.3456,40.2875L44.1136,42.0555M38.854,47.8988L36.8531,44.433L38.1521,43.683L40.1531,47.1488
L38.854,47.8988M12.8649,47.1488L14.8658,43.683L16.1649,44.433L14.1639,47.8988L12.8649,47.1488
M9.47,42.6212L8.90431,42.0555L10.6723,40.2875L11.238,40.8531L9.47,42.6212" style="fill:url(#grd5); stroke:none;" />
<path d="M16.5288,40.769L16.5351,40.5368L16.5539,40.3284L16.5853,40.1438L16.6293,39.9831
L16.6856,39.8428L16.7542,39.7195L16.8349,39.6132L16.9279,39.5239L17.0333,39.4533L17.1516,39.4028
L17.2826,39.3725L17.4265,39.3624L17.5339,39.368L17.6344,39.3847L17.7282,39.4126L17.8152,39.4516
L17.8951,39.5011L17.9678,39.5605L18.0332,39.6298L18.0913,39.7089L18.1428,39.7975L18.1884,39.8953
L18.2282,40.0022L18.2621,40.1183L18.2893,40.2494L18.3086,40.4016L18.3202,40.5748L18.3241,40.769
L18.3179,40.9996L18.2992,41.2068L18.2681,41.3906L18.2246,41.5511L18.1687,41.6915L18.1004,41.815
L18.0198,41.9216L17.9269,42.0112L17.8214,42.0823L17.7028,42.1331L17.5711,42.1635L17.4265,42.1737
L17.2381,42.1558L17.0711,42.1023L16.9254,42.0131L16.8011,41.8882L16.682,41.6894L16.5969,41.4366
L16.5458,41.1298L16.5288,40.769M16.8762,40.769L16.8861,41.0796L16.9159,41.3335L16.9655,41.5308
L17.0349,41.6713L17.1189,41.7695L17.2121,41.8396L17.3147,41.8817L17.4265,41.8957L17.5383,41.8817
L17.6408,41.8394L17.734,41.769L17.818,41.6704L17.8874,41.5295L17.937,41.3324L17.9668,41.0788
L17.9767,40.769L17.9668,40.4576L17.937,40.2033L17.8874,40.006L17.818,39.8657L17.7338,39.7679
L17.6398,39.6981L17.5361,39.6562L17.4227,39.6422L17.3121,39.6545L17.2133,39.6915L17.1262,39.7531
L17.0509,39.8394L16.9745,39.9919L16.9199,40.1976L16.8871,40.4567L16.8762,40.769" style=" fill:#000000; stroke:#000000;" />
<path d="M5.99535,25.0588L6.00163,24.8266L6.02047,24.6182L6.05186,24.4336L6.09582,24.2729
L6.15216,24.1325L6.2207,24.0092L6.30145,23.903L6.39441,23.8137L6.49987,23.743L6.61812,23.6926
L6.74916,23.6623L6.893,23.6522L7.0004,23.6578L7.10098,23.6745L7.19476,23.7024L7.28173,23.7414
L7.36166,23.7909L7.43432,23.8503L7.49969,23.9196L7.55779,23.9987L7.60932,24.0873L7.65497,24.1851
L7.69476,24.292L7.72868,24.4081L7.7558,24.5392L7.77516,24.6914L7.78678,24.8646L7.79065,25.0588
L7.78443,25.2893L7.76577,25.4966L7.73467,25.6804L7.69112,25.8409L7.6352,25.9813L7.56695,26.1048
L7.48637,26.2114L7.39347,26.301L7.2879,26.3721L7.16929,26.4229L7.03766,26.4533L6.893,26.4635
L6.70462,26.4456L6.5376,26.3921L6.39195,26.3029L6.26765,26.178L6.14852,25.9792L6.06342,25.7264
L6.01237,25.4196L5.99535,25.0588M6.34277,25.0588L6.35268,25.3694L6.38244,25.6233L6.43203,25.8206
L6.50145,25.9611L6.58543,26.0593L6.67868,26.1294L6.78121,26.1715L6.893,26.1855L7.0048,26.1714
L7.10732,26.1292L7.20057,26.0588L7.28455,25.9602L7.35398,25.8193L7.40357,25.6222L7.43332,25.3686
L7.44324,25.0588L7.43332,24.7474L7.40357,24.493L7.35398,24.2957L7.28455,24.1555L7.20034,24.0577
L7.10638,23.9879L7.00268,23.946L6.88925,23.932L6.77868,23.9443L6.67986,23.9813L6.59277,24.0429
L6.51741,24.1292L6.44101,24.2817L6.38643,24.4874L6.35368,24.7464L6.34277,25.0588" style=" fill:#000000; stroke:#000000;" />
<path d="M8.32399,26.4165L8.32399,26.0315L8.70896,26.0315L8.70896,26.4165L8.32399,26.4165" style=" fill:#000000; stroke:#000000;" />
<path d="M10.9794,26.0916L10.9794,26.4165L9.15967,26.4165L9.16072,26.3561L9.16765,26.2968
L9.18044,26.2387L9.1991,26.1818L9.23907,26.0892L9.28948,25.9973L9.35034,25.9061L9.42164,25.8156
L9.50668,25.7219L9.60873,25.6212L9.7278,25.5135L9.86389,25.3987L10.0701,25.2242L10.2399,25.0689
L10.3734,24.9327L10.4705,24.8156L10.5395,24.7095L10.5888,24.6064L10.6184,24.5062L10.6282,24.409
L10.6192,24.3125L10.5923,24.2238L10.5474,24.143L10.4846,24.07L10.4073,24.0097L10.3191,23.9665
L10.2199,23.9406L10.1099,23.932L9.99394,23.9412L9.89018,23.9686L9.79864,24.0144L9.71929,24.0785
L9.65509,24.1588L9.60896,24.2531L9.58091,24.3616L9.57094,24.4841L9.22352,24.4484L9.25368,24.2656
L9.30849,24.106L9.38795,23.9694L9.49206,23.856L9.61847,23.7668L9.76483,23.7031L9.93115,23.6649
L10.1174,23.6522L10.3052,23.6659L10.4723,23.7071L10.6188,23.7758L10.7446,23.8719L10.8457,23.9883
L10.9179,24.1179L10.9612,24.2606L10.9756,24.4165L10.9714,24.4988L10.9587,24.5804L10.9376,24.6612
L10.908,24.7414L10.8686,24.8223L10.8181,24.9053L10.7564,24.9903L10.6836,25.0776L10.5922,25.174
L10.4749,25.2869L10.3317,25.4163L10.1625,25.5621L10.024,25.6795L9.91272,25.7764L9.82868,25.8527
L9.77187,25.9085L9.73056,25.9541L9.693,25.9999L9.6592,26.0457L9.62915,26.0916L10.9794,26.0916" style=" fill:#000000; stroke:#000000;" />
<path d="M14.9251,9.59207L14.9313,9.35985L14.9502,9.15146L14.9816,8.96689L15.0255,8.80615
L15.0819,8.66584L15.1504,8.54254L15.2312,8.43626L15.3241,8.347L15.4296,8.27634L15.5478,8.22587
L15.6789,8.19559L15.8227,8.1855L15.9301,8.19107L16.0307,8.2078L16.1245,8.23567L16.2114,8.2747
L16.2914,8.32423L16.364,8.38362L16.4294,8.45287L16.4875,8.53198L16.539,8.62059L16.5847,8.71836
L16.6245,8.82529L16.6584,8.94137L16.6855,9.07253L16.7049,9.2247L16.7165,9.39788L16.7204,9.59207
L16.7141,9.82265L16.6955,10.0299L16.6644,10.2137L16.6208,10.3742L16.5649,10.5146L16.4966,10.6381
L16.4161,10.7447L16.3232,10.8343L16.2176,10.9054L16.099,10.9562L15.9674,10.9866L15.8227,10.9968
L15.6343,10.9789L15.4673,10.9254L15.3216,10.8362L15.1974,10.7113L15.0782,10.5125L14.9931,10.2597
L14.9421,9.95287L14.9251,9.59207M15.2725,9.59207L15.2824,9.90269L15.3121,10.1566L15.3617,10.3539
L15.4312,10.4944L15.5151,10.5926L15.6084,10.6627L15.7109,10.7048L15.8227,10.7188L15.9345,10.7047
L16.037,10.6625L16.1303,10.5921L16.2143,10.4935L16.2837,10.3526L16.3333,10.1555L16.363,9.90193
L16.3729,9.59207L16.363,9.28069L16.3333,9.02634L16.2837,8.82904L16.2143,8.68878L16.13,8.59101
L16.0361,8.52118L15.9324,8.47928L15.819,8.46531L15.7084,8.47763L15.6096,8.51461L15.5225,8.57622
L15.4471,8.66249L15.3707,8.81496L15.3161,9.02071L15.2834,9.27975L15.2725,9.59207" style=" fill:#000000; stroke:#000000;" />
<path d="M17.2537,10.9498L17.2537,10.5648L17.6387,10.5648L17.6387,10.9498L17.2537,10.9498" style=" fill:#000000; stroke:#000000;" />
<path d="M19.2161,10.9498L19.2161,10.2907L18.0218,10.2907L18.0218,9.9808L19.2781,8.19676
L19.5542,8.19676L19.5542,9.9808L19.926,9.9808L19.926,10.2907L19.5542,10.2907L19.5542,10.9498
L19.2161,10.9498M19.2161,9.9808L19.2161,8.73949L18.3542,9.9808L19.2161,9.9808" style=" fill:#000000; stroke:#000000;" />
<path d="M32.9251,9.59207L32.9313,9.35985L32.9502,9.15146L32.9816,8.96689L33.0255,8.80615
L33.0819,8.66584L33.1504,8.54254L33.2312,8.43626L33.3241,8.347L33.4296,8.27634L33.5478,8.22587
L33.6789,8.19559L33.8227,8.1855L33.9301,8.19107L34.0307,8.2078L34.1245,8.23567L34.2114,8.2747
L34.2914,8.32423L34.364,8.38362L34.4294,8.45287L34.4875,8.53198L34.539,8.62059L34.5847,8.71836
L34.6245,8.82529L34.6584,8.94137L34.6855,9.07253L34.7049,9.2247L34.7165,9.39788L34.7204,9.59207
L34.7141,9.82265L34.6955,10.0299L34.6644,10.2137L34.6208,10.3742L34.5649,10.5146L34.4966,10.6381
L34.4161,10.7447L34.3232,10.8343L34.2176,10.9054L34.099,10.9562L33.9674,10.9866L33.8227,10.9968
L33.6343,10.9789L33.4673,10.9254L33.3216,10.8362L33.1974,10.7113L33.0782,10.5125L32.9931,10.2597
L32.9421,9.95287L32.9251,9.59207M33.2725,9.59207L33.2824,9.90269L33.3121,10.1566L33.3617,10.3539
L33.4312,10.4944L33.5151,10.5926L33.6084,10.6627L33.7109,10.7048L33.8227,10.7188L33.9345,10.7047
L34.037,10.6625L34.1303,10.5921L34.2143,10.4935L34.2837,10.3526L34.3333,10.1555L34.363,9.90193
L34.3729,9.59207L34.363,9.28069L34.3333,9.02634L34.2837,8.82904L34.2143,8.68878L34.13,8.59101
L34.0361,8.52118L33.9324,8.47928L33.819,8.46531L33.7084,8.47763L33.6096,8.51461L33.5225,8.57622
L33.4471,8.66249L33.3707,8.81496L33.3161,9.02071L33.2834,9.27975L33.2725,9.59207" style=" fill:#000000; stroke:#000000;" />
<path d="M35.2537,10.9498L35.2537,10.5648L35.6387,10.5648L35.6387,10.9498L35.2537,10.9498" style=" fill:#000000; stroke:#000000;" />
<path d="M37.8866,8.87094L37.5504,8.89723L37.5255,8.80451L37.4959,8.7254L37.4617,8.65991
L37.4227,8.60803L37.3502,8.54477L37.2697,8.49958L37.1812,8.47247L37.0847,8.46343L37.0064,8.46907
L36.933,8.48597L36.8646,8.51414L36.8011,8.55357L36.7255,8.61848L36.6584,8.69676L36.5997,8.78843
L36.5495,8.89348L36.509,9.01707L36.4795,9.16437L36.4611,9.33538L36.4537,9.5301L36.5181,9.44313
L36.5894,9.36813L36.6674,9.3051L36.7523,9.25404L36.8416,9.21461L36.933,9.18644L37.0266,9.16953
L37.1222,9.1639L37.285,9.17945L37.4351,9.22611L37.5728,9.30387L37.6978,9.41273L37.8018,9.54624
L37.876,9.69794L37.9205,9.86783L37.9354,10.0559L37.9284,10.1832L37.9074,10.3059L37.8725,10.4241
L37.8236,10.5376L37.7626,10.6424L37.691,10.7341L37.609,10.8128L37.5166,10.8785L37.4157,10.9302
L37.3082,10.9672L37.1941,10.9894L37.0734,10.9968L36.8719,10.9773L36.6898,10.9191L36.5273,10.8219
L36.3842,10.686L36.2675,10.5054L36.1842,10.2745L36.1342,9.99319L36.1175,9.66155L36.136,9.28972
L36.1913,8.97235L36.2834,8.70944L36.4124,8.50099L36.5522,8.36296L36.7143,8.26437L36.8986,8.20522
L37.1053,8.1855L37.2604,8.19688L37.4009,8.23104L37.5266,8.28796L37.6377,8.36766L37.7311,8.46742
L37.8037,8.58456L37.8555,8.71907L37.8866,8.87094M36.5063,10.0578L36.5109,10.1442L36.5248,10.2287
L36.548,10.3113L36.5805,10.3921L36.6212,10.4671L36.6694,10.5327L36.725,10.5887L36.788,10.6353
L36.8555,10.6718L36.9246,10.6979L36.9954,10.7136L37.0678,10.7188L37.1711,10.708L37.2668,10.6756
L37.3551,10.6216L37.4359,10.5461L37.5032,10.4519L37.5513,10.3423L37.5802,10.2172L37.5898,10.0766
L37.5803,9.94142L37.5518,9.82141L37.5043,9.71654L37.4377,9.62681L37.3567,9.55492L37.2659,9.50357
L37.1652,9.47276L37.0546,9.46249L36.9444,9.47276L36.8429,9.50357L36.7501,9.55492L36.6659,9.62681
L36.5961,9.71537L36.5462,9.81672L36.5163,9.93086L36.5063,10.0578" style=" fill:#000000; stroke:#000000;" />
<path d="M41.9251,25.1805L41.9313,24.9483L41.9502,24.7399L41.9816,24.5554L42.0255,24.3946
L42.0819,24.2543L42.1504,24.131L42.2312,24.0247L42.3241,23.9355L42.4296,23.8648L42.5478,23.8143
L42.6789,23.784L42.8227,23.774L42.9301,23.7795L43.0307,23.7963L43.1245,23.8241L43.2114,23.8632
L43.2914,23.9127L43.364,23.9721L43.4294,24.0413L43.4875,24.1204L43.539,24.209L43.5847,24.3068
L43.6245,24.4137L43.6584,24.5298L43.6855,24.661L43.7049,24.8132L43.7165,24.9863L43.7204,25.1805
L43.7141,25.4111L43.6955,25.6183L43.6644,25.8022L43.6208,25.9627L43.5649,26.1031L43.4966,26.2265
L43.4161,26.3331L43.3232,26.4228L43.2176,26.4938L43.099,26.5446L42.9674,26.5751L42.8227,26.5852
L42.6343,26.5674L42.4673,26.5139L42.3216,26.4247L42.1974,26.2998L42.0782,26.1009L41.9931,25.8481
L41.9421,25.5413L41.9251,25.1805M42.2725,25.1805L42.2824,25.4911L42.3121,25.7451L42.3617,25.9423
L42.4312,26.0829L42.5151,26.1811L42.6084,26.2512L42.7109,26.2933L42.8227,26.3073L42.9345,26.2932
L43.037,26.2509L43.1303,26.1805L43.2143,26.0819L43.2837,25.9411L43.3333,25.7439L43.363,25.4904
L43.3729,25.1805L43.363,24.8691L43.3333,24.6148L43.2837,24.4175L43.2143,24.2772L43.13,24.1795
L43.0361,24.1096L42.9324,24.0677L42.819,24.0538L42.7084,24.0661L42.6096,24.1031L42.5225,24.1647
L42.4471,24.2509L42.3707,24.4034L42.3161,24.6092L42.2834,24.8682L42.2725,25.1805" style=" fill:#000000; stroke:#000000;" />
<path d="M44.2537,26.5383L44.2537,26.1533L44.6387,26.1533L44.6387,26.5383L44.2537,26.5383" style=" fill:#000000; stroke:#000000;" />
<path d="M45.6528,25.0453L45.5544,25.0027L45.4697,24.9519L45.3985,24.8929L45.341,24.8256
L45.2966,24.7507L45.265,24.6688L45.2459,24.5798L45.2396,24.4838L45.2531,24.3396L45.2936,24.2073
L45.3611,24.087L45.4556,23.9786L45.5725,23.8891L45.7072,23.8251L45.8598,23.7867L46.0302,23.774
L46.2017,23.787L46.3556,23.8263L46.4918,23.8917L46.6105,23.9833L46.7066,24.0937L46.7753,24.2155
L46.8165,24.3487L46.8302,24.4932L46.8239,24.5859L46.8051,24.6723L46.7737,24.7525L46.7297,24.8265
L46.673,24.8934L46.6032,24.9521L46.5204,25.0028L46.4246,25.0453L46.5438,25.093L46.6478,25.1533
L46.7367,25.2263L46.8105,25.312L46.8684,25.4085L46.9098,25.5139L46.9346,25.6282L46.9429,25.7514
L46.9273,25.9209L46.8805,26.0763L46.8024,26.2176L46.6931,26.3448L46.5584,26.45L46.4039,26.5251
L46.2297,26.5702L46.0359,26.5852L45.842,26.5701L45.6678,26.5249L45.5133,26.4495L45.3786,26.3439
L45.2693,26.2158L45.1913,26.0728L45.1444,25.9149L45.1288,25.742L45.1373,25.6132L45.1628,25.4953
L45.2054,25.3883L45.265,25.2923L45.3403,25.2089L45.43,25.1399L45.5341,25.0854L45.6528,25.0453
M45.5851,24.4725L45.593,24.5657L45.6166,24.65L45.6559,24.7254L45.711,24.7918L45.7786,24.846
L45.8556,24.8848L45.942,24.908L46.0377,24.9157L46.131,24.9081L46.2154,24.885L46.2911,24.8465
L46.3579,24.7927L46.4126,24.7278L46.4516,24.6559L46.475,24.5771L46.4828,24.4913L46.4748,24.4021
L46.4506,24.3202L46.4104,24.2457L46.3542,24.1786L46.2859,24.1232L46.2098,24.0836L46.1258,24.0598
L46.034,24.0519L45.9414,24.0596L45.857,24.0829L45.7808,24.1216L45.7128,24.1758L45.657,24.2409
L45.6171,24.312L45.5931,24.3892L45.5851,24.4725M45.4762,25.7439L45.4805,25.8156L45.4934,25.8862
L45.5148,25.9555L45.5448,26.0237L45.5832,26.0875L45.63,26.1437L45.6851,26.1922L45.7485,26.2331
L45.8174,26.2656L45.8889,26.2887L45.963,26.3027L46.0396,26.3073L46.1555,26.2975L46.2607,26.2683
L46.3555,26.2196L46.4396,26.1514L46.5086,26.0682L46.5579,25.9744L46.5875,25.8701L46.5974,25.7552
L46.5872,25.6384L46.5567,25.5322L46.506,25.4365L46.4349,25.3514L46.3486,25.2816L46.252,25.2317
L46.1453,25.2018L46.0283,25.1918L45.9142,25.2017L45.8103,25.2312L45.7165,25.2805L45.633,25.3495
L45.5644,25.4333L45.5154,25.527L45.486,25.6305L45.4762,25.7439" style=" fill:#000000; stroke:#000000;" />
<path d="M34.1983,42.1267L33.8603,42.1267L33.8603,39.9727L33.7945,40.031L33.7192,40.0892
L33.6344,40.1474L33.5401,40.2056L33.4435,40.2602L33.352,40.3075L33.2656,40.3475L33.1842,40.3803
L33.1842,40.0535L33.3215,39.9833L33.4499,39.9061L33.5694,39.8218L33.68,39.7305L33.7783,39.6364
L33.8612,39.5436L33.9286,39.4523L33.9805,39.3624L34.1983,39.3624L34.1983,42.1267" style=" fill:#000000; stroke:#000000;" />
<path d="M35.2537,42.1267L35.2537,41.7418L35.6387,41.7418L35.6387,42.1267L35.2537,42.1267" style=" fill:#000000; stroke:#000000;" />
<path d="M36.1326,40.769L36.1388,40.5368L36.1577,40.3284L36.1891,40.1438L36.233,39.9831
L36.2894,39.8428L36.3579,39.7195L36.4387,39.6132L36.5316,39.5239L36.6371,39.4533L36.7553,39.4028
L36.8864,39.3725L37.0302,39.3624L37.1376,39.368L37.2382,39.3847L37.332,39.4126L37.419,39.4516
L37.4989,39.5011L37.5715,39.5605L37.6369,39.6298L37.695,39.7089L37.7465,39.7975L37.7922,39.8953
L37.832,40.0022L37.8659,40.1183L37.893,40.2494L37.9124,40.4016L37.924,40.5748L37.9279,40.769
L37.9216,40.9996L37.903,41.2068L37.8719,41.3906L37.8283,41.5511L37.7724,41.6915L37.7042,41.815
L37.6236,41.9216L37.5307,42.0112L37.4251,42.0823L37.3065,42.1331L37.1749,42.1635L37.0302,42.1737
L36.8418,42.1558L36.6748,42.1023L36.5292,42.0131L36.4049,41.8882L36.2857,41.6894L36.2006,41.4366
L36.1496,41.1298L36.1326,40.769M36.48,40.769L36.4899,41.0796L36.5197,41.3335L36.5692,41.5308
L36.6387,41.6713L36.7226,41.7695L36.8159,41.8396L36.9184,41.8817L37.0302,41.8957L37.142,41.8817
L37.2445,41.8394L37.3378,41.769L37.4218,41.6704L37.4912,41.5295L37.5408,41.3324L37.5705,41.0788
L37.5805,40.769L37.5705,40.4576L37.5408,40.2033L37.4912,40.006L37.4218,39.8657L37.3376,39.7679
L37.2436,39.6981L37.1399,39.6562L37.0265,39.6422L36.9159,39.6545L36.8171,39.6915L36.73,39.7531
L36.6546,39.8394L36.5782,39.9919L36.5236,40.1976L36.4909,40.4567L36.48,40.769" style=" fill:#000000; stroke:#000000;" />
<path d="M20.6791,35.5665L20.6791,32.8135L22.6698,32.8135L22.6698,33.1384L21.0435,33.1384
L21.0435,33.9816L22.5665,33.9816L22.5665,34.3046L21.0435,34.3046L21.0435,35.2416L22.7336,35.2416
L22.7336,35.5665L20.6791,35.5665" style=" fill:#000000; stroke:#000000;" />
<path d="M22.9683,35.5665L23.697,34.5299L23.0228,33.5722L23.4453,33.5722L23.7514,34.0398
L23.7925,34.1037L23.8294,34.1623L23.862,34.2155L23.8904,34.2632L23.9309,34.203L23.9698,34.1463
L24.007,34.0932L24.0425,34.0435L24.3787,33.5722L24.7824,33.5722L24.0932,34.5111L24.835,35.5665
L24.42,35.5665L24.0106,34.9468L23.9017,34.7797L23.3777,35.5665L22.9683,35.5665" style=" fill:#000000; stroke:#000000;" />
<path d="M25.8547,35.2642L25.9036,35.5628L25.8341,35.5759L25.7683,35.5853L25.7064,35.5909
L25.6482,35.5928L25.5613,35.5892L25.4848,35.5783L25.4186,35.5601L25.3627,35.5346L25.3158,35.5032
L25.2763,35.4672L25.2444,35.4267L25.22,35.3816L25.2019,35.321L25.189,35.2344L25.1813,35.1215
L25.1787,34.9825L25.1787,33.8351L24.9308,33.8351L24.9308,33.5722L25.1787,33.5722L25.1787,33.0783
L25.5148,32.8755L25.5148,33.5722L25.8547,33.5722L25.8547,33.8351L25.5148,33.8351L25.5148,35.0013
L25.5159,35.0671L25.5193,35.1201L25.5249,35.1601L25.5327,35.1872L25.543,35.2068L25.5561,35.2243
L25.5721,35.2397L25.5909,35.2529L25.6132,35.2636L25.6399,35.2712L25.671,35.2758L25.7064,35.2773
L25.7368,35.2765L25.7716,35.274L25.8109,35.2699L25.8547,35.2642" style=" fill:#000000; stroke:#000000;" />
<path d="M26.1815,35.5665L26.1815,33.5722L26.4857,33.5722L26.4857,33.8745L26.5428,33.7774
L26.5977,33.6985L26.6503,33.6375L26.7007,33.5947L26.7513,33.5651L26.8043,33.544L26.8597,33.5313
L26.9176,33.5271L27.0034,33.5339L27.0899,33.5543L27.1771,33.5884L27.2651,33.636L27.1486,33.9496
L27.0867,33.9176L27.0247,33.8947L26.9627,33.881L26.9007,33.8764L26.8467,33.8806L26.7956,33.8931
L26.7472,33.9139L26.7017,33.9431L26.6607,33.9796L26.6261,34.0226L26.5978,34.0721L26.5759,34.128
L26.5512,34.2203L26.5336,34.3168L26.523,34.4175L26.5195,34.5224L26.5195,35.5665L26.1815,35.5665" style=" fill:#000000; stroke:#000000;" />
<path d="M28.7674,35.3205L28.6744,35.3945L28.5831,35.4567L28.4936,35.5071L28.4059,35.5459
L28.3175,35.5746L28.2259,35.5952L28.1311,35.6075L28.0331,35.6116L27.8783,35.6016L27.7425,35.5715
L27.6257,35.5213L27.528,35.451L27.4507,35.3652L27.3956,35.2682L27.3625,35.16L27.3514,35.0407
L27.3556,34.9691L27.3681,34.9006L27.3889,34.8353L27.4181,34.7731L27.454,34.7155L27.4951,34.6639
L27.5413,34.6183L27.5928,34.5787L27.6484,34.5443L27.7075,34.5144L27.77,34.4889L27.8359,34.4679
L27.8921,34.4549L27.9608,34.4421L28.0423,34.4296L28.1364,34.4172L28.3276,34.3916L28.4918,34.3637
L28.629,34.3334L28.7392,34.3008L28.7401,34.2692L28.7406,34.244L28.741,34.2251L28.7411,34.2125
L28.7351,34.1169L28.7172,34.0365L28.6872,33.9713L28.6453,33.9215L28.5727,33.8713L28.4843,33.8355
L28.3802,33.8141L28.2604,33.8069L28.1489,33.8121L28.0531,33.8278L27.9729,33.8539L27.9082,33.8905
L27.8551,33.9403L27.8094,34.0062L27.7711,34.0882L27.7402,34.1862L27.4097,34.1412L27.4358,34.0402
L27.4693,33.9494L27.51,33.8688L27.558,33.7985L27.6154,33.737L27.6843,33.683L27.7647,33.6365
L27.8566,33.5975L27.9581,33.5667L28.0674,33.5447L28.1844,33.5315L28.3092,33.5271L28.4309,33.5308
L28.5406,33.5421L28.6384,33.5609L28.7242,33.5872L28.7987,33.6192L28.8627,33.655L28.9161,33.6948
L28.959,33.7384L28.9937,33.7869L29.0228,33.8414L29.0463,33.9019L29.0641,33.9684L29.0715,34.0203
L29.0768,34.0895L29.08,34.1762L29.081,34.2801L29.081,34.7308L29.0824,34.9449L29.0864,35.1156
L29.0932,35.243L29.1026,35.3271L29.1161,35.3889L29.1348,35.4494L29.1588,35.5086L29.1881,35.5665
L28.835,35.5665L28.8111,35.5117L28.7918,35.4524L28.7773,35.3887L28.7674,35.3205M28.7392,34.5656
L28.6357,34.6017L28.5092,34.6351L28.3597,34.6656L28.1871,34.6933L28.0905,34.7088L28.0092,34.7252
L27.9431,34.7426L27.8923,34.7609L27.8516,34.7818L27.8158,34.8071L27.7849,34.8368L27.759,34.8708
L27.7384,34.9079L27.7237,34.947L27.7149,34.9882L27.712,35.0313L27.7184,35.0961L27.7376,35.1553
L27.7696,35.2088L27.8144,35.2567L27.8715,35.2961L27.9404,35.3243L28.0212,35.3412L28.1139,35.3468
L28.2088,35.3415L28.2984,35.3255L28.3825,35.2987L28.4613,35.2614L28.5323,35.2147L28.5932,35.1602
L28.644,35.0978L28.6848,35.0276L28.7086,34.9635L28.7256,34.8858L28.7358,34.7945L28.7392,34.6895
L28.7392,34.5656" style=" fill:#000000; stroke:#000000;" />
<path d="M30.9064,34.836L31.2388,34.8792L31.2009,35.0417L31.1418,35.1855L31.0615,35.3107
L30.9599,35.4172L30.8413,35.5023L30.7099,35.563L30.5657,35.5995L30.4087,35.6116L30.2141,35.5949
L30.0395,35.5447L29.8849,35.4611L29.7505,35.344L29.6416,35.1957L29.5639,35.0184L29.5172,34.8121
L29.5017,34.5769L29.5084,34.4204L29.5284,34.274L29.5619,34.1378L29.6087,34.0116L29.6692,33.898
L29.7437,33.7996L29.8321,33.7164L29.9345,33.6482L30.0463,33.5952L30.1629,33.5574L30.2844,33.5347
L30.4106,33.5271L30.5656,33.5374L30.7059,33.5682L30.8314,33.6195L30.9421,33.6914L31.0361,33.7822
L31.1115,33.8902L31.1685,34.0155L31.2068,34.1581L30.8782,34.2088L30.8502,34.1145L30.8132,34.0327
L30.7671,33.9634L30.712,33.9064L30.6493,33.8621L30.5803,33.8304L30.5051,33.8114L30.4237,33.805
L30.302,33.8165L30.1923,33.8508L30.0945,33.908L30.0087,33.9881L29.9389,34.093L29.889,34.2245
L29.8591,34.3827L29.8491,34.5675L29.8587,34.7547L29.8876,34.9144L29.9357,35.0467L30.0031,35.1515
L30.0859,35.2312L30.1805,35.2881L30.2869,35.3223L30.405,35.3337L30.5004,35.326L30.5876,35.3031
L30.6666,35.265L30.7374,35.2116L30.7979,35.1424L30.8463,35.0567L30.8824,34.9546L30.9064,34.836" style=" fill:#000000; stroke:#000000;" />
<path d="M32.266,35.2642L32.3148,35.5628L32.2453,35.5759L32.1796,35.5853L32.1176,35.5909
L32.0594,35.5928L31.9726,35.5892L31.896,35.5783L31.8298,35.5601L31.774,35.5346L31.727,35.5032
L31.6876,35.4672L31.6557,35.4267L31.6313,35.3816L31.6132,35.321L31.6003,35.2344L31.5925,35.1215
L31.5899,34.9825L31.5899,33.8351L31.3421,33.8351L31.3421,33.5722L31.5899,33.5722L31.5899,33.0783
L31.9261,32.8755L31.9261,33.5722L32.266,33.5722L32.266,33.8351L31.9261,33.8351L31.9261,35.0013
L31.9272,35.0671L31.9305,35.1201L31.9361,35.1601L31.9439,35.1872L31.9543,35.2068L31.9674,35.2243
L31.9834,35.2397L32.0021,35.2529L32.0245,35.2636L32.0512,35.2712L32.0822,35.2758L32.1176,35.2773
L32.148,35.2765L32.1829,35.274L32.2222,35.2699L32.266,35.2642" style=" fill:#000000; stroke:#000000;" />
<path d="M22.3184,29.4165L22.3184,26.6635L23.2667,26.6635L23.4178,26.6659L23.5498,26.6733
L23.6628,26.6856L23.7569,26.7029L23.8708,26.7356L23.9761,26.7794L24.0727,26.8342L24.1606,26.9001
L24.2627,26.9985L24.351,27.1097L24.4256,27.2337L24.4864,27.3705L24.5337,27.5188L24.5674,27.6773
L24.5877,27.846L24.5944,28.025L24.5898,28.1773L24.5761,28.3207L24.5532,28.4553L24.5212,28.5808
L24.482,28.6967L24.4376,28.8022L24.3881,28.8972L24.3334,28.9818L24.2748,29.0569L24.2134,29.1236
L24.1494,29.1818L24.0827,29.2315L24.0111,29.2743L23.9324,29.3116L23.8468,29.3433L23.754,29.3696
L23.6542,29.3901L23.5472,29.4048L23.4331,29.4136L23.3118,29.4165L22.3184,29.4165M22.6827,29.0916
L23.2705,29.0916L23.3993,29.0885L23.5134,29.079L23.6129,29.0631L23.6977,29.0409L23.7712,29.013
L23.8369,28.9799L23.8947,28.9416L23.9446,28.8982L24.0059,28.8278L24.0599,28.7463L24.1068,28.6537
L24.1465,28.5499L24.1782,28.4347L24.2007,28.3078L24.2143,28.1694L24.2188,28.0193L24.21,27.8159
L24.1834,27.6374L24.1391,27.4839L24.077,27.3555L24.0023,27.2491L23.92,27.1618L23.83,27.0937
L23.7324,27.0447L23.648,27.02L23.5414,27.0024L23.4124,26.9919L23.2611,26.9883L22.6827,26.9883
L22.6827,29.0916" style=" fill:#000000; stroke:#000000;" />
<path d="M25.0489,29.4165L25.0489,27.4222L25.3531,27.4222L25.3531,27.7245L25.4102,27.6274
L25.4651,27.5484L25.5177,27.4875L25.5681,27.4447L25.6186,27.4151L25.6716,27.394L25.7271,27.3813
L25.785,27.3771L25.8708,27.3839L25.9573,27.4043L26.0445,27.4383L26.1324,27.486L26.016,27.7996
L25.954,27.7676L25.8921,27.7447L25.8301,27.731L25.7681,27.7264L25.7141,27.7305L25.663,27.743
L25.6146,27.7639L25.5691,27.793L25.5281,27.8296L25.4935,27.8726L25.4652,27.9221L25.4432,27.978
L25.4186,28.0703L25.401,28.1668L25.3904,28.2675L25.3869,28.3724L25.3869,29.4165L25.0489,29.4165" style=" fill:#000000; stroke:#000000;" />
<path d="M26.3353,27.0522L26.3353,26.6635L26.6733,26.6635L26.6733,27.0522L26.3353,27.0522
M26.3353,29.4165L26.3353,27.4222L26.6733,27.4222L26.6733,29.4165L26.3353,29.4165" style=" fill:#000000; stroke:#000000;" />
<path d="M27.7418,29.4165L26.9831,27.4222L27.3399,27.4222L27.7681,28.6165L27.8022,28.7142
L27.8348,28.8137L27.866,28.9151L27.8958,29.0184L27.9206,28.9355L27.9498,28.8447L27.9835,28.7459
L28.0216,28.6391L28.4648,27.4222L28.8123,27.4222L28.0573,29.4165L27.7418,29.4165" style=" fill:#000000; stroke:#000000;" />
<path d="M30.4761,28.7743L30.8254,28.8175L30.7753,28.9619L30.7076,29.0893L30.6222,29.1995
L30.5193,29.2926L30.3998,29.3665L30.2648,29.4193L30.1144,29.451L29.9484,29.4616L29.7409,29.4447
L29.5561,29.3942L29.394,29.31L29.2545,29.1921L29.1424,29.0438L29.0623,28.8684L29.0142,28.6659
L28.9982,28.4362L29.0144,28.1987L29.063,27.9893L29.1439,27.8081L29.2573,27.655L29.3965,27.5334
L29.555,27.4466L29.7327,27.3945L29.9296,27.3771L30.1205,27.3941L30.293,27.4452L30.4472,27.5303
L30.5831,27.6494L30.6941,27.7994L30.7733,27.9771L30.8208,28.1825L30.8367,28.4156L30.8365,28.4325
L30.8362,28.4531L30.8356,28.4776L30.8348,28.5057L29.3475,28.5057L29.3661,28.6604L29.4033,28.7959
L29.4591,28.9121L29.5334,29.009L29.6221,29.0854L29.7212,29.14L29.8306,29.1727L29.9503,29.1837
L30.0398,29.1776L30.1226,29.1592L30.1985,29.1287L30.2676,29.086L30.33,29.0299L30.3855,28.9592
L30.4342,28.874L30.4761,28.7743M29.3662,28.2278L30.4799,28.2278L30.4634,28.1098L30.4367,28.0076
L30.3996,27.9211L30.3522,27.8503L30.2654,27.7649L30.1667,27.7038L30.056,27.6672L29.9334,27.655
L29.8216,27.6648L29.7191,27.694L29.6258,27.7427L29.5418,27.8109L29.4713,27.8954L29.4186,27.993
L29.3836,28.1038L29.3662,28.2278" style=" fill:#000000; stroke:#000000;" />
<radialGradient id="grd82" spreadMethod="pad" gradientUnits="objectBoundingBox" cx="0.31" cy="0.59" r="0.5" fx="0.31" fy="0.59">
<stop offset="0" style="stop-color:#000000"/>
<stop offset="1" style="stop-color:#000000"/>
</radialGradient>
<path d="M37.3877,25.5115L39.8998,25.5115A13.4,13.4 0 0,1 39.2233,29.2481 A2,2 0 0,1 37.3256,30.6165 
L15.6923,30.6165A2,2 0 0,1 13.7947,29.2481 A13.4,13.4 0 0,1 13.1181,25.5115 L15.6302,25.5115
L15.6302,24.5215L13.1181,24.5215A13.4,13.4 0 0,1 16.6902,15.8978 L18.4665,17.6741
L19.1665,16.9741L17.3902,15.1977A13.4,13.4 0 0,1 26.014,11.6257 L26.014,14.1378L27.004,14.1378
L27.004,11.6257A13.4,13.4 0 0,1 35.6277,15.1977 L33.8514,16.9741L34.5514,17.6741L36.3277,15.8978
A13.4,13.4 0 0,1 39.8998,24.5215 L37.3877,24.5215L37.3877,25.5115M39.9823,29.5007
A14.2,14.2 0 1,0 13.0356,29.5007 A2.8,2.8 0 0,0 15.6923,31.4165 L37.3256,31.4165A2.8,2.8 0 0,0 39.9823,29.5007 " style="fill:url(#grd82); stroke:none;" />
<path d="M18.709,25.7315L16.7425,25.7315L16.7425,24.9937L16.7462,24.8866L16.7574,24.7907
L16.7761,24.7059L16.8022,24.6322L16.8361,24.5678L16.878,24.5108L16.9279,24.4612L16.986,24.4189
L17.0487,24.3852L17.1129,24.3611L17.1785,24.3466L17.2455,24.3418L17.3076,24.3461L17.3679,24.3589
L17.4264,24.3803L17.4829,24.4102L17.5359,24.4488L17.5835,24.4961L17.6258,24.5521L17.6627,24.6168
L17.6935,24.5327L17.7334,24.459L17.7827,24.3956L17.8411,24.3425L17.907,24.3005L17.9786,24.2705
L18.0559,24.2526L18.1389,24.2466L18.2067,24.2502L18.2722,24.2612L18.3352,24.2794L18.3958,24.3049
L18.4517,24.3358L18.5009,24.3701L18.5433,24.4079L18.5789,24.4491L18.6091,24.4948L18.6354,24.5459
L18.6577,24.6024L18.6761,24.6644L18.6905,24.7328L18.7007,24.8084L18.7069,24.8914L18.709,24.9816
L18.709,25.7315M17.5688,25.4712L17.5688,25.046L17.5674,24.9656L17.5631,24.8975L17.556,24.8416
L17.546,24.7979L17.5288,24.7513L17.5068,24.7109L17.4798,24.6765L17.4481,24.6483L17.4117,24.6263
L17.3709,24.6106L17.3258,24.6012L17.2764,24.598L17.2289,24.6009L17.1843,24.6097L17.1427,24.6244
L17.104,24.645L17.0697,24.6709L17.0413,24.702L17.0187,24.738L17.0021,24.7791L16.99,24.8305
L16.9814,24.8975L16.9763,24.98L16.9746,25.0782L16.9746,25.4712L17.5688,25.4712M18.4769,25.4712
L18.4769,24.9816L18.4763,24.9233L18.4746,24.8743L18.4716,24.8348L18.4675,24.8046L18.4581,24.7615
L18.4461,24.7221L18.4313,24.6864L18.4139,24.6543L18.3929,24.6255L18.3678,24.5993L18.3383,24.5759
L18.3045,24.5551L18.2673,24.5381L18.2272,24.5259L18.1844,24.5186L18.1389,24.5162L18.0857,24.5197
L18.0361,24.5303L17.9901,24.5479L17.9477,24.5725L17.9102,24.6034L17.8786,24.6398L17.8532,24.6815
L17.8337,24.7288L17.8193,24.7842L17.8091,24.8507L17.8029,24.9281L17.8008,25.0165L17.8008,25.4712
L18.4769,25.4712" style=" fill:#000000; stroke:#000000;" />
<path d="M20.4706,20.2844L20.0042,17.5206L20.168,17.3568L20.6344,20.1206L20.4706,20.2844
M19.7538,19.3527L19.1758,18.7747L19.1603,18.8683L19.1359,18.958L19.1024,19.0441L19.06,19.1263
L18.9316,18.998L18.9523,18.9521L18.9705,18.9001L18.9862,18.842L18.9995,18.7778L19.009,18.7119
L19.0138,18.6487L19.0137,18.5882L19.0088,18.5305L19.1215,18.4179L19.9051,19.2014L19.7538,19.3527
M21.3,19.4007L21.2762,19.3659L21.257,19.3263L21.2423,19.2819L21.2322,19.2327L21.2234,19.1485
L21.2231,19.0514L21.2312,18.9414L21.2479,18.8185L21.2659,18.7015L21.2781,18.6093L21.2846,18.5419
L21.2854,18.4992L21.2808,18.4608L21.2711,18.427L21.2563,18.3977L21.2364,18.373L21.2102,18.3513
L21.1819,18.3365L21.1513,18.3284L21.1185,18.3271L21.0843,18.3334L21.0496,18.3482L21.0144,18.3715
L20.9787,18.4032L20.948,18.437L20.9247,18.4695L20.9088,18.5007L20.9004,18.5305L20.8993,18.5618
L20.9051,18.597L20.918,18.6364L20.938,18.6797L20.7648,18.8216L20.7282,18.7491L20.7049,18.6788
L20.6951,18.6106L20.6985,18.5446L20.7161,18.4791L20.7485,18.4125L20.7957,18.3448L20.8577,18.276
L20.935,18.2063L21.0096,18.1548L21.0814,18.1215L21.1503,18.1064L21.215,18.1067L21.2738,18.1196
L21.3269,18.145L21.3741,18.1831L21.4135,18.2302L21.444,18.2838L21.4657,18.3439L21.4785,18.4105
L21.4807,18.4746L21.4758,18.5613L21.464,18.6707L21.4451,18.8028L21.4346,18.8736L21.4271,18.9346
L21.4226,18.9858L21.4211,19.0272L21.8238,18.6244L21.95,18.7507L21.3,19.4007" style=" fill:#000000; stroke:#000000;" />
<path d="M25.8953,17.2165L25.8953,15.2501L27.2219,15.2501L27.2219,15.4821L26.1555,15.4821
L26.1555,16.0911L27.0784,16.0911L27.0784,16.3232L26.1555,16.3232L26.1555,17.2165L25.8953,17.2165" style=" fill:#000000; stroke:#000000;" />
<path d="M31.2411,18.9781L34.0049,18.5118L34.1687,18.6756L31.4049,19.1419L31.2411,18.9781
M32.1728,18.2613L32.7508,17.6833L32.6572,17.6679L32.5674,17.6434L32.4814,17.61L32.3992,17.5675
L32.5275,17.4392L32.5734,17.4599L32.6253,17.4781L32.6834,17.4938L32.7477,17.507L32.8136,17.5166
L32.8768,17.5214L32.9372,17.5213L32.9949,17.5164L33.1076,17.6291L32.3241,18.4126L32.1728,18.2613
M32.1248,19.8076L32.1596,19.7838L32.1991,19.7646L32.2435,19.7499L32.2928,19.7398L32.377,19.731
L32.4741,19.7306L32.5841,19.7388L32.707,19.7554L32.824,19.7734L32.9162,19.7857L32.9836,19.7922
L33.0263,19.793L33.0647,19.7884L33.0985,19.7786L33.1278,19.7638L33.1525,19.7439L33.1741,19.7178
L33.189,19.6894L33.1971,19.6589L33.1984,19.6261L33.1921,19.5919L33.1773,19.5572L33.154,19.522
L33.1222,19.4862L33.0885,19.4555L33.056,19.4322L33.0248,19.4164L32.9949,19.408L32.9637,19.4068
L32.9284,19.4127L32.8891,19.4256L32.8458,19.4456L32.7039,19.2724L32.7763,19.2357L32.8467,19.2125
L32.9148,19.2026L32.9809,19.2061L33.0464,19.2237L33.113,19.2561L33.1807,19.3032L33.2495,19.3652
L33.3192,19.4426L33.3707,19.5172L33.404,19.5889L33.4191,19.6579L33.4188,19.7225L33.4059,19.7814
L33.3804,19.8344L33.3424,19.8817L33.2953,19.9211L33.2417,19.9516L33.1816,19.9732L33.1149,19.986
L33.0509,19.9882L32.9642,19.9834L32.8547,19.9715L32.7226,19.9526L32.6519,19.9421L32.5909,19.9346
L32.5397,19.9301L32.4983,19.9286L32.901,20.3314L32.7748,20.4576L32.1248,19.8076" style=" fill:#000000; stroke:#000000;" />
<path d="M34.309,24.8898L36.0434,24.8898L36.0434,24.2419L36.2754,24.2419L36.2754,25.8006
L36.0434,25.8006L36.0434,25.15L34.309,25.15L34.309,24.8898" style=" fill:#000000; stroke:#000000;" />
<path d="M22.9249,50.6808L22.9249,47.1635L23.6705,47.1635L23.6705,47.4433L23.263,47.4433
L23.263,50.401L23.6705,50.401L23.6705,50.6808L22.9249,50.6808" style=" fill:#000000; stroke:#000000;" />
<path d="M23.9878,49.9165L23.9878,47.1635L24.3259,47.1635L24.3259,48.7334L25.1259,47.9222
L25.5634,47.9222L24.801,48.6621L25.6404,49.9165L25.2235,49.9165L24.5644,48.8968L24.3259,49.1259
L24.3259,49.9165L23.9878,49.9165" style=" fill:#000000; stroke:#000000;" />
<path d="M26.4329,49.9165L25.7024,47.1635L26.0761,47.1635L26.4949,48.9682L26.5275,49.1097
L26.5578,49.2508L26.5857,49.3914L26.6113,49.5315L26.6585,49.3342L26.6949,49.1837L26.7205,49.0798
L26.7353,49.0226L27.2592,47.1635L27.6986,47.1635L28.093,48.5569L28.162,48.8122L28.2207,49.0597
L28.2691,49.2995L28.3071,49.5315L28.3354,49.3962L28.3676,49.2513L28.4039,49.0967L28.4442,48.9325
L28.8761,47.1635L29.2423,47.1635L28.4874,49.9165L28.1362,49.9165L27.5559,47.8189L27.523,47.7001
L27.4977,47.6067L27.4799,47.5386L27.4695,47.4959L27.4483,47.5872L27.4277,47.6714L27.4079,47.7487
L27.3888,47.8189L26.8047,49.9165L26.4329,49.9165" style=" fill:#000000; stroke:#000000;" />
<path d="M30.1043,50.6808L29.3587,50.6808L29.3587,50.401L29.7662,50.401L29.7662,47.4433
L29.3587,47.4433L29.3587,47.1635L30.1043,47.1635L30.1043,50.6808" style=" fill:#000000; stroke:#000000;" />
</g>
</g>
</g>
</svg>
